<svg id="svg" version="1.1" xmlns="http://www.w3.org/2000/svg" xmlns:xlink="http://www.w3.org/1999/xlink" width="400" height="398.2300884955752" viewBox="0, 0, 400,398.2300884955752"><g id="svgg"><path id="path0" d="M0.000 199.115 L 0.000 398.230 200.000 398.230 L 400.000 398.230 400.000 199.115 L 400.000 0.000 200.000 0.000 L 0.000 0.000 0.000 199.115 M154.793 64.163 C 174.890 67.975,182.636 85.774,175.215 111.083 C 174.695 112.856,174.207 114.522,174.131 114.786 C 174.026 115.146,174.269 115.316,175.113 115.475 C 179.050 116.213,180.173 120.160,177.359 123.370 C 176.953 123.834,176.988 123.906,177.763 124.186 C 179.958 124.980,180.925 125.558,181.987 126.710 C 189.001 134.319,187.073 146.764,178.065 152.030 C 176.988 152.660,176.112 153.257,176.118 153.357 C 176.189 154.405,184.208 159.331,189.381 161.504 C 190.435 161.947,194.617 163.839,198.673 165.710 C 218.499 174.853,221.751 175.864,233.038 176.403 C 236.689 176.578,240.737 176.844,242.035 176.995 C 243.333 177.146,246.453 177.412,248.968 177.586 C 254.399 177.964,262.692 178.809,269.027 179.630 C 283.135 181.460,283.186 181.465,283.186 180.909 C 283.186 179.874,282.154 177.007,281.225 175.462 C 279.782 173.062,279.602 173.025,270.655 173.260 C 263.872 173.439,262.713 173.392,256.342 172.680 C 249.941 171.964,248.178 171.894,233.335 171.763 C 214.871 171.601,216.678 171.904,213.338 168.405 C 210.178 165.095,209.189 164.514,205.394 163.735 C 187.643 160.093,184.659 156.748,189.459 145.870 C 191.221 141.877,192.005 139.384,192.377 136.589 C 192.708 134.101,192.692 133.888,191.864 129.646 L 191.691 128.761 192.154 129.598 C 194.017 132.964,193.377 138.708,190.282 146.396 C 188.512 150.795,188.077 152.458,188.287 154.028 C 188.722 157.267,194.493 160.180,204.464 162.195 C 209.857 163.284,210.474 163.581,213.403 166.505 C 214.711 167.811,216.173 169.178,216.650 169.543 L 217.519 170.206 231.458 170.206 C 245.270 170.206,252.020 170.522,258.260 171.460 C 259.717 171.679,264.284 171.817,270.206 171.822 C 275.479 171.826,280.031 171.945,280.322 172.086 C 280.811 172.325,280.835 172.202,280.653 170.423 C 280.065 164.684,282.472 161.502,291.298 156.351 C 298.273 152.281,299.829 150.600,306.066 140.396 C 309.837 134.227,310.574 133.263,312.283 132.261 C 313.490 131.554,313.559 131.451,313.140 130.988 C 311.877 129.592,313.135 127.434,315.211 127.434 C 316.290 127.434,316.480 127.336,316.639 126.700 C 317.088 124.913,319.205 124.709,320.474 126.331 L 321.175 127.227 322.428 124.944 C 324.992 120.272,327.601 118.774,331.477 119.748 C 335.318 120.713,336.294 123.427,333.999 126.755 C 333.331 127.725,333.236 128.138,333.298 129.823 C 333.337 130.893,333.155 132.914,332.893 134.312 C 332.489 136.467,332.466 137.399,332.744 140.418 C 333.110 144.396,332.991 145.291,331.104 152.802 C 330.554 154.993,329.759 158.311,329.337 160.177 C 328.916 162.043,327.969 165.760,327.234 168.437 C 325.611 174.345,324.908 177.002,324.159 180.056 L 323.588 182.383 324.733 183.362 C 326.757 185.095,327.043 187.070,325.583 189.219 L 324.870 190.268 325.405 191.815 C 326.120 193.887,326.083 195.336,325.253 197.688 C 324.694 199.270,324.587 200.048,324.704 201.680 C 324.914 204.612,323.115 206.392,318.848 207.473 L 317.257 207.877 316.734 209.912 C 314.514 218.566,314.469 219.078,315.781 220.903 C 318.895 225.239,318.250 228.782,314.385 228.567 L 312.574 228.466 312.202 230.383 C 310.821 237.510,310.234 241.561,309.147 251.475 C 308.827 254.395,308.294 259.138,307.963 262.015 C 306.550 274.290,306.159 279.542,305.895 289.823 C 305.474 306.182,304.583 311.057,301.004 316.593 C 295.373 325.303,286.226 329.191,264.454 332.132 C 245.538 334.687,182.453 335.241,162.192 333.031 C 143.769 331.021,131.494 327.692,118.548 321.197 C 112.714 318.270,105.586 313.723,102.655 311.059 C 101.925 310.395,100.730 309.603,100.000 309.298 C 94.635 307.060,88.694 301.327,85.004 294.826 C 72.034 271.980,66.816 251.497,68.131 228.587 L 68.479 222.513 67.174 219.442 C 59.438 201.250,62.653 193.827,84.661 179.069 C 92.240 173.987,92.657 173.618,96.130 168.959 C 97.856 166.643,100.674 163.000,102.393 160.862 L 105.518 156.976 106.154 152.160 C 107.759 139.988,108.194 132.713,107.818 124.346 L 107.605 119.617 104.024 117.525 C 102.054 116.375,99.804 115.070,99.023 114.626 C 94.268 111.919,93.857 108.574,97.821 104.850 C 99.104 103.644,99.410 103.174,99.410 102.409 C 99.410 101.669,99.572 101.399,100.147 101.180 C 100.610 101.004,100.885 100.669,100.885 100.283 C 100.885 99.451,101.367 98.566,102.437 97.436 L 103.328 96.494 102.363 94.991 C 100.160 91.558,100.654 90.883,108.112 87.128 C 114.023 84.153,114.004 84.167,114.610 82.082 C 116.259 76.409,126.455 68.437,132.060 68.437 C 132.317 68.437,133.415 67.984,134.501 67.431 C 140.938 64.150,148.396 62.949,154.793 64.163 M144.186 65.641 C 141.943 66.088,138.053 67.289,138.053 67.536 C 138.053 67.626,140.044 67.654,142.479 67.598 C 158.773 67.227,165.354 71.510,169.191 84.986 C 171.091 91.657,172.672 101.053,173.032 107.813 C 173.306 112.960,173.506 112.926,174.777 107.522 C 178.233 92.832,176.591 81.087,170.113 74.150 C 163.609 67.185,153.348 63.818,144.186 65.641 M139.971 68.930 C 139.159 68.980,137.778 69.101,136.902 69.198 L 135.308 69.375 139.999 71.676 C 157.639 80.326,164.551 91.880,163.119 110.324 C 162.215 121.966,162.317 123.894,163.834 123.894 C 165.027 123.894,165.258 123.642,166.076 121.456 C 167.004 118.976,168.761 116.903,170.680 116.025 L 172.271 115.296 172.271 113.311 C 172.271 107.397,170.408 92.716,168.900 86.751 C 165.162 71.965,158.378 67.785,139.971 68.930 M130.236 70.484 C 126.246 71.608,123.124 73.565,119.714 77.082 C 117.402 79.466,116.736 80.518,115.564 83.628 L 114.897 85.398 109.561 88.053 C 101.708 91.961,101.950 91.699,103.687 94.395 C 104.995 96.425,104.981 96.779,103.540 98.343 C 102.572 99.394,102.360 99.836,102.360 100.807 C 102.360 101.876,102.277 102.008,101.510 102.161 C 100.823 102.299,100.624 102.527,100.468 103.362 C 100.332 104.086,99.861 104.757,98.888 105.613 C 96.231 107.952,95.710 109.923,97.271 111.727 C 98.835 113.533,107.892 118.712,108.780 118.307 C 109.200 118.116,112.142 117.770,115.318 117.540 C 122.791 116.997,124.681 116.482,128.807 113.865 C 131.051 112.442,131.364 112.998,129.640 115.347 C 124.482 122.374,117.776 124.107,109.647 120.514 C 109.141 120.291,109.126 120.618,109.321 127.470 C 109.532 134.895,109.320 138.421,107.982 149.785 C 107.381 154.893,107.301 154.798,109.675 151.830 C 114.460 145.848,120.053 140.421,122.929 138.972 C 127.008 136.915,134.517 137.086,140.560 139.375 C 143.804 140.603,143.582 140.606,143.931 139.336 C 144.102 138.712,144.697 136.761,145.253 135.001 C 146.264 131.802,146.264 131.801,145.778 130.281 C 145.113 128.202,145.146 121.016,145.847 115.088 C 146.499 109.581,146.391 105.960,145.539 104.787 C 143.907 102.540,139.745 101.915,134.985 103.203 C 131.880 104.043,131.764 103.930,132.536 100.807 C 133.536 96.758,133.438 90.234,132.308 85.744 L 131.431 82.255 132.241 79.107 C 133.148 75.584,133.225 74.033,132.611 71.725 C 132.091 69.771,132.327 69.895,130.236 70.484 M137.478 73.525 C 146.866 85.164,151.605 96.437,154.561 114.159 C 155.681 120.880,156.399 124.344,156.742 124.687 C 157.237 125.182,161.342 124.080,161.222 123.485 C 160.791 121.355,160.792 120.148,161.228 115.568 C 163.346 93.297,158.036 82.614,140.286 73.437 C 135.944 71.192,135.604 71.203,137.478 73.525 M134.415 73.850 C 134.562 75.415,134.434 76.273,133.644 79.048 C 133.123 80.876,132.807 82.467,132.941 82.583 C 133.076 82.698,134.447 83.566,135.988 84.511 C 142.064 88.237,142.897 90.138,141.740 97.640 C 141.503 99.181,141.306 100.599,141.303 100.790 C 141.300 100.982,142.003 101.343,142.865 101.594 C 147.511 102.944,148.270 105.135,147.339 114.516 C 146.775 120.196,146.562 128.667,146.973 129.077 C 147.092 129.196,147.467 128.940,147.807 128.509 C 148.518 127.604,150.697 126.518,153.245 125.797 C 154.218 125.522,155.055 125.261,155.105 125.218 C 155.155 125.174,154.975 124.295,154.705 123.263 C 154.185 121.271,153.698 118.577,152.816 112.832 C 150.537 97.980,145.213 85.656,136.025 73.968 C 134.124 71.549,134.201 71.555,134.415 73.850 M135.003 86.624 C 136.124 88.370,138.986 94.502,139.326 95.887 C 139.428 96.302,139.739 97.165,140.018 97.805 L 140.525 98.968 140.742 97.640 C 141.784 91.269,140.618 88.543,135.716 85.887 L 133.895 84.900 135.003 86.624 M133.334 86.285 C 133.483 86.676,133.824 88.493,134.092 90.324 C 134.588 93.704,134.553 95.160,133.867 99.777 C 133.455 102.547,133.324 102.416,135.841 101.755 C 136.976 101.458,138.337 101.206,138.864 101.197 C 140.050 101.176,140.064 100.954,139.098 97.623 C 138.058 94.036,136.430 90.130,135.019 87.839 C 133.759 85.794,132.817 84.925,133.334 86.285 M126.702 116.390 C 125.309 117.442,121.624 118.257,116.036 118.747 C 109.752 119.298,109.364 119.433,111.561 120.299 C 117.919 122.809,123.083 121.830,126.810 117.411 C 128.002 115.996,127.944 115.450,126.702 116.390 M172.388 116.852 C 170.293 117.328,166.960 121.226,166.962 123.199 C 166.962 123.338,168.945 123.476,171.368 123.506 L 175.774 123.560 176.697 122.123 C 178.941 118.626,176.691 115.874,172.388 116.852 M328.024 121.273 C 326.430 121.745,323.009 125.802,323.009 127.219 C 323.009 128.058,325.351 126.272,325.428 125.374 C 325.594 123.443,328.011 123.506,330.935 125.518 L 332.427 126.543 333.208 125.211 C 334.808 122.480,331.761 120.165,328.024 121.273 M166.536 125.047 C 166.298 125.432,166.188 129.998,166.411 130.224 C 166.858 130.677,174.041 125.802,174.041 125.046 C 174.041 124.697,166.752 124.697,166.536 125.047 M326.445 124.981 C 325.830 125.596,326.316 126.513,327.569 127.102 C 328.293 127.442,329.178 128.117,329.536 128.601 L 330.186 129.481 330.874 128.549 L 331.561 127.617 330.899 126.907 C 329.827 125.758,326.923 124.502,326.445 124.981 M163.470 125.333 C 163.151 125.535,163.201 125.875,163.736 127.117 C 164.498 128.889,164.885 128.674,164.892 126.475 C 164.897 125.029,164.479 124.693,163.470 125.333 M175.055 125.985 C 174.021 127.071,170.114 129.700,167.847 130.835 C 166.954 131.281,165.714 132.082,165.091 132.615 C 163.741 133.769,160.537 135.486,158.744 136.016 C 157.113 136.498,156.105 137.998,155.657 140.609 C 155.273 142.852,155.144 142.710,158.702 143.941 C 162.736 145.337,168.294 148.047,171.702 150.280 C 175.101 152.507,175.130 152.512,177.286 151.279 C 188.194 145.037,187.269 127.026,175.940 125.077 C 175.930 125.075,175.532 125.484,175.055 125.985 M158.873 125.927 C 158.236 126.025,157.665 126.260,157.604 126.447 C 157.274 127.448,161.397 130.383,163.133 130.383 L 163.765 130.383 163.189 129.425 C 162.873 128.897,162.379 127.836,162.093 127.065 C 161.527 125.544,161.471 125.524,158.873 125.927 M152.437 127.573 C 145.403 130.077,147.480 135.437,155.330 135.040 C 158.459 134.882,164.543 131.563,161.704 131.563 C 160.376 131.563,156.603 128.721,156.186 127.406 C 155.945 126.648,154.905 126.695,152.437 127.573 M318.168 127.096 C 317.875 127.570,318.331 128.354,318.842 128.255 C 319.471 128.134,319.463 127.026,318.833 126.905 C 318.564 126.853,318.265 126.939,318.168 127.096 M324.263 127.499 C 323.468 127.882,323.382 128.614,324.131 128.614 C 324.869 128.614,327.322 130.214,327.718 130.954 C 327.898 131.289,328.174 131.563,328.332 131.563 C 328.490 131.563,327.927 130.568,327.081 129.351 C 325.483 127.052,325.358 126.970,324.263 127.499 M327.023 127.802 C 328.329 130.048,329.499 131.073,329.499 129.971 C 329.499 129.325,327.904 127.456,327.342 127.444 C 326.996 127.437,326.884 127.563,327.023 127.802 M314.262 129.360 C 314.052 129.908,314.644 130.427,315.339 130.305 C 315.583 130.263,315.782 129.964,315.782 129.642 C 315.782 128.884,314.534 128.653,314.262 129.360 M331.342 130.205 C 330.977 130.672,330.678 131.163,330.678 131.297 C 330.678 131.431,330.094 132.142,329.380 132.877 C 327.587 134.722,325.116 138.550,323.569 141.879 C 317.464 155.021,313.553 159.994,302.212 169.032 C 293.639 175.864,293.267 176.298,293.003 179.786 C 292.813 182.305,292.563 182.146,297.198 182.456 C 299.994 182.643,300.273 182.607,302.559 181.768 C 308.690 179.518,317.161 179.312,321.041 181.319 C 322.071 181.851,322.249 181.671,322.687 179.646 C 322.846 178.916,323.579 176.128,324.317 173.451 C 326.095 167.005,327.884 160.072,329.944 151.644 L 331.634 144.733 331.424 140.672 C 331.257 137.428,331.314 136.115,331.705 134.141 C 331.975 132.783,332.153 131.151,332.101 130.514 L 332.006 129.357 331.342 130.205 M321.120 130.179 C 320.230 130.830,320.631 131.864,321.976 132.384 C 323.796 133.088,324.789 133.900,324.976 134.838 C 325.182 135.867,325.264 135.883,325.975 135.029 C 326.738 134.115,326.686 133.773,325.689 133.141 C 324.809 132.583,323.009 130.505,323.009 130.048 C 323.009 129.657,321.711 129.746,321.120 130.179 M324.189 130.360 C 324.189 130.676,326.538 132.743,326.897 132.743 C 327.470 132.743,327.059 131.849,326.096 131.004 C 325.080 130.112,324.189 129.812,324.189 130.360 M317.404 131.482 C 313.558 132.727,311.138 134.827,308.555 139.159 C 301.512 150.967,299.545 153.121,291.782 157.522 C 283.093 162.448,280.997 165.160,281.523 170.795 C 281.745 173.167,283.715 177.389,285.507 179.333 C 287.064 181.022,287.143 180.856,286.057 178.171 C 283.175 171.044,284.906 168.050,296.322 160.416 C 306.078 153.893,308.657 151.487,312.364 145.451 C 315.634 140.126,316.765 137.538,316.594 135.772 C 316.414 133.906,316.954 132.901,318.480 132.264 C 320.382 131.469,319.477 130.811,317.404 131.482 M318.510 133.947 C 317.606 134.474,317.825 135.988,318.805 135.989 C 320.055 135.991,321.534 137.022,321.534 137.891 C 321.534 138.969,320.568 139.390,319.102 138.951 C 318.461 138.759,317.899 138.645,317.852 138.696 C 317.806 138.748,317.270 139.786,316.661 141.003 C 311.771 150.775,308.655 154.065,296.870 161.901 C 286.719 168.651,285.234 170.653,286.553 175.804 C 287.960 181.295,291.113 184.211,291.585 180.457 C 292.186 175.685,292.243 175.615,301.327 168.502 C 313.461 159.001,315.785 156.028,322.416 141.511 C 323.437 139.275,324.387 137.376,324.526 137.290 C 325.042 136.971,324.755 136.664,324.064 136.797 C 323.119 136.977,321.882 136.212,320.814 134.786 C 319.926 133.602,319.420 133.417,318.510 133.947 M146.894 134.683 C 146.224 136.446,145.105 140.720,145.252 140.957 C 145.340 141.099,146.444 141.307,147.706 141.419 C 149.712 141.597,152.761 142.164,154.351 142.654 C 154.745 142.775,154.867 142.642,154.867 142.096 C 154.867 141.702,155.199 140.334,155.605 139.056 C 156.010 137.778,156.342 136.698,156.342 136.655 C 156.342 136.613,155.503 136.578,154.477 136.578 C 152.226 136.578,150.085 135.919,148.616 134.773 C 147.289 133.738,147.254 133.736,146.894 134.683 M322.840 134.962 C 323.152 135.199,323.480 135.320,323.569 135.232 C 323.754 135.046,323.005 134.520,322.566 134.527 C 322.404 134.530,322.527 134.726,322.840 134.962 M126.277 138.806 C 125.113 139.058,123.749 139.634,122.737 140.301 C 118.188 143.298,107.211 156.117,106.385 159.398 C 105.821 161.636,105.723 161.616,107.820 159.692 C 125.178 143.764,130.406 140.458,138.330 140.392 L 140.855 140.371 139.528 139.778 C 136.457 138.406,130.229 137.949,126.277 138.806 M133.588 142.010 C 128.105 143.645,121.602 148.488,110.029 159.556 C 95.480 173.470,94.437 174.346,84.167 181.266 C 64.007 194.850,61.049 202.461,69.094 220.055 L 69.968 221.968 69.669 228.757 C 68.770 249.117,71.526 263.413,79.790 281.268 C 86.941 296.719,89.402 300.450,95.651 305.320 C 99.317 308.177,101.153 309.041,102.259 308.429 C 106.210 306.243,114.708 300.750,116.445 299.260 C 118.106 297.835,118.218 298.115,113.969 293.068 C 107.972 285.945,105.094 281.659,103.270 277.135 C 102.878 276.164,102.173 274.802,101.703 274.110 C 99.937 271.505,98.681 265.699,98.331 258.524 L 98.143 254.658 93.835 254.477 C 82.582 254.004,68.066 250.184,76.552 249.929 C 83.939 249.707,90.764 248.965,96.755 247.733 C 98.864 247.299,98.730 247.494,99.242 244.096 C 101.440 229.503,107.598 212.534,116.048 197.788 C 117.641 195.007,117.670 194.817,116.548 194.593 C 113.273 193.938,109.279 191.065,107.987 188.435 C 104.939 182.229,106.597 175.829,113.548 166.962 C 114.629 165.583,117.688 161.401,120.346 157.670 C 128.817 145.776,130.726 143.900,136.431 141.867 C 138.762 141.036,136.467 141.151,133.588 142.010 M138.474 142.930 C 132.840 144.168,130.217 146.441,123.511 155.900 C 118.982 162.288,116.227 166.059,113.382 169.764 C 105.174 180.454,106.520 189.740,116.760 193.062 C 117.622 193.342,118.359 193.524,118.397 193.467 C 118.978 192.607,126.254 180.283,126.254 180.158 C 126.254 180.111,124.477 180.124,122.305 180.187 C 119.797 180.260,118.155 180.186,117.806 179.983 C 117.382 179.737,117.856 179.662,119.887 179.655 C 122.555 179.646,126.000 179.190,126.888 178.730 C 128.121 178.089,134.448 166.305,137.244 159.440 C 139.063 154.973,142.773 143.825,142.773 142.825 C 142.773 142.372,140.799 142.420,138.474 142.930 M144.621 142.841 C 144.457 143.047,143.631 145.472,142.785 148.230 C 139.439 159.139,136.245 166.536,131.347 174.724 C 130.297 176.478,129.515 177.991,129.610 178.086 C 129.873 178.349,135.770 176.292,142.169 173.705 C 148.877 170.993,149.629 170.819,151.553 171.533 C 154.996 172.812,164.639 176.675,169.646 178.782 C 176.332 181.595,183.749 184.524,190.118 186.866 C 193.223 188.008,202.693 191.755,206.932 193.518 C 212.747 195.937,218.085 197.647,218.506 197.227 C 219.212 196.520,211.554 190.652,208.260 189.375 C 203.111 187.380,203.753 186.581,210.318 186.815 C 218.664 187.113,224.240 189.074,229.200 193.454 C 231.603 195.576,231.453 195.802,226.551 197.452 C 225.387 197.844,224.545 198.230,224.681 198.310 C 226.254 199.239,237.322 199.318,251.770 198.504 C 255.177 198.312,262.973 198.138,269.093 198.118 L 280.222 198.083 281.382 195.280 C 283.437 190.319,283.628 189.525,283.628 185.988 L 283.628 182.743 280.678 182.401 C 279.056 182.213,275.870 181.777,273.599 181.433 C 256.757 178.879,243.016 177.519,230.088 177.125 C 223.179 176.915,222.769 176.832,215.487 174.155 C 208.918 171.741,206.432 170.702,196.903 166.381 C 192.522 164.394,188.309 162.520,187.539 162.216 C 183.436 160.592,180.680 158.986,177.020 156.083 L 174.246 153.884 171.120 153.948 C 164.329 154.087,157.811 150.691,155.563 145.843 C 154.755 144.101,154.424 143.953,149.705 143.226 C 148.083 142.976,146.342 142.703,145.837 142.619 C 145.280 142.527,144.802 142.614,144.621 142.841 M155.752 144.862 C 155.752 146.500,159.557 149.974,163.036 151.512 C 165.985 152.817,172.566 153.740,172.566 152.850 C 172.566 151.951,163.848 147.392,158.288 145.385 C 155.606 144.416,155.752 144.446,155.752 144.862 M101.382 164.641 C 99.094 167.590,99.083 168.033,101.360 165.487 C 102.911 163.752,103.905 162.303,103.784 161.952 C 103.731 161.797,102.650 163.007,101.382 164.641 M143.510 174.624 C 137.394 177.010,133.796 178.238,130.716 178.992 L 128.541 179.524 126.406 183.051 C 122.399 189.670,120.086 193.787,120.298 193.918 C 120.699 194.166,125.116 194.690,126.791 194.689 C 133.518 194.684,139.645 192.476,149.981 186.331 C 152.891 184.601,155.480 183.169,155.734 183.148 C 155.987 183.127,156.584 183.087,157.060 183.060 C 157.536 183.032,157.979 182.847,158.045 182.649 C 158.610 180.954,167.377 180.921,173.154 182.593 C 178.274 184.074,172.339 181.413,154.587 174.268 C 149.453 172.202,149.742 172.192,143.510 174.624 M307.817 181.727 C 307.168 181.887,305.135 182.501,303.299 183.092 L 299.961 184.167 296.546 183.832 C 292.338 183.420,292.625 183.190,292.625 186.966 C 292.625 189.706,292.126 195.274,291.566 198.777 C 291.390 199.872,291.398 199.883,293.105 200.755 C 295.053 201.751,295.974 202.838,299.099 207.825 C 300.220 209.613,302.347 212.600,303.825 214.462 C 305.304 216.323,306.929 218.577,307.436 219.469 C 308.630 221.569,311.229 225.369,311.471 225.369 C 312.010 225.369,312.978 219.437,312.568 218.645 C 311.874 217.302,310.620 212.321,310.620 210.906 C 310.619 208.802,312.056 207.446,314.839 206.923 C 315.702 206.762,315.973 206.553,316.116 205.940 C 316.215 205.512,317.523 200.275,319.021 194.301 C 322.141 181.864,322.171 183.096,318.732 182.158 C 316.619 181.582,309.539 181.302,307.817 181.727 M159.882 182.627 C 158.955 183.043,158.889 183.023,164.012 183.894 C 166.364 184.294,170.479 185.022,173.156 185.512 C 178.510 186.491,185.618 187.439,186.187 187.249 C 186.627 187.103,180.548 184.874,177.876 184.202 C 171.962 182.714,161.690 181.815,159.882 182.627 M285.251 185.758 C 285.251 189.130,284.841 190.928,283.135 195.038 C 281.806 198.241,281.841 198.511,283.586 198.521 C 284.050 198.523,285.614 198.742,287.062 199.007 C 288.510 199.272,289.761 199.423,289.840 199.343 C 290.294 198.890,291.445 188.538,291.445 184.919 C 291.445 183.270,291.560 183.327,287.684 183.034 L 285.251 182.850 285.251 185.758 M153.830 185.568 C 152.697 186.229,151.096 187.216,150.273 187.762 C 139.744 194.737,127.543 197.790,119.718 195.407 C 119.366 195.300,118.985 195.693,118.352 196.818 C 110.403 210.945,104.697 224.967,102.171 236.578 C 101.544 239.462,100.306 246.717,100.422 246.833 C 100.550 246.961,111.246 244.286,115.339 243.101 C 123.526 240.732,127.072 240.123,128.638 240.820 C 129.024 240.992,129.170 240.655,129.484 238.877 C 130.001 235.939,130.452 234.646,132.392 230.531 C 138.169 218.277,142.933 209.237,147.005 202.802 C 151.953 194.984,156.932 185.910,156.932 184.714 C 156.932 184.074,155.907 184.356,153.830 185.568 M158.213 184.882 C 157.027 188.369,152.569 196.679,147.865 204.172 C 146.883 205.737,145.512 208.060,144.818 209.334 C 144.125 210.609,142.873 212.913,142.036 214.454 C 141.199 215.996,139.477 219.381,138.209 221.976 C 131.903 234.886,131.330 236.325,130.700 240.830 L 130.414 242.870 132.783 247.553 C 135.526 252.976,135.558 253.006,140.560 254.880 C 142.345 255.548,144.409 256.423,145.148 256.824 L 146.490 257.552 147.950 256.916 C 156.579 253.161,171.251 254.791,180.973 260.585 C 186.106 263.643,191.989 269.754,194.295 274.423 C 195.148 276.150,199.039 276.382,213.569 275.572 C 220.897 275.164,244.745 275.503,251.770 276.116 C 256.738 276.550,256.398 276.630,255.866 275.147 C 255.193 273.273,254.806 266.804,255.139 262.979 C 255.707 256.451,257.697 250.027,263.136 237.168 C 264.297 234.424,263.834 235.487,270.073 221.239 C 272.950 214.668,276.285 207.050,277.482 204.309 C 278.680 201.568,279.579 199.245,279.481 199.147 C 279.037 198.703,263.222 198.767,258.000 199.235 C 237.643 201.056,227.096 201.055,222.589 199.232 C 221.413 198.756,220.257 198.525,219.049 198.524 C 216.507 198.523,212.856 197.457,205.900 194.683 C 191.259 188.846,192.314 189.186,188.201 188.987 C 186.173 188.889,183.053 188.544,181.268 188.219 C 179.484 187.894,176.962 187.432,175.664 187.192 C 166.824 185.560,159.988 184.431,158.619 184.375 C 158.492 184.370,158.310 184.598,158.213 184.882 M323.009 184.472 C 323.009 184.531,321.803 189.387,320.330 195.264 C 318.856 201.141,317.707 206.006,317.777 206.076 C 318.064 206.363,321.691 204.807,322.505 204.048 C 323.351 203.259,323.377 203.159,323.194 201.378 C 323.037 199.844,323.131 199.153,323.744 197.352 C 324.639 194.722,324.650 194.281,323.885 192.010 C 323.343 190.400,323.328 190.159,323.727 189.438 C 324.988 187.161,325.125 186.677,324.758 185.791 C 324.398 184.922,323.009 183.875,323.009 184.472 M209.749 188.087 C 209.757 188.230,210.559 188.725,211.531 189.185 C 212.684 189.732,214.321 190.979,216.242 192.775 C 221.510 197.700,221.600 197.731,226.401 196.289 C 229.806 195.267,229.799 195.276,228.174 193.768 C 225.179 190.989,222.632 189.656,218.693 188.804 C 215.742 188.167,209.727 187.684,209.749 188.087 M279.224 204.039 C 277.294 208.441,274.745 214.154,273.393 217.109 C 266.696 231.751,258.897 250.374,257.682 254.628 C 255.671 261.667,255.195 270.269,256.583 274.503 L 257.266 276.587 258.931 277.100 C 261.098 277.767,262.861 279.240,264.175 281.482 C 269.958 291.350,263.407 288.730,257.080 278.646 C 256.634 277.935,253.434 277.597,243.658 277.226 C 237.367 276.987,195.575 276.673,195.575 276.865 C 195.575 276.877,195.780 277.487,196.030 278.221 L 196.485 279.557 199.945 279.743 C 205.946 280.065,228.350 283.176,245.723 286.099 C 249.535 286.740,255.689 287.617,259.397 288.047 C 263.105 288.477,266.466 288.953,266.865 289.105 C 268.200 289.612,268.207 289.589,267.993 285.324 C 267.389 273.240,270.202 261.195,281.861 225.959 C 288.351 206.344,289.871 201.282,289.413 200.808 C 289.158 200.543,285.559 199.844,283.038 199.569 L 281.268 199.376 279.224 204.039 M291.055 201.401 C 290.983 201.523,290.832 202.087,290.718 202.655 C 290.154 205.475,288.010 212.388,283.442 226.106 C 275.610 249.630,272.803 259.216,270.832 269.174 C 269.631 275.239,269.477 276.844,269.473 283.353 L 269.469 289.862 271.126 291.694 C 273.839 294.691,276.008 301.147,276.320 307.153 C 276.532 311.233,276.051 311.247,273.678 307.227 C 271.426 303.413,270.263 300.153,269.046 294.248 L 268.255 290.413 266.797 289.927 C 265.995 289.660,263.414 289.290,261.062 289.106 C 255.662 288.683,254.003 288.471,243.510 286.866 C 220.760 283.387,203.189 281.119,199.010 281.122 L 197.198 281.124 196.755 282.524 C 196.296 283.976,195.049 284.945,188.361 289.043 C 184.878 291.178,181.899 294.305,179.665 298.173 C 178.980 299.359,178.274 300.280,178.096 300.221 C 176.256 299.607,177.991 293.016,181.197 288.439 C 184.172 284.192,188.017 281.451,192.673 280.258 C 195.045 279.650,195.055 279.631,194.160 277.629 C 193.548 276.259,185.885 268.794,183.262 267.014 C 173.273 260.230,159.174 259.554,149.230 265.381 L 147.546 266.368 147.191 268.509 C 144.344 285.640,125.055 304.675,105.826 309.329 C 102.860 310.047,102.825 309.971,107.698 313.342 C 131.388 329.727,156.732 334.081,220.796 332.769 C 276.997 331.619,293.570 327.752,300.739 314.116 C 301.784 312.130,302.142 310.842,301.326 312.007 C 299.986 313.920,294.923 316.362,289.528 317.698 C 280.136 320.023,273.179 319.776,279.794 317.352 C 289.187 313.910,295.723 309.006,301.957 300.723 C 303.608 298.530,303.933 298.263,304.277 298.820 C 304.841 299.732,304.961 298.024,305.097 287.094 C 305.198 279.043,305.405 273.613,305.724 270.649 C 305.986 268.215,306.470 263.569,306.800 260.324 C 308.555 243.061,309.207 237.948,310.515 231.186 L 311.244 227.416 310.058 226.068 C 309.405 225.327,308.243 223.639,307.476 222.316 C 305.893 219.590,305.516 219.049,302.195 214.749 C 300.879 213.046,299.293 210.789,298.670 209.735 C 295.127 203.732,291.816 200.109,291.055 201.401 M313.344 209.043 C 311.882 209.763,311.785 210.882,312.854 214.676 C 313.276 216.172,313.861 216.767,313.868 215.708 C 313.870 215.424,314.202 213.865,314.605 212.243 C 315.621 208.161,315.542 207.959,313.344 209.043 M314.007 221.903 C 313.690 222.773,313.036 226.402,313.160 226.602 C 314.022 227.996,316.357 226.907,316.090 225.235 C 315.794 223.389,314.323 221.034,314.007 221.903 M124.336 242.313 C 123.363 242.515,120.177 243.309,117.257 244.077 C 108.862 246.287,108.032 246.494,104.130 247.355 C 99.886 248.291,100.010 248.187,100.005 250.829 L 100.000 252.839 101.401 252.648 C 108.240 251.720,120.405 249.044,125.221 247.407 C 127.541 246.619,128.614 245.481,128.614 243.807 C 128.614 241.980,127.618 241.632,124.336 242.313 M129.377 246.443 C 129.094 247.122,128.552 247.662,127.742 248.076 C 124.864 249.544,109.938 253.000,102.802 253.850 C 101.829 253.966,100.713 254.181,100.324 254.327 L 99.615 254.592 99.797 258.343 C 100.118 264.935,100.609 267.558,101.399 266.902 C 101.739 266.620,103.998 266.468,110.001 266.326 C 123.824 265.997,129.657 264.442,134.812 259.711 C 139.460 255.445,137.794 260.445,132.532 266.550 C 129.675 269.866,125.130 272.700,120.491 274.058 C 115.087 275.641,107.097 276.556,104.646 275.872 C 103.153 275.456,103.186 275.705,105.130 279.582 C 107.078 283.466,109.199 286.368,114.502 292.407 C 119.249 297.814,119.359 298.103,117.330 299.860 C 116.065 300.957,109.248 305.547,106.129 307.403 C 103.991 308.675,103.989 308.907,106.121 308.354 C 120.532 304.619,134.950 292.758,142.014 278.825 C 143.994 274.920,146.084 268.700,145.584 268.200 C 145.035 267.650,139.798 274.275,138.749 276.845 C 137.853 279.044,136.703 278.697,136.785 276.254 C 137.006 269.585,140.070 262.515,144.119 259.330 C 145.301 258.400,144.933 258.123,140.265 256.428 C 134.915 254.485,134.039 253.706,131.633 248.746 C 129.799 244.964,129.936 245.105,129.377 246.443 M94.100 249.137 C 92.057 249.460,79.813 250.737,78.756 250.737 C 78.597 250.737,78.466 250.845,78.466 250.976 C 78.466 251.639,89.616 253.091,94.732 253.095 C 98.660 253.098,98.525 253.193,98.525 250.418 L 98.525 248.673 97.566 248.706 C 97.039 248.725,95.479 248.919,94.100 249.137 M154.572 256.527 C 152.594 256.911,150.279 257.576,148.994 258.129 L 147.569 258.742 147.717 261.451 C 147.798 262.940,147.892 264.194,147.927 264.236 C 147.961 264.278,149.123 263.781,150.508 263.132 C 155.280 260.895,158.041 260.340,164.307 260.358 C 175.023 260.388,180.991 262.778,188.422 270.017 C 191.334 272.854,191.778 273.057,190.116 270.794 C 186.307 265.605,178.803 260.392,172.336 258.442 C 166.999 256.833,157.992 255.862,154.572 256.527 M143.945 261.588 C 141.860 263.732,140.436 266.449,139.247 270.549 C 138.510 273.094,138.319 274.277,138.735 273.722 C 138.786 273.654,139.451 272.710,140.213 271.625 C 140.975 270.539,142.659 268.681,143.955 267.495 L 146.312 265.339 146.313 262.776 C 146.313 259.512,146.078 259.395,143.945 261.588 M132.448 262.964 C 126.747 266.211,121.180 267.257,109.587 267.257 C 100.696 267.257,101.112 267.074,101.903 270.629 C 102.267 272.264,102.591 272.973,103.275 273.627 L 104.170 274.484 108.501 274.470 C 119.573 274.433,127.911 270.715,133.462 263.340 C 134.547 261.898,134.410 261.847,132.448 262.964 M258.731 279.130 C 259.616 280.837,263.765 285.254,263.953 284.691 C 264.256 283.782,261.179 279.732,259.543 278.886 C 258.446 278.318,258.328 278.354,258.731 279.130 M192.980 281.732 C 187.518 283.126,183.096 287.055,180.516 292.806 C 180.038 293.873,179.646 294.806,179.646 294.881 C 179.646 294.955,180.297 294.234,181.092 293.278 C 181.888 292.322,183.249 290.946,184.116 290.220 C 185.691 288.902,186.568 288.310,191.616 285.162 C 196.210 282.297,196.825 280.750,192.980 281.732 M269.912 292.201 C 269.913 294.525,272.122 301.770,273.924 305.362 C 275.612 308.727,275.871 308.247,275.060 303.250 C 274.218 298.056,272.624 293.934,270.773 292.160 L 269.912 291.335 269.912 292.201 M301.475 303.575 C 297.007 309.274,290.166 314.483,283.676 317.128 C 281.337 318.081,281.960 318.159,285.909 317.408 C 298.148 315.083,303.142 311.379,303.479 304.380 C 303.645 300.932,303.570 300.902,301.475 303.575 " stroke="none" fill="#fdf3dd" fill-rule="evenodd"></path><path id="path1" d="M143.805 64.166 C 141.263 64.640,137.131 66.090,134.501 67.431 C 133.415 67.984,132.317 68.437,132.060 68.437 C 126.455 68.437,116.259 76.409,114.610 82.082 C 114.004 84.167,114.023 84.153,108.112 87.128 C 100.654 90.883,100.160 91.558,102.363 94.991 L 103.328 96.494 102.437 97.436 C 101.367 98.566,100.885 99.451,100.885 100.283 C 100.885 100.669,100.610 101.004,100.147 101.180 C 99.572 101.399,99.410 101.669,99.410 102.409 C 99.410 103.174,99.104 103.644,97.821 104.850 C 93.857 108.574,94.268 111.919,99.023 114.626 C 99.804 115.070,102.054 116.375,104.024 117.525 L 107.605 119.617 107.818 124.346 C 108.194 132.713,107.759 139.988,106.154 152.160 L 105.518 156.976 102.393 160.862 C 100.674 163.000,97.856 166.643,96.130 168.959 C 92.657 173.618,92.240 173.987,84.661 179.069 C 62.653 193.827,59.438 201.250,67.174 219.442 L 68.479 222.513 68.131 228.587 C 66.816 251.497,72.034 271.980,85.004 294.826 C 88.694 301.327,94.635 307.060,100.000 309.298 C 100.730 309.603,101.925 310.395,102.655 311.059 C 105.586 313.723,112.714 318.270,118.548 321.197 C 131.494 327.692,143.769 331.021,162.192 333.031 C 182.453 335.241,245.538 334.687,264.454 332.132 C 286.226 329.191,295.373 325.303,301.004 316.593 C 304.583 311.057,305.474 306.182,305.895 289.823 C 306.159 279.542,306.550 274.290,307.963 262.015 C 308.294 259.138,308.827 254.395,309.147 251.475 C 310.234 241.561,310.821 237.510,312.202 230.383 L 312.574 228.466 314.385 228.567 C 318.250 228.782,318.895 225.239,315.781 220.903 C 314.469 219.078,314.514 218.566,316.734 209.912 L 317.257 207.877 318.848 207.473 C 323.115 206.392,324.914 204.612,324.704 201.680 C 324.587 200.048,324.694 199.270,325.253 197.688 C 326.083 195.336,326.120 193.887,325.405 191.815 L 324.870 190.268 325.583 189.219 C 327.043 187.070,326.757 185.095,324.733 183.362 L 323.588 182.383 324.159 180.056 C 324.908 177.002,325.611 174.345,327.234 168.437 C 327.969 165.760,328.916 162.043,329.337 160.177 C 329.759 158.311,330.554 154.993,331.104 152.802 C 332.991 145.291,333.110 144.396,332.744 140.418 C 332.466 137.399,332.489 136.467,332.893 134.312 C 333.155 132.914,333.337 130.893,333.298 129.823 C 333.236 128.138,333.331 127.725,333.999 126.755 C 336.294 123.427,335.318 120.713,331.477 119.748 C 327.601 118.774,324.992 120.272,322.428 124.944 L 321.175 127.227 320.474 126.331 C 319.205 124.709,317.088 124.913,316.639 126.700 C 316.480 127.336,316.290 127.434,315.211 127.434 C 313.135 127.434,311.877 129.592,313.140 130.988 C 313.559 131.451,313.490 131.554,312.283 132.261 C 310.574 133.263,309.837 134.227,306.066 140.396 C 299.829 150.600,298.273 152.281,291.298 156.351 C 282.472 161.502,280.065 164.684,280.653 170.423 C 280.835 172.202,280.811 172.325,280.322 172.086 C 280.031 171.945,275.479 171.826,270.206 171.822 C 264.284 171.817,259.717 171.679,258.260 171.460 C 252.020 170.522,245.270 170.206,231.458 170.206 L 217.519 170.206 216.650 169.543 C 216.173 169.178,214.711 167.811,213.403 166.505 C 210.474 163.581,209.857 163.284,204.464 162.195 C 194.493 160.180,188.722 157.267,188.287 154.028 C 188.077 152.458,188.512 150.795,190.282 146.396 C 193.377 138.708,194.017 132.964,192.154 129.598 L 191.691 128.761 191.864 129.646 C 192.692 133.888,192.708 134.101,192.377 136.589 C 192.005 139.384,191.221 141.877,189.459 145.870 C 184.659 156.748,187.643 160.093,205.394 163.735 C 209.189 164.514,210.178 165.095,213.338 168.405 C 216.678 171.904,214.871 171.601,233.335 171.763 C 248.178 171.894,249.941 171.964,256.342 172.680 C 262.713 173.392,263.872 173.439,270.655 173.260 C 279.602 173.025,279.782 173.062,281.225 175.462 C 282.154 177.007,283.186 179.874,283.186 180.909 C 283.186 181.465,283.135 181.460,269.027 179.630 C 262.692 178.809,254.399 177.964,248.968 177.586 C 246.453 177.412,243.333 177.146,242.035 176.995 C 240.737 176.844,236.689 176.578,233.038 176.403 C 221.751 175.864,218.499 174.853,198.673 165.710 C 194.617 163.839,190.435 161.947,189.381 161.504 C 184.208 159.331,176.189 154.405,176.118 153.357 C 176.112 153.257,176.988 152.660,178.065 152.030 C 187.073 146.764,189.001 134.319,181.987 126.710 C 180.925 125.558,179.958 124.980,177.763 124.186 C 176.988 123.906,176.953 123.834,177.359 123.370 C 180.173 120.160,179.050 116.213,175.113 115.475 C 174.269 115.316,174.026 115.146,174.131 114.786 C 174.207 114.522,174.695 112.856,175.215 111.083 C 179.012 98.132,178.892 86.435,174.878 78.319 C 169.778 68.009,156.244 61.845,143.805 64.166 M154.572 65.645 C 172.892 69.392,180.189 84.517,174.777 107.522 C 173.506 112.926,173.306 112.960,173.032 107.813 C 172.672 101.053,171.091 91.657,169.191 84.986 C 165.354 71.510,158.773 67.227,142.479 67.598 C 137.451 67.713,137.243 67.634,140.130 66.704 C 144.867 65.178,150.332 64.777,154.572 65.645 M150.190 69.037 C 162.759 70.295,167.384 76.025,170.353 94.015 C 171.141 98.788,172.271 110.160,172.271 113.311 L 172.271 115.296 170.680 116.025 C 168.761 116.903,167.004 118.976,166.076 121.456 C 165.258 123.642,165.027 123.894,163.834 123.894 C 162.317 123.894,162.215 121.966,163.119 110.324 C 164.551 91.880,157.639 80.326,139.999 71.676 L 135.308 69.375 136.902 69.198 C 141.226 68.718,146.376 68.656,150.190 69.037 M132.611 71.725 C 133.225 74.033,133.148 75.584,132.241 79.107 L 131.431 82.255 132.308 85.744 C 133.438 90.234,133.536 96.758,132.536 100.807 C 131.764 103.930,131.880 104.043,134.985 103.203 C 139.745 101.915,143.907 102.540,145.539 104.787 C 146.391 105.960,146.499 109.581,145.847 115.088 C 145.146 121.016,145.113 128.202,145.778 130.281 C 146.264 131.801,146.264 131.802,145.253 135.001 C 144.697 136.761,144.102 138.712,143.931 139.336 C 143.582 140.606,143.804 140.603,140.560 139.375 C 134.517 137.086,127.008 136.915,122.929 138.972 C 120.053 140.421,114.460 145.848,109.675 151.830 C 107.301 154.798,107.381 154.893,107.982 149.785 C 109.320 138.421,109.532 134.895,109.321 127.470 C 109.126 120.618,109.141 120.291,109.647 120.514 C 117.776 124.107,124.482 122.374,129.640 115.347 C 131.364 112.998,131.051 112.442,128.807 113.865 C 124.681 116.482,122.791 116.997,115.318 117.540 C 112.142 117.770,109.200 118.116,108.780 118.307 C 107.892 118.712,98.835 113.533,97.271 111.727 C 95.710 109.923,96.231 107.952,98.888 105.613 C 99.861 104.757,100.332 104.086,100.468 103.362 C 100.624 102.527,100.823 102.299,101.510 102.161 C 102.277 102.008,102.360 101.876,102.360 100.807 C 102.360 99.836,102.572 99.394,103.540 98.343 C 104.981 96.779,104.995 96.425,103.687 94.395 C 101.950 91.699,101.708 91.961,109.561 88.053 L 114.897 85.398 115.564 83.628 C 117.882 77.477,123.602 72.352,130.236 70.484 C 132.327 69.895,132.091 69.771,132.611 71.725 M140.286 73.437 C 158.036 82.614,163.346 93.297,161.228 115.568 C 160.792 120.148,160.791 121.355,161.222 123.485 C 161.342 124.080,157.237 125.182,156.742 124.687 C 156.399 124.344,155.681 120.880,154.561 114.159 C 151.605 96.437,146.866 85.164,137.478 73.525 C 135.604 71.203,135.944 71.192,140.286 73.437 M136.025 73.968 C 145.213 85.656,150.537 97.980,152.816 112.832 C 153.698 118.577,154.185 121.271,154.705 123.263 C 154.975 124.295,155.155 125.174,155.105 125.218 C 155.055 125.261,154.218 125.522,153.245 125.797 C 150.697 126.518,148.518 127.604,147.807 128.509 C 147.467 128.940,147.092 129.196,146.973 129.077 C 146.562 128.667,146.775 120.196,147.339 114.516 C 148.270 105.135,147.511 102.944,142.865 101.594 C 142.003 101.343,141.300 100.982,141.303 100.790 C 141.306 100.599,141.503 99.181,141.740 97.640 C 142.897 90.138,142.064 88.237,135.988 84.511 C 134.447 83.566,133.076 82.698,132.941 82.583 C 132.807 82.467,133.123 80.876,133.644 79.048 C 134.434 76.273,134.562 75.415,134.415 73.850 C 134.201 71.555,134.124 71.549,136.025 73.968 M138.966 88.147 C 140.940 89.905,141.509 92.948,140.742 97.640 L 140.525 98.968 140.018 97.805 C 139.739 97.165,139.428 96.302,139.326 95.887 C 138.986 94.502,136.124 88.370,135.003 86.624 L 133.895 84.900 135.716 85.887 C 136.717 86.429,138.180 87.446,138.966 88.147 M135.019 87.839 C 136.430 90.130,138.058 94.036,139.098 97.623 C 140.064 100.954,140.050 101.176,138.864 101.197 C 138.337 101.206,136.976 101.458,135.841 101.755 C 133.324 102.416,133.455 102.547,133.867 99.777 C 134.553 95.160,134.588 93.704,134.092 90.324 C 133.824 88.493,133.483 86.676,133.334 86.285 C 132.817 84.925,133.759 85.794,135.019 87.839 M126.810 117.411 C 123.083 121.830,117.919 122.809,111.561 120.299 C 109.364 119.433,109.752 119.298,116.036 118.747 C 121.624 118.257,125.309 117.442,126.702 116.390 C 127.944 115.450,128.002 115.996,126.810 117.411 M176.141 117.147 C 177.867 117.809,178.104 119.930,176.697 122.123 L 175.774 123.560 171.368 123.506 C 168.945 123.476,166.962 123.338,166.962 123.199 C 166.962 123.059,167.363 122.105,167.854 121.077 C 169.638 117.339,172.769 115.854,176.141 117.147 M332.412 121.663 C 333.860 122.411,334.133 123.631,333.208 125.211 L 332.427 126.543 330.935 125.518 C 328.011 123.506,325.594 123.443,325.428 125.374 C 325.352 126.257,325.176 126.470,324.174 126.895 C 322.760 127.495,322.760 127.491,324.019 125.250 C 326.206 121.354,329.277 120.041,332.412 121.663 M174.041 125.046 C 174.041 125.802,166.858 130.677,166.411 130.224 C 166.188 129.998,166.298 125.432,166.536 125.047 C 166.752 124.697,174.041 124.697,174.041 125.046 M329.204 125.677 C 329.771 125.963,330.534 126.516,330.899 126.907 L 331.561 127.617 330.874 128.549 L 330.186 129.481 329.536 128.601 C 329.178 128.117,328.293 127.442,327.569 127.102 C 326.592 126.643,326.254 126.315,326.254 125.828 C 326.254 124.636,327.052 124.595,329.204 125.677 M164.892 126.475 C 164.885 128.674,164.498 128.889,163.736 127.117 C 163.041 125.502,163.172 125.089,164.381 125.078 C 164.801 125.075,164.896 125.334,164.892 126.475 M177.391 125.515 C 187.580 128.606,187.512 145.428,177.286 151.279 C 175.130 152.512,175.101 152.507,171.702 150.280 C 168.294 148.047,162.736 145.337,158.702 143.941 C 155.144 142.710,155.273 142.852,155.657 140.609 C 156.105 137.998,157.113 136.498,158.744 136.016 C 160.537 135.486,163.741 133.769,165.091 132.615 C 165.714 132.082,166.954 131.281,167.847 130.835 C 170.114 129.700,174.021 127.071,175.055 125.985 C 175.532 125.484,175.930 125.075,175.940 125.077 C 175.950 125.079,176.603 125.276,177.391 125.515 M162.093 127.065 C 162.379 127.836,162.873 128.897,163.189 129.425 L 163.765 130.383 163.133 130.383 C 161.397 130.383,157.274 127.448,157.604 126.447 C 157.710 126.123,159.117 125.797,160.801 125.706 C 161.464 125.670,161.645 125.859,162.093 127.065 M156.186 127.406 C 156.603 128.721,160.376 131.563,161.704 131.563 C 162.871 131.563,162.380 132.162,160.117 133.498 C 154.206 136.989,145.698 134.162,148.797 129.737 C 150.108 127.865,155.765 126.081,156.186 127.406 M319.322 127.581 C 319.322 127.901,319.106 128.205,318.842 128.255 C 318.331 128.354,317.875 127.570,318.168 127.096 C 318.469 126.609,319.322 126.968,319.322 127.581 M327.081 129.351 C 327.927 130.568,328.490 131.563,328.332 131.563 C 328.174 131.563,327.898 131.289,327.718 130.954 C 327.322 130.214,324.869 128.614,324.131 128.614 C 322.968 128.614,324.011 127.238,325.235 127.159 C 325.404 127.148,326.235 128.134,327.081 129.351 M328.687 128.524 C 329.519 129.620,329.691 130.230,329.247 130.504 C 329.035 130.635,327.792 129.125,327.023 127.802 C 326.510 126.919,327.940 127.540,328.687 128.524 M315.782 129.642 C 315.782 130.289,315.125 130.530,314.485 130.118 C 313.858 129.714,314.330 128.850,315.117 128.962 C 315.552 129.023,315.782 129.259,315.782 129.642 M331.705 134.141 C 331.314 136.115,331.257 137.428,331.424 140.672 L 331.634 144.733 329.944 151.644 C 327.884 160.072,326.095 167.005,324.317 173.451 C 323.579 176.128,322.846 178.916,322.687 179.646 C 322.249 181.671,322.071 181.851,321.041 181.319 C 317.161 179.312,308.690 179.518,302.559 181.768 C 300.273 182.607,299.994 182.643,297.198 182.456 C 292.563 182.146,292.813 182.305,293.003 179.786 C 293.267 176.298,293.639 175.864,302.212 169.032 C 313.553 159.994,317.464 155.021,323.569 141.879 C 325.116 138.550,327.587 134.722,329.380 132.877 C 330.094 132.142,330.678 131.431,330.678 131.297 C 330.678 131.163,330.977 130.672,331.342 130.205 L 332.006 129.357 332.101 130.514 C 332.153 131.151,331.975 132.783,331.705 134.141 M323.009 130.048 C 323.009 130.505,324.809 132.583,325.689 133.141 C 326.686 133.773,326.738 134.115,325.975 135.029 C 325.264 135.883,325.182 135.867,324.976 134.838 C 324.789 133.900,323.796 133.088,321.976 132.384 C 320.631 131.864,320.230 130.830,321.120 130.179 C 321.711 129.746,323.009 129.657,323.009 130.048 M326.096 131.004 C 327.059 131.849,327.470 132.743,326.897 132.743 C 326.538 132.743,324.189 130.676,324.189 130.360 C 324.189 129.812,325.080 130.112,326.096 131.004 M319.397 131.496 C 319.459 131.681,319.046 132.027,318.480 132.264 C 316.954 132.901,316.414 133.906,316.594 135.772 C 316.765 137.538,315.634 140.126,312.364 145.451 C 308.657 151.487,306.078 153.893,296.322 160.416 C 284.906 168.050,283.175 171.044,286.057 178.171 C 287.143 180.856,287.064 181.022,285.507 179.333 C 283.715 177.389,281.745 173.167,281.523 170.795 C 280.997 165.160,283.093 162.448,291.782 157.522 C 299.545 153.121,301.512 150.967,308.555 139.159 C 311.138 134.827,313.558 132.727,317.404 131.482 C 318.887 131.002,319.233 131.004,319.397 131.496 M320.814 134.786 C 321.882 136.212,323.119 136.977,324.064 136.797 C 324.755 136.664,325.042 136.971,324.526 137.290 C 324.387 137.376,323.437 139.275,322.416 141.511 C 315.785 156.028,313.461 159.001,301.327 168.502 C 292.243 175.615,292.186 175.685,291.585 180.457 C 291.113 184.211,287.960 181.295,286.553 175.804 C 285.234 170.653,286.719 168.651,296.870 161.901 C 308.655 154.065,311.771 150.775,316.661 141.003 C 317.270 139.786,317.806 138.748,317.852 138.696 C 317.899 138.645,318.461 138.759,319.102 138.951 C 320.568 139.390,321.534 138.969,321.534 137.891 C 321.534 137.022,320.055 135.991,318.805 135.989 C 317.239 135.987,317.910 133.668,319.486 133.637 C 319.739 133.632,320.336 134.149,320.814 134.786 M148.616 134.773 C 150.085 135.919,152.226 136.578,154.477 136.578 C 155.503 136.578,156.342 136.613,156.342 136.655 C 156.342 136.698,156.010 137.778,155.605 139.056 C 155.199 140.334,154.867 141.702,154.867 142.096 C 154.867 142.642,154.745 142.775,154.351 142.654 C 152.761 142.164,149.712 141.597,147.706 141.419 C 144.877 141.168,144.931 141.264,145.849 138.071 C 147.199 133.381,147.054 133.554,148.616 134.773 M323.295 134.797 C 323.534 134.948,323.657 135.143,323.569 135.232 C 323.480 135.320,323.152 135.199,322.840 134.962 C 322.218 134.492,322.596 134.354,323.295 134.797 M136.036 138.766 C 137.227 138.997,138.798 139.452,139.528 139.778 L 140.855 140.371 138.330 140.392 C 130.406 140.458,125.178 143.764,107.820 159.692 C 105.723 161.616,105.821 161.636,106.385 159.398 C 107.211 156.117,118.188 143.298,122.737 140.301 C 125.530 138.461,131.119 137.816,136.036 138.766 M136.431 141.867 C 130.726 143.900,128.817 145.776,120.346 157.670 C 117.688 161.401,114.629 165.583,113.548 166.962 C 106.597 175.829,104.939 182.229,107.987 188.435 C 109.279 191.065,113.273 193.938,116.548 194.593 C 117.670 194.817,117.641 195.007,116.048 197.788 C 107.598 212.534,101.440 229.503,99.242 244.096 C 98.730 247.494,98.864 247.299,96.755 247.733 C 90.764 248.965,83.939 249.707,76.552 249.929 C 68.066 250.184,82.582 254.004,93.835 254.477 L 98.143 254.658 98.331 258.524 C 98.681 265.699,99.937 271.505,101.703 274.110 C 102.173 274.802,102.878 276.164,103.270 277.135 C 105.094 281.659,107.972 285.945,113.969 293.068 C 118.218 298.115,118.106 297.835,116.445 299.260 C 114.708 300.750,106.210 306.243,102.259 308.429 C 101.153 309.041,99.317 308.177,95.651 305.320 C 89.402 300.450,86.941 296.719,79.790 281.268 C 71.526 263.413,68.770 249.117,69.669 228.757 L 69.968 221.968 69.094 220.055 C 61.049 202.461,64.007 194.850,84.167 181.266 C 94.437 174.346,95.480 173.470,110.029 159.556 C 123.450 146.721,131.392 141.332,136.873 141.340 C 137.888 141.341,137.881 141.350,136.431 141.867 M142.773 142.825 C 142.773 143.825,139.063 154.973,137.244 159.440 C 134.448 166.305,128.121 178.089,126.888 178.730 C 126.000 179.190,122.555 179.646,119.887 179.655 C 117.856 179.662,117.382 179.737,117.806 179.983 C 118.155 180.186,119.797 180.260,122.305 180.187 C 124.477 180.124,126.254 180.111,126.254 180.158 C 126.254 180.283,118.978 192.607,118.397 193.467 C 118.359 193.524,117.622 193.342,116.760 193.062 C 106.520 189.740,105.174 180.454,113.382 169.764 C 116.227 166.059,118.982 162.288,123.511 155.900 C 129.193 147.885,131.298 145.728,135.082 144.039 C 137.892 142.784,142.773 142.014,142.773 142.825 M149.705 143.226 C 154.424 143.953,154.755 144.101,155.563 145.843 C 157.811 150.691,164.329 154.087,171.120 153.948 L 174.246 153.884 177.020 156.083 C 180.680 158.986,183.436 160.592,187.539 162.216 C 188.309 162.520,192.522 164.394,196.903 166.381 C 206.432 170.702,208.918 171.741,215.487 174.155 C 222.769 176.832,223.179 176.915,230.088 177.125 C 243.016 177.519,256.757 178.879,273.599 181.433 C 275.870 181.777,279.056 182.213,280.678 182.401 L 283.628 182.743 283.628 185.988 C 283.628 189.525,283.437 190.319,281.382 195.280 L 280.222 198.083 269.093 198.118 C 262.973 198.138,255.177 198.312,251.770 198.504 C 237.322 199.318,226.254 199.239,224.681 198.310 C 224.545 198.230,225.387 197.844,226.551 197.452 C 231.453 195.802,231.603 195.576,229.200 193.454 C 224.240 189.074,218.664 187.113,210.318 186.815 C 203.753 186.581,203.111 187.380,208.260 189.375 C 211.554 190.652,219.212 196.520,218.506 197.227 C 218.085 197.647,212.747 195.937,206.932 193.518 C 202.693 191.755,193.223 188.008,190.118 186.866 C 183.749 184.524,176.332 181.595,169.646 178.782 C 164.639 176.675,154.996 172.812,151.553 171.533 C 149.629 170.819,148.877 170.993,142.169 173.705 C 135.770 176.292,129.873 178.349,129.610 178.086 C 129.515 177.991,130.297 176.478,131.347 174.724 C 136.245 166.536,139.439 159.139,142.785 148.230 C 144.545 142.490,144.588 142.411,145.837 142.619 C 146.342 142.703,148.083 142.976,149.705 143.226 M158.288 145.385 C 163.848 147.392,172.566 151.951,172.566 152.850 C 172.566 153.252,168.440 153.124,166.480 152.662 C 162.412 151.703,158.506 149.329,156.824 146.794 C 155.151 144.274,155.168 144.258,158.288 145.385 M103.214 163.196 C 102.361 164.429,100.334 166.697,99.625 167.213 C 99.324 167.432,100.115 166.275,101.382 164.641 C 103.480 161.938,104.814 160.886,103.214 163.196 M154.587 174.268 C 172.339 181.413,178.274 184.074,173.154 182.593 C 167.377 180.921,158.610 180.954,158.045 182.649 C 157.979 182.847,157.536 183.032,157.060 183.060 C 156.584 183.087,155.987 183.127,155.734 183.148 C 155.480 183.169,152.891 184.601,149.981 186.331 C 139.645 192.476,133.518 194.684,126.791 194.689 C 125.116 194.690,120.699 194.166,120.298 193.918 C 120.086 193.787,122.399 189.670,126.406 183.051 L 128.541 179.524 130.716 178.992 C 133.796 178.238,137.394 177.010,143.510 174.624 C 149.742 172.192,149.453 172.202,154.587 174.268 M318.732 182.158 C 322.171 183.096,322.141 181.864,319.021 194.301 C 317.523 200.275,316.215 205.512,316.116 205.940 C 315.973 206.553,315.702 206.762,314.839 206.923 C 312.056 207.446,310.619 208.802,310.620 210.906 C 310.620 212.321,311.874 217.302,312.568 218.645 C 312.978 219.437,312.010 225.369,311.471 225.369 C 311.229 225.369,308.630 221.569,307.436 219.469 C 306.929 218.577,305.304 216.323,303.825 214.462 C 302.347 212.600,300.220 209.613,299.099 207.825 C 295.974 202.838,295.053 201.751,293.105 200.755 C 291.398 199.883,291.390 199.872,291.566 198.777 C 292.126 195.274,292.625 189.706,292.625 186.966 C 292.625 183.190,292.338 183.420,296.546 183.832 L 299.961 184.167 303.299 183.092 C 305.135 182.501,307.168 181.887,307.817 181.727 C 309.539 181.302,316.619 181.582,318.732 182.158 M172.714 183.140 C 178.044 184.092,187.243 186.897,186.187 187.249 C 185.618 187.439,178.510 186.491,173.156 185.512 C 170.479 185.022,166.364 184.294,164.012 183.894 C 158.889 183.023,158.955 183.043,159.882 182.627 C 160.980 182.134,168.840 182.448,172.714 183.140 M290.782 183.355 C 291.360 183.474,291.445 183.676,291.445 184.919 C 291.445 188.538,290.294 198.890,289.840 199.343 C 289.761 199.423,288.510 199.272,287.062 199.007 C 285.614 198.742,284.050 198.523,283.586 198.521 C 281.841 198.511,281.806 198.241,283.135 195.038 C 284.841 190.928,285.251 189.130,285.251 185.758 L 285.251 182.850 287.684 183.034 C 289.023 183.136,290.417 183.280,290.782 183.355 M156.932 184.714 C 156.932 185.910,151.953 194.984,147.005 202.802 C 142.933 209.237,138.169 218.277,132.392 230.531 C 130.452 234.646,130.001 235.939,129.484 238.877 C 129.170 240.655,129.024 240.992,128.638 240.820 C 127.072 240.123,123.526 240.732,115.339 243.101 C 111.246 244.286,100.550 246.961,100.422 246.833 C 100.306 246.717,101.544 239.462,102.171 236.578 C 104.697 224.967,110.403 210.945,118.352 196.818 C 118.985 195.693,119.366 195.300,119.718 195.407 C 127.543 197.790,139.744 194.737,150.273 187.762 C 154.563 184.920,156.932 183.835,156.932 184.714 M161.799 184.798 C 164.434 185.167,168.436 185.858,175.664 187.192 C 176.962 187.432,179.484 187.894,181.268 188.219 C 183.053 188.544,186.173 188.889,188.201 188.987 C 192.314 189.186,191.259 188.846,205.900 194.683 C 212.856 197.457,216.507 198.523,219.049 198.524 C 220.257 198.525,221.413 198.756,222.589 199.232 C 225.664 200.476,228.185 200.697,236.973 200.494 C 244.995 200.309,248.015 200.128,258.000 199.235 C 263.222 198.767,279.037 198.703,279.481 199.147 C 279.579 199.245,278.680 201.568,277.482 204.309 C 276.285 207.050,272.950 214.668,270.073 221.239 C 263.834 235.487,264.297 234.424,263.136 237.168 C 257.697 250.027,255.707 256.451,255.139 262.979 C 254.806 266.804,255.193 273.273,255.866 275.147 C 256.398 276.630,256.738 276.550,251.770 276.116 C 244.745 275.503,220.897 275.164,213.569 275.572 C 199.039 276.382,195.148 276.150,194.295 274.423 C 191.989 269.754,186.106 263.643,180.973 260.585 C 171.251 254.791,156.579 253.161,147.950 256.916 L 146.490 257.552 145.148 256.824 C 144.409 256.423,142.345 255.548,140.560 254.880 C 135.558 253.006,135.526 252.976,132.783 247.553 L 130.414 242.870 130.700 240.830 C 131.330 236.325,131.903 234.886,138.209 221.976 C 139.477 219.381,141.199 215.996,142.036 214.454 C 142.873 212.913,144.125 210.609,144.818 209.334 C 145.512 208.060,146.883 205.737,147.865 204.172 C 152.569 196.679,157.027 188.369,158.213 184.882 C 158.310 184.598,158.492 184.370,158.619 184.375 C 158.746 184.380,160.177 184.570,161.799 184.798 M323.873 184.649 C 325.280 185.403,325.241 186.705,323.727 189.438 C 323.328 190.159,323.343 190.400,323.885 192.010 C 324.650 194.281,324.639 194.722,323.744 197.352 C 323.131 199.153,323.037 199.844,323.194 201.378 C 323.377 203.159,323.351 203.259,322.505 204.048 C 321.691 204.807,318.064 206.363,317.777 206.076 C 317.707 206.006,318.856 201.141,320.330 195.264 C 321.803 189.387,323.009 184.531,323.009 184.472 C 323.009 184.290,323.321 184.354,323.873 184.649 M218.693 188.804 C 222.632 189.656,225.179 190.989,228.174 193.768 C 229.799 195.276,229.806 195.267,226.401 196.289 C 221.600 197.731,221.510 197.700,216.242 192.775 C 214.321 190.979,212.684 189.732,211.531 189.185 C 210.559 188.725,209.757 188.230,209.749 188.087 C 209.727 187.684,215.742 188.167,218.693 188.804 M287.002 200.172 C 288.209 200.398,289.294 200.684,289.413 200.808 C 289.871 201.282,288.351 206.344,281.861 225.959 C 270.202 261.195,267.389 273.240,267.993 285.324 C 268.207 289.589,268.200 289.612,266.865 289.105 C 266.466 288.953,263.105 288.477,259.397 288.047 C 255.689 287.617,249.535 286.740,245.723 286.099 C 228.350 283.176,205.946 280.065,199.945 279.743 L 196.485 279.557 196.030 278.221 C 195.780 277.487,195.575 276.877,195.575 276.865 C 195.575 276.673,237.367 276.987,243.658 277.226 C 253.434 277.597,256.634 277.935,257.080 278.646 C 262.203 286.812,268.168 291.011,265.802 284.785 C 264.216 280.612,261.890 278.011,258.931 277.100 L 257.266 276.587 256.583 274.503 C 255.195 270.269,255.671 261.667,257.682 254.628 C 258.897 250.374,266.696 231.751,273.393 217.109 C 274.745 214.154,277.294 208.441,279.224 204.039 L 281.268 199.376 283.038 199.569 C 284.012 199.675,285.796 199.947,287.002 200.172 M292.781 201.907 C 294.031 202.639,296.124 205.421,298.670 209.735 C 299.293 210.789,300.879 213.046,302.195 214.749 C 305.516 219.049,305.893 219.590,307.476 222.316 C 308.243 223.639,309.405 225.327,310.058 226.068 L 311.244 227.416 310.515 231.186 C 309.207 237.948,308.555 243.061,306.800 260.324 C 306.470 263.569,305.986 268.215,305.724 270.649 C 305.405 273.613,305.198 279.043,305.097 287.094 C 304.961 298.024,304.841 299.732,304.277 298.820 C 303.933 298.263,303.608 298.530,301.957 300.723 C 295.723 309.006,289.187 313.910,279.794 317.352 C 273.179 319.776,280.136 320.023,289.528 317.698 C 294.923 316.362,299.986 313.920,301.326 312.007 C 302.142 310.842,301.784 312.130,300.739 314.116 C 293.570 327.752,276.997 331.619,220.796 332.769 C 156.732 334.081,131.388 329.727,107.698 313.342 C 102.825 309.971,102.860 310.047,105.826 309.329 C 125.055 304.675,144.344 285.640,147.191 268.509 L 147.546 266.368 149.230 265.381 C 159.174 259.554,173.273 260.230,183.262 267.014 C 185.885 268.794,193.548 276.259,194.160 277.629 C 195.055 279.631,195.045 279.650,192.673 280.258 C 188.017 281.451,184.172 284.192,181.197 288.439 C 177.991 293.016,176.256 299.607,178.096 300.221 C 178.274 300.280,178.980 299.359,179.665 298.173 C 181.899 294.305,184.878 291.178,188.361 289.043 C 195.049 284.945,196.296 283.976,196.755 282.524 L 197.198 281.124 199.010 281.122 C 203.189 281.119,220.760 283.387,243.510 286.866 C 254.003 288.471,255.662 288.683,261.062 289.106 C 263.414 289.290,265.995 289.660,266.797 289.927 L 268.255 290.413 269.046 294.248 C 270.263 300.153,271.426 303.413,273.678 307.227 C 276.051 311.247,276.532 311.233,276.320 307.153 C 276.008 301.147,273.839 294.691,271.126 291.694 L 269.469 289.862 269.473 283.353 C 269.477 276.844,269.631 275.239,270.832 269.174 C 272.803 259.216,275.610 249.630,283.442 226.106 C 288.010 212.388,290.154 205.475,290.718 202.655 C 291.069 200.901,291.067 200.902,292.781 201.907 M315.339 208.924 C 315.339 209.127,315.009 210.621,314.605 212.243 C 314.202 213.865,313.870 215.424,313.868 215.708 C 313.861 216.767,313.276 216.172,312.854 214.676 C 312.209 212.387,312.008 211.004,312.205 210.218 C 312.478 209.131,315.339 207.950,315.339 208.924 M315.164 222.788 C 316.777 225.539,316.404 227.404,314.320 227.013 C 312.969 226.760,312.955 226.717,313.448 224.327 C 314.134 221.002,314.124 221.012,315.164 222.788 M128.074 242.376 C 129.662 243.813,128.198 246.396,125.221 247.407 C 120.405 249.044,108.240 251.720,101.401 252.648 L 100.000 252.839 100.005 250.829 C 100.010 248.187,99.886 248.291,104.130 247.355 C 108.032 246.494,108.862 246.287,117.257 244.077 C 125.945 241.791,127.208 241.592,128.074 242.376 M131.633 248.746 C 134.039 253.706,134.915 254.485,140.265 256.428 C 144.933 258.123,145.301 258.400,144.119 259.330 C 140.070 262.515,137.006 269.585,136.785 276.254 C 136.703 278.697,137.853 279.044,138.749 276.845 C 139.798 274.275,145.035 267.650,145.584 268.200 C 146.084 268.700,143.994 274.920,142.014 278.825 C 134.950 292.758,120.532 304.619,106.121 308.354 C 103.989 308.907,103.991 308.675,106.129 307.403 C 109.248 305.547,116.065 300.957,117.330 299.860 C 119.359 298.103,119.249 297.814,114.502 292.407 C 109.199 286.368,107.078 283.466,105.130 279.582 C 103.186 275.705,103.153 275.456,104.646 275.872 C 107.097 276.556,115.087 275.641,120.491 274.058 C 127.617 271.972,133.563 266.893,137.221 259.770 C 138.417 257.443,137.313 257.415,134.812 259.711 C 129.657 264.442,123.824 265.997,110.001 266.326 C 103.998 266.468,101.739 266.620,101.399 266.902 C 100.609 267.558,100.118 264.935,99.797 258.343 L 99.615 254.592 100.324 254.327 C 100.713 254.181,101.829 253.966,102.802 253.850 C 109.938 253.000,124.864 249.544,127.742 248.076 C 128.552 247.662,129.094 247.122,129.377 246.443 C 129.936 245.105,129.799 244.964,131.633 248.746 M98.525 250.418 C 98.525 253.193,98.660 253.098,94.732 253.095 C 89.616 253.091,78.466 251.639,78.466 250.976 C 78.466 250.845,78.597 250.737,78.756 250.737 C 79.813 250.737,92.057 249.460,94.100 249.137 C 95.479 248.919,97.039 248.725,97.566 248.706 L 98.525 248.673 98.525 250.418 M167.469 257.198 C 177.221 259.336,185.239 264.150,190.116 270.794 C 191.778 273.057,191.334 272.854,188.422 270.017 C 180.991 262.778,175.023 260.388,164.307 260.358 C 158.041 260.340,155.280 260.895,150.508 263.132 C 149.123 263.781,147.961 264.278,147.927 264.236 C 147.892 264.194,147.798 262.940,147.717 261.451 L 147.569 258.742 148.994 258.129 C 150.279 257.576,152.594 256.911,154.572 256.527 C 156.372 256.177,164.815 256.617,167.469 257.198 M146.313 262.776 L 146.312 265.339 143.955 267.495 C 142.659 268.681,140.975 270.539,140.213 271.625 C 139.451 272.710,138.786 273.654,138.735 273.722 C 137.816 274.948,139.828 268.113,141.172 265.443 C 142.291 263.222,145.441 259.673,145.991 260.013 C 146.183 260.132,146.313 261.244,146.313 262.776 M133.462 263.340 C 127.911 270.715,119.573 274.433,108.501 274.470 L 104.170 274.484 103.275 273.627 C 102.591 272.973,102.267 272.264,101.903 270.629 C 101.112 267.074,100.696 267.257,109.587 267.257 C 121.180 267.257,126.747 266.211,132.448 262.964 C 134.410 261.847,134.547 261.898,133.462 263.340 M259.543 278.886 C 261.179 279.732,264.256 283.782,263.953 284.691 C 263.765 285.254,259.616 280.837,258.731 279.130 C 258.328 278.354,258.446 278.318,259.543 278.886 M194.811 282.921 C 194.526 283.235,193.088 284.244,191.616 285.162 C 186.568 288.310,185.691 288.902,184.116 290.220 C 183.249 290.946,181.888 292.322,181.092 293.278 C 180.297 294.234,179.646 294.955,179.646 294.881 C 179.646 293.424,183.155 287.954,185.455 285.825 C 189.398 282.175,197.863 279.548,194.811 282.921 M272.505 294.649 C 274.269 298.020,276.427 308.267,275.214 307.518 C 273.847 306.673,269.913 295.310,269.912 292.201 L 269.912 291.335 270.773 292.160 C 271.246 292.614,272.026 293.734,272.505 294.649 M303.479 304.380 C 303.142 311.379,298.148 315.083,285.909 317.408 C 281.960 318.159,281.337 318.081,283.676 317.128 C 290.166 314.483,297.007 309.274,301.475 303.575 C 303.570 300.902,303.645 300.932,303.479 304.380 " stroke="none" fill="#ba4b2f" fill-rule="evenodd"></path></g></svg>