<svg id="svg" version="1.1" xmlns="http://www.w3.org/2000/svg" xmlns:xlink="http://www.w3.org/1999/xlink" width="400" height="412.4567474048443" viewBox="0, 0, 400,412.4567474048443"><g id="svgg"><path id="path0" d="M0.000 206.200 L 0.000 412.400 200.000 412.400 L 400.000 412.400 400.000 206.200 L 400.000 0.000 200.000 0.000 L 0.000 0.000 0.000 206.200 M164.023 22.413 C 164.447 22.639,166.400 24.934,168.361 27.513 C 170.323 30.091,173.216 33.640,174.790 35.400 C 176.364 37.160,177.912 39.089,178.230 39.687 L 178.807 40.774 182.104 38.527 C 200.339 26.098,224.653 31.389,233.183 49.643 C 235.872 55.395,237.650 65.450,236.348 67.535 C 235.980 68.123,236.108 68.581,237.027 69.969 C 239.338 73.461,239.211 82.640,236.802 86.200 C 235.905 87.525,235.678 88.395,235.482 91.264 C 235.220 95.072,233.815 99.842,232.200 102.399 C 230.969 104.350,230.948 104.622,232.089 103.823 C 234.891 101.860,236.134 103.366,237.222 110.040 C 238.537 118.111,240.736 123.386,244.799 128.217 C 245.902 129.528,247.082 131.201,247.422 131.935 C 247.832 132.820,248.237 133.194,248.625 133.046 C 248.947 132.922,250.513 133.276,252.105 133.833 C 254.997 134.844,255.371 134.989,258.000 136.121 C 261.371 137.573,271.374 141.068,276.600 142.621 C 287.126 145.747,290.112 151.334,293.372 174.000 C 296.649 196.779,295.567 226.250,290.906 241.200 C 284.384 262.116,273.155 267.285,262.376 254.333 L 260.400 251.958 260.400 255.747 C 260.400 257.830,260.296 259.805,260.169 260.137 C 260.025 260.512,260.438 261.156,261.269 261.850 C 272.474 271.210,279.286 282.339,285.357 301.200 C 288.512 311.004,288.419 310.593,290.034 321.800 C 290.754 326.791,292.229 329.200,294.565 329.200 C 296.347 329.200,300.637 330.902,302.600 332.387 C 305.809 334.814,309.200 336.163,309.200 335.012 C 309.200 334.045,310.894 332.366,312.939 331.304 C 316.442 329.485,317.660 329.151,322.000 328.821 C 324.310 328.645,327.518 328.260,329.128 327.964 C 334.491 326.981,337.290 331.872,333.607 335.792 C 332.890 336.556,332.874 336.743,333.399 338.268 C 334.763 342.227,331.188 346.291,325.047 347.765 C 323.887 348.043,319.465 350.848,319.000 351.600 C 318.528 352.364,311.267 357.110,308.325 358.578 C 307.622 358.928,306.316 359.324,305.423 359.458 C 304.457 359.602,303.315 360.149,302.600 360.809 C 301.024 362.265,297.270 364.106,289.200 367.381 C 282.011 370.297,277.791 372.440,272.458 375.881 C 255.666 386.714,229.802 389.882,200.000 384.758 C 178.621 381.081,166.656 374.393,165.737 365.605 C 165.599 364.282,165.369 363.200,165.225 363.200 C 164.749 363.200,152.698 368.642,146.400 371.700 C 131.093 379.135,111.778 382.447,97.779 380.036 C 96.691 379.849,93.971 379.379,91.735 378.992 C 87.845 378.319,87.482 378.320,83.335 379.005 C 80.951 379.398,78.550 379.679,78.000 379.628 C 77.450 379.577,75.151 379.563,72.891 379.596 C 66.592 379.688,64.800 378.750,64.800 375.360 C 64.800 370.547,69.141 366.232,75.256 364.966 C 79.523 364.083,81.804 362.885,85.319 359.682 C 90.753 354.731,94.331 353.664,101.144 354.963 C 114.225 357.456,130.021 349.908,146.872 333.114 C 152.011 327.993,153.600 326.879,153.600 328.400 C 153.600 328.634,151.035 331.607,147.900 335.007 C 141.614 341.823,141.939 341.185,141.352 347.858 C 140.839 353.687,142.889 358.588,147.895 363.500 C 151.948 367.477,150.932 367.469,158.200 363.577 C 161.500 361.810,164.926 360.222,165.814 360.049 C 169.075 359.415,173.858 356.327,205.710 334.294 C 213.288 329.052,217.235 327.312,223.200 326.581 C 229.673 325.788,233.156 324.980,234.400 323.983 C 234.950 323.542,236.388 322.523,237.595 321.717 C 238.803 320.912,240.153 319.911,240.595 319.493 C 241.038 319.075,242.499 318.008,243.842 317.120 C 245.986 315.703,246.363 315.257,246.935 313.454 C 248.032 310.002,257.167 299.600,259.103 299.600 C 261.273 299.600,259.862 302.836,254.829 309.396 C 252.010 313.071,252.011 313.072,256.161 312.035 C 259.558 311.186,260.400 311.272,260.400 312.469 C 260.400 313.854,250.844 317.619,248.731 317.066 C 248.004 316.876,246.282 317.922,241.264 321.600 C 238.162 323.873,238.116 323.772,242.500 324.295 C 249.433 325.122,254.142 328.603,255.804 334.130 C 256.190 335.410,256.481 335.770,257.053 335.670 C 257.464 335.598,258.880 335.447,260.200 335.334 C 262.542 335.135,263.557 335.244,271.777 336.578 C 274.255 336.981,277.495 337.182,280.371 337.112 L 284.988 337.000 285.222 335.600 C 285.541 333.696,286.548 331.876,288.067 330.456 L 289.335 329.272 288.684 325.336 C 288.325 323.171,287.745 319.612,287.395 317.426 C 283.390 292.457,270.553 269.036,257.489 262.863 C 252.904 260.697,252.456 260.600,247.000 260.600 C 238.217 260.600,234.829 262.115,226.652 269.703 C 220.369 275.533,217.994 277.239,210.800 281.093 C 197.807 288.054,190.717 294.081,167.112 318.238 C 158.896 326.646,157.292 327.911,155.439 327.445 C 152.216 326.637,153.872 316.645,158.729 307.600 C 161.686 302.092,161.987 301.166,161.994 297.555 C 162.003 293.054,162.588 290.648,164.756 286.200 C 166.983 281.630,167.404 279.493,167.866 270.400 C 168.273 262.401,168.159 259.879,167.184 255.332 C 166.720 253.169,166.009 249.831,165.604 247.913 C 165.199 245.995,164.664 242.395,164.415 239.913 C 164.166 237.431,163.681 233.968,163.338 232.218 C 162.978 230.380,162.817 228.285,162.957 227.259 C 163.103 226.193,163.025 225.271,162.761 224.953 C 162.135 224.199,162.147 221.820,162.782 220.633 C 163.272 219.719,163.185 219.324,161.865 216.435 C 157.575 207.051,156.831 200.567,159.218 193.360 C 160.155 190.527,159.958 189.633,157.994 187.800 C 155.322 185.307,155.130 184.276,155.017 171.800 C 154.875 156.113,153.886 150.510,149.294 139.400 C 147.813 135.816,146.179 129.960,145.419 125.514 C 144.804 121.917,144.446 117.841,143.388 102.400 C 143.049 97.450,142.499 90.250,142.166 86.400 C 140.656 68.933,141.021 55.164,143.211 47.000 C 147.393 31.410,157.820 19.092,164.023 22.413 M158.600 24.759 C 147.341 31.240,141.014 54.976,143.586 81.084 C 144.062 85.913,145.009 98.411,145.820 110.543 C 146.874 126.330,147.626 130.124,151.812 140.800 C 155.558 150.355,156.447 155.578,156.696 169.500 C 156.804 175.495,157.013 180.400,157.161 180.400 C 157.309 180.400,158.120 179.575,158.962 178.568 C 159.805 177.560,161.972 175.175,163.778 173.268 C 174.853 161.575,180.007 154.665,185.342 144.357 C 188.356 138.533,189.692 134.436,189.520 131.542 L 189.400 129.507 187.200 128.697 C 184.510 127.707,179.809 124.738,179.237 123.668 C 178.289 121.898,181.515 121.508,184.469 123.036 C 186.446 124.058,186.421 123.541,184.337 120.200 C 177.363 109.022,174.188 98.345,176.932 95.297 L 177.745 94.395 176.716 93.297 C 174.673 91.116,172.800 85.926,172.800 82.442 C 172.800 80.990,172.692 80.800,171.870 80.800 C 167.956 80.800,165.717 69.119,167.783 59.481 C 168.186 57.604,168.247 56.451,167.983 55.755 C 167.396 54.212,167.499 50.524,168.136 50.280 C 168.782 50.032,169.415 50.397,169.660 51.159 C 169.763 51.480,170.540 50.545,171.488 48.959 C 172.395 47.441,173.961 45.398,174.968 44.417 C 177.713 41.745,177.477 40.937,172.301 35.306 C 170.636 33.495,167.997 30.306,166.435 28.220 C 162.575 23.061,161.994 22.805,158.600 24.759 M204.800 34.002 C 204.089 34.203,204.666 34.351,206.800 34.517 C 210.914 34.835,213.163 35.217,213.426 35.642 C 213.548 35.839,214.014 36.000,214.463 36.000 C 214.912 36.000,215.884 36.287,216.624 36.638 C 217.364 36.989,218.202 37.184,218.485 37.070 C 218.768 36.956,218.595 36.849,218.100 36.832 C 217.605 36.814,217.200 36.641,217.200 36.447 C 217.200 36.252,216.795 35.994,216.300 35.872 C 215.805 35.750,214.230 35.306,212.800 34.885 C 209.766 33.992,206.223 33.601,204.800 34.002 M195.400 36.579 C 183.989 38.876,176.761 45.355,174.046 55.719 C 172.027 63.430,171.983 80.069,173.995 75.211 C 174.897 73.035,176.353 72.353,177.547 73.547 C 178.277 74.277,178.300 74.235,178.527 71.806 C 178.654 70.437,179.303 67.747,179.968 65.828 C 180.732 63.623,181.327 60.842,181.586 58.270 C 182.646 47.747,189.620 40.969,203.800 36.681 L 205.800 36.076 201.800 36.086 C 199.600 36.091,196.720 36.313,195.400 36.579 M203.600 38.778 C 192.959 40.703,184.069 49.428,183.403 58.599 C 183.228 61.017,182.737 63.381,181.907 65.799 C 180.432 70.099,180.163 76.435,181.283 80.482 C 182.356 84.360,181.500 84.798,178.556 81.877 C 175.414 78.761,174.998 78.920,175.007 83.233 C 175.016 87.400,176.552 91.040,179.289 93.383 C 181.499 95.275,182.067 95.252,181.370 93.300 C 179.806 88.917,181.879 88.369,184.422 92.494 C 185.393 94.069,185.714 95.045,185.695 96.364 C 185.656 99.108,188.831 103.570,193.400 107.193 C 209.288 119.791,233.600 109.691,233.600 90.493 C 233.600 87.857,233.720 87.400,234.758 86.077 C 237.266 82.877,237.455 73.383,235.072 70.259 C 233.567 68.286,233.189 67.103,232.765 63.038 C 231.008 46.189,218.793 36.029,203.600 38.778 M171.963 53.083 C 170.789 55.467,170.613 56.241,170.524 59.400 L 170.422 63.000 171.034 60.400 C 171.371 58.970,172.095 56.204,172.643 54.254 C 173.875 49.874,173.695 49.564,171.963 53.083 M175.570 76.106 C 175.011 77.333,175.035 77.389,176.300 77.777 C 177.375 78.108,177.554 77.038,176.635 75.780 C 176.090 75.035,176.053 75.046,175.570 76.106 M177.776 97.240 C 176.842 98.751,179.055 106.671,181.964 112.227 C 184.697 117.448,191.203 127.198,191.963 127.213 C 192.313 127.220,192.949 127.490,193.376 127.813 C 194.738 128.842,194.838 128.494,194.559 123.700 C 194.190 117.357,193.945 116.708,189.283 109.742 C 183.565 101.198,178.638 95.844,177.776 97.240 M227.698 107.594 C 218.087 116.465,202.448 116.941,192.306 108.671 C 191.044 107.642,189.921 106.800,189.811 106.800 C 189.701 106.800,190.782 108.539,192.213 110.665 C 195.256 115.184,195.779 116.814,196.384 123.656 C 196.972 130.308,197.085 130.624,200.178 134.249 C 201.636 135.958,202.775 137.634,202.710 137.973 C 202.331 139.939,199.390 137.854,196.835 133.808 C 195.222 131.254,192.748 128.938,192.076 129.353 C 191.879 129.475,191.610 130.885,191.479 132.487 C 191.068 137.519,188.014 144.447,181.909 154.200 C 179.843 157.500,177.102 162.000,175.818 164.200 C 169.755 174.588,162.004 184.800,160.183 184.800 C 158.998 184.800,158.800 185.861,159.809 186.809 C 161.793 188.672,161.922 190.995,160.311 195.800 C 158.596 200.918,161.141 213.581,164.792 218.090 C 166.079 219.679,175.717 217.337,185.800 212.984 C 191.398 210.568,193.061 212.508,188.110 215.679 C 180.517 220.542,172.086 222.922,166.996 221.641 C 164.867 221.105,164.000 221.489,164.000 222.969 C 164.000 224.224,164.725 224.810,165.749 224.383 C 167.626 223.599,181.055 222.319,187.400 222.319 C 193.967 222.319,202.163 223.280,208.400 224.782 C 211.347 225.492,216.000 226.362,219.200 226.801 C 220.850 227.028,223.370 227.417,224.800 227.666 C 226.230 227.914,232.350 228.149,238.400 228.187 C 248.974 228.254,249.400 228.287,249.400 229.028 C 249.400 230.780,234.230 230.884,221.200 229.223 C 217.575 228.761,216.500 228.550,209.000 226.819 C 206.360 226.210,203.109 225.506,201.776 225.256 C 198.804 224.697,190.179 224.662,185.821 225.191 C 184.049 225.406,180.170 225.882,177.200 226.249 C 174.230 226.616,170.295 226.964,168.456 227.022 C 164.178 227.159,164.121 227.224,164.932 231.082 C 165.292 232.797,165.865 236.540,166.204 239.400 C 166.819 244.587,167.461 248.277,168.606 253.200 C 169.925 258.876,170.082 260.590,169.791 266.200 C 169.632 269.280,169.478 272.413,169.451 273.163 L 169.400 274.526 172.381 274.433 C 176.025 274.321,180.513 274.915,187.534 276.441 C 196.394 278.366,206.603 277.895,213.596 275.238 C 214.787 274.786,216.163 274.533,216.770 274.654 C 218.037 274.907,219.920 273.529,225.436 268.311 C 233.462 260.720,238.075 258.657,247.002 258.671 C 251.233 258.677,252.738 258.949,256.113 260.319 C 258.407 261.250,258.588 260.841,258.552 254.822 C 258.522 250.015,258.448 249.537,257.451 247.734 C 252.538 238.845,250.141 227.405,253.458 228.678 C 254.808 229.196,259.600 242.878,259.600 246.213 C 259.600 250.067,268.409 258.865,273.154 259.749 C 280.814 261.177,289.822 245.779,291.963 227.600 C 294.692 204.422,293.529 177.923,288.990 159.900 C 286.714 150.862,283.262 146.458,277.000 144.603 C 270.666 142.726,264.143 140.517,259.600 138.709 C 247.225 133.785,246.995 133.831,251.731 140.264 C 257.377 147.933,261.192 157.298,264.823 172.400 C 266.314 178.601,267.222 182.196,268.005 185.000 C 268.197 185.687,268.225 184.148,268.070 181.400 C 267.666 174.217,267.726 171.095,268.273 170.911 C 270.360 170.207,271.182 196.958,269.158 199.729 C 268.434 200.720,268.383 201.084,268.742 202.729 C 272.614 220.466,270.651 244.502,266.108 234.976 C 265.251 233.179,264.926 233.240,264.383 235.300 C 262.688 241.730,259.944 239.332,257.404 229.200 C 257.045 227.770,256.574 225.921,256.357 225.091 L 255.963 223.583 254.634 224.991 C 249.668 230.257,246.533 220.399,246.373 199.007 C 246.355 196.560,246.232 195.657,245.992 196.200 C 245.797 196.640,245.244 197.952,244.763 199.116 C 242.335 204.986,240.926 202.822,240.386 192.394 C 239.824 181.527,238.794 173.018,237.362 167.400 L 236.853 165.400 236.826 168.118 C 236.796 171.204,236.057 172.323,233.296 173.460 C 232.473 173.799,231.260 174.321,230.600 174.620 C 217.587 180.518,200.745 172.092,196.581 157.600 C 195.063 152.314,196.018 141.400,198.000 141.400 C 198.709 141.400,198.710 142.374,198.003 145.800 C 195.495 157.969,202.780 169.947,214.939 173.645 C 217.582 174.449,224.383 174.697,226.081 174.050 C 226.587 173.858,227.990 173.377,229.200 172.981 C 230.410 172.585,232.120 171.860,233.000 171.370 L 234.600 170.479 234.708 161.567 L 234.816 152.654 233.656 151.427 C 229.175 146.686,227.725 136.113,230.335 127.200 C 232.514 119.756,232.541 118.451,230.600 114.510 C 229.028 111.319,228.776 108.780,229.829 106.743 C 230.768 104.928,230.447 105.056,227.698 107.594 M232.158 106.619 C 230.596 108.668,230.662 110.693,232.407 114.200 C 234.266 117.937,234.264 120.542,232.397 126.400 C 230.542 132.221,230.433 139.547,232.126 144.653 C 234.154 150.768,234.338 150.220,234.477 137.661 L 234.600 126.463 235.570 125.432 C 236.324 124.629,236.926 124.400,238.283 124.400 L 240.026 124.400 238.992 122.548 C 237.416 119.726,236.093 115.246,235.369 110.284 C 234.507 104.377,234.166 103.987,232.158 106.619 M236.762 126.870 C 236.506 127.349,236.208 128.924,236.099 130.370 L 235.901 133.000 237.270 131.700 C 238.843 130.206,238.926 130.183,239.771 131.029 C 241.150 132.407,239.417 146.058,237.354 150.080 C 236.707 151.341,236.645 153.579,237.181 156.280 C 240.762 174.305,241.465 179.148,242.048 189.800 C 242.301 194.420,242.584 198.285,242.676 198.388 C 243.166 198.939,244.237 195.067,245.970 186.469 C 246.222 185.221,246.400 179.146,246.400 171.796 C 246.400 159.384,246.602 157.200,247.747 157.200 C 249.204 157.200,249.756 171.336,248.636 179.969 C 247.508 188.667,248.367 213.242,250.042 220.174 C 251.084 224.484,251.740 225.195,253.305 223.708 C 255.529 221.595,255.633 221.057,254.789 216.035 C 252.144 200.303,253.476 194.293,257.679 203.000 C 259.004 205.747,259.006 205.943,257.618 197.600 C 255.582 185.372,255.093 181.336,255.267 178.200 C 255.392 175.943,255.460 175.800,256.398 175.800 C 260.792 175.800,266.626 204.047,265.848 221.558 C 265.621 226.664,265.687 227.669,266.435 230.442 C 267.183 233.213,268.400 235.428,268.400 234.017 C 268.400 233.753,268.606 231.796,268.857 229.668 C 269.921 220.654,267.624 202.792,263.762 190.057 C 262.731 186.659,262.726 185.600,263.739 185.600 C 264.415 185.600,264.814 186.577,266.230 191.697 C 266.823 193.840,267.548 195.910,267.841 196.297 C 268.664 197.381,268.615 192.084,267.791 190.909 C 267.210 190.079,266.711 188.292,264.800 180.200 C 259.387 157.284,257.464 152.028,250.991 142.446 C 247.592 137.415,246.647 135.511,246.999 134.403 C 247.159 133.900,246.994 133.588,246.481 133.426 C 246.068 133.295,244.767 132.002,243.592 130.553 C 240.335 126.539,237.700 125.118,236.762 126.870 M237.244 136.096 C 236.228 139.250,235.943 144.800,236.798 144.800 C 237.454 144.800,238.612 135.378,238.003 135.002 C 237.817 134.887,237.475 135.379,237.244 136.096 M167.792 171.700 C 167.165 172.415,165.038 174.710,163.065 176.800 C 158.417 181.725,157.212 183.600,158.693 183.600 C 159.699 183.600,163.848 179.092,166.441 175.181 C 169.416 170.694,170.004 169.179,167.792 171.700 M256.803 179.851 C 256.812 180.858,258.037 189.831,258.544 192.600 C 258.865 194.360,259.513 197.960,259.982 200.600 C 261.665 210.060,263.204 217.364,263.599 217.759 C 264.592 218.752,263.863 207.157,262.358 198.000 C 261.320 191.686,259.138 183.122,258.337 182.220 C 258.152 182.011,258.000 181.538,258.000 181.169 C 258.000 180.800,257.730 180.274,257.400 180.000 C 257.070 179.726,256.801 179.659,256.803 179.851 M255.200 204.725 C 255.200 206.504,256.357 214.807,256.677 215.324 C 257.478 216.620,257.840 211.234,257.175 207.920 C 256.396 204.041,255.200 202.106,255.200 204.725 M259.631 210.800 C 259.591 212.547,258.644 217.360,257.993 219.126 C 257.043 221.701,260.182 235.345,261.848 235.887 C 263.386 236.386,263.911 227.985,262.665 222.800 C 262.110 220.490,261.274 216.710,260.806 214.400 C 259.781 209.334,259.672 209.000,259.631 210.800 M180.400 217.061 C 180.070 217.170,179.440 217.414,179.000 217.605 C 178.560 217.796,176.760 218.401,175.000 218.949 C 172.585 219.702,172.113 219.953,173.076 219.973 C 173.778 219.988,174.449 219.844,174.568 219.653 C 174.686 219.461,175.514 219.188,176.409 219.045 C 177.303 218.902,178.342 218.625,178.717 218.429 C 179.093 218.233,180.030 217.790,180.800 217.445 C 182.086 216.869,181.804 216.598,180.400 217.061 M174.400 277.017 C 173.190 277.319,171.626 277.574,170.924 277.583 C 169.375 277.604,169.257 277.777,168.795 280.694 C 168.583 282.035,167.734 284.339,166.765 286.200 C 164.685 290.197,164.012 292.629,163.999 296.200 C 163.983 300.322,163.040 303.680,160.805 307.568 C 157.440 313.421,154.430 324.429,155.938 325.362 C 156.832 325.914,158.463 324.427,172.800 309.984 C 190.797 291.856,196.809 286.817,208.092 280.407 C 211.768 278.318,211.775 278.177,208.159 279.050 C 203.928 280.070,195.733 279.968,190.200 278.825 C 177.737 276.251,177.553 276.230,174.400 277.017 M252.781 308.100 C 251.592 309.359,250.296 311.200,250.599 311.200 C 250.851 311.200,252.536 309.318,253.523 307.934 C 254.248 306.916,253.806 307.015,252.781 308.100 M233.108 326.725 C 231.548 327.309,229.376 327.725,227.218 327.852 C 217.851 328.403,215.713 329.440,196.891 342.559 C 190.231 347.202,181.321 353.193,177.091 355.874 C 172.861 358.555,169.050 361.001,168.623 361.310 C 167.427 362.175,167.248 366.546,168.323 368.633 C 170.526 372.910,179.471 378.137,188.510 380.429 C 202.504 383.977,210.573 384.960,225.800 384.970 C 248.362 384.986,257.752 382.705,272.589 373.604 C 278.336 370.080,284.438 367.119,291.200 364.576 C 300.829 360.954,302.718 359.668,302.082 357.164 C 301.766 355.917,301.760 354.538,302.062 352.291 C 302.995 345.364,301.192 342.687,294.985 341.786 C 290.998 341.207,291.549 339.779,295.628 340.121 C 303.339 340.767,308.497 349.614,305.411 356.900 C 304.482 359.092,311.095 355.456,319.018 349.418 C 320.788 348.069,322.858 346.731,323.618 346.446 C 326.990 345.180,326.705 345.601,326.859 341.653 C 327.014 337.693,327.964 335.990,330.344 335.405 C 330.925 335.263,331.805 334.884,332.300 334.564 C 334.294 333.274,332.854 328.721,330.663 329.389 C 329.857 329.635,327.518 329.954,320.558 330.770 C 316.141 331.288,310.216 334.294,312.150 335.036 C 312.513 335.176,313.573 335.180,314.505 335.045 C 316.590 334.745,317.600 335.257,316.957 336.289 C 315.313 338.926,306.978 337.634,301.515 333.894 C 299.532 332.536,298.136 331.934,295.749 331.408 C 294.017 331.025,292.379 330.534,292.109 330.315 C 291.020 329.432,287.483 333.195,287.142 335.600 C 287.006 336.560,287.085 336.600,289.150 336.600 C 290.753 336.600,291.414 336.777,291.744 337.292 C 292.512 338.494,291.145 339.410,288.686 339.342 C 287.539 339.310,284.620 339.274,282.200 339.261 C 278.104 339.240,270.991 338.476,266.800 337.608 C 260.540 336.311,256.405 337.474,255.815 340.698 C 255.389 343.031,254.476 344.247,253.719 343.491 C 253.183 342.955,253.193 342.631,253.802 340.544 C 256.703 330.605,244.506 322.460,233.108 326.725 M329.190 338.626 C 328.419 340.655,328.685 344.490,329.564 344.019 C 331.695 342.879,332.650 339.300,331.111 338.223 C 329.904 337.377,329.644 337.432,329.190 338.626 M136.680 346.900 C 131.654 357.689,139.957 372.674,148.670 368.540 L 150.061 367.880 148.885 367.135 C 143.745 363.881,138.410 354.167,138.320 347.900 C 138.267 344.245,137.994 344.079,136.680 346.900 M130.594 348.639 C 118.727 356.318,108.851 359.059,101.000 356.854 C 95.804 355.395,91.734 356.519,86.797 360.779 C 84.980 362.346,82.719 364.082,81.773 364.637 C 80.183 365.569,79.231 365.881,73.864 367.236 C 70.133 368.177,65.782 373.424,66.599 375.997 C 67.574 379.068,74.923 378.315,80.383 374.584 C 84.227 371.957,85.926 372.528,82.764 375.385 C 80.754 377.201,80.769 377.216,84.209 376.872 C 87.301 376.562,91.256 376.862,96.400 377.796 C 110.136 380.289,128.295 378.100,140.939 372.427 C 144.025 371.043,144.145 370.767,142.064 369.829 C 135.266 366.763,131.238 355.804,134.142 348.276 C 135.140 345.691,135.153 345.690,130.594 348.639 M304.093 353.600 C 304.093 354.370,304.175 354.685,304.276 354.300 C 304.376 353.915,304.376 353.285,304.276 352.900 C 304.175 352.515,304.093 352.830,304.093 353.600 " stroke="none" fill="#fdf3dd" fill-rule="evenodd"></path><path id="path1" d="M158.099 22.865 C 155.088 24.325,150.089 30.590,146.959 36.827 C 141.390 47.925,140.043 61.851,142.166 86.400 C 142.499 90.250,143.049 97.450,143.388 102.400 C 144.446 117.841,144.804 121.917,145.419 125.514 C 146.179 129.960,147.813 135.816,149.294 139.400 C 153.886 150.510,154.875 156.113,155.017 171.800 C 155.130 184.276,155.322 185.307,157.994 187.800 C 159.958 189.633,160.155 190.527,159.218 193.360 C 156.831 200.567,157.575 207.051,161.865 216.435 C 163.185 219.324,163.272 219.719,162.782 220.633 C 162.147 221.820,162.135 224.199,162.761 224.953 C 163.025 225.271,163.103 226.193,162.957 227.259 C 162.817 228.285,162.978 230.380,163.338 232.218 C 163.681 233.968,164.166 237.431,164.415 239.913 C 164.664 242.395,165.199 245.995,165.604 247.913 C 166.009 249.831,166.720 253.169,167.184 255.332 C 168.159 259.879,168.273 262.401,167.866 270.400 C 167.404 279.493,166.983 281.630,164.756 286.200 C 162.588 290.648,162.003 293.054,161.994 297.555 C 161.987 301.166,161.686 302.092,158.729 307.600 C 153.872 316.645,152.216 326.637,155.439 327.445 C 157.292 327.911,158.896 326.646,167.112 318.238 C 190.717 294.081,197.807 288.054,210.800 281.093 C 217.994 277.239,220.369 275.533,226.652 269.703 C 234.829 262.115,238.217 260.600,247.000 260.600 C 252.456 260.600,252.904 260.697,257.489 262.863 C 270.553 269.036,283.390 292.457,287.395 317.426 C 287.745 319.612,288.325 323.171,288.684 325.336 L 289.335 329.272 288.067 330.456 C 286.548 331.876,285.541 333.696,285.222 335.600 L 284.988 337.000 280.371 337.112 C 277.495 337.182,274.255 336.981,271.777 336.578 C 263.557 335.244,262.542 335.135,260.200 335.334 C 258.880 335.447,257.464 335.598,257.053 335.670 C 256.481 335.770,256.190 335.410,255.804 334.130 C 254.142 328.603,249.433 325.122,242.500 324.295 C 238.116 323.772,238.162 323.873,241.264 321.600 C 246.282 317.922,248.004 316.876,248.731 317.066 C 250.844 317.619,260.400 313.854,260.400 312.469 C 260.400 311.272,259.558 311.186,256.161 312.035 C 252.011 313.072,252.010 313.071,254.829 309.396 C 259.862 302.836,261.273 299.600,259.103 299.600 C 257.167 299.600,248.032 310.002,246.935 313.454 C 246.363 315.257,245.986 315.703,243.842 317.120 C 242.499 318.008,241.038 319.075,240.595 319.493 C 240.153 319.911,238.803 320.912,237.595 321.717 C 236.388 322.523,234.950 323.542,234.400 323.983 C 233.156 324.980,229.673 325.788,223.200 326.581 C 217.235 327.312,213.288 329.052,205.710 334.294 C 173.858 356.327,169.075 359.415,165.814 360.049 C 164.926 360.222,161.500 361.810,158.200 363.577 C 150.932 367.469,151.948 367.477,147.895 363.500 C 142.889 358.588,140.839 353.687,141.352 347.858 C 141.939 341.185,141.614 341.823,147.900 335.007 C 151.035 331.607,153.600 328.634,153.600 328.400 C 153.600 326.879,152.011 327.993,146.872 333.114 C 130.021 349.908,114.225 357.456,101.144 354.963 C 94.331 353.664,90.753 354.731,85.319 359.682 C 81.804 362.885,79.523 364.083,75.256 364.966 C 69.141 366.232,64.800 370.547,64.800 375.360 C 64.800 378.750,66.592 379.688,72.891 379.596 C 75.151 379.563,77.450 379.577,78.000 379.628 C 78.550 379.679,80.951 379.398,83.335 379.005 C 87.482 378.320,87.845 378.319,91.735 378.992 C 93.971 379.379,96.691 379.849,97.779 380.036 C 111.778 382.447,131.093 379.135,146.400 371.700 C 152.698 368.642,164.749 363.200,165.225 363.200 C 165.369 363.200,165.599 364.282,165.737 365.605 C 166.656 374.393,178.621 381.081,200.000 384.758 C 229.802 389.882,255.666 386.714,272.458 375.881 C 277.791 372.440,282.011 370.297,289.200 367.381 C 297.270 364.106,301.024 362.265,302.600 360.809 C 303.315 360.149,304.457 359.602,305.423 359.458 C 306.316 359.324,307.622 358.928,308.325 358.578 C 311.267 357.110,318.528 352.364,319.000 351.600 C 319.465 350.848,323.887 348.043,325.047 347.765 C 331.188 346.291,334.763 342.227,333.399 338.268 C 332.874 336.743,332.890 336.556,333.607 335.792 C 337.290 331.872,334.491 326.981,329.128 327.964 C 327.518 328.260,324.310 328.645,322.000 328.821 C 317.660 329.151,316.442 329.485,312.939 331.304 C 310.894 332.366,309.200 334.045,309.200 335.012 C 309.200 336.163,305.809 334.814,302.600 332.387 C 300.637 330.902,296.347 329.200,294.565 329.200 C 292.229 329.200,290.754 326.791,290.034 321.800 C 288.419 310.593,288.512 311.004,285.357 301.200 C 279.286 282.339,272.474 271.210,261.269 261.850 C 260.438 261.156,260.025 260.512,260.169 260.137 C 260.296 259.805,260.400 257.830,260.400 255.747 L 260.400 251.958 262.376 254.333 C 283.640 279.884,301.824 232.757,293.372 174.000 C 290.112 151.334,287.126 145.747,276.600 142.621 C 271.374 141.068,261.371 137.573,258.000 136.121 C 255.371 134.989,254.997 134.844,252.105 133.833 C 250.513 133.276,248.947 132.922,248.625 133.046 C 248.237 133.194,247.832 132.820,247.422 131.935 C 247.082 131.201,245.902 129.528,244.799 128.217 C 240.736 123.386,238.537 118.111,237.222 110.040 C 236.134 103.366,234.891 101.860,232.089 103.823 C 230.948 104.622,230.969 104.350,232.200 102.399 C 233.815 99.842,235.220 95.072,235.482 91.264 C 235.678 88.395,235.905 87.525,236.802 86.200 C 239.211 82.640,239.338 73.461,237.027 69.969 C 236.108 68.581,235.980 68.123,236.348 67.535 C 237.650 65.450,235.872 55.395,233.183 49.643 C 224.653 31.389,200.339 26.098,182.104 38.527 L 178.807 40.774 178.230 39.687 C 177.912 39.089,176.364 37.160,174.790 35.400 C 173.216 33.640,170.323 30.091,168.361 27.513 C 163.801 21.520,162.286 20.834,158.099 22.865 M162.825 24.013 C 163.249 24.240,164.874 26.133,166.435 28.220 C 167.997 30.306,170.636 33.495,172.301 35.306 C 177.477 40.937,177.713 41.745,174.968 44.417 C 173.961 45.398,172.395 47.441,171.488 48.959 C 170.540 50.545,169.763 51.480,169.660 51.159 C 169.415 50.397,168.782 50.032,168.136 50.280 C 167.499 50.524,167.396 54.212,167.983 55.755 C 168.247 56.451,168.186 57.604,167.783 59.481 C 165.717 69.119,167.956 80.800,171.870 80.800 C 172.692 80.800,172.800 80.990,172.800 82.442 C 172.800 85.926,174.673 91.116,176.716 93.297 L 177.745 94.395 176.932 95.297 C 174.188 98.345,177.363 109.022,184.337 120.200 C 186.421 123.541,186.446 124.058,184.469 123.036 C 181.515 121.508,178.289 121.898,179.237 123.668 C 179.809 124.738,184.510 127.707,187.200 128.697 L 189.400 129.507 189.520 131.542 C 189.692 134.436,188.356 138.533,185.342 144.357 C 180.007 154.665,174.853 161.575,163.778 173.268 C 161.972 175.175,159.805 177.560,158.962 178.568 C 158.120 179.575,157.309 180.400,157.161 180.400 C 157.013 180.400,156.804 175.495,156.696 169.500 C 156.447 155.578,155.558 150.355,151.812 140.800 C 147.626 130.124,146.874 126.330,145.820 110.543 C 145.009 98.411,144.062 85.913,143.586 81.084 C 142.465 69.713,143.300 53.944,145.443 46.000 C 148.756 33.720,158.331 21.608,162.825 24.013 M212.800 34.885 C 214.230 35.306,215.805 35.750,216.300 35.872 C 216.795 35.994,217.200 36.252,217.200 36.447 C 217.200 36.641,217.605 36.814,218.100 36.832 C 218.595 36.849,218.768 36.956,218.485 37.070 C 218.202 37.184,217.364 36.989,216.624 36.638 C 215.884 36.287,214.912 36.000,214.463 36.000 C 214.014 36.000,213.548 35.839,213.426 35.642 C 213.163 35.217,210.914 34.835,206.800 34.517 C 204.666 34.351,204.089 34.203,204.800 34.002 C 206.223 33.601,209.766 33.992,212.800 34.885 M203.800 36.681 C 189.620 40.969,182.646 47.747,181.586 58.270 C 181.327 60.842,180.732 63.623,179.968 65.828 C 179.303 67.747,178.654 70.437,178.527 71.806 C 178.300 74.235,178.277 74.277,177.547 73.547 C 176.353 72.353,174.897 73.035,173.995 75.211 C 171.983 80.069,172.027 63.430,174.046 55.719 C 177.287 43.347,187.503 36.120,201.800 36.086 L 205.800 36.076 203.800 36.681 M216.800 39.820 C 225.748 43.044,231.561 51.498,232.765 63.038 C 233.189 67.103,233.567 68.286,235.072 70.259 C 237.455 73.383,237.266 82.877,234.758 86.077 C 233.720 87.400,233.600 87.857,233.600 90.493 C 233.600 109.691,209.288 119.791,193.400 107.193 C 188.831 103.570,185.656 99.108,185.695 96.364 C 185.714 95.045,185.393 94.069,184.422 92.494 C 181.879 88.369,179.806 88.917,181.370 93.300 C 182.067 95.252,181.499 95.275,179.289 93.383 C 176.552 91.040,175.016 87.400,175.007 83.233 C 174.998 78.920,175.414 78.761,178.556 81.877 C 181.500 84.798,182.356 84.360,181.283 80.482 C 180.163 76.435,180.432 70.099,181.907 65.799 C 182.737 63.381,183.228 61.017,183.403 58.599 C 184.413 44.684,202.333 34.608,216.800 39.820 M172.643 54.254 C 172.095 56.204,171.371 58.970,171.034 60.400 L 170.422 63.000 170.524 59.400 C 170.613 56.241,170.789 55.467,171.963 53.083 C 173.695 49.564,173.875 49.874,172.643 54.254 M177.200 77.303 C 177.200 77.897,177.012 77.996,176.300 77.777 C 175.035 77.389,175.011 77.333,175.570 76.106 C 176.130 74.878,177.200 75.664,177.200 77.303 M183.087 101.229 C 186.057 104.634,193.236 115.459,193.811 117.400 C 194.399 119.383,194.958 128.400,194.493 128.400 C 194.306 128.400,193.804 128.136,193.376 127.813 C 192.949 127.490,192.313 127.220,191.963 127.213 C 190.402 127.182,180.897 111.169,179.047 105.457 C 176.154 96.519,177.631 94.972,183.087 101.229 M229.829 106.743 C 228.776 108.780,229.028 111.319,230.600 114.510 C 232.541 118.451,232.514 119.756,230.335 127.200 C 227.725 136.113,229.175 146.686,233.656 151.427 L 234.816 152.654 234.708 161.567 L 234.600 170.479 233.000 171.370 C 232.120 171.860,230.410 172.585,229.200 172.981 C 227.990 173.377,226.587 173.858,226.081 174.050 C 224.383 174.697,217.582 174.449,214.939 173.645 C 202.780 169.947,195.495 157.969,198.003 145.800 C 198.710 142.374,198.709 141.400,198.000 141.400 C 196.018 141.400,195.063 152.314,196.581 157.600 C 200.745 172.092,217.587 180.518,230.600 174.620 C 231.260 174.321,232.473 173.799,233.296 173.460 C 236.057 172.323,236.796 171.204,236.826 168.118 L 236.853 165.400 237.362 167.400 C 238.794 173.018,239.824 181.527,240.386 192.394 C 240.926 202.822,242.335 204.986,244.763 199.116 C 245.244 197.952,245.797 196.640,245.992 196.200 C 246.232 195.657,246.355 196.560,246.373 199.007 C 246.533 220.399,249.668 230.257,254.634 224.991 L 255.963 223.583 256.357 225.091 C 256.574 225.921,257.045 227.770,257.404 229.200 C 259.944 239.332,262.688 241.730,264.383 235.300 C 264.926 233.240,265.251 233.179,266.108 234.976 C 270.651 244.502,272.614 220.466,268.742 202.729 C 268.383 201.084,268.434 200.720,269.158 199.729 C 271.182 196.958,270.360 170.207,268.273 170.911 C 267.726 171.095,267.666 174.217,268.070 181.400 C 268.225 184.148,268.197 185.687,268.005 185.000 C 267.222 182.196,266.314 178.601,264.823 172.400 C 261.192 157.298,257.377 147.933,251.731 140.264 C 246.995 133.831,247.225 133.785,259.600 138.709 C 264.143 140.517,270.666 142.726,277.000 144.603 C 283.262 146.458,286.714 150.862,288.990 159.900 C 293.529 177.923,294.692 204.422,291.963 227.600 C 289.822 245.779,280.814 261.177,273.154 259.749 C 268.409 258.865,259.600 250.067,259.600 246.213 C 259.600 242.878,254.808 229.196,253.458 228.678 C 250.141 227.405,252.538 238.845,257.451 247.734 C 258.448 249.537,258.522 250.015,258.552 254.822 C 258.588 260.841,258.407 261.250,256.113 260.319 C 252.738 258.949,251.233 258.677,247.002 258.671 C 238.075 258.657,233.462 260.720,225.436 268.311 C 219.920 273.529,218.037 274.907,216.770 274.654 C 216.163 274.533,214.787 274.786,213.596 275.238 C 206.603 277.895,196.394 278.366,187.534 276.441 C 180.513 274.915,176.025 274.321,172.381 274.433 L 169.400 274.526 169.451 273.163 C 169.478 272.413,169.632 269.280,169.791 266.200 C 170.082 260.590,169.925 258.876,168.606 253.200 C 167.461 248.277,166.819 244.587,166.204 239.400 C 165.865 236.540,165.292 232.797,164.932 231.082 C 164.121 227.224,164.178 227.159,168.456 227.022 C 170.295 226.964,174.230 226.616,177.200 226.249 C 180.170 225.882,184.049 225.406,185.821 225.191 C 190.179 224.662,198.804 224.697,201.776 225.256 C 203.109 225.506,206.360 226.210,209.000 226.819 C 216.500 228.550,217.575 228.761,221.200 229.223 C 234.230 230.884,249.400 230.780,249.400 229.028 C 249.400 228.287,248.974 228.254,238.400 228.187 C 232.350 228.149,226.230 227.914,224.800 227.666 C 223.370 227.417,220.850 227.028,219.200 226.801 C 216.000 226.362,211.347 225.492,208.400 224.782 C 202.163 223.280,193.967 222.319,187.400 222.319 C 181.055 222.319,167.626 223.599,165.749 224.383 C 164.725 224.810,164.000 224.224,164.000 222.969 C 164.000 221.489,164.867 221.105,166.996 221.641 C 172.086 222.922,180.517 220.542,188.110 215.679 C 193.061 212.508,191.398 210.568,185.800 212.984 C 175.717 217.337,166.079 219.679,164.792 218.090 C 161.141 213.581,158.596 200.918,160.311 195.800 C 161.922 190.995,161.793 188.672,159.809 186.809 C 158.800 185.861,158.998 184.800,160.183 184.800 C 162.004 184.800,169.755 174.588,175.818 164.200 C 177.102 162.000,179.843 157.500,181.909 154.200 C 188.014 144.447,191.068 137.519,191.479 132.487 C 191.610 130.885,191.879 129.475,192.076 129.353 C 192.748 128.938,195.222 131.254,196.835 133.808 C 199.390 137.854,202.331 139.939,202.710 137.973 C 202.775 137.634,201.636 135.958,200.178 134.249 C 197.085 130.624,196.972 130.308,196.384 123.656 C 195.779 116.814,195.256 115.184,192.213 110.665 C 190.782 108.539,189.701 106.800,189.811 106.800 C 189.921 106.800,191.044 107.642,192.306 108.671 C 202.448 116.941,218.087 116.465,227.698 107.594 C 230.447 105.056,230.768 104.928,229.829 106.743 M234.534 105.500 C 234.633 105.665,235.009 107.818,235.369 110.284 C 236.093 115.246,237.416 119.726,238.992 122.548 L 240.026 124.400 238.283 124.400 C 236.926 124.400,236.324 124.629,235.570 125.432 L 234.600 126.463 234.477 137.661 C 234.338 150.220,234.154 150.768,232.126 144.653 C 230.433 139.547,230.542 132.221,232.397 126.400 C 234.264 120.542,234.266 117.937,232.407 114.200 C 230.662 110.693,230.596 108.668,232.158 106.619 C 233.181 105.278,234.130 104.831,234.534 105.500 M239.935 126.959 C 240.771 127.486,242.416 129.104,243.592 130.553 C 244.767 132.002,246.068 133.295,246.481 133.426 C 246.994 133.588,247.159 133.900,246.999 134.403 C 246.647 135.511,247.592 137.415,250.991 142.446 C 257.464 152.028,259.387 157.284,264.800 180.200 C 266.711 188.292,267.210 190.079,267.791 190.909 C 268.615 192.084,268.664 197.381,267.841 196.297 C 267.548 195.910,266.823 193.840,266.230 191.697 C 264.814 186.577,264.415 185.600,263.739 185.600 C 262.726 185.600,262.731 186.659,263.762 190.057 C 267.624 202.792,269.921 220.654,268.857 229.668 C 268.606 231.796,268.400 233.753,268.400 234.017 C 268.400 235.428,267.183 233.213,266.435 230.442 C 265.687 227.669,265.621 226.664,265.848 221.558 C 266.626 204.047,260.792 175.800,256.398 175.800 C 255.460 175.800,255.392 175.943,255.267 178.200 C 255.093 181.336,255.582 185.372,257.618 197.600 C 259.006 205.943,259.004 205.747,257.679 203.000 C 253.476 194.293,252.144 200.303,254.789 216.035 C 255.633 221.057,255.529 221.595,253.305 223.708 C 251.740 225.195,251.084 224.484,250.042 220.174 C 248.367 213.242,247.508 188.667,248.636 179.969 C 249.756 171.336,249.204 157.200,247.747 157.200 C 246.602 157.200,246.400 159.384,246.400 171.796 C 246.400 179.146,246.222 185.221,245.970 186.469 C 244.237 195.067,243.166 198.939,242.676 198.388 C 242.584 198.285,242.301 194.420,242.048 189.800 C 241.465 179.148,240.762 174.305,237.181 156.280 C 236.645 153.579,236.707 151.341,237.354 150.080 C 239.417 146.058,241.150 132.407,239.771 131.029 C 238.926 130.183,238.843 130.206,237.270 131.700 L 235.901 133.000 236.099 130.370 C 236.432 125.944,237.218 125.244,239.935 126.959 M238.150 137.505 C 237.863 140.950,237.150 144.800,236.798 144.800 C 236.289 144.800,236.120 142.014,236.484 139.628 C 237.225 134.773,238.514 133.131,238.150 137.505 M168.929 171.100 C 167.856 174.152,160.119 183.600,158.693 183.600 C 157.212 183.600,158.417 181.725,163.065 176.800 C 165.038 174.710,167.165 172.415,167.792 171.700 C 169.095 170.214,169.273 170.120,168.929 171.100 M258.000 181.169 C 258.000 181.538,258.152 182.011,258.337 182.220 C 259.138 183.122,261.320 191.686,262.358 198.000 C 263.863 207.157,264.592 218.752,263.599 217.759 C 263.204 217.364,261.665 210.060,259.982 200.600 C 259.513 197.960,258.865 194.360,258.544 192.600 C 258.037 189.831,256.812 180.858,256.803 179.851 C 256.801 179.659,257.070 179.726,257.400 180.000 C 257.730 180.274,258.000 180.800,258.000 181.169 M256.326 204.700 C 257.701 208.274,258.004 217.472,256.677 215.324 C 256.357 214.807,255.200 206.504,255.200 204.725 C 255.200 203.290,255.779 203.277,256.326 204.700 M260.806 214.400 C 261.274 216.710,262.110 220.490,262.665 222.800 C 263.911 227.985,263.386 236.386,261.848 235.887 C 260.182 235.345,257.043 221.701,257.993 219.126 C 258.644 217.360,259.591 212.547,259.631 210.800 C 259.672 209.000,259.781 209.334,260.806 214.400 M180.800 217.445 C 180.030 217.790,179.093 218.233,178.717 218.429 C 178.342 218.625,177.303 218.902,176.409 219.045 C 175.514 219.188,174.686 219.461,174.568 219.653 C 174.449 219.844,173.778 219.988,173.076 219.973 C 172.113 219.953,172.585 219.702,175.000 218.949 C 176.760 218.401,178.560 217.796,179.000 217.605 C 180.217 217.078,180.940 216.865,181.600 216.841 C 181.930 216.828,181.570 217.100,180.800 217.445 M181.800 277.165 C 184.000 277.578,187.780 278.325,190.200 278.825 C 195.733 279.968,203.928 280.070,208.159 279.050 C 211.775 278.177,211.768 278.318,208.092 280.407 C 196.809 286.817,190.797 291.856,172.800 309.984 C 158.463 324.427,156.832 325.914,155.938 325.362 C 154.430 324.429,157.440 313.421,160.805 307.568 C 163.040 303.680,163.983 300.322,163.999 296.200 C 164.012 292.629,164.685 290.197,166.765 286.200 C 167.734 284.339,168.583 282.035,168.795 280.694 C 169.257 277.777,169.375 277.604,170.924 277.583 C 171.626 277.574,173.190 277.319,174.400 277.017 C 177.285 276.297,177.170 276.295,181.800 277.165 M253.523 307.934 C 252.536 309.318,250.851 311.200,250.599 311.200 C 250.296 311.200,251.592 309.359,252.781 308.100 C 253.806 307.015,254.248 306.916,253.523 307.934 M244.800 326.474 C 251.914 328.260,255.673 334.135,253.802 340.544 C 253.193 342.631,253.183 342.955,253.719 343.491 C 254.476 344.247,255.389 343.031,255.815 340.698 C 256.405 337.474,260.540 336.311,266.800 337.608 C 270.991 338.476,278.104 339.240,282.200 339.261 C 284.620 339.274,287.539 339.310,288.686 339.342 C 291.145 339.410,292.512 338.494,291.744 337.292 C 291.414 336.777,290.753 336.600,289.150 336.600 C 287.085 336.600,287.006 336.560,287.142 335.600 C 287.483 333.195,291.020 329.432,292.109 330.315 C 292.379 330.534,294.017 331.025,295.749 331.408 C 298.136 331.934,299.532 332.536,301.515 333.894 C 306.978 337.634,315.313 338.926,316.957 336.289 C 317.600 335.257,316.590 334.745,314.505 335.045 C 313.573 335.180,312.513 335.176,312.150 335.036 C 310.216 334.294,316.141 331.288,320.558 330.770 C 327.518 329.954,329.857 329.635,330.663 329.389 C 332.854 328.721,334.294 333.274,332.300 334.564 C 331.805 334.884,330.925 335.263,330.344 335.405 C 327.964 335.990,327.014 337.693,326.859 341.653 C 326.705 345.601,326.990 345.180,323.618 346.446 C 322.858 346.731,320.788 348.069,319.018 349.418 C 311.095 355.456,304.482 359.092,305.411 356.900 C 308.497 349.614,303.339 340.767,295.628 340.121 C 291.549 339.779,290.998 341.207,294.985 341.786 C 301.192 342.687,302.995 345.364,302.062 352.291 C 301.760 354.538,301.766 355.917,302.082 357.164 C 302.718 359.668,300.829 360.954,291.200 364.576 C 284.438 367.119,278.336 370.080,272.589 373.604 C 257.752 382.705,248.362 384.986,225.800 384.970 C 210.573 384.960,202.504 383.977,188.510 380.429 C 179.471 378.137,170.526 372.910,168.323 368.633 C 167.248 366.546,167.427 362.175,168.623 361.310 C 169.050 361.001,172.861 358.555,177.091 355.874 C 181.321 353.193,190.231 347.202,196.891 342.559 C 215.713 329.440,217.851 328.403,227.218 327.852 C 229.376 327.725,231.548 327.309,233.108 326.725 C 235.847 325.700,241.255 325.584,244.800 326.474 M331.111 338.223 C 332.650 339.300,331.695 342.879,329.564 344.019 C 328.852 344.401,328.800 344.267,328.800 342.040 C 328.800 338.117,329.443 337.055,331.111 338.223 M138.320 347.900 C 138.410 354.167,143.745 363.881,148.885 367.135 L 150.061 367.880 148.670 368.540 C 139.957 372.674,131.654 357.689,136.680 346.900 C 137.994 344.079,138.267 344.245,138.320 347.900 M134.142 348.276 C 131.238 355.804,135.266 366.763,142.064 369.829 C 144.145 370.767,144.025 371.043,140.939 372.427 C 128.295 378.100,110.136 380.289,96.400 377.796 C 91.256 376.862,87.301 376.562,84.209 376.872 C 80.769 377.216,80.754 377.201,82.764 375.385 C 85.926 372.528,84.227 371.957,80.383 374.584 C 74.923 378.315,67.574 379.068,66.599 375.997 C 65.782 373.424,70.133 368.177,73.864 367.236 C 79.231 365.881,80.183 365.569,81.773 364.637 C 82.719 364.082,84.980 362.346,86.797 360.779 C 91.734 356.519,95.804 355.395,101.000 356.854 C 108.851 359.059,118.727 356.318,130.594 348.639 C 135.153 345.690,135.140 345.691,134.142 348.276 M304.276 354.300 C 304.175 354.685,304.093 354.370,304.093 353.600 C 304.093 352.830,304.175 352.515,304.276 352.900 C 304.376 353.285,304.376 353.915,304.276 354.300 " stroke="none" fill="#ba4b2f" fill-rule="evenodd"></path></g></svg>