<svg id="svg" version="1.1" xmlns="http://www.w3.org/2000/svg" xmlns:xlink="http://www.w3.org/1999/xlink" width="400" height="364.42831215970966" viewBox="0, 0, 400,364.42831215970966"><g id="svgg"><path id="path0" d="M0.000 182.214 L 0.000 364.428 200.000 364.428 L 400.000 364.428 400.000 182.214 L 400.000 0.000 200.000 0.000 L 0.000 0.000 0.000 182.214 M166.808 24.330 C 172.224 26.948,173.568 32.601,171.508 44.102 C 169.364 56.073,170.695 59.885,179.492 66.960 C 186.999 72.997,188.106 75.409,188.748 87.117 C 189.715 104.751,197.102 116.570,211.789 123.980 C 216.696 126.455,216.847 126.676,215.156 128.893 C 212.353 132.567,206.018 133.996,201.565 131.957 C 197.998 130.324,196.613 128.485,195.308 123.650 C 194.262 119.777,193.841 119.067,190.481 115.500 C 185.968 110.709,185.405 108.772,186.214 100.836 C 187.018 92.947,185.933 90.049,179.637 83.274 C 171.215 74.213,171.196 74.168,166.046 51.724 C 162.076 34.425,161.831 33.394,161.696 33.394 C 160.207 33.394,159.112 39.111,160.040 42.043 C 160.462 43.375,161.031 45.771,161.305 47.368 C 162.190 52.522,173.089 77.782,181.973 95.271 C 185.306 101.833,185.187 101.512,184.532 102.167 C 183.834 102.866,181.407 102.889,180.109 102.209 C 177.212 100.691,175.952 98.292,175.125 92.721 C 174.263 86.915,173.580 85.906,167.800 81.893 C 163.375 78.822,161.200 75.701,160.059 70.787 L 159.597 68.797 158.714 71.150 C 156.053 78.243,157.342 84.506,162.623 90.153 C 165.620 93.355,165.313 93.960,161.043 93.272 C 154.443 92.207,147.640 94.731,142.516 100.145 C 139.695 103.125,140.012 103.170,144.237 100.385 C 157.537 91.615,169.212 93.929,173.302 106.145 C 175.099 111.512,175.396 115.745,175.684 140.109 C 176.000 166.838,176.278 169.899,179.193 178.766 C 181.921 187.065,184.475 190.964,194.145 201.590 C 204.167 212.603,205.939 215.752,208.897 227.814 C 211.861 239.903,214.778 246.047,222.312 256.073 C 240.086 279.725,256.306 290.226,271.930 288.195 C 275.147 287.777,276.459 287.479,286.045 284.987 C 294.969 282.667,299.151 282.993,310.889 286.922 C 322.842 290.923,321.890 290.813,340.835 290.388 C 348.321 290.221,350.427 290.546,354.852 292.552 C 358.311 294.120,361.984 294.123,364.915 292.559 C 368.486 290.654,370.993 291.555,374.348 295.951 C 378.628 301.558,378.017 308.493,372.584 315.971 C 367.948 322.351,367.094 323.740,364.180 329.633 C 359.364 339.375,354.830 343.070,345.951 344.488 C 334.155 346.373,326.385 335.527,337.889 333.235 C 343.772 332.063,344.823 330.029,343.386 322.603 C 341.667 313.724,342.704 310.353,347.602 308.888 C 348.882 308.505,349.282 308.526,350.288 309.028 C 351.462 309.614,351.480 309.609,353.076 308.301 C 353.959 307.577,355.528 306.519,356.561 305.949 L 358.439 304.913 357.067 304.907 C 355.224 304.898,352.013 306.018,347.752 308.157 C 342.428 310.828,340.697 311.236,336.308 310.848 C 329.114 310.212,323.575 310.505,309.074 312.284 C 290.520 314.561,290.062 314.612,282.577 315.250 C 272.122 316.141,265.469 316.876,260.799 317.655 C 251.568 319.194,249.790 319.406,246.065 319.413 C 237.204 319.428,231.174 316.507,218.330 305.977 C 209.999 299.146,208.065 297.740,199.503 292.284 C 183.690 282.207,177.823 276.771,161.064 256.670 L 160.060 255.465 154.712 255.144 C 128.840 253.590,107.543 248.484,89.292 239.459 C 86.397 238.027,83.911 236.800,83.766 236.731 C 83.622 236.663,83.656 237.068,83.843 237.632 C 86.301 245.054,86.820 258.810,85.115 271.325 C 82.556 290.109,82.612 289.495,82.594 298.911 C 82.573 310.157,83.509 317.601,86.063 326.511 C 87.796 332.556,87.861 332.511,75.565 333.638 C 57.640 335.280,30.542 334.362,24.138 331.896 C 18.967 329.904,21.519 325.302,29.038 323.060 C 30.336 322.673,33.194 321.851,35.390 321.234 C 42.500 319.236,45.574 317.471,48.576 313.666 C 52.102 309.197,56.012 307.635,59.165 309.437 C 59.664 309.723,60.154 309.962,60.254 309.969 C 60.354 309.977,60.457 308.553,60.484 306.806 C 60.510 305.059,60.587 300.608,60.655 296.915 C 60.745 291.989,60.596 288.652,60.098 284.392 C 59.724 281.198,59.367 275.889,59.304 272.595 C 59.074 260.486,58.835 255.468,58.468 255.026 C 57.351 253.680,56.940 251.573,56.599 245.437 C 56.402 241.908,56.000 235.590,55.705 231.397 C 54.511 214.430,55.106 210.925,60.013 206.016 C 61.244 204.785,63.410 202.477,64.827 200.887 C 68.155 197.155,70.399 195.861,73.067 196.138 C 82.139 197.078,81.821 197.279,86.445 187.659 C 91.482 177.180,96.647 169.004,103.619 160.477 C 110.519 152.039,111.633 149.990,113.019 143.193 C 114.907 133.934,117.170 129.204,126.478 115.064 C 137.782 97.890,139.133 94.116,136.100 88.173 C 134.586 85.204,133.256 84.755,125.977 84.755 C 117.527 84.755,116.559 84.245,115.049 78.991 C 113.560 73.811,112.693 72.595,110.484 72.595 C 109.091 72.595,108.872 72.129,109.277 70.030 C 109.448 69.145,109.597 65.971,109.609 62.976 C 109.663 49.430,110.833 44.110,114.930 38.778 C 121.769 29.879,140.963 24.802,150.285 29.426 C 151.803 30.179,155.704 28.791,155.713 27.495 C 155.735 24.274,162.624 22.308,166.808 24.330 M160.436 25.816 C 158.115 26.741,157.455 28.121,158.573 29.708 C 158.946 30.238,159.370 31.054,159.516 31.522 L 159.780 32.373 160.763 31.432 C 163.189 29.108,163.138 29.001,165.884 42.105 C 167.789 51.194,168.421 53.347,168.421 50.741 C 168.421 50.021,168.911 46.978,169.510 43.979 C 171.313 34.950,170.900 30.770,167.911 27.785 C 165.817 25.695,162.760 24.889,160.436 25.816 M133.212 30.682 C 116.148 35.050,112.401 41.099,111.674 65.453 L 111.524 70.470 112.477 70.831 C 114.697 71.672,115.732 73.259,116.703 77.314 C 117.956 82.544,118.623 82.928,125.831 82.568 C 133.101 82.205,135.392 83.017,137.784 86.807 C 141.710 93.025,139.937 98.831,129.377 114.338 C 123.086 123.575,119.685 129.509,117.449 135.153 C 116.254 138.170,116.379 138.455,117.943 136.278 C 119.152 134.594,126.297 125.722,129.619 121.779 C 132.032 118.915,132.557 117.837,133.949 112.878 C 137.883 98.873,145.307 91.886,157.335 90.869 L 160.049 90.640 159.185 89.612 C 154.504 84.049,154.141 75.285,158.219 66.300 C 159.287 63.948,159.347 63.576,159.347 59.307 L 159.347 54.798 157.394 49.631 C 155.291 44.064,154.628 41.524,154.628 39.032 C 154.628 36.817,154.353 36.298,153.177 36.298 C 151.625 36.298,150.531 35.204,150.475 33.596 C 150.353 30.076,141.451 28.574,133.212 30.682 M153.902 31.942 C 154.370 32.816,154.835 32.873,155.134 32.094 C 155.459 31.246,155.435 31.216,154.434 31.216 C 153.626 31.216,153.561 31.305,153.902 31.942 M156.711 33.900 C 156.139 35.107,156.130 35.310,156.621 35.802 C 157.338 36.518,157.629 35.868,157.465 33.916 L 157.350 32.548 156.711 33.900 M156.857 41.198 C 156.857 41.597,156.997 42.250,157.169 42.650 L 157.481 43.376 157.481 42.650 C 157.481 42.250,157.340 41.597,157.169 41.198 L 156.857 40.472 156.857 41.198 M162.105 58.037 C 162.243 58.904,162.147 60.945,161.890 62.600 C 160.832 69.396,163.767 77.144,168.341 79.633 C 168.684 79.820,169.926 80.606,171.099 81.380 C 173.814 83.169,173.846 83.551,170.698 76.588 C 169.208 73.294,166.688 67.498,165.097 63.709 C 161.885 56.062,161.747 55.800,162.105 58.037 M170.437 62.160 C 172.042 69.484,174.370 73.816,180.042 80.036 C 181.863 82.033,184.096 84.694,185.005 85.951 C 185.914 87.208,186.691 88.188,186.733 88.129 C 186.774 88.070,186.689 86.365,186.544 84.339 C 186.009 76.859,184.557 74.280,177.449 68.178 C 174.779 65.887,172.124 63.330,171.548 62.496 C 170.287 60.671,170.098 60.614,170.437 62.160 M177.267 92.369 C 177.890 97.120,179.645 100.544,181.455 100.544 C 182.150 100.544,182.000 100.106,179.816 95.735 C 176.984 90.066,176.961 90.037,177.267 92.369 M154.809 97.647 C 150.716 98.463,146.302 100.909,141.155 105.215 L 137.664 108.135 136.667 111.327 C 136.118 113.083,135.356 115.517,134.973 116.736 C 134.116 119.464,132.899 121.389,129.951 124.682 C 123.094 132.342,115.756 143.075,114.169 147.766 C 112.960 151.338,111.051 154.360,106.166 160.436 C 98.963 169.393,93.277 178.412,88.087 189.111 C 83.296 198.985,82.546 199.451,73.276 198.323 C 70.696 198.010,69.357 198.919,65.028 203.925 C 63.702 205.458,63.275 206.171,63.681 206.171 C 65.546 206.171,67.893 208.166,70.347 211.839 C 74.529 218.097,76.859 217.619,85.960 208.633 C 92.311 202.363,97.947 198.911,101.834 198.911 C 102.123 198.911,102.359 198.579,102.359 198.173 C 102.359 196.569,103.550 194.824,107.828 190.161 C 114.745 182.623,122.340 173.155,124.588 169.267 C 126.162 166.547,139.224 148.889,142.823 144.618 C 146.343 140.439,153.224 133.575,153.893 133.575 C 154.208 133.575,154.789 133.797,155.182 134.067 C 157.523 135.677,163.134 136.169,167.941 135.188 C 169.011 134.970,169.148 135.059,169.847 136.427 C 171.694 140.048,170.503 143.847,165.395 150.635 C 159.270 158.774,159.302 161.608,165.573 166.553 C 170.147 170.160,170.913 172.118,170.230 178.459 C 169.005 189.830,174.245 196.634,188.819 202.598 C 194.341 204.857,194.433 204.976,192.336 207.145 C 182.831 216.974,166.032 224.113,145.009 227.256 C 141.957 227.712,141.046 228.120,141.345 228.899 C 141.651 229.695,171.698 265.604,176.035 270.356 C 183.434 278.463,189.897 283.668,202.477 291.653 C 209.809 296.307,214.938 300.076,220.580 304.954 C 230.781 313.775,236.843 316.795,245.009 317.129 C 249.268 317.303,250.234 317.199,262.287 315.268 C 265.501 314.754,272.687 313.930,278.257 313.438 C 283.827 312.947,293.612 311.890,300.000 311.090 C 322.831 308.232,326.331 307.967,333.704 308.540 C 340.735 309.087,341.781 308.893,348.106 305.869 C 353.001 303.528,355.962 302.600,357.935 302.788 C 359.109 302.900,359.319 302.826,359.120 302.370 C 358.986 302.065,358.800 300.789,358.706 299.534 C 358.539 297.315,358.491 297.224,356.934 296.152 C 351.619 292.496,347.169 291.884,331.760 292.691 C 324.092 293.093,321.492 292.663,311.252 289.299 C 298.085 284.973,294.448 284.836,282.214 288.203 C 271.156 291.247,265.990 291.350,257.532 288.696 C 245.533 284.931,234.791 275.905,221.742 258.621 C 213.160 247.255,209.966 240.901,207.104 229.505 C 204.050 217.344,202.398 214.126,194.885 205.702 C 187.295 197.193,186.187 195.850,183.630 192.058 C 175.008 179.278,173.904 173.547,173.513 139.564 C 173.225 114.598,173.100 112.730,171.331 107.002 C 169.124 99.856,162.511 96.111,154.809 97.647 M188.268 101.052 C 186.788 104.909,188.331 109.788,192.432 114.215 C 195.632 117.669,196.390 118.938,197.413 122.558 C 199.203 128.889,201.233 130.664,206.691 130.669 C 209.408 130.672,214.468 128.123,213.401 127.288 C 213.317 127.222,211.860 126.470,210.163 125.616 C 200.511 120.759,193.183 112.394,188.858 101.294 C 188.557 100.522,188.483 100.491,188.268 101.052 M149.644 140.253 C 143.670 146.468,137.706 154.090,129.737 165.699 L 126.497 170.417 126.543 177.351 C 126.594 185.168,127.070 189.147,129.963 205.989 C 130.556 209.442,132.439 215.017,134.135 218.341 C 135.426 220.871,138.916 226.497,139.194 226.497 C 139.237 226.497,139.803 226.232,140.453 225.908 C 141.103 225.584,143.465 225.105,145.701 224.845 C 161.944 222.956,178.668 216.232,188.778 207.526 C 191.015 205.600,191.057 205.750,187.931 204.545 C 173.106 198.830,166.949 190.914,168.121 179.075 C 168.743 172.794,168.627 172.501,163.534 167.514 C 156.848 160.966,156.852 158.827,163.570 149.909 C 169.036 142.653,170.513 136.448,166.499 137.599 C 164.176 138.265,159.475 137.992,156.590 137.024 C 155.103 136.525,153.827 136.116,153.754 136.116 C 153.681 136.116,151.832 137.978,149.644 140.253 M120.130 179.005 C 116.278 183.986,112.360 188.536,107.922 193.182 C 104.470 196.796,103.840 198.461,106.080 198.052 C 112.032 196.965,120.873 197.468,124.427 199.095 C 126.983 200.265,126.880 200.684,125.788 193.592 C 125.270 190.229,124.658 184.578,124.427 181.034 C 124.196 177.491,123.903 174.592,123.776 174.592 C 123.648 174.592,122.008 176.578,120.130 179.005 M109.476 199.958 C 108.817 200.216,110.134 200.515,115.359 201.291 C 117.144 201.556,122.686 201.147,122.686 200.751 C 122.686 199.862,111.440 199.187,109.476 199.958 M100.313 201.415 C 95.541 202.781,94.213 203.708,87.982 210.026 C 77.791 220.357,73.117 220.991,68.243 212.704 C 65.555 208.133,62.817 207.140,60.117 209.757 C 57.284 212.503,56.672 216.166,57.489 225.468 C 57.793 228.929,58.223 235.517,58.444 240.109 C 59.030 252.280,59.552 254.506,61.617 253.652 C 62.302 253.368,65.997 253.267,73.434 253.327 L 84.254 253.415 84.066 252.206 C 83.962 251.542,83.775 249.855,83.651 248.457 C 83.406 245.698,82.001 238.661,81.115 235.755 C 80.219 232.817,80.967 232.615,84.900 234.733 C 86.617 235.657,88.185 236.533,88.385 236.678 C 97.903 243.616,139.652 253.691,155.702 252.923 L 157.996 252.813 155.202 249.365 C 153.665 247.468,150.411 243.793,147.971 241.198 C 142.555 235.437,140.771 233.291,139.818 231.386 C 139.416 230.582,138.207 228.785,137.131 227.394 C 132.351 221.208,129.753 215.253,127.952 206.352 C 127.629 204.755,127.288 203.077,127.194 202.624 C 127.060 201.974,126.891 201.869,126.398 202.129 C 122.822 204.015,110.818 203.539,105.457 201.299 C 103.769 200.594,103.133 200.608,100.313 201.415 M64.065 256.090 C 68.262 258.001,75.602 258.222,79.129 256.545 L 81.125 255.596 72.051 255.595 C 64.092 255.594,63.110 255.655,64.065 256.090 M82.940 256.680 C 79.282 260.399,67.789 260.969,61.738 257.730 L 60.868 257.265 61.160 261.209 C 61.320 263.379,61.490 268.258,61.538 272.051 C 61.586 275.904,61.911 281.270,62.275 284.211 C 62.896 289.242,62.939 291.503,62.678 305.688 C 62.591 310.435,64.263 312.232,69.255 312.754 C 73.126 313.158,80.838 311.370,80.677 310.105 C 79.735 302.697,80.277 289.861,82.041 277.797 C 83.908 265.026,84.703 255.859,83.938 255.920 C 83.789 255.932,83.339 256.274,82.940 256.680 M294.039 288.901 C 295.060 289.922,295.100 290.090,295.100 293.349 C 295.100 295.647,295.333 297.551,295.826 299.274 C 297.001 303.384,296.302 309.231,294.595 309.560 C 293.341 309.801,293.176 309.086,293.866 306.406 C 294.493 303.972,294.495 303.689,293.909 300.473 C 293.571 298.616,293.237 295.745,293.168 294.093 C 293.053 291.381,292.942 290.986,292.019 290.023 C 290.155 288.077,292.122 286.985,294.039 288.901 M365.652 294.750 C 365.028 295.150,363.591 295.597,362.460 295.743 L 360.403 296.007 361.355 297.278 C 363.672 300.367,365.215 305.059,364.023 305.387 C 358.030 307.030,352.450 310.586,352.450 312.762 C 352.450 315.260,350.585 317.218,348.666 316.736 C 347.393 316.417,347.455 315.376,348.879 313.157 C 350.070 311.302,349.955 310.728,348.390 310.713 C 345.002 310.683,343.824 315.152,345.418 321.984 C 347.305 330.072,345.345 334.126,339.013 335.231 C 335.306 335.878,335.390 335.817,335.390 337.889 C 335.390 343.290,345.863 344.213,353.644 339.498 C 357.571 337.118,359.103 335.153,362.651 327.949 C 365.009 323.161,366.698 320.301,368.974 317.241 C 373.848 310.691,374.764 308.712,374.769 304.719 C 374.778 297.463,369.843 292.066,365.652 294.750 M54.628 311.197 C 53.530 311.695,51.484 313.741,49.593 316.233 C 47.512 318.976,43.475 320.970,33.938 323.967 C 24.075 327.067,21.525 329.265,26.616 330.280 C 39.244 332.797,61.085 333.097,79.609 331.009 C 84.564 330.450,84.892 330.131,83.878 326.852 C 83.509 325.659,82.844 322.722,82.399 320.327 C 81.352 314.683,81.329 314.624,80.725 316.043 C 79.575 318.746,76.065 321.153,72.783 321.492 C 69.185 321.863,67.213 320.640,63.459 315.708 C 60.226 311.461,57.318 309.976,54.628 311.197 M64.871 314.554 C 68.724 319.946,73.325 320.925,77.199 317.175 C 79.621 314.831,79.653 313.411,77.271 313.941 C 73.121 314.865,69.335 314.810,65.172 313.765 L 64.118 313.501 64.871 314.554 " stroke="none" fill="#fdf3dd" fill-rule="evenodd"></path><path id="path1" d="M159.935 23.658 C 158.372 24.094,155.719 26.505,155.713 27.495 C 155.704 28.791,151.803 30.179,150.285 29.426 C 140.963 24.802,121.769 29.879,114.930 38.778 C 110.833 44.110,109.663 49.430,109.609 62.976 C 109.597 65.971,109.448 69.145,109.277 70.030 C 108.872 72.129,109.091 72.595,110.484 72.595 C 112.693 72.595,113.560 73.811,115.049 78.991 C 116.559 84.245,117.527 84.755,125.977 84.755 C 133.256 84.755,134.586 85.204,136.100 88.173 C 139.133 94.116,137.782 97.890,126.478 115.064 C 117.170 129.204,114.907 133.934,113.019 143.193 C 111.633 149.990,110.519 152.039,103.619 160.477 C 96.647 169.004,91.482 177.180,86.445 187.659 C 83.571 193.639,82.658 195.060,81.058 196.049 C 79.754 196.855,79.965 196.853,73.067 196.138 C 70.399 195.861,68.155 197.155,64.827 200.887 C 63.410 202.477,61.244 204.785,60.013 206.016 C 55.106 210.925,54.511 214.430,55.705 231.397 C 56.000 235.590,56.402 241.908,56.599 245.437 C 56.940 251.573,57.351 253.680,58.468 255.026 C 58.835 255.468,59.074 260.486,59.304 272.595 C 59.367 275.889,59.724 281.198,60.098 284.392 C 60.596 288.652,60.745 291.989,60.655 296.915 C 60.587 300.608,60.510 305.059,60.484 306.806 C 60.457 308.553,60.354 309.977,60.254 309.969 C 60.154 309.962,59.664 309.723,59.165 309.437 C 56.012 307.635,52.102 309.197,48.576 313.666 C 45.574 317.471,42.500 319.236,35.390 321.234 C 33.194 321.851,30.336 322.673,29.038 323.060 C 21.519 325.302,18.967 329.904,24.138 331.896 C 30.542 334.362,57.640 335.280,75.565 333.638 C 87.861 332.511,87.796 332.556,86.063 326.511 C 83.509 317.601,82.573 310.157,82.594 298.911 C 82.612 289.495,82.556 290.109,85.115 271.325 C 86.820 258.810,86.301 245.054,83.843 237.632 C 83.656 237.068,83.622 236.663,83.766 236.731 C 83.911 236.800,86.397 238.027,89.292 239.459 C 107.543 248.484,128.840 253.590,154.712 255.144 L 160.060 255.465 161.064 256.670 C 177.823 276.771,183.690 282.207,199.503 292.284 C 208.065 297.740,209.999 299.146,218.330 305.977 C 231.174 316.507,237.204 319.428,246.065 319.413 C 249.790 319.406,251.568 319.194,260.799 317.655 C 265.469 316.876,272.122 316.141,282.577 315.250 C 290.062 314.612,290.520 314.561,309.074 312.284 C 323.575 310.505,329.114 310.212,336.308 310.848 C 340.697 311.236,342.428 310.828,347.752 308.157 C 352.013 306.018,355.224 304.898,357.067 304.907 L 358.439 304.913 356.561 305.949 C 355.528 306.519,353.959 307.577,353.076 308.301 C 351.480 309.609,351.462 309.614,350.288 309.028 C 349.282 308.526,348.882 308.505,347.602 308.888 C 342.704 310.353,341.667 313.724,343.386 322.603 C 344.823 330.029,343.772 332.063,337.889 333.235 C 326.385 335.527,334.155 346.373,345.951 344.488 C 354.830 343.070,359.364 339.375,364.180 329.633 C 367.094 323.740,367.948 322.351,372.584 315.971 C 378.017 308.493,378.628 301.558,374.348 295.951 C 370.993 291.555,368.486 290.654,364.915 292.559 C 361.984 294.123,358.311 294.120,354.852 292.552 C 350.427 290.546,348.321 290.221,340.835 290.388 C 321.890 290.813,322.842 290.923,310.889 286.922 C 299.151 282.993,294.969 282.667,286.045 284.987 C 276.459 287.479,275.147 287.777,271.930 288.195 C 256.306 290.226,240.086 279.725,222.312 256.073 C 214.778 246.047,211.861 239.903,208.897 227.814 C 205.939 215.752,204.167 212.603,194.145 201.590 C 184.475 190.964,181.921 187.065,179.193 178.766 C 176.278 169.899,176.000 166.838,175.684 140.109 C 175.396 115.745,175.099 111.512,173.302 106.145 C 169.212 93.929,157.537 91.615,144.237 100.385 C 140.012 103.170,139.695 103.125,142.516 100.145 C 147.640 94.731,154.443 92.207,161.043 93.272 C 165.313 93.960,165.620 93.355,162.623 90.153 C 157.342 84.506,156.053 78.243,158.714 71.150 L 159.597 68.797 160.059 70.787 C 161.200 75.701,163.375 78.822,167.800 81.893 C 173.580 85.906,174.263 86.915,175.125 92.721 C 175.952 98.292,177.212 100.691,180.109 102.209 C 181.407 102.889,183.834 102.866,184.532 102.167 C 185.187 101.512,185.306 101.833,181.973 95.271 C 173.089 77.782,162.190 52.522,161.305 47.368 C 161.031 45.771,160.462 43.375,160.040 42.043 C 159.112 39.111,160.207 33.394,161.696 33.394 C 161.831 33.394,162.076 34.425,166.046 51.724 C 171.196 74.168,171.215 74.213,179.637 83.274 C 185.933 90.049,187.018 92.947,186.214 100.836 C 185.405 108.772,185.968 110.709,190.481 115.500 C 193.841 119.067,194.262 119.777,195.308 123.650 C 196.613 128.485,197.998 130.324,201.565 131.957 C 206.018 133.996,212.353 132.567,215.156 128.893 C 216.847 126.676,216.696 126.455,211.789 123.980 C 197.102 116.570,189.715 104.751,188.748 87.117 C 188.106 75.409,186.999 72.997,179.492 66.960 C 170.695 59.885,169.364 56.073,171.508 44.102 C 173.568 32.601,172.224 26.948,166.808 24.330 C 164.984 23.449,161.802 23.138,159.935 23.658 M164.931 25.855 C 170.262 27.448,171.686 33.083,169.510 43.979 C 168.911 46.978,168.421 50.021,168.421 50.741 C 168.421 53.347,167.789 51.194,165.884 42.105 C 163.138 29.001,163.189 29.108,160.763 31.432 L 159.780 32.373 159.516 31.522 C 159.370 31.054,158.946 30.238,158.573 29.708 C 156.629 26.946,160.576 24.554,164.931 25.855 M146.700 30.478 C 149.828 31.444,150.417 31.931,150.475 33.596 C 150.531 35.204,151.625 36.298,153.177 36.298 C 154.353 36.298,154.628 36.817,154.628 39.032 C 154.628 41.524,155.291 44.064,157.394 49.631 L 159.347 54.798 159.347 59.307 C 159.347 63.576,159.287 63.948,158.219 66.300 C 154.141 75.285,154.504 84.049,159.185 89.612 L 160.049 90.640 157.335 90.869 C 145.307 91.886,137.883 98.873,133.949 112.878 C 132.557 117.837,132.032 118.915,129.619 121.779 C 126.297 125.722,119.152 134.594,117.943 136.278 C 116.379 138.455,116.254 138.170,117.449 135.153 C 119.685 129.509,123.086 123.575,129.377 114.338 C 139.937 98.831,141.710 93.025,137.784 86.807 C 135.392 83.017,133.101 82.205,125.831 82.568 C 118.623 82.928,117.956 82.544,116.703 77.314 C 115.732 73.259,114.697 71.672,112.477 70.831 L 111.524 70.470 111.674 65.453 C 112.202 47.775,113.376 43.061,118.462 38.196 C 125.285 31.669,138.692 28.005,146.700 30.478 M155.354 31.368 C 155.354 32.614,154.452 32.970,153.902 31.942 C 153.561 31.305,153.626 31.216,154.434 31.216 C 154.940 31.216,155.354 31.284,155.354 31.368 M157.376 35.818 C 157.197 36.284,157.101 36.282,156.621 35.802 C 156.130 35.310,156.139 35.107,156.711 33.900 L 157.350 32.548 157.465 33.916 C 157.528 34.669,157.488 35.525,157.376 35.818 M157.481 42.650 L 157.481 43.376 157.169 42.650 C 156.997 42.250,156.857 41.597,156.857 41.198 L 156.857 40.472 157.169 41.198 C 157.340 41.597,157.481 42.250,157.481 42.650 M165.097 63.709 C 166.688 67.498,169.208 73.294,170.698 76.588 C 173.846 83.551,173.814 83.169,171.099 81.380 C 169.926 80.606,168.684 79.820,168.341 79.633 C 163.767 77.144,160.832 69.396,161.890 62.600 C 162.147 60.945,162.243 58.904,162.105 58.037 C 161.747 55.800,161.885 56.062,165.097 63.709 M171.548 62.496 C 172.124 63.330,174.779 65.887,177.449 68.178 C 184.557 74.280,186.009 76.859,186.544 84.339 C 186.689 86.365,186.774 88.070,186.733 88.129 C 186.691 88.188,185.914 87.208,185.005 85.951 C 184.096 84.694,181.863 82.033,180.042 80.036 C 174.370 73.816,172.042 69.484,170.437 62.160 C 170.098 60.614,170.287 60.671,171.548 62.496 M179.816 95.735 C 182.000 100.106,182.150 100.544,181.455 100.544 C 179.645 100.544,177.890 97.120,177.267 92.369 C 176.961 90.037,176.984 90.066,179.816 95.735 M162.049 97.832 C 171.854 100.386,173.115 104.976,173.513 139.564 C 173.904 173.547,175.008 179.278,183.630 192.058 C 186.187 195.850,187.295 197.193,194.885 205.702 C 202.398 214.126,204.050 217.344,207.104 229.505 C 209.966 240.901,213.160 247.255,221.742 258.621 C 234.791 275.905,245.533 284.931,257.532 288.696 C 265.990 291.350,271.156 291.247,282.214 288.203 C 294.448 284.836,298.085 284.973,311.252 289.299 C 321.492 292.663,324.092 293.093,331.760 292.691 C 347.169 291.884,351.619 292.496,356.934 296.152 C 358.491 297.224,358.539 297.315,358.706 299.534 C 358.800 300.789,358.986 302.065,359.120 302.370 C 359.319 302.826,359.109 302.900,357.935 302.788 C 355.962 302.600,353.001 303.528,348.106 305.869 C 341.781 308.893,340.735 309.087,333.704 308.540 C 326.331 307.967,322.831 308.232,300.000 311.090 C 293.612 311.890,283.827 312.947,278.257 313.438 C 272.687 313.930,265.501 314.754,262.287 315.268 C 250.234 317.199,249.268 317.303,245.009 317.129 C 236.843 316.795,230.781 313.775,220.580 304.954 C 214.938 300.076,209.809 296.307,202.477 291.653 C 189.897 283.668,183.434 278.463,176.035 270.356 C 171.698 265.604,141.651 229.695,141.345 228.899 C 141.046 228.120,141.957 227.712,145.009 227.256 C 166.032 224.113,182.831 216.974,192.336 207.145 C 194.433 204.976,194.341 204.857,188.819 202.598 C 174.245 196.634,169.005 189.830,170.230 178.459 C 170.913 172.118,170.147 170.160,165.573 166.553 C 159.302 161.608,159.270 158.774,165.395 150.635 C 170.503 143.847,171.694 140.048,169.847 136.427 C 169.148 135.059,169.011 134.970,167.941 135.188 C 163.134 136.169,157.523 135.677,155.182 134.067 C 154.789 133.797,154.208 133.575,153.893 133.575 C 153.224 133.575,146.343 140.439,142.823 144.618 C 139.224 148.889,126.162 166.547,124.588 169.267 C 122.340 173.155,114.745 182.623,107.828 190.161 C 103.550 194.824,102.359 196.569,102.359 198.173 C 102.359 198.579,102.123 198.911,101.834 198.911 C 97.947 198.911,92.311 202.363,85.960 208.633 C 76.859 217.619,74.529 218.097,70.347 211.839 C 67.893 208.166,65.546 206.171,63.681 206.171 C 63.275 206.171,63.702 205.458,65.028 203.925 C 69.357 198.919,70.696 198.010,73.276 198.323 C 82.546 199.451,83.296 198.985,88.087 189.111 C 93.277 178.412,98.963 169.393,106.166 160.436 C 111.051 154.360,112.960 151.338,114.169 147.766 C 115.756 143.075,123.094 132.342,129.951 124.682 C 132.899 121.389,134.116 119.464,134.973 116.736 C 135.356 115.517,136.118 113.083,136.667 111.327 L 137.664 108.135 141.155 105.215 C 149.236 98.455,155.687 96.175,162.049 97.832 M190.753 105.490 C 194.863 114.273,201.690 121.353,210.163 125.616 C 211.860 126.470,213.317 127.222,213.401 127.288 C 214.468 128.123,209.408 130.672,206.691 130.669 C 201.233 130.664,199.203 128.889,197.413 122.558 C 196.390 118.938,195.632 117.669,192.432 114.215 C 188.632 110.113,188.022 108.813,188.022 104.815 C 188.022 101.159,188.319 99.909,188.858 101.294 C 189.048 101.780,189.900 103.668,190.753 105.490 M156.590 137.024 C 159.475 137.992,164.176 138.265,166.499 137.599 C 170.513 136.448,169.036 142.653,163.570 149.909 C 156.852 158.827,156.848 160.966,163.534 167.514 C 168.627 172.501,168.743 172.794,168.121 179.075 C 166.949 190.914,173.106 198.830,187.931 204.545 C 191.057 205.750,191.015 205.600,188.778 207.526 C 178.668 216.232,161.944 222.956,145.701 224.845 C 143.465 225.105,141.103 225.584,140.453 225.908 C 139.803 226.232,139.237 226.497,139.194 226.497 C 138.916 226.497,135.426 220.871,134.135 218.341 C 132.439 215.017,130.556 209.442,129.963 205.989 C 127.070 189.147,126.594 185.168,126.543 177.351 L 126.497 170.417 129.737 165.699 C 138.477 152.968,152.158 136.116,153.754 136.116 C 153.827 136.116,155.103 136.525,156.590 137.024 M124.427 181.034 C 124.658 184.578,125.270 190.229,125.788 193.592 C 126.880 200.684,126.983 200.265,124.427 199.095 C 120.873 197.468,112.032 196.965,106.080 198.052 C 103.840 198.461,104.470 196.796,107.922 193.182 C 112.360 188.536,116.278 183.986,120.130 179.005 C 122.008 176.578,123.648 174.592,123.776 174.592 C 123.903 174.592,124.196 177.491,124.427 181.034 M120.843 200.062 C 121.857 200.296,122.686 200.606,122.686 200.751 C 122.686 201.147,117.144 201.556,115.359 201.291 C 110.134 200.515,108.817 200.216,109.476 199.958 C 110.584 199.523,118.835 199.599,120.843 200.062 M105.457 201.299 C 110.818 203.539,122.822 204.015,126.398 202.129 C 126.891 201.869,127.060 201.974,127.194 202.624 C 127.288 203.077,127.629 204.755,127.952 206.352 C 129.753 215.253,132.351 221.208,137.131 227.394 C 138.207 228.785,139.416 230.582,139.818 231.386 C 140.771 233.291,142.555 235.437,147.971 241.198 C 150.411 243.793,153.665 247.468,155.202 249.365 L 157.996 252.813 155.702 252.923 C 147.741 253.304,125.149 249.771,112.917 246.232 C 104.931 243.922,90.741 238.395,88.385 236.678 C 88.185 236.533,86.617 235.657,84.900 234.733 C 80.967 232.615,80.219 232.817,81.115 235.755 C 82.001 238.661,83.406 245.698,83.651 248.457 C 83.775 249.855,83.962 251.542,84.066 252.206 L 84.254 253.415 73.434 253.327 C 65.997 253.267,62.302 253.368,61.617 253.652 C 59.552 254.506,59.030 252.280,58.444 240.109 C 58.223 235.517,57.793 228.929,57.489 225.468 C 56.672 216.166,57.284 212.503,60.117 209.757 C 62.817 207.140,65.555 208.133,68.243 212.704 C 73.117 220.991,77.791 220.357,87.982 210.026 C 94.213 203.708,95.541 202.781,100.313 201.415 C 103.133 200.608,103.769 200.594,105.457 201.299 M79.129 256.545 C 75.602 258.222,68.262 258.001,64.065 256.090 C 63.110 255.655,64.092 255.594,72.051 255.595 L 81.125 255.596 79.129 256.545 M84.207 258.167 C 84.201 261.206,83.386 268.601,82.041 277.797 C 80.277 289.861,79.735 302.697,80.677 310.105 C 80.838 311.370,73.126 313.158,69.255 312.754 C 64.263 312.232,62.591 310.435,62.678 305.688 C 62.939 291.503,62.896 289.242,62.275 284.211 C 61.911 281.270,61.586 275.904,61.538 272.051 C 61.490 268.258,61.320 263.379,61.160 261.209 L 60.868 257.265 61.738 257.730 C 67.789 260.969,79.282 260.399,82.940 256.680 C 84.058 255.543,84.211 255.723,84.207 258.167 M291.459 288.398 C 291.072 288.864,291.164 289.130,292.019 290.023 C 292.942 290.986,293.053 291.381,293.168 294.093 C 293.237 295.745,293.571 298.616,293.909 300.473 C 294.495 303.689,294.493 303.972,293.866 306.406 C 293.176 309.086,293.341 309.801,294.595 309.560 C 296.302 309.231,297.001 303.384,295.826 299.274 C 295.333 297.551,295.100 295.647,295.100 293.349 C 295.100 289.081,293.123 286.393,291.459 288.398 M371.102 295.464 C 376.878 300.788,376.222 307.500,368.974 317.241 C 366.698 320.301,365.009 323.161,362.651 327.949 C 359.103 335.153,357.571 337.118,353.644 339.498 C 345.863 344.213,335.390 343.290,335.390 337.889 C 335.390 335.817,335.306 335.878,339.013 335.231 C 345.345 334.126,347.305 330.072,345.418 321.984 C 343.824 315.152,345.002 310.683,348.390 310.713 C 349.955 310.728,350.070 311.302,348.879 313.157 C 347.455 315.376,347.393 316.417,348.666 316.736 C 350.585 317.218,352.450 315.260,352.450 312.762 C 352.450 310.586,358.030 307.030,364.023 305.387 C 365.215 305.059,363.672 300.367,361.355 297.278 L 360.403 296.007 362.460 295.743 C 363.591 295.597,365.028 295.150,365.652 294.750 C 367.537 293.543,369.264 293.769,371.102 295.464 M59.957 311.983 C 60.692 312.467,62.268 314.143,63.459 315.708 C 67.213 320.640,69.185 321.863,72.783 321.492 C 76.065 321.153,79.575 318.746,80.725 316.043 C 81.329 314.624,81.352 314.683,82.399 320.327 C 82.844 322.722,83.509 325.659,83.878 326.852 C 84.892 330.131,84.564 330.450,79.609 331.009 C 61.085 333.097,39.244 332.797,26.616 330.280 C 21.525 329.265,24.075 327.067,33.938 323.967 C 43.475 320.970,47.512 318.976,49.593 316.233 C 53.803 310.685,56.382 309.628,59.957 311.983 M68.231 314.404 C 70.282 314.786,74.428 314.574,77.271 313.941 C 79.653 313.411,79.621 314.831,77.199 317.175 C 73.325 320.925,68.724 319.946,64.871 314.554 L 64.118 313.501 65.172 313.765 C 65.751 313.910,67.128 314.198,68.231 314.404 " stroke="none" fill="#ba4b2f" fill-rule="evenodd"></path></g></svg>