<svg id="svg" version="1.1" xmlns="http://www.w3.org/2000/svg" xmlns:xlink="http://www.w3.org/1999/xlink" width="400" height="336.551724137931" viewBox="0, 0, 400,336.551724137931"><g id="svgg"><path id="path0" d="M0.000 168.350 L 0.000 336.700 200.000 336.700 L 400.000 336.700 400.000 168.350 L 400.000 0.000 200.000 0.000 L 0.000 0.000 0.000 168.350 M306.786 7.407 C 307.512 8.134,308.005 8.365,308.542 8.230 C 310.580 7.719,310.958 10.490,310.337 21.380 L 310.069 26.094 311.075 24.528 C 312.733 21.948,315.039 21.070,316.556 22.443 C 317.477 23.276,317.316 24.071,315.784 26.244 C 314.571 27.963,314.365 28.526,314.152 30.697 C 313.879 33.490,313.834 33.593,311.040 37.841 C 307.790 42.783,306.905 44.810,305.923 49.567 C 304.854 54.743,304.682 56.974,304.389 69.529 C 304.109 81.493,304.033 82.574,303.213 86.195 C 300.699 97.300,301.649 112.592,305.556 123.906 C 307.356 129.119,307.989 137.179,307.030 142.686 C 306.691 144.632,306.720 144.982,307.310 146.081 C 307.671 146.755,308.334 148.268,308.782 149.443 C 309.658 151.741,311.510 154.209,312.360 154.209 C 314.114 154.209,315.933 151.891,314.993 150.853 C 314.053 149.813,312.801 146.608,312.798 145.230 C 312.793 143.115,313.028 142.803,315.547 141.577 C 316.824 140.955,318.584 139.848,319.457 139.117 C 320.897 137.912,322.069 137.405,324.608 136.891 C 325.087 136.794,326.045 136.181,326.737 135.529 C 328.112 134.232,328.550 134.147,330.778 134.743 C 332.172 135.116,332.360 135.084,333.561 134.266 C 337.673 131.464,349.684 132.492,354.293 136.040 C 360.769 141.024,364.178 152.127,362.065 161.358 L 361.546 163.625 362.384 164.620 C 366.266 169.234,367.379 187.545,364.626 201.515 C 364.123 204.070,364.123 203.893,364.640 210.101 C 365.176 216.518,364.906 225.732,364.009 231.707 C 363.399 235.767,363.394 236.256,363.899 241.808 C 364.684 250.439,364.699 281.904,363.921 286.768 C 362.518 295.527,358.890 294.728,356.351 285.101 C 355.667 282.508,355.627 282.479,354.714 283.907 C 351.695 288.624,347.811 278.998,347.811 266.800 C 347.811 265.251,347.681 264.668,347.301 264.523 C 345.890 263.981,346.188 260.327,348.485 249.999 C 349.057 247.426,349.496 244.474,349.496 243.184 C 349.498 240.341,350.325 231.285,351.011 226.599 C 351.924 220.362,351.955 219.969,351.557 219.723 C 350.635 219.153,351.190 210.481,352.691 202.020 C 352.970 200.446,353.513 196.431,353.896 193.098 C 355.121 182.459,356.288 176.470,357.750 173.329 C 359.754 169.026,358.593 167.215,355.399 169.663 C 347.509 175.711,336.824 177.038,328.369 173.021 C 325.427 171.623,324.994 169.727,327.609 169.698 C 328.982 169.683,331.909 168.799,333.082 168.044 C 335.198 166.684,337.561 165.714,339.310 165.486 C 342.945 165.014,343.708 160.282,340.152 160.265 C 336.920 160.249,336.791 158.897,339.928 157.928 C 343.035 156.968,343.737 156.474,345.457 154.037 C 347.126 151.672,348.721 150.473,351.315 149.632 C 354.672 148.544,355.614 146.778,354.704 143.284 C 353.923 140.285,355.056 139.605,355.887 142.575 C 357.077 146.825,355.773 149.593,351.984 150.854 C 349.077 151.821,347.865 152.714,346.322 155.025 C 345.491 156.268,344.391 157.382,343.360 158.023 L 341.719 159.043 342.573 159.834 C 345.225 162.294,343.470 166.345,339.552 166.808 C 338.073 166.983,336.856 167.440,334.943 168.538 C 333.513 169.359,331.619 170.202,330.734 170.411 C 327.769 171.112,327.732 171.154,329.363 171.969 C 338.857 176.711,350.936 173.457,359.044 163.973 C 364.331 157.790,360.262 140.810,352.389 136.196 C 350.165 134.893,347.060 134.350,341.304 134.258 L 336.088 134.175 334.532 135.269 C 332.817 136.476,332.356 136.550,330.166 135.964 C 328.697 135.571,328.649 135.585,327.348 136.760 C 326.464 137.559,325.421 138.098,324.208 138.384 C 322.033 138.895,320.987 139.397,319.515 140.636 C 318.907 141.147,317.488 142.035,316.360 142.610 C 311.629 145.021,316.055 152.930,324.323 156.836 C 326.877 158.043,327.503 158.649,326.798 159.234 C 325.667 160.173,321.730 158.171,318.509 155.020 L 316.647 153.199 316.213 155.976 C 315.758 158.886,315.479 159.501,314.802 159.083 C 314.520 158.909,314.449 158.207,314.574 156.832 C 314.735 155.064,314.691 154.858,314.196 155.055 C 312.369 155.778,311.558 155.643,310.327 154.412 L 309.110 153.196 305.775 154.905 C 303.150 156.250,301.840 157.200,299.621 159.368 C 292.845 165.985,282.770 167.698,275.711 163.434 C 273.546 162.125,271.498 160.012,271.184 158.763 C 270.872 157.518,270.925 157.491,263.124 162.811 C 254.034 169.010,253.009 170.059,254.057 172.087 C 254.344 172.642,255.115 174.634,255.769 176.513 C 257.303 180.922,258.133 182.530,261.198 187.037 C 262.584 189.074,265.077 193.493,266.739 196.857 C 270.074 203.607,271.343 205.298,275.253 208.197 C 278.866 210.877,278.692 212.433,274.989 210.559 C 271.707 208.898,269.412 206.097,266.431 200.114 C 264.970 197.181,262.623 193.039,261.217 190.909 C 256.953 184.450,252.493 175.852,252.135 173.396 C 251.922 171.942,251.242 172.340,249.139 175.149 C 243.031 183.310,239.931 186.198,234.680 188.618 C 228.622 191.410,229.100 190.725,230.503 194.613 C 234.259 205.012,249.583 216.975,260.524 218.050 C 261.773 218.172,263.036 218.397,263.331 218.548 C 263.723 218.748,264.224 218.455,265.183 217.464 C 266.846 215.747,267.075 215.633,273.569 213.303 C 280.822 210.701,280.498 210.921,278.729 209.799 C 274.770 207.286,271.195 201.010,273.723 201.010 C 275.435 201.010,281.178 206.485,281.863 208.770 C 282.513 210.940,285.645 211.370,291.630 210.112 C 299.420 208.474,302.302 206.812,303.668 203.172 C 304.011 202.261,304.634 200.606,305.053 199.495 C 306.028 196.913,307.194 195.317,309.376 193.580 C 311.580 191.825,315.909 186.668,318.753 182.407 C 319.959 180.602,321.161 179.125,321.426 179.125 C 323.660 179.125,319.808 186.426,315.412 190.522 C 308.599 196.870,305.051 201.654,305.051 204.493 C 305.051 204.606,305.748 204.669,306.600 204.632 C 309.568 204.503,309.719 205.709,307.561 212.318 C 304.951 220.310,304.598 222.113,304.533 227.778 C 304.494 231.227,304.302 233.479,303.926 234.880 C 301.428 244.198,301.216 250.847,303.016 263.514 C 303.565 267.378,304.250 272.265,304.538 274.376 C 304.826 276.486,305.368 279.222,305.742 280.456 C 306.342 282.430,306.381 283.001,306.066 285.205 C 305.386 289.960,305.921 296.814,307.311 301.178 C 308.368 304.496,309.375 305.155,312.890 304.829 C 315.547 304.583,319.633 305.339,323.055 306.709 C 328.185 308.763,329.836 307.668,325.511 305.081 C 324.273 304.340,321.886 301.835,321.886 301.276 C 321.886 300.278,323.129 300.811,325.307 302.742 L 327.721 304.882 332.463 305.098 C 335.071 305.217,338.418 305.421,339.899 305.552 C 344.267 305.937,344.968 305.350,341.413 304.285 C 336.851 302.919,325.756 300.442,320.638 299.647 C 314.443 298.686,312.312 294.187,314.427 286.532 C 314.606 285.884,314.917 283.460,315.117 281.145 C 315.317 278.830,315.706 274.360,315.981 271.212 C 316.302 267.528,316.461 262.009,316.426 255.724 C 316.361 244.022,316.752 240.854,319.086 234.175 C 319.928 231.768,321.958 225.859,323.597 221.044 L 326.579 212.290 326.460 203.199 C 326.291 190.217,323.649 175.421,321.500 175.421 C 320.337 175.421,307.706 188.995,305.761 192.334 C 302.258 198.350,299.761 198.905,295.768 194.557 C 288.253 186.373,290.110 175.993,301.000 165.320 C 304.237 162.147,305.551 160.601,306.340 159.037 C 307.303 157.128,308.835 155.556,309.732 155.556 C 310.409 155.556,310.112 156.629,309.247 157.309 C 308.777 157.679,307.933 158.892,307.371 160.005 C 306.619 161.494,305.362 162.978,302.622 165.611 C 291.657 176.147,289.611 185.935,296.780 193.566 C 300.220 197.227,301.624 197.030,304.052 192.546 C 306.378 188.251,308.055 186.261,314.787 179.815 C 318.595 176.169,320.875 173.740,320.875 173.330 C 320.875 172.372,322.682 170.707,323.722 170.707 C 325.141 170.707,325.152 171.615,323.752 173.049 L 322.498 174.333 323.342 175.635 C 325.879 179.547,327.938 192.756,327.943 205.151 C 327.946 211.294,328.047 213.022,328.448 213.800 C 330.605 217.971,328.518 228.982,322.257 246.465 C 320.906 250.237,319.318 255.683,319.018 257.576 C 318.885 258.409,318.613 259.394,318.412 259.764 C 318.211 260.135,317.862 262.862,317.636 265.825 C 316.605 279.375,316.131 284.661,315.830 285.966 C 315.651 286.740,315.501 287.856,315.496 288.445 C 315.488 289.540,315.552 289.589,317.563 290.035 C 321.198 290.841,339.975 299.937,341.882 301.817 C 342.643 302.567,343.872 303.499,344.613 303.888 C 347.387 305.345,346.054 306.935,342.122 306.860 C 340.899 306.837,337.530 306.703,334.634 306.564 L 329.370 306.309 329.527 307.131 C 329.726 308.172,329.030 308.767,327.370 308.974 C 326.086 309.135,325.169 308.899,320.539 307.218 C 318.364 306.428,317.415 306.288,313.709 306.212 C 308.914 306.113,308.199 305.861,307.011 303.847 C 306.553 303.070,306.080 302.694,305.563 302.694 C 305.141 302.694,304.217 302.452,303.508 302.156 C 302.451 301.714,301.989 301.687,300.922 302.007 C 293.746 304.157,291.309 299.794,294.758 290.968 C 295.732 288.477,295.914 287.640,295.748 286.426 C 295.620 285.495,295.682 284.852,295.913 284.709 C 296.152 284.561,296.211 283.797,296.081 282.552 C 295.914 280.956,296.061 280.057,296.930 277.344 C 298.179 273.445,298.232 271.763,297.232 267.788 C 295.551 261.103,296.869 242.728,299.514 235.978 C 300.631 233.128,300.637 233.132,298.087 234.878 C 282.589 245.488,247.264 249.932,235.165 242.794 C 233.524 241.826,232.573 241.897,228.376 243.304 C 221.544 245.594,219.840 246.383,210.943 251.369 C 182.621 267.239,165.947 274.609,153.054 276.953 C 144.072 278.586,142.640 278.985,135.145 281.939 C 123.876 286.381,120.007 287.664,110.165 290.220 C 105.848 291.341,99.863 292.999,96.865 293.905 C 93.867 294.812,90.126 295.805,88.552 296.113 C 86.978 296.421,84.742 297.042,83.582 297.494 C 82.423 297.947,81.165 298.316,80.788 298.316 C 79.928 298.316,78.302 299.147,76.768 300.369 C 74.609 302.089,71.732 303.625,70.255 303.847 C 69.191 304.006,68.483 304.390,67.646 305.260 C 66.254 306.709,64.989 307.407,63.756 307.407 C 63.225 307.407,62.452 307.771,61.940 308.262 C 60.382 309.755,56.787 309.649,55.201 308.063 C 54.789 307.651,54.085 307.407,53.305 307.407 C 51.206 307.407,49.052 306.158,49.309 305.090 C 49.426 304.605,49.517 303.981,49.511 303.704 C 49.425 299.913,49.763 299.294,52.637 297.977 C 53.779 297.453,57.820 295.592,61.616 293.840 C 65.412 292.088,70.034 290.045,71.886 289.298 C 76.878 287.286,80.270 285.630,80.961 284.865 C 81.299 284.493,82.809 283.811,84.317 283.351 C 85.853 282.882,88.314 281.752,89.911 280.781 C 95.438 277.420,96.109 277.036,98.978 275.595 C 100.571 274.795,103.991 272.754,106.577 271.060 C 111.847 267.608,125.588 260.580,129.842 259.160 C 132.842 258.160,134.376 257.831,139.710 257.046 C 150.473 255.462,161.566 248.640,176.734 234.280 C 185.975 225.530,189.577 222.305,193.771 219.028 C 197.603 216.033,203.367 210.447,203.367 209.728 C 203.367 208.018,206.574 204.673,213.525 199.132 C 219.569 194.314,220.193 193.917,223.549 192.753 C 226.792 191.628,228.112 191.015,228.625 190.397 C 228.877 190.094,231.137 188.856,233.649 187.646 C 238.943 185.096,241.874 182.479,247.153 175.589 C 250.006 171.865,251.055 170.739,251.691 170.718 C 251.880 170.712,252.322 170.174,252.673 169.523 C 253.531 167.931,268.044 157.283,270.707 156.293 C 270.985 156.189,271.404 155.839,271.639 155.513 C 271.873 155.187,273.843 153.820,276.016 152.475 C 280.554 149.665,282.630 147.733,285.185 143.942 L 286.999 141.252 286.398 136.030 C 286.068 133.158,285.628 129.596,285.422 128.114 C 285.181 126.389,285.040 118.279,285.031 105.556 C 285.015 83.295,284.761 86.068,287.840 74.847 C 288.745 71.552,289.965 66.507,290.553 63.636 C 291.140 60.766,292.288 55.918,293.103 52.862 C 296.074 41.717,296.481 38.571,295.414 34.994 C 294.973 33.516,294.914 32.389,295.106 29.125 C 295.237 26.902,295.324 23.006,295.301 20.465 C 295.248 14.740,295.895 13.131,298.251 13.131 C 298.776 13.131,298.977 12.753,299.286 11.182 C 299.861 8.258,301.887 6.503,302.863 8.082 C 302.978 8.269,303.452 7.968,303.923 7.409 C 304.991 6.139,305.517 6.139,306.786 7.407 M304.595 8.670 C 303.829 10.170,303.361 12.983,303.135 17.436 C 302.974 20.618,302.808 21.655,302.438 21.797 C 301.238 22.258,300.975 18.382,301.861 13.301 C 302.382 10.316,302.285 8.948,301.571 9.182 C 300.742 9.454,300.275 11.953,300.299 15.993 C 300.330 21.095,300.081 23.222,299.426 23.474 C 298.507 23.827,298.306 22.788,298.526 18.819 C 298.764 14.535,298.457 13.647,297.252 15.135 C 296.705 15.810,296.633 16.570,296.633 21.631 C 296.633 24.784,296.459 28.307,296.247 29.460 C 295.903 31.324,295.945 31.891,296.625 34.550 C 297.671 38.648,297.455 41.313,295.451 48.990 C 293.825 55.218,293.498 56.591,291.444 65.825 C 290.784 68.788,289.632 73.485,288.882 76.263 C 285.909 87.278,286.100 85.290,286.167 104.545 C 286.225 121.195,286.435 125.686,287.540 133.900 C 288.262 139.265,288.342 144.518,287.741 147.216 C 286.782 151.529,285.484 151.563,286.154 147.257 C 286.592 144.446,286.516 144.362,285.233 146.227 C 283.546 148.679,279.766 151.907,276.278 153.876 C 272.435 156.045,272.218 156.329,272.913 158.298 C 275.458 165.512,288.822 166.407,296.165 159.855 C 300.564 155.930,306.336 152.190,307.997 152.189 C 308.228 152.189,308.418 152.146,308.418 152.095 C 308.418 151.885,306.494 147.459,306.333 147.299 C 306.238 147.203,305.813 148.415,305.389 149.992 C 304.584 152.989,303.974 153.941,303.296 153.262 C 302.914 152.880,302.942 152.757,305.145 145.286 C 305.747 143.243,305.842 141.989,305.854 135.859 L 305.868 128.788 304.125 123.664 C 300.872 114.097,299.399 97.224,301.149 89.562 C 302.630 83.077,302.731 82.009,303.011 69.865 C 303.458 50.471,304.644 45.010,310.248 36.532 C 312.663 32.878,312.795 32.586,312.795 30.880 C 312.795 28.888,313.329 27.405,314.692 25.618 C 316.039 23.851,316.120 23.232,315.002 23.232 C 313.821 23.232,312.471 24.535,311.293 26.811 C 310.458 28.424,309.977 28.933,308.681 29.576 C 307.501 30.161,306.985 30.660,306.677 31.512 C 306.414 32.239,306.040 32.660,305.656 32.660 C 304.271 32.660,305.648 29.529,307.442 28.602 C 308.521 28.043,308.587 27.908,308.605 26.210 C 308.616 25.221,308.829 21.835,309.079 18.687 C 309.559 12.630,309.394 9.764,308.565 9.764 C 308.299 9.764,308.081 9.906,308.081 10.079 C 308.081 11.125,306.014 22.404,305.779 22.638 C 305.063 23.354,304.670 21.939,305.038 19.973 C 306.631 11.458,306.384 5.165,304.595 8.670 M360.555 167.314 C 359.784 168.089,359.686 168.416,359.832 169.714 C 359.967 170.910,359.750 171.862,358.772 174.365 C 357.883 176.641,357.268 179.150,356.549 183.433 C 355.262 191.102,355.306 191.487,356.962 187.040 C 358.791 182.128,359.959 180.525,360.339 182.407 C 360.946 185.415,355.801 204.438,354.323 204.649 C 353.459 204.772,353.355 205.139,352.878 209.764 C 352.677 211.709,352.454 213.868,352.383 214.562 C 352.050 217.794,353.055 214.955,354.044 209.872 C 354.284 208.637,355.083 207.810,355.568 208.295 C 355.770 208.497,355.512 210.280,354.865 213.146 C 353.551 218.963,352.363 225.881,351.672 231.740 C 351.110 236.511,351.154 238.226,351.779 235.859 C 357.218 215.248,357.453 214.491,358.264 214.992 C 359.797 215.940,352.965 246.982,351.030 247.864 C 350.349 248.174,350.130 248.794,349.338 252.645 C 347.970 259.308,347.811 260.211,347.811 261.352 C 347.811 263.080,348.114 262.244,348.504 259.442 C 349.768 250.358,357.611 235.630,358.180 241.274 C 358.346 242.919,354.084 253.932,350.894 260.101 L 349.327 263.131 349.359 268.013 C 349.408 275.301,351.357 283.838,352.972 283.838 C 354.390 283.838,354.843 281.184,354.646 274.029 C 354.407 265.353,355.168 260.131,357.526 254.267 C 358.300 252.342,358.549 252.020,359.265 252.020 L 360.101 252.020 360.038 255.556 C 359.958 260.028,358.851 268.823,357.719 273.978 C 356.386 280.047,356.364 280.665,357.364 284.149 C 361.296 297.858,363.301 292.023,363.299 266.870 C 363.298 249.730,362.717 239.929,361.758 240.887 C 361.023 241.623,360.322 241.176,360.026 239.782 C 359.595 237.754,359.742 225.868,360.209 225.013 C 361.044 223.485,361.754 224.562,362.476 228.451 L 362.726 229.798 363.068 228.451 C 363.938 225.021,363.449 206.397,362.489 206.397 C 361.054 206.397,360.286 203.506,360.028 197.138 C 359.751 190.308,361.196 189.188,362.464 195.249 C 362.759 196.659,363.080 198.188,363.176 198.648 C 363.612 200.723,364.397 196.124,364.812 189.057 C 365.208 182.329,363.827 170.680,362.214 167.141 C 361.769 166.164,361.691 166.172,360.555 167.314 M357.445 189.653 C 356.180 193.415,354.552 199.543,354.562 200.505 L 354.572 201.515 355.068 200.372 C 355.646 199.041,358.363 188.217,358.168 188.023 C 358.096 187.950,357.771 188.684,357.445 189.653 M226.837 192.977 C 226.504 193.164,225.155 193.683,223.838 194.131 C 219.171 195.718,205.051 207.022,205.051 209.170 C 205.051 209.531,205.557 209.639,207.155 209.620 C 209.656 209.591,212.109 210.806,212.990 212.510 C 213.922 214.312,213.034 214.515,211.362 212.883 C 208.020 209.619,204.858 210.116,200.959 214.516 C 199.783 215.843,197.306 218.078,195.455 219.483 C 191.298 222.637,188.980 224.686,179.798 233.322 C 161.396 250.630,151.926 256.424,138.545 258.562 C 129.817 259.956,120.588 263.957,108.081 271.771 C 104.655 273.911,101.019 276.082,100.000 276.595 C 98.981 277.108,96.103 278.748,93.603 280.240 C 91.103 281.732,88.224 283.299,87.205 283.722 C 85.823 284.297,85.381 284.644,85.460 285.091 C 85.519 285.421,85.698 286.508,85.859 287.507 C 86.047 288.680,86.566 289.931,87.327 291.042 C 87.973 291.987,88.688 293.175,88.915 293.680 C 89.409 294.781,88.774 294.884,97.811 292.244 C 101.515 291.162,107.273 289.581,110.606 288.729 C 118.084 286.820,125.474 284.375,133.841 281.044 C 141.299 278.074,144.627 277.060,149.495 276.270 C 158.954 274.737,162.342 273.762,171.217 270.014 C 178.116 267.101,201.653 255.194,210.606 250.088 C 219.287 245.137,228.067 241.428,232.414 240.875 C 233.382 240.752,234.344 240.518,234.550 240.356 C 234.756 240.194,235.886 239.745,237.061 239.360 C 242.552 237.557,248.666 233.286,250.904 229.689 C 251.968 227.979,251.579 227.848,245.352 227.809 C 239.637 227.774,238.517 227.520,238.962 226.362 C 239.138 225.903,239.863 225.866,244.750 226.067 C 250.891 226.319,251.210 226.267,256.061 224.219 L 258.754 223.082 256.169 222.680 C 250.432 221.789,233.670 213.024,233.670 210.916 C 233.670 210.024,234.655 210.432,238.291 212.831 C 244.062 216.637,246.927 217.838,253.872 219.360 C 255.261 219.665,257.265 220.179,258.325 220.502 C 259.994 221.011,260.398 221.030,261.330 220.638 C 262.751 220.040,262.304 219.734,259.299 219.246 C 249.957 217.728,237.280 209.127,231.925 200.673 C 231.279 199.655,230.181 197.930,229.484 196.841 C 228.787 195.752,228.042 194.360,227.829 193.749 C 227.503 192.815,227.345 192.692,226.837 192.977 M361.317 198.681 C 361.270 200.622,361.940 204.040,362.368 204.040 C 362.733 204.040,362.475 201.743,361.798 198.960 L 361.354 197.138 361.317 198.681 M274.747 203.192 C 274.747 204.193,279.200 209.091,280.110 209.091 C 280.823 209.091,280.442 208.424,278.575 206.408 C 276.757 204.444,274.747 202.756,274.747 203.192 M305.065 205.973 C 304.415 206.051,303.405 206.548,302.780 207.098 C 299.264 210.184,288.824 212.752,283.630 211.809 C 281.702 211.458,281.465 211.488,279.926 212.281 C 279.022 212.746,276.095 213.891,273.421 214.825 C 267.797 216.788,266.958 217.250,265.215 219.344 C 264.509 220.192,263.189 221.262,262.281 221.722 C 261.373 222.182,260.484 222.831,260.305 223.165 C 259.907 223.910,257.441 225.260,254.646 226.264 C 252.650 226.981,252.566 227.057,252.749 227.972 C 253.367 231.059,245.778 237.557,238.235 240.400 C 237.154 240.807,238.197 241.275,245.623 243.712 C 248.809 244.757,262.005 245.040,267.003 244.170 C 279.607 241.975,294.623 236.431,299.168 232.294 C 299.543 231.953,300.528 231.315,301.356 230.878 L 302.862 230.083 303.077 226.068 C 303.316 221.629,303.981 218.668,306.257 211.924 C 308.050 206.611,308.089 205.386,306.454 205.778 C 306.330 205.807,305.705 205.895,305.065 205.973 M325.789 219.949 C 325.067 222.588,323.578 227.399,322.479 230.640 C 318.510 242.344,317.842 245.386,317.857 251.684 C 317.866 255.593,318.087 255.763,318.948 252.525 C 319.219 251.507,320.436 247.643,321.652 243.939 C 326.996 227.655,328.840 219.686,327.980 216.582 C 327.390 214.454,327.220 214.717,325.789 219.949 M360.972 234.158 C 360.949 237.379,361.027 238.097,361.364 237.758 C 361.850 237.268,361.816 232.760,361.314 231.145 C 361.079 230.387,360.993 231.140,360.972 234.158 M301.606 234.590 C 298.351 241.765,296.787 257.576,298.446 266.545 C 299.560 272.570,299.550 273.477,298.316 277.326 C 296.743 282.238,296.968 283.748,299.438 284.870 C 301.903 285.989,304.946 285.482,304.577 284.013 C 304.479 283.624,304.302 282.402,304.183 281.299 C 304.063 280.196,303.677 278.157,303.324 276.768 C 300.049 263.883,299.556 242.638,302.340 234.388 C 303.351 231.396,303.014 231.488,301.606 234.590 M352.543 238.583 C 351.924 241.159,351.341 243.418,351.248 243.603 C 351.136 243.827,351.200 243.827,351.440 243.603 C 351.842 243.227,353.956 234.765,353.780 234.237 C 353.719 234.052,353.162 236.008,352.543 238.583 M355.429 244.378 C 352.996 248.232,349.488 257.576,350.473 257.576 C 350.834 257.576,353.652 251.107,355.426 246.212 C 356.658 242.808,356.659 242.430,355.429 244.378 M357.785 257.510 C 356.262 262.330,355.663 267.475,355.893 273.737 C 355.958 275.511,355.973 275.539,356.251 274.411 C 357.269 270.261,359.211 255.395,358.790 254.974 C 358.705 254.889,358.253 256.030,357.785 257.510 M297.643 286.027 C 297.643 286.317,297.947 286.532,298.358 286.532 C 298.955 286.532,299.003 286.449,298.653 286.027 C 298.423 285.749,298.101 285.522,297.939 285.522 C 297.776 285.522,297.643 285.749,297.643 286.027 M82.013 286.303 C 81.323 286.807,84.370 294.694,85.409 295.092 C 87.605 295.935,87.978 294.415,86.212 291.816 C 85.339 290.530,84.812 289.319,84.673 288.280 C 84.557 287.411,84.402 286.511,84.329 286.279 C 84.155 285.727,82.782 285.740,82.013 286.303 M302.694 286.854 L 301.852 287.109 302.806 287.369 C 303.503 287.559,303.909 287.481,304.309 287.081 C 304.940 286.450,304.317 286.362,302.694 286.854 M78.048 288.060 C 77.179 288.513,74.452 289.699,71.988 290.697 C 69.524 291.694,64.750 293.816,61.379 295.413 C 58.008 297.010,55.054 298.321,54.814 298.327 C 54.553 298.334,54.649 298.546,55.051 298.854 C 55.719 299.367,55.718 299.375,54.936 300.016 C 54.095 300.706,54.324 301.278,55.640 301.776 C 56.860 302.238,56.373 303.137,54.040 304.729 C 52.772 305.595,52.508 305.908,52.969 305.999 C 53.355 306.074,54.304 305.430,55.536 304.255 C 57.480 302.401,58.773 301.762,59.792 302.152 C 60.613 302.468,60.189 303.134,58.730 303.822 C 55.265 305.453,54.933 307.467,58.045 307.972 C 60.170 308.317,61.315 307.577,61.066 306.021 C 60.816 304.458,61.591 304.185,62.470 305.526 C 63.197 306.636,64.538 306.233,66.629 304.277 C 67.787 303.193,68.590 302.741,69.659 302.570 C 71.433 302.287,72.596 301.713,75.349 299.763 L 77.466 298.265 76.599 297.583 C 74.800 296.168,78.498 295.441,82.173 296.487 C 83.922 296.986,83.920 295.929,82.164 292.006 C 81.233 289.926,80.471 287.995,80.471 287.715 C 80.471 287.015,79.900 287.096,78.048 288.060 M295.791 291.976 C 293.192 299.840,294.326 301.877,300.641 300.680 C 301.986 300.424,302.706 300.462,303.801 300.843 C 305.719 301.511,305.827 301.486,305.623 300.421 C 304.756 295.884,304.379 293.087,304.378 291.162 C 304.378 289.912,304.339 288.889,304.293 288.888 C 304.247 288.888,302.921 288.661,301.347 288.384 C 296.906 287.602,297.327 287.329,295.791 291.976 M315.278 291.402 C 314.091 294.494,316.811 296.942,322.397 297.809 C 324.245 298.096,326.818 298.497,328.114 298.699 C 330.120 299.012,336.418 300.737,338.523 301.549 C 340.580 302.343,338.151 300.797,334.597 299.050 C 322.705 293.206,315.656 290.416,315.278 291.402 " stroke="none" fill="#fdf3dd" fill-rule="evenodd"></path><path id="path1" d="M303.923 7.409 C 303.452 7.968,302.978 8.269,302.863 8.082 C 301.887 6.503,299.861 8.258,299.286 11.182 C 298.977 12.753,298.776 13.131,298.251 13.131 C 295.895 13.131,295.248 14.740,295.301 20.465 C 295.324 23.006,295.237 26.902,295.106 29.125 C 294.914 32.389,294.973 33.516,295.414 34.994 C 296.481 38.571,296.074 41.717,293.103 52.862 C 292.288 55.918,291.140 60.766,290.553 63.636 C 289.965 66.507,288.745 71.552,287.840 74.847 C 284.761 86.068,285.015 83.295,285.031 105.556 C 285.040 118.279,285.181 126.389,285.422 128.114 C 285.628 129.596,286.068 133.158,286.398 136.030 L 286.999 141.252 285.185 143.942 C 282.630 147.733,280.554 149.665,276.016 152.475 C 273.843 153.820,271.873 155.187,271.639 155.513 C 271.404 155.839,270.985 156.189,270.707 156.293 C 268.044 157.283,253.531 167.931,252.673 169.523 C 252.322 170.174,251.880 170.712,251.691 170.718 C 251.055 170.739,250.006 171.865,247.153 175.589 C 241.874 182.479,238.943 185.096,233.649 187.646 C 231.137 188.856,228.877 190.094,228.625 190.397 C 228.112 191.015,226.792 191.628,223.549 192.753 C 220.193 193.917,219.569 194.314,213.525 199.132 C 206.574 204.673,203.367 208.018,203.367 209.728 C 203.367 210.447,197.603 216.033,193.771 219.028 C 189.577 222.305,185.975 225.530,176.734 234.280 C 161.566 248.640,150.473 255.462,139.710 257.046 C 134.376 257.831,132.842 258.160,129.842 259.160 C 125.588 260.580,111.847 267.608,106.577 271.060 C 103.991 272.754,100.571 274.795,98.978 275.595 C 96.109 277.036,95.438 277.420,89.911 280.781 C 88.314 281.752,85.853 282.882,84.317 283.351 C 82.809 283.811,81.299 284.493,80.961 284.865 C 80.270 285.630,76.878 287.286,71.886 289.298 C 70.034 290.045,65.412 292.088,61.616 293.840 C 57.820 295.592,53.779 297.453,52.637 297.977 C 49.763 299.294,49.425 299.913,49.511 303.704 C 49.517 303.981,49.426 304.605,49.309 305.090 C 49.052 306.158,51.206 307.407,53.305 307.407 C 54.085 307.407,54.789 307.651,55.201 308.063 C 56.787 309.649,60.382 309.755,61.940 308.262 C 62.452 307.771,63.225 307.407,63.756 307.407 C 64.989 307.407,66.254 306.709,67.646 305.260 C 68.483 304.390,69.191 304.006,70.255 303.847 C 71.732 303.625,74.609 302.089,76.768 300.369 C 78.302 299.147,79.928 298.316,80.788 298.316 C 81.165 298.316,82.423 297.947,83.582 297.494 C 84.742 297.042,86.978 296.421,88.552 296.113 C 90.126 295.805,93.867 294.812,96.865 293.905 C 99.863 292.999,105.848 291.341,110.165 290.220 C 120.007 287.664,123.876 286.381,135.145 281.939 C 142.640 278.985,144.072 278.586,153.054 276.953 C 165.947 274.609,182.621 267.239,210.943 251.369 C 219.840 246.383,221.544 245.594,228.376 243.304 C 232.573 241.897,233.524 241.826,235.165 242.794 C 247.264 249.932,282.589 245.488,298.087 234.878 C 300.637 233.132,300.631 233.128,299.514 235.978 C 296.869 242.728,295.551 261.103,297.232 267.788 C 298.232 271.763,298.179 273.445,296.930 277.344 C 296.061 280.057,295.914 280.956,296.081 282.552 C 296.211 283.797,296.152 284.561,295.913 284.709 C 295.682 284.852,295.620 285.495,295.748 286.426 C 295.914 287.640,295.732 288.477,294.758 290.968 C 291.309 299.794,293.746 304.157,300.922 302.007 C 301.989 301.687,302.451 301.714,303.508 302.156 C 304.217 302.452,305.141 302.694,305.563 302.694 C 306.080 302.694,306.553 303.070,307.011 303.847 C 308.199 305.861,308.914 306.113,313.709 306.212 C 317.415 306.288,318.364 306.428,320.539 307.218 C 325.169 308.899,326.086 309.135,327.370 308.974 C 329.030 308.767,329.726 308.172,329.527 307.131 L 329.370 306.309 334.634 306.564 C 337.530 306.703,340.899 306.837,342.122 306.860 C 346.054 306.935,347.387 305.345,344.613 303.888 C 343.872 303.499,342.643 302.567,341.882 301.817 C 339.975 299.937,321.198 290.841,317.563 290.035 C 315.552 289.589,315.488 289.540,315.496 288.445 C 315.501 287.856,315.651 286.740,315.830 285.966 C 316.131 284.661,316.605 279.375,317.636 265.825 C 317.862 262.862,318.211 260.135,318.412 259.764 C 318.613 259.394,318.885 258.409,319.018 257.576 C 319.318 255.683,320.906 250.237,322.257 246.465 C 328.518 228.982,330.605 217.971,328.448 213.800 C 328.047 213.022,327.946 211.294,327.943 205.151 C 327.938 192.756,325.879 179.547,323.342 175.635 L 322.498 174.333 323.752 173.049 C 325.152 171.615,325.141 170.707,323.722 170.707 C 322.682 170.707,320.875 172.372,320.875 173.330 C 320.875 173.740,318.595 176.169,314.787 179.815 C 308.055 186.261,306.378 188.251,304.052 192.546 C 301.624 197.030,300.220 197.227,296.780 193.566 C 289.611 185.935,291.657 176.147,302.622 165.611 C 305.362 162.978,306.619 161.494,307.371 160.005 C 307.933 158.892,308.777 157.679,309.247 157.309 C 310.112 156.629,310.409 155.556,309.732 155.556 C 308.835 155.556,307.303 157.128,306.340 159.037 C 305.551 160.601,304.237 162.147,301.000 165.320 C 290.110 175.993,288.253 186.373,295.768 194.557 C 299.761 198.905,302.258 198.350,305.761 192.334 C 307.706 188.995,320.337 175.421,321.500 175.421 C 323.649 175.421,326.291 190.217,326.460 203.199 L 326.579 212.290 323.597 221.044 C 321.958 225.859,319.928 231.768,319.086 234.175 C 316.752 240.854,316.361 244.022,316.426 255.724 C 316.461 262.009,316.302 267.528,315.981 271.212 C 315.706 274.360,315.317 278.830,315.117 281.145 C 314.917 283.460,314.606 285.884,314.427 286.532 C 312.312 294.187,314.443 298.686,320.638 299.647 C 325.756 300.442,336.851 302.919,341.413 304.285 C 344.968 305.350,344.267 305.937,339.899 305.552 C 338.418 305.421,335.071 305.217,332.463 305.098 L 327.721 304.882 325.307 302.742 C 323.129 300.811,321.886 300.278,321.886 301.276 C 321.886 301.835,324.273 304.340,325.511 305.081 C 329.836 307.668,328.185 308.763,323.055 306.709 C 319.633 305.339,315.547 304.583,312.890 304.829 C 309.375 305.155,308.368 304.496,307.311 301.178 C 305.921 296.814,305.386 289.960,306.066 285.205 C 306.381 283.001,306.342 282.430,305.742 280.456 C 305.368 279.222,304.826 276.486,304.538 274.376 C 304.250 272.265,303.565 267.378,303.016 263.514 C 301.216 250.847,301.428 244.198,303.926 234.880 C 304.302 233.479,304.494 231.227,304.533 227.778 C 304.598 222.113,304.951 220.310,307.561 212.318 C 309.719 205.709,309.568 204.503,306.600 204.632 C 305.748 204.669,305.051 204.606,305.051 204.493 C 305.051 201.654,308.599 196.870,315.412 190.522 C 319.808 186.426,323.660 179.125,321.426 179.125 C 321.161 179.125,319.959 180.602,318.753 182.407 C 315.909 186.668,311.580 191.825,309.376 193.580 C 307.194 195.317,306.028 196.913,305.053 199.495 C 304.634 200.606,304.011 202.261,303.668 203.172 C 302.302 206.812,299.420 208.474,291.630 210.112 C 285.645 211.370,282.513 210.940,281.863 208.770 C 281.178 206.485,275.435 201.010,273.723 201.010 C 271.195 201.010,274.770 207.286,278.729 209.799 C 280.498 210.921,280.822 210.701,273.569 213.303 C 267.075 215.633,266.846 215.747,265.183 217.464 C 264.224 218.455,263.723 218.748,263.331 218.548 C 263.036 218.397,261.773 218.172,260.524 218.050 C 249.583 216.975,234.259 205.012,230.503 194.613 C 229.100 190.725,228.622 191.410,234.680 188.618 C 239.931 186.198,243.031 183.310,249.139 175.149 C 251.242 172.340,251.922 171.942,252.135 173.396 C 252.493 175.852,256.953 184.450,261.217 190.909 C 262.623 193.039,264.970 197.181,266.431 200.114 C 269.412 206.097,271.707 208.898,274.989 210.559 C 278.692 212.433,278.866 210.877,275.253 208.197 C 271.343 205.298,270.074 203.607,266.739 196.857 C 265.077 193.493,262.584 189.074,261.198 187.037 C 258.133 182.530,257.303 180.922,255.769 176.513 C 255.115 174.634,254.344 172.642,254.057 172.087 C 253.009 170.059,254.034 169.010,263.124 162.811 C 270.925 157.491,270.872 157.518,271.184 158.763 C 271.498 160.012,273.546 162.125,275.711 163.434 C 282.770 167.698,292.845 165.985,299.621 159.368 C 301.840 157.200,303.150 156.250,305.775 154.905 L 309.110 153.196 310.327 154.412 C 311.558 155.643,312.369 155.778,314.196 155.055 C 314.691 154.858,314.735 155.064,314.574 156.832 C 314.449 158.207,314.520 158.909,314.802 159.083 C 315.479 159.501,315.758 158.886,316.213 155.976 L 316.647 153.199 318.509 155.020 C 321.730 158.171,325.667 160.173,326.798 159.234 C 327.503 158.649,326.877 158.043,324.323 156.836 C 316.055 152.930,311.629 145.021,316.360 142.610 C 317.488 142.035,318.907 141.147,319.515 140.636 C 320.987 139.397,322.033 138.895,324.208 138.384 C 325.421 138.098,326.464 137.559,327.348 136.760 C 328.649 135.585,328.697 135.571,330.166 135.964 C 332.356 136.550,332.817 136.476,334.532 135.269 L 336.088 134.175 341.304 134.258 C 347.060 134.350,350.165 134.893,352.389 136.196 C 360.262 140.810,364.331 157.790,359.044 163.973 C 350.936 173.457,338.857 176.711,329.363 171.969 C 327.732 171.154,327.769 171.112,330.734 170.411 C 331.619 170.202,333.513 169.359,334.943 168.538 C 336.856 167.440,338.073 166.983,339.552 166.808 C 343.470 166.345,345.225 162.294,342.573 159.834 L 341.719 159.043 343.360 158.023 C 344.391 157.382,345.491 156.268,346.322 155.025 C 347.865 152.714,349.077 151.821,351.984 150.854 C 355.773 149.593,357.077 146.825,355.887 142.575 C 355.056 139.605,353.923 140.285,354.704 143.284 C 355.614 146.778,354.672 148.544,351.315 149.632 C 348.721 150.473,347.126 151.672,345.457 154.037 C 343.737 156.474,343.035 156.968,339.928 157.928 C 336.791 158.897,336.920 160.249,340.152 160.265 C 343.708 160.282,342.945 165.014,339.310 165.486 C 337.561 165.714,335.198 166.684,333.082 168.044 C 331.909 168.799,328.982 169.683,327.609 169.698 C 324.994 169.727,325.427 171.623,328.369 173.021 C 336.824 177.038,347.509 175.711,355.399 169.663 C 358.593 167.215,359.754 169.026,357.750 173.329 C 356.288 176.470,355.121 182.459,353.896 193.098 C 353.513 196.431,352.970 200.446,352.691 202.020 C 351.190 210.481,350.635 219.153,351.557 219.723 C 351.955 219.969,351.924 220.362,351.011 226.599 C 350.325 231.285,349.498 240.341,349.496 243.184 C 349.496 244.474,349.057 247.426,348.485 249.999 C 346.188 260.327,345.890 263.981,347.301 264.523 C 347.681 264.668,347.811 265.251,347.811 266.800 C 347.811 278.998,351.695 288.624,354.714 283.907 C 355.627 282.479,355.667 282.508,356.351 285.101 C 358.890 294.728,362.518 295.527,363.921 286.768 C 364.699 281.904,364.684 250.439,363.899 241.808 C 363.394 236.256,363.399 235.767,364.009 231.707 C 364.906 225.732,365.176 216.518,364.640 210.101 C 364.123 203.893,364.123 204.070,364.626 201.515 C 367.379 187.545,366.266 169.234,362.384 164.620 L 361.546 163.625 362.065 161.358 C 364.178 152.127,360.769 141.024,354.293 136.040 C 349.684 132.492,337.673 131.464,333.561 134.266 C 332.360 135.084,332.172 135.116,330.778 134.743 C 328.550 134.147,328.112 134.232,326.737 135.529 C 326.045 136.181,325.087 136.794,324.608 136.891 C 322.069 137.405,320.897 137.912,319.457 139.117 C 318.584 139.848,316.824 140.955,315.547 141.577 C 313.028 142.803,312.793 143.115,312.798 145.230 C 312.801 146.608,314.053 149.813,314.993 150.853 C 315.933 151.891,314.114 154.209,312.360 154.209 C 311.510 154.209,309.658 151.741,308.782 149.443 C 308.334 148.268,307.671 146.755,307.310 146.081 C 306.720 144.982,306.691 144.632,307.030 142.686 C 307.989 137.179,307.356 129.119,305.556 123.906 C 301.649 112.592,300.699 97.300,303.213 86.195 C 304.033 82.574,304.109 81.493,304.389 69.529 C 304.682 56.974,304.854 54.743,305.923 49.567 C 306.905 44.810,307.790 42.783,311.040 37.841 C 313.834 33.593,313.879 33.490,314.152 30.697 C 314.365 28.526,314.571 27.963,315.784 26.244 C 317.316 24.071,317.477 23.276,316.556 22.443 C 315.039 21.070,312.733 21.948,311.075 24.528 L 310.069 26.094 310.337 21.380 C 310.958 10.490,310.580 7.719,308.542 8.230 C 308.005 8.365,307.512 8.134,306.786 7.407 C 305.517 6.139,304.991 6.139,303.923 7.409 M306.053 8.403 C 306.414 9.078,305.829 15.744,305.038 19.973 C 304.670 21.939,305.063 23.354,305.779 22.638 C 306.014 22.404,308.081 11.125,308.081 10.079 C 308.081 9.906,308.299 9.764,308.565 9.764 C 309.394 9.764,309.559 12.630,309.079 18.687 C 308.829 21.835,308.616 25.221,308.605 26.210 C 308.587 27.908,308.521 28.043,307.442 28.602 C 305.648 29.529,304.271 32.660,305.656 32.660 C 306.040 32.660,306.414 32.239,306.677 31.512 C 306.985 30.660,307.501 30.161,308.681 29.576 C 309.977 28.933,310.458 28.424,311.293 26.811 C 312.471 24.535,313.821 23.232,315.002 23.232 C 316.120 23.232,316.039 23.851,314.692 25.618 C 313.329 27.405,312.795 28.888,312.795 30.880 C 312.795 32.586,312.663 32.878,310.248 36.532 C 304.644 45.010,303.458 50.471,303.011 69.865 C 302.731 82.009,302.630 83.077,301.149 89.562 C 299.399 97.224,300.872 114.097,304.125 123.664 L 305.868 128.788 305.854 135.859 C 305.842 141.989,305.747 143.243,305.145 145.286 C 302.942 152.757,302.914 152.880,303.296 153.262 C 303.974 153.941,304.584 152.989,305.389 149.992 C 305.813 148.415,306.238 147.203,306.333 147.299 C 306.494 147.459,308.418 151.885,308.418 152.095 C 308.418 152.146,308.228 152.189,307.997 152.189 C 306.336 152.190,300.564 155.930,296.165 159.855 C 288.822 166.407,275.458 165.512,272.913 158.298 C 272.218 156.329,272.435 156.045,276.278 153.876 C 279.766 151.907,283.546 148.679,285.233 146.227 C 286.516 144.362,286.592 144.446,286.154 147.257 C 285.484 151.563,286.782 151.529,287.741 147.216 C 288.342 144.518,288.262 139.265,287.540 133.900 C 286.435 125.686,286.225 121.195,286.167 104.545 C 286.100 85.290,285.909 87.278,288.882 76.263 C 289.632 73.485,290.784 68.788,291.444 65.825 C 293.498 56.591,293.825 55.218,295.451 48.990 C 297.455 41.313,297.671 38.648,296.625 34.550 C 295.945 31.891,295.903 31.324,296.247 29.460 C 296.459 28.307,296.633 24.784,296.633 21.631 C 296.633 16.570,296.705 15.810,297.252 15.135 C 298.457 13.647,298.764 14.535,298.526 18.819 C 298.306 22.788,298.507 23.827,299.426 23.474 C 300.081 23.222,300.330 21.095,300.299 15.993 C 300.275 11.953,300.742 9.454,301.571 9.182 C 302.285 8.948,302.382 10.316,301.861 13.301 C 300.975 18.382,301.238 22.258,302.438 21.797 C 302.808 21.655,302.974 20.618,303.135 17.436 C 303.499 10.256,304.833 6.125,306.053 8.403 M362.214 167.141 C 363.827 170.680,365.208 182.329,364.812 189.057 C 364.397 196.124,363.612 200.723,363.176 198.648 C 363.080 198.188,362.759 196.659,362.464 195.249 C 361.196 189.188,359.751 190.308,360.028 197.138 C 360.286 203.506,361.054 206.397,362.489 206.397 C 363.449 206.397,363.938 225.021,363.068 228.451 L 362.726 229.798 362.476 228.451 C 361.754 224.562,361.044 223.485,360.209 225.013 C 359.742 225.868,359.595 237.754,360.026 239.782 C 360.322 241.176,361.023 241.623,361.758 240.887 C 363.622 239.024,363.946 281.177,362.128 288.971 C 361.349 292.310,360.837 292.351,359.248 289.204 C 356.488 283.736,356.202 280.886,357.719 273.978 C 358.851 268.823,359.958 260.028,360.038 255.556 L 360.101 252.020 359.265 252.020 C 358.549 252.020,358.300 252.342,357.526 254.267 C 355.168 260.131,354.407 265.353,354.646 274.029 C 354.843 281.184,354.390 283.838,352.972 283.838 C 351.357 283.838,349.408 275.301,349.359 268.013 L 349.327 263.131 350.894 260.101 C 354.084 253.932,358.346 242.919,358.180 241.274 C 357.611 235.630,349.768 250.358,348.504 259.442 C 348.114 262.244,347.811 263.080,347.811 261.352 C 347.811 260.211,347.970 259.308,349.338 252.645 C 350.130 248.794,350.349 248.174,351.030 247.864 C 352.965 246.982,359.797 215.940,358.264 214.992 C 357.453 214.491,357.218 215.248,351.779 235.859 C 351.154 238.226,351.110 236.511,351.672 231.740 C 352.363 225.881,353.551 218.963,354.865 213.146 C 355.512 210.280,355.770 208.497,355.568 208.295 C 355.083 207.810,354.284 208.637,354.044 209.872 C 353.055 214.955,352.050 217.794,352.383 214.562 C 353.433 204.369,353.351 204.788,354.323 204.649 C 355.801 204.438,360.946 185.415,360.339 182.407 C 359.959 180.525,358.791 182.128,356.962 187.040 C 355.306 191.487,355.262 191.102,356.549 183.433 C 357.268 179.150,357.883 176.641,358.772 174.365 C 359.750 171.862,359.967 170.910,359.832 169.714 C 359.686 168.416,359.784 168.089,360.555 167.314 C 361.691 166.172,361.769 166.164,362.214 167.141 M356.932 193.691 C 356.180 196.737,355.341 199.743,355.068 200.372 L 354.572 201.515 354.562 200.505 C 354.547 199.041,357.829 187.683,358.168 188.023 C 358.241 188.095,357.684 190.646,356.932 193.691 M229.484 196.841 C 230.181 197.930,231.279 199.655,231.925 200.673 C 237.280 209.127,249.957 217.728,259.299 219.246 C 262.304 219.734,262.751 220.040,261.330 220.638 C 260.398 221.030,259.994 221.011,258.325 220.502 C 257.265 220.179,255.261 219.665,253.872 219.360 C 246.927 217.838,244.062 216.637,238.291 212.831 C 234.655 210.432,233.670 210.024,233.670 210.916 C 233.670 213.024,250.432 221.789,256.169 222.680 L 258.754 223.082 256.061 224.219 C 251.210 226.267,250.891 226.319,244.750 226.067 C 239.863 225.866,239.138 225.903,238.962 226.362 C 238.517 227.520,239.637 227.774,245.352 227.809 C 251.579 227.848,251.968 227.979,250.904 229.689 C 248.666 233.286,242.552 237.557,237.061 239.360 C 235.886 239.745,234.756 240.194,234.550 240.356 C 234.344 240.518,233.382 240.752,232.414 240.875 C 228.067 241.428,219.287 245.137,210.606 250.088 C 201.653 255.194,178.116 267.101,171.217 270.014 C 162.342 273.762,158.954 274.737,149.495 276.270 C 144.627 277.060,141.299 278.074,133.841 281.044 C 125.474 284.375,118.084 286.820,110.606 288.729 C 107.273 289.581,101.515 291.162,97.811 292.244 C 88.774 294.884,89.409 294.781,88.915 293.680 C 88.688 293.175,87.973 291.987,87.327 291.042 C 86.566 289.931,86.047 288.680,85.859 287.507 C 85.698 286.508,85.519 285.421,85.460 285.091 C 85.381 284.644,85.823 284.297,87.205 283.722 C 88.224 283.299,91.103 281.732,93.603 280.240 C 96.103 278.748,98.981 277.108,100.000 276.595 C 101.019 276.082,104.655 273.911,108.081 271.771 C 120.588 263.957,129.817 259.956,138.545 258.562 C 151.926 256.424,161.396 250.630,179.798 233.322 C 188.980 224.686,191.298 222.637,195.455 219.483 C 197.306 218.078,199.783 215.843,200.959 214.516 C 204.858 210.116,208.020 209.619,211.362 212.883 C 213.034 214.515,213.922 214.312,212.990 212.510 C 212.109 210.806,209.656 209.591,207.155 209.620 C 205.557 209.639,205.051 209.531,205.051 209.170 C 205.051 207.022,219.171 195.718,223.838 194.131 C 225.155 193.683,226.504 193.164,226.837 192.977 C 227.345 192.692,227.503 192.815,227.829 193.749 C 228.042 194.360,228.787 195.752,229.484 196.841 M362.465 202.412 C 362.598 203.379,362.559 204.040,362.368 204.040 C 361.940 204.040,361.270 200.622,361.317 198.681 L 361.354 197.138 361.798 198.960 C 362.042 199.963,362.342 201.516,362.465 202.412 M278.575 206.408 C 280.442 208.424,280.823 209.091,280.110 209.091 C 279.200 209.091,274.747 204.193,274.747 203.192 C 274.747 202.756,276.757 204.444,278.575 206.408 M307.212 205.928 C 308.018 206.238,307.877 207.124,306.257 211.924 C 303.981 218.668,303.316 221.629,303.077 226.068 L 302.862 230.083 301.356 230.878 C 300.528 231.315,299.543 231.953,299.168 232.294 C 294.623 236.431,279.607 241.975,267.003 244.170 C 262.005 245.040,248.809 244.757,245.623 243.712 C 238.197 241.275,237.154 240.807,238.235 240.400 C 245.778 237.557,253.367 231.059,252.749 227.972 C 252.566 227.057,252.650 226.981,254.646 226.264 C 257.441 225.260,259.907 223.910,260.305 223.165 C 260.484 222.831,261.373 222.182,262.281 221.722 C 263.189 221.262,264.509 220.192,265.215 219.344 C 266.958 217.250,267.797 216.788,273.421 214.825 C 276.095 213.891,279.022 212.746,279.926 212.281 C 281.465 211.488,281.702 211.458,283.630 211.809 C 288.824 212.752,299.264 210.184,302.780 207.098 C 303.405 206.548,304.415 206.051,305.065 205.973 C 305.705 205.895,306.330 205.807,306.454 205.778 C 306.578 205.748,306.919 205.816,307.212 205.928 M327.980 216.582 C 328.840 219.686,326.996 227.655,321.652 243.939 C 320.436 247.643,319.219 251.507,318.948 252.525 C 318.087 255.763,317.866 255.593,317.857 251.684 C 317.842 245.386,318.510 242.344,322.479 230.640 C 323.578 227.399,325.067 222.588,325.789 219.949 C 327.220 214.717,327.390 214.454,327.980 216.582 M361.706 234.744 C 361.758 236.460,361.642 237.477,361.364 237.758 C 361.027 238.097,360.949 237.379,360.972 234.158 C 361.004 229.631,361.565 230.079,361.706 234.744 M302.340 234.388 C 299.556 242.638,300.049 263.883,303.324 276.768 C 303.677 278.157,304.063 280.196,304.183 281.299 C 304.302 282.402,304.479 283.624,304.577 284.013 C 304.946 285.482,301.903 285.989,299.438 284.870 C 296.968 283.748,296.743 282.238,298.316 277.326 C 299.550 273.477,299.560 272.570,298.446 266.545 C 296.787 257.576,298.351 241.765,301.606 234.590 C 303.014 231.488,303.351 231.396,302.340 234.388 M352.846 238.919 C 352.271 241.310,351.638 243.418,351.440 243.603 C 351.200 243.827,351.136 243.827,351.248 243.603 C 351.341 243.418,351.924 241.159,352.543 238.583 C 353.162 236.008,353.719 234.052,353.780 234.237 C 353.842 234.422,353.422 236.529,352.846 238.919 M355.426 246.212 C 353.652 251.107,350.834 257.576,350.473 257.576 C 349.488 257.576,352.996 248.232,355.429 244.378 C 356.659 242.430,356.658 242.808,355.426 246.212 M358.573 259.130 C 358.215 262.985,356.848 271.976,356.251 274.411 C 355.571 277.176,355.730 267.335,356.432 263.181 C 356.945 260.141,358.510 254.694,358.790 254.974 C 358.875 255.059,358.777 256.929,358.573 259.130 M298.653 286.027 C 299.003 286.449,298.955 286.532,298.358 286.532 C 297.947 286.532,297.643 286.317,297.643 286.027 C 297.643 285.749,297.776 285.522,297.939 285.522 C 298.101 285.522,298.423 285.749,298.653 286.027 M84.329 286.279 C 84.402 286.511,84.557 287.411,84.673 288.280 C 84.812 289.319,85.339 290.530,86.212 291.816 C 87.978 294.415,87.605 295.935,85.409 295.092 C 84.370 294.694,81.323 286.807,82.013 286.303 C 82.782 285.740,84.155 285.727,84.329 286.279 M304.309 287.081 C 303.909 287.481,303.503 287.559,302.806 287.369 L 301.852 287.109 302.694 286.854 C 304.317 286.362,304.940 286.450,304.309 287.081 M80.471 287.715 C 80.471 287.995,81.233 289.926,82.164 292.006 C 83.920 295.929,83.922 296.986,82.173 296.487 C 78.498 295.441,74.800 296.168,76.599 297.583 L 77.466 298.265 75.349 299.763 C 72.596 301.713,71.433 302.287,69.659 302.570 C 68.590 302.741,67.787 303.193,66.629 304.277 C 64.538 306.233,63.197 306.636,62.470 305.526 C 61.591 304.185,60.816 304.458,61.066 306.021 C 61.315 307.577,60.170 308.317,58.045 307.972 C 54.933 307.467,55.265 305.453,58.730 303.822 C 60.189 303.134,60.613 302.468,59.792 302.152 C 58.773 301.762,57.480 302.401,55.536 304.255 C 54.304 305.430,53.355 306.074,52.969 305.999 C 52.508 305.908,52.772 305.595,54.040 304.729 C 56.373 303.137,56.860 302.238,55.640 301.776 C 54.324 301.278,54.095 300.706,54.936 300.016 C 55.718 299.375,55.719 299.367,55.051 298.854 C 54.649 298.546,54.553 298.334,54.814 298.327 C 55.054 298.321,58.008 297.010,61.379 295.413 C 64.750 293.816,69.524 291.694,71.988 290.697 C 74.452 289.699,77.179 288.513,78.048 288.060 C 79.900 287.096,80.471 287.015,80.471 287.715 M301.347 288.384 C 302.921 288.661,304.247 288.888,304.293 288.888 C 304.339 288.889,304.378 289.912,304.378 291.162 C 304.379 293.087,304.756 295.884,305.623 300.421 C 305.827 301.486,305.719 301.511,303.801 300.843 C 302.706 300.462,301.986 300.424,300.641 300.680 C 294.326 301.877,293.192 299.840,295.791 291.976 C 297.327 287.329,296.906 287.602,301.347 288.384 M324.074 294.175 C 331.897 297.658,338.646 300.954,338.945 301.438 C 339.091 301.674,338.946 301.712,338.523 301.549 C 336.418 300.737,330.120 299.012,328.114 298.699 C 326.818 298.497,324.245 298.096,322.397 297.809 C 317.393 297.032,315.717 295.945,315.269 293.189 C 314.784 290.195,315.254 290.248,324.074 294.175 " stroke="none" fill="#ba4b2f" fill-rule="evenodd"></path></g></svg>