<svg id="svg" version="1.1" xmlns="http://www.w3.org/2000/svg" xmlns:xlink="http://www.w3.org/1999/xlink" width="400" height="407.0886075949367" viewBox="0, 0, 400,407.0886075949367"><g id="svgg"><path id="path0" d="M0.000 203.400 L 0.000 406.800 200.000 406.800 L 400.000 406.800 400.000 203.400 L 400.000 0.000 200.000 0.000 L 0.000 0.000 0.000 203.400 M233.650 31.846 C 235.256 32.297,236.517 32.963,237.344 33.798 C 238.035 34.495,239.606 35.800,240.835 36.697 C 245.618 40.190,249.857 46.904,249.974 51.172 C 250.055 54.170,251.893 56.956,255.319 59.276 C 258.076 61.143,258.337 61.372,259.316 62.789 C 260.337 64.266,260.154 65.294,258.600 66.800 C 256.960 68.390,256.936 68.594,258.041 71.624 C 258.773 73.631,258.824 74.195,258.441 75.984 C 258.198 77.115,258.000 79.758,258.000 81.858 C 258.000 85.100,257.873 85.855,257.157 86.860 C 255.307 89.458,249.374 91.885,245.975 91.434 C 241.770 90.877,240.884 91.813,237.441 100.455 C 232.760 112.205,233.138 117.311,239.753 131.674 C 241.888 136.312,240.233 136.950,237.747 132.448 C 233.977 125.622,227.764 117.314,222.586 112.175 C 217.414 107.043,209.753 104.356,205.436 106.159 C 203.123 107.126,203.557 107.410,207.335 107.405 C 213.167 107.397,215.943 109.098,223.484 117.295 C 227.408 121.561,229.034 124.167,234.407 134.800 C 235.463 136.890,236.614 139.297,236.964 140.149 C 242.900 154.596,216.776 166.230,195.570 158.583 C 192.324 157.413,190.800 157.002,190.800 157.298 C 190.800 157.403,191.254 158.909,191.810 160.644 C 194.606 169.380,195.203 177.647,193.588 185.258 C 192.966 188.187,192.899 188.130,196.811 188.035 C 199.675 187.966,201.882 188.297,207.200 189.591 C 217.701 192.146,225.805 192.361,236.400 190.367 C 242.004 189.313,243.076 189.090,244.160 188.757 C 245.900 188.221,246.400 188.318,246.400 189.192 C 246.400 189.732,246.049 190.062,245.300 190.225 C 244.695 190.358,243.660 190.638,243.000 190.849 C 233.973 193.727,207.112 194.690,195.132 192.566 L 193.663 192.306 193.387 194.253 C 192.975 197.155,191.016 201.773,189.098 204.365 C 188.164 205.626,186.590 207.747,185.600 209.078 C 184.610 210.409,183.039 212.016,182.109 212.649 C 179.939 214.126,179.809 213.838,184.091 217.040 C 186.122 218.558,188.957 220.894,190.391 222.232 C 200.056 231.244,216.669 236.012,227.774 232.962 L 230.548 232.200 232.186 228.000 C 233.505 224.619,234.040 223.697,234.929 223.270 C 236.933 222.309,244.537 203.773,246.444 195.200 C 249.201 182.805,249.063 181.540,245.165 183.496 C 240.633 185.769,232.653 184.753,229.738 181.532 C 228.748 180.437,229.639 179.574,230.910 180.396 C 235.278 183.225,239.569 183.625,244.260 181.642 C 248.467 179.863,250.108 177.791,251.813 172.107 C 252.194 170.838,252.762 168.996,253.077 168.013 C 255.328 160.987,253.812 156.428,244.538 142.325 C 241.340 137.463,240.442 135.334,241.809 135.859 C 242.942 136.293,252.220 150.835,253.944 154.878 C 256.560 161.012,254.775 173.503,250.478 179.133 C 249.196 180.812,249.138 181.017,249.555 182.408 C 250.220 184.629,249.842 188.419,248.399 194.000 C 246.369 201.852,243.967 209.031,241.750 213.875 C 241.227 215.017,240.800 216.039,240.800 216.147 C 240.800 216.256,240.251 217.530,239.581 218.979 C 238.910 220.428,238.452 221.761,238.564 221.941 C 238.675 222.121,245.209 222.191,253.083 222.096 C 275.388 221.828,298.012 223.259,303.600 225.291 C 317.457 230.330,321.572 241.852,316.709 262.000 C 316.258 263.870,315.758 266.120,315.598 267.000 C 315.210 269.135,313.720 276.548,313.227 278.800 C 313.010 279.790,312.572 281.770,312.254 283.200 C 311.936 284.630,311.378 287.240,311.014 289.000 C 310.650 290.760,310.190 292.920,309.990 293.800 C 309.791 294.680,309.339 296.750,308.986 298.400 C 308.633 300.050,308.185 302.120,307.990 303.000 C 306.726 308.698,306.444 310.091,306.046 312.600 C 305.801 314.140,305.306 317.200,304.945 319.400 C 303.267 329.629,304.170 345.717,306.546 347.950 C 309.026 350.279,323.294 356.523,328.600 357.600 C 333.123 358.518,339.039 361.437,341.300 363.865 C 342.015 364.633,343.090 365.519,343.688 365.835 C 346.245 367.183,345.852 369.243,342.734 370.833 C 340.833 371.803,338.089 371.759,330.000 370.629 C 327.470 370.275,323.600 369.812,321.400 369.600 C 319.200 369.387,314.520 368.914,311.000 368.549 C 299.486 367.352,292.957 367.359,289.444 368.572 C 285.603 369.898,283.062 369.903,280.292 368.592 C 276.267 366.686,276.004 364.836,278.408 355.348 C 279.910 349.421,280.477 344.695,279.815 343.624 C 279.675 343.398,279.859 341.460,280.224 339.318 C 280.913 335.275,280.887 332.835,280.054 323.400 C 278.832 309.543,278.721 306.855,278.920 296.000 C 279.035 289.730,279.317 283.340,279.546 281.800 C 280.794 273.428,282.037 268.875,283.890 265.885 C 285.172 263.817,284.915 263.657,281.320 264.291 C 270.593 266.181,271.695 265.999,263.800 267.186 C 262.260 267.417,260.550 267.770,260.000 267.970 C 259.450 268.170,258.370 268.432,257.600 268.553 C 256.830 268.674,254.940 269.066,253.400 269.426 C 251.860 269.785,249.880 270.220,249.000 270.392 C 248.120 270.564,246.050 271.018,244.400 271.400 C 242.750 271.782,240.680 272.233,239.800 272.402 C 238.920 272.571,236.400 273.071,234.200 273.514 C 224.577 275.448,205.986 276.281,204.267 274.855 C 202.981 273.789,202.221 274.652,198.603 281.280 C 195.541 286.891,190.000 298.455,190.000 299.235 C 190.000 299.442,189.838 299.923,189.641 300.305 C 188.775 301.981,188.038 304.259,185.402 313.400 C 184.522 316.452,182.064 323.949,181.599 325.000 C 181.404 325.440,180.214 328.320,178.954 331.400 C 177.021 336.128,169.505 351.615,167.894 354.190 C 166.038 357.158,164.800 359.242,164.800 359.397 C 164.800 360.316,157.507 371.124,154.448 374.737 C 146.317 384.343,131.000 386.167,123.068 378.474 C 120.724 376.201,118.990 373.304,116.798 368.000 C 116.116 366.350,115.396 364.640,115.198 364.200 C 114.476 362.597,112.245 354.859,111.622 351.800 C 109.574 341.743,107.555 330.482,106.602 323.800 C 106.476 322.920,106.210 321.390,106.009 320.400 C 105.809 319.410,105.443 317.340,105.197 315.800 C 104.507 311.494,103.715 307.319,101.932 298.600 C 101.707 297.500,101.292 295.610,101.009 294.400 C 100.727 293.190,100.274 291.120,100.003 289.800 C 99.732 288.480,99.281 286.500,99.001 285.400 C 98.720 284.300,98.252 282.267,97.959 280.883 C 97.667 279.498,97.125 278.041,96.756 277.645 C 95.540 276.340,94.915 274.637,94.679 271.989 C 94.551 270.552,93.887 267.762,93.203 265.789 C 90.476 257.920,90.344 257.283,90.270 251.700 C 90.231 248.786,90.041 246.401,89.846 246.400 C 89.652 246.400,88.796 246.609,87.945 246.864 C 84.589 247.869,83.386 245.240,85.221 240.910 C 85.656 239.885,85.671 239.351,85.296 238.310 C 85.037 237.589,84.821 235.920,84.815 234.600 C 84.810 233.280,84.802 231.840,84.797 231.400 C 84.793 230.960,84.686 229.681,84.560 228.558 C 84.318 226.407,85.911 222.036,87.379 220.818 C 87.724 220.531,88.120 219.554,88.258 218.648 C 88.451 217.375,88.951 216.567,90.454 215.099 C 91.524 214.053,92.400 212.934,92.400 212.613 C 92.400 211.612,93.975 211.087,96.191 211.347 C 99.665 211.756,101.355 208.600,103.015 198.600 C 103.908 193.219,105.485 185.498,106.242 182.800 C 107.414 178.625,108.829 174.198,109.214 173.505 C 109.426 173.123,109.600 172.607,109.600 172.359 C 109.600 171.703,113.668 163.410,115.347 160.642 C 116.587 158.598,118.800 152.822,118.800 151.629 C 118.800 151.405,119.281 150.207,119.868 148.966 C 122.381 143.658,127.326 140.704,145.400 133.710 C 146.280 133.370,147.540 132.863,148.200 132.584 C 148.860 132.305,150.531 131.604,151.913 131.028 C 153.295 130.451,155.545 129.467,156.913 128.842 C 158.281 128.217,160.300 127.300,161.400 126.803 C 173.843 121.184,177.828 119.064,177.698 118.131 C 177.206 114.603,177.706 104.819,178.911 94.400 C 179.214 91.773,179.400 83.982,179.406 73.600 C 179.415 56.159,179.437 55.908,181.293 52.000 C 183.600 47.141,188.554 43.828,192.858 44.266 C 194.518 44.435,194.653 44.367,195.723 42.825 C 200.873 35.407,223.253 28.929,233.650 31.846 M218.000 35.026 C 212.862 36.137,209.293 37.965,204.005 42.194 C 201.138 44.487,199.237 45.702,198.005 46.031 C 195.492 46.701,195.200 47.218,195.200 51.000 C 195.200 54.022,195.100 54.412,193.760 56.624 C 191.646 60.112,191.615 60.272,191.937 66.072 C 192.420 74.754,196.959 82.158,204.330 86.286 C 209.255 89.044,210.149 90.362,208.048 91.770 C 206.941 92.512,206.919 92.588,207.450 93.857 C 208.174 95.591,208.151 99.472,207.403 101.592 C 206.644 103.741,206.828 103.999,209.124 104.005 C 216.620 104.026,223.698 109.248,232.351 121.141 C 234.382 123.932,234.903 123.703,233.881 120.468 C 231.912 114.238,232.324 106.111,234.787 102.600 C 234.941 102.380,235.862 100.144,236.834 97.631 C 237.971 94.690,239.063 92.568,239.900 91.675 C 241.564 89.900,241.546 89.790,239.433 88.856 C 236.006 87.340,231.912 83.821,232.681 83.053 C 233.595 82.139,238.861 84.030,244.828 87.416 C 248.507 89.503,250.034 89.620,253.101 88.046 C 256.048 86.536,256.287 85.994,256.570 80.200 C 256.923 72.955,256.928 73.038,256.017 71.038 C 254.963 68.723,254.957 68.767,256.600 66.800 C 258.693 64.294,258.319 63.257,254.391 60.679 C 251.501 58.782,249.398 56.277,248.855 54.083 C 248.653 53.268,248.208 51.404,247.866 49.943 C 245.821 41.201,235.996 32.821,233.392 37.600 C 232.130 39.918,230.800 47.357,230.800 52.102 C 230.800 53.345,230.592 54.819,230.338 55.377 C 229.962 56.202,230.010 56.691,230.591 57.980 C 232.469 62.145,229.484 65.181,225.659 62.995 C 222.683 61.294,221.713 62.098,222.160 65.897 C 222.626 69.862,225.093 72.759,229.043 73.980 C 231.709 74.803,232.537 76.000,230.441 76.000 C 227.699 76.000,223.383 73.420,222.076 71.000 C 218.235 63.888,220.256 58.335,225.655 61.165 C 228.338 62.571,228.889 62.456,229.396 60.383 C 229.890 58.365,228.486 57.348,224.868 57.100 C 221.489 56.868,220.000 56.340,220.000 55.373 C 220.000 54.394,221.093 54.255,224.648 54.784 C 228.912 55.419,229.200 55.231,229.200 51.821 C 229.200 46.913,230.796 38.012,231.909 36.715 C 233.774 34.541,225.106 33.489,218.000 35.026 M202.400 39.443 C 199.603 40.985,197.200 43.035,197.200 43.878 C 197.200 45.205,199.728 43.770,203.846 40.106 C 206.591 37.663,206.065 37.422,202.400 39.443 M186.327 48.230 C 182.167 51.354,181.129 54.500,180.907 64.673 C 180.677 75.170,181.104 76.255,183.004 70.000 C 184.099 66.394,185.576 65.487,187.464 67.260 C 188.688 68.410,188.730 68.222,188.878 60.981 C 188.977 56.141,189.134 54.760,189.681 53.926 C 190.237 53.077,190.285 52.616,189.945 51.385 C 189.716 50.558,189.617 49.424,189.724 48.866 C 190.191 46.419,189.029 46.202,186.327 48.230 M192.015 53.361 C 191.489 54.745,191.482 56.000,192.000 56.000 C 192.220 56.000,192.400 55.728,192.400 55.395 C 192.400 55.062,192.620 54.436,192.890 54.005 C 193.268 53.399,193.272 53.112,192.905 52.745 C 192.538 52.378,192.335 52.518,192.015 53.361 M184.230 71.700 C 179.933 85.942,179.101 105.924,182.508 113.100 C 183.502 115.195,184.788 113.436,186.527 107.600 C 188.024 102.575,188.127 101.297,187.430 96.321 C 186.202 87.556,186.007 85.732,185.532 78.513 C 185.093 71.832,185.109 71.164,185.726 70.481 C 186.556 69.564,186.605 68.400,185.813 68.400 C 185.425 68.400,184.888 69.518,184.230 71.700 M186.979 78.700 C 187.817 89.216,188.786 92.509,188.656 84.400 C 188.583 79.865,188.382 77.456,188.011 76.700 C 187.069 74.779,186.720 75.455,186.979 78.700 M192.413 77.030 C 192.406 77.266,192.824 78.706,193.342 80.230 C 195.949 87.892,199.005 90.800,204.449 90.800 C 207.533 90.800,207.548 90.082,204.500 88.358 C 200.663 86.187,197.732 83.715,195.716 80.947 C 193.004 77.224,192.428 76.541,192.413 77.030 M192.516 86.300 C 192.636 87.345,193.048 89.910,193.430 92.000 C 194.521 97.953,194.443 107.915,193.284 110.800 C 192.798 112.010,192.400 113.135,192.400 113.300 C 192.400 113.863,194.301 113.602,194.828 112.966 C 195.117 112.618,196.129 111.799,197.077 111.147 C 198.025 110.495,198.800 109.767,198.800 109.529 C 198.800 109.292,199.934 107.896,201.319 106.427 C 204.752 102.787,205.660 100.745,205.910 96.100 L 206.109 92.400 203.863 92.400 C 199.664 92.400,196.150 90.191,194.159 86.300 C 193.624 85.255,192.987 84.400,192.742 84.400 C 192.449 84.400,192.372 85.043,192.516 86.300 M190.288 96.956 C 189.711 100.874,190.095 106.724,190.850 105.532 C 191.247 104.906,191.249 99.859,190.853 97.000 L 190.576 95.000 190.288 96.956 M188.285 107.600 C 187.656 109.795,186.969 111.654,186.170 113.322 C 185.117 115.524,185.519 116.062,187.578 115.209 C 189.669 114.343,190.031 113.617,189.744 110.866 C 189.477 108.317,188.626 106.411,188.285 107.600 M204.000 110.049 C 200.669 110.944,197.774 112.855,200.700 112.228 C 202.268 111.891,205.157 111.824,205.450 112.117 C 206.445 113.112,204.427 113.770,197.800 114.612 C 192.597 115.273,182.509 118.663,174.600 122.408 C 172.400 123.449,169.430 124.845,168.000 125.508 C 166.570 126.172,163.690 127.523,161.600 128.510 C 154.197 132.006,153.332 132.372,142.000 136.806 C 134.581 139.708,126.313 143.821,124.286 145.618 C 122.128 147.531,121.331 149.120,119.276 155.600 C 118.613 157.690,117.417 160.480,116.618 161.800 C 115.319 163.946,113.735 167.078,111.864 171.200 C 110.335 174.567,108.147 182.061,106.374 190.000 C 105.496 193.934,104.000 202.118,104.000 202.991 C 104.000 207.419,97.828 215.786,91.571 219.843 C 87.490 222.488,85.133 226.825,86.510 229.155 C 86.876 229.774,87.060 230.647,86.931 231.143 C 86.787 231.692,86.964 232.318,87.398 232.798 C 88.064 233.534,88.059 233.642,87.287 235.123 C 86.306 237.005,86.682 238.193,87.907 237.084 C 89.810 235.362,90.313 237.567,88.429 239.372 C 86.637 241.089,85.354 244.325,86.149 245.121 C 87.256 246.227,89.748 244.653,95.210 239.397 C 101.439 233.404,104.277 231.938,106.295 233.673 C 109.720 236.615,112.098 232.276,110.196 226.554 C 107.124 217.308,115.631 197.800,131.075 178.675 C 132.667 176.704,134.573 173.555,136.414 169.854 C 140.930 160.776,143.895 158.287,153.400 155.592 C 156.415 154.737,159.535 153.920,161.000 153.600 C 161.880 153.408,163.770 152.960,165.200 152.604 C 166.630 152.248,168.430 151.800,169.200 151.608 C 169.970 151.417,171.590 150.991,172.800 150.663 C 174.010 150.334,177.481 149.432,180.512 148.658 C 184.265 147.700,186.389 146.944,187.166 146.290 C 189.641 144.207,201.821 143.542,204.565 145.340 C 206.207 146.416,205.595 146.657,200.515 146.933 C 192.962 147.343,187.200 148.428,187.200 149.440 C 187.200 150.412,189.149 153.945,189.899 154.335 C 204.064 161.680,230.393 157.807,234.591 147.760 C 236.152 144.024,234.292 137.342,229.481 129.406 C 220.182 114.063,212.049 107.885,204.000 110.049 M178.973 111.764 C 178.120 115.166,179.668 118.910,181.267 117.311 L 182.130 116.447 181.016 113.924 C 179.609 110.740,179.310 110.423,178.973 111.764 M182.100 149.882 C 180.893 150.115,180.953 151.060,182.190 151.296 C 182.807 151.414,183.410 151.231,183.790 150.811 C 184.865 149.623,184.498 149.421,182.100 149.882 M175.400 151.447 C 174.300 151.784,172.770 152.218,172.000 152.411 C 171.230 152.604,169.610 153.028,168.400 153.354 C 167.190 153.680,164.310 154.425,162.000 155.010 C 154.695 156.860,147.794 159.176,145.393 160.583 C 142.513 162.271,140.635 164.773,137.688 170.849 C 136.155 174.012,134.246 177.410,133.447 178.400 C 127.654 185.579,124.976 189.458,120.466 197.200 C 116.975 203.194,114.273 209.054,111.996 215.570 C 110.988 218.455,110.687 224.004,111.450 225.637 C 111.698 226.166,112.099 227.095,112.342 227.700 C 113.779 231.282,124.041 223.639,126.765 216.957 C 130.004 209.010,134.384 201.935,140.213 195.231 C 141.443 193.817,144.841 189.737,148.212 185.628 C 149.759 183.743,152.220 180.490,153.682 178.400 C 157.511 172.926,158.125 172.258,161.330 170.074 C 165.999 166.891,170.745 164.737,176.200 163.324 C 180.016 162.335,180.141 162.129,179.822 157.339 C 179.370 150.544,179.179 150.290,175.400 151.447 M185.199 155.100 C 185.199 157.364,186.065 163.348,186.456 163.780 C 186.659 164.004,186.800 163.795,186.800 163.271 C 186.800 162.705,187.173 162.213,187.832 161.913 C 189.005 161.378,188.993 161.182,187.538 157.200 C 186.054 153.137,185.200 152.370,185.199 155.100 M182.451 161.318 C 181.870 162.257,181.593 163.379,181.579 164.847 C 181.567 166.031,181.288 168.350,180.958 170.000 C 180.628 171.650,180.251 173.539,180.119 174.199 C 179.908 175.256,179.955 175.336,180.510 174.874 C 180.857 174.587,181.469 174.407,181.870 174.476 C 182.433 174.572,182.629 174.303,182.725 173.300 C 182.827 172.241,183.024 172.000,183.783 172.000 C 184.949 172.000,185.194 172.633,185.225 175.733 C 185.247 177.804,185.316 178.039,185.656 177.200 C 186.113 176.071,185.904 173.448,184.746 165.800 C 183.845 159.853,183.624 159.420,182.451 161.318 M177.600 164.605 C 176.830 164.893,175.120 165.441,173.800 165.824 C 170.889 166.669,168.044 167.935,164.706 169.872 C 160.070 172.562,159.106 173.531,154.707 179.916 C 153.577 181.555,148.373 187.995,144.400 192.670 C 142.750 194.611,140.867 196.920,140.214 197.800 C 139.562 198.680,138.797 199.638,138.513 199.930 C 136.366 202.136,131.372 210.276,129.636 214.400 C 126.278 222.375,123.357 225.906,117.800 228.709 C 114.861 230.191,114.526 230.487,113.693 232.333 C 112.600 234.756,110.739 236.046,107.950 236.314 C 103.838 236.710,107.145 240.421,117.400 246.919 C 126.692 252.807,127.803 257.835,121.361 264.842 C 118.159 268.325,118.534 270.262,125.196 284.654 C 125.858 286.085,126.400 287.426,126.400 287.633 C 126.400 287.841,126.560 288.323,126.756 288.705 C 126.951 289.087,127.428 290.120,127.815 291.000 C 128.201 291.880,128.671 292.913,128.859 293.295 C 129.046 293.677,129.200 294.167,129.200 294.384 C 129.200 294.601,129.631 295.728,130.157 296.889 C 130.684 298.050,132.382 302.056,133.930 305.791 C 137.328 313.984,137.438 314.057,137.777 308.318 C 138.008 304.388,139.136 296.716,140.440 290.200 C 141.920 282.804,142.035 279.248,140.994 273.007 C 138.923 260.582,140.515 250.023,146.118 239.038 C 149.625 232.160,153.226 228.596,157.137 228.133 C 158.450 227.977,159.200 227.698,159.200 227.363 C 159.200 226.800,165.114 222.775,169.943 220.052 C 173.058 218.295,177.680 214.337,178.835 212.439 C 179.214 211.815,180.594 210.482,181.900 209.477 C 185.219 206.923,185.901 205.818,185.050 204.376 C 184.692 203.772,184.397 202.494,184.394 201.538 C 184.379 197.389,183.416 198.131,183.014 202.600 C 182.660 206.532,180.803 207.831,179.927 204.759 C 179.776 204.231,179.420 202.990,179.134 202.000 L 178.616 200.200 178.479 201.778 C 178.404 202.645,178.534 204.775,178.767 206.511 C 179.456 211.633,177.968 212.816,176.577 208.252 C 173.794 199.124,173.809 188.569,176.617 179.800 C 176.969 178.700,177.409 177.260,177.595 176.600 C 177.780 175.940,178.294 174.140,178.736 172.600 C 179.628 169.497,180.034 164.342,179.400 164.182 C 179.180 164.127,178.370 164.317,177.600 164.605 M190.172 174.000 C 190.468 180.792,190.698 182.404,191.247 181.538 C 191.744 180.754,191.675 173.724,191.144 170.967 C 190.262 166.396,189.891 167.555,190.172 174.000 M187.924 172.031 C 187.786 172.818,187.811 174.078,187.980 174.831 C 188.480 177.054,188.974 175.149,188.540 172.676 L 188.175 170.600 187.924 172.031 M181.704 177.800 C 179.871 182.233,179.438 202.089,181.198 201.001 C 181.688 200.699,182.479 187.329,182.335 181.800 C 182.216 177.209,182.142 176.740,181.704 177.800 M178.360 180.100 C 178.100 181.035,177.662 182.520,177.386 183.400 C 176.624 185.828,175.785 193.945,176.248 194.408 C 176.500 194.660,176.824 193.351,177.166 190.699 C 177.457 188.444,177.947 185.340,178.254 183.800 C 179.234 178.898,179.310 178.400,179.068 178.400 C 178.938 178.400,178.620 179.165,178.360 180.100 M187.044 191.700 C 186.891 195.935,186.657 200.099,186.523 200.953 C 186.154 203.319,187.138 202.654,188.800 199.413 C 190.454 196.189,191.250 186.000,189.848 186.000 C 189.502 186.000,188.924 185.550,188.563 185.000 C 187.442 183.289,187.329 183.786,187.044 191.700 M194.800 190.151 C 194.800 190.946,195.578 191.128,200.800 191.556 C 206.698 192.038,208.368 191.289,203.499 190.344 C 199.370 189.543,194.800 189.441,194.800 190.151 M94.400 213.200 C 94.400 213.420,94.670 213.600,95.000 213.600 C 95.330 213.600,95.600 213.420,95.600 213.200 C 95.600 212.980,95.330 212.800,95.000 212.800 C 94.670 212.800,94.400 212.980,94.400 213.200 M177.804 217.189 C 177.446 218.315,174.744 220.517,172.938 221.155 C 166.588 223.396,157.667 229.600,160.794 229.600 C 160.964 229.600,161.796 230.635,162.643 231.900 C 172.253 246.248,181.112 251.340,201.136 254.023 C 206.807 254.783,206.830 256.382,201.170 256.394 C 188.235 256.420,171.712 248.456,165.496 239.200 C 160.803 232.211,157.172 230.708,153.700 234.319 C 143.707 244.710,139.312 262.043,143.217 275.659 C 144.197 279.077,143.631 285.397,141.324 296.800 C 140.914 298.826,140.664 303.045,140.554 309.800 C 140.465 315.300,140.204 320.700,139.975 321.800 C 139.707 323.093,139.677 325.638,139.892 329.000 C 140.448 337.690,139.669 347.438,137.592 357.800 C 136.680 362.349,134.222 369.193,133.500 369.197 C 132.677 369.201,132.543 367.627,133.254 366.299 C 133.504 365.832,134.148 363.639,134.686 361.425 C 135.640 357.497,135.811 356.634,137.032 349.600 C 138.830 339.237,138.529 325.475,136.413 321.261 C 135.788 320.018,134.613 317.380,133.801 315.400 C 132.989 313.420,131.972 310.990,131.541 310.000 C 130.360 307.291,130.212 306.936,128.377 302.400 C 127.442 300.090,126.524 298.029,126.338 297.820 C 126.152 297.611,126.000 297.211,126.000 296.931 C 126.000 296.651,125.567 295.472,125.038 294.311 C 123.825 291.649,122.308 287.365,121.388 284.000 C 118.633 273.931,118.154 273.522,111.600 275.623 C 106.033 277.408,102.177 278.400,100.807 278.400 C 99.216 278.400,99.224 278.687,101.020 286.600 C 102.034 291.065,103.614 298.424,104.027 300.600 C 104.235 301.700,104.675 303.950,105.004 305.600 C 105.333 307.250,105.775 309.590,105.986 310.800 C 106.197 312.010,106.665 314.620,107.025 316.600 C 107.386 318.580,107.760 320.740,107.856 321.400 C 107.952 322.060,108.302 324.220,108.633 326.200 C 109.231 329.771,109.380 330.669,110.592 338.000 C 111.733 344.897,114.728 358.499,115.570 360.600 C 115.746 361.040,116.755 363.612,117.812 366.315 C 119.854 371.540,122.931 376.651,124.966 378.198 C 132.265 383.749,144.239 382.433,151.737 375.255 C 157.634 369.609,170.966 346.773,176.872 332.200 C 177.318 331.100,177.839 329.840,178.030 329.400 C 179.484 326.054,183.843 313.165,185.199 308.200 C 187.442 299.990,193.590 286.109,198.695 277.730 C 203.947 269.108,204.738 268.049,211.017 261.226 C 222.983 248.222,228.213 241.004,229.367 235.900 C 229.667 234.569,229.738 234.576,223.783 235.412 C 219.384 236.029,218.859 236.010,212.000 234.982 C 203.238 233.668,197.139 231.157,192.705 227.039 C 191.883 226.275,189.453 224.479,187.305 223.047 C 185.157 221.615,182.381 219.534,181.136 218.422 C 178.641 216.194,178.174 216.021,177.804 217.189 M235.380 226.000 C 231.297 240.474,227.284 247.586,217.999 256.800 C 210.677 264.067,204.400 271.267,204.400 272.400 C 204.400 274.532,223.025 274.543,231.600 272.417 C 232.370 272.226,233.900 271.887,235.000 271.664 C 240.411 270.569,243.597 269.893,245.600 269.418 C 246.810 269.131,248.880 268.680,250.200 268.416 C 251.520 268.152,253.590 267.702,254.800 267.416 C 257.346 266.814,259.955 266.300,265.000 265.407 C 266.980 265.056,269.500 264.606,270.600 264.408 C 271.700 264.209,273.410 263.931,274.400 263.790 C 275.390 263.648,276.830 263.382,277.600 263.198 C 278.370 263.014,280.260 262.657,281.800 262.406 C 293.701 260.462,297.179 258.573,301.819 251.529 C 303.544 248.910,304.347 248.229,304.446 249.300 C 304.845 253.635,298.410 259.848,290.485 262.779 C 287.284 263.962,286.202 264.828,285.031 267.139 C 280.153 276.774,278.863 301.969,281.976 326.801 C 282.209 328.659,282.400 332.003,282.400 334.232 L 282.400 338.285 285.300 338.630 C 291.009 339.310,292.981 339.039,297.019 337.021 C 299.024 336.020,300.962 335.200,301.325 335.200 C 302.173 335.200,302.244 334.772,302.790 326.411 C 303.372 317.489,304.346 311.289,306.968 299.800 C 308.450 293.305,308.904 291.256,309.225 289.600 C 309.417 288.610,309.868 286.540,310.227 285.000 C 310.586 283.460,311.018 281.480,311.188 280.600 C 313.040 271.000,313.941 266.650,314.791 263.200 C 315.130 261.825,315.954 257.878,316.781 253.669 C 318.473 245.060,316.237 236.406,311.221 232.149 C 310.660 231.672,309.759 230.896,309.220 230.425 C 303.143 225.108,289.061 223.428,252.700 223.683 L 236.000 223.800 235.380 226.000 M155.424 230.362 C 155.296 230.568,155.930 230.631,156.900 230.507 C 159.152 230.219,159.321 230.000,157.290 230.000 C 156.387 230.000,155.547 230.163,155.424 230.362 M101.560 236.032 C 100.592 236.710,98.270 238.836,96.400 240.757 C 94.530 242.677,92.569 244.517,92.043 244.844 C 91.224 245.354,91.152 245.563,91.543 246.294 C 91.809 246.791,92.000 249.060,92.000 251.729 C 92.000 256.460,93.234 261.443,95.964 267.739 L 96.805 269.678 99.102 269.451 C 100.366 269.325,102.750 269.113,104.400 268.978 C 106.050 268.844,108.840 268.367,110.600 267.918 C 112.360 267.470,114.659 266.976,115.708 266.822 C 120.845 266.066,125.255 257.406,122.625 253.239 C 121.697 251.769,120.574 250.929,113.200 246.185 C 107.421 242.468,103.706 238.249,104.206 235.971 C 104.547 234.419,103.841 234.436,101.560 236.032 M115.000 269.528 C 111.177 271.836,103.903 273.989,99.900 273.997 C 98.351 274.000,98.026 274.560,98.643 276.167 C 98.917 276.883,101.145 277.024,103.040 276.447 C 103.678 276.252,105.010 275.871,106.000 275.600 C 107.879 275.085,110.077 274.425,113.314 273.404 C 114.367 273.072,115.860 272.800,116.632 272.800 C 118.032 272.800,118.036 272.796,117.787 271.300 C 117.311 268.436,117.066 268.280,115.000 269.528 M101.733 270.811 C 98.361 271.165,97.426 271.570,98.799 272.078 C 100.557 272.728,106.800 271.693,106.800 270.751 C 106.800 270.360,105.919 270.370,101.733 270.811 M298.356 338.118 C 295.025 340.374,291.079 341.170,287.024 340.404 C 283.446 339.729,282.534 340.017,282.003 341.989 C 280.714 346.777,284.275 347.678,296.263 345.599 C 301.587 344.676,303.352 342.531,302.267 338.300 C 301.904 336.886,300.286 336.811,298.356 338.118 M302.025 345.370 C 300.563 347.132,285.452 349.205,283.131 347.963 C 282.037 347.377,281.713 347.798,281.253 350.400 C 281.039 351.610,280.569 353.680,280.207 355.000 C 278.221 362.244,278.069 364.091,279.323 365.734 C 281.322 368.356,285.363 368.605,290.900 366.448 C 292.322 365.894,292.277 365.537,290.691 364.800 C 289.071 364.047,289.038 363.435,290.609 363.281 C 291.763 363.168,293.508 363.558,298.400 365.019 C 299.610 365.381,301.140 365.757,301.800 365.857 C 302.460 365.956,304.170 366.224,305.600 366.453 C 307.030 366.683,310.270 367.038,312.800 367.243 C 315.330 367.448,319.290 367.771,321.600 367.960 C 326.133 368.331,331.443 369.013,334.531 369.620 C 339.375 370.573,344.993 369.254,343.030 367.625 C 342.512 367.195,336.544 365.023,334.527 364.530 C 333.525 364.286,332.989 363.251,333.565 362.675 C 333.819 362.421,334.375 362.458,335.157 362.782 C 337.192 363.625,337.485 363.000,335.579 361.883 C 333.705 360.786,331.744 360.124,327.000 358.990 C 323.509 358.156,319.988 356.739,312.478 353.147 C 305.937 350.018,305.145 349.433,303.754 346.700 C 302.671 344.574,302.680 344.580,302.025 345.370 " stroke="none" fill="#fdf3dd" fill-rule="evenodd"></path><path id="path1" d="M223.200 31.050 C 219.120 31.558,210.282 34.169,204.400 36.605 C 201.019 38.004,197.139 40.787,195.723 42.825 C 194.653 44.367,194.518 44.435,192.858 44.266 C 188.554 43.828,183.600 47.141,181.293 52.000 C 179.437 55.908,179.415 56.159,179.406 73.600 C 179.400 83.982,179.214 91.773,178.911 94.400 C 177.706 104.819,177.206 114.603,177.698 118.131 C 177.828 119.064,173.843 121.184,161.400 126.803 C 160.300 127.300,158.281 128.217,156.913 128.842 C 155.545 129.467,153.295 130.451,151.913 131.028 C 150.531 131.604,148.860 132.305,148.200 132.584 C 147.540 132.863,146.280 133.370,145.400 133.710 C 127.326 140.704,122.381 143.658,119.868 148.966 C 119.281 150.207,118.800 151.405,118.800 151.629 C 118.800 152.822,116.587 158.598,115.347 160.642 C 113.668 163.410,109.600 171.703,109.600 172.359 C 109.600 172.607,109.426 173.123,109.214 173.505 C 108.829 174.198,107.414 178.625,106.242 182.800 C 105.485 185.498,103.908 193.219,103.015 198.600 C 101.355 208.600,99.665 211.756,96.191 211.347 C 93.975 211.087,92.400 211.612,92.400 212.613 C 92.400 212.934,91.524 214.053,90.454 215.099 C 88.951 216.567,88.451 217.375,88.258 218.648 C 88.120 219.554,87.724 220.531,87.379 220.818 C 85.911 222.036,84.318 226.407,84.560 228.558 C 84.686 229.681,84.793 230.960,84.797 231.400 C 84.802 231.840,84.810 233.280,84.815 234.600 C 84.821 235.920,85.037 237.589,85.296 238.310 C 85.671 239.351,85.656 239.885,85.221 240.910 C 83.386 245.240,84.589 247.869,87.945 246.864 C 88.796 246.609,89.652 246.400,89.846 246.400 C 90.041 246.401,90.231 248.786,90.270 251.700 C 90.344 257.283,90.476 257.920,93.203 265.789 C 93.887 267.762,94.551 270.552,94.679 271.989 C 94.915 274.637,95.540 276.340,96.756 277.645 C 97.125 278.041,97.667 279.498,97.959 280.883 C 98.252 282.267,98.720 284.300,99.001 285.400 C 99.281 286.500,99.732 288.480,100.003 289.800 C 100.274 291.120,100.727 293.190,101.009 294.400 C 101.292 295.610,101.707 297.500,101.932 298.600 C 103.715 307.319,104.507 311.494,105.197 315.800 C 105.443 317.340,105.809 319.410,106.009 320.400 C 106.210 321.390,106.476 322.920,106.602 323.800 C 107.555 330.482,109.574 341.743,111.622 351.800 C 112.245 354.859,114.476 362.597,115.198 364.200 C 115.396 364.640,116.116 366.350,116.798 368.000 C 118.990 373.304,120.724 376.201,123.068 378.474 C 131.000 386.167,146.317 384.343,154.448 374.737 C 157.507 371.124,164.800 360.316,164.800 359.397 C 164.800 359.242,166.038 357.158,167.894 354.190 C 169.505 351.615,177.021 336.128,178.954 331.400 C 180.214 328.320,181.404 325.440,181.599 325.000 C 182.064 323.949,184.522 316.452,185.402 313.400 C 188.038 304.259,188.775 301.981,189.641 300.305 C 189.838 299.923,190.000 299.442,190.000 299.235 C 190.000 298.455,195.541 286.891,198.603 281.280 C 202.221 274.652,202.981 273.789,204.267 274.855 C 205.986 276.281,224.577 275.448,234.200 273.514 C 236.400 273.071,238.920 272.571,239.800 272.402 C 240.680 272.233,242.750 271.782,244.400 271.400 C 246.050 271.018,248.120 270.564,249.000 270.392 C 249.880 270.220,251.860 269.785,253.400 269.426 C 254.940 269.066,256.830 268.674,257.600 268.553 C 258.370 268.432,259.450 268.170,260.000 267.970 C 260.550 267.770,262.260 267.417,263.800 267.186 C 270.399 266.193,271.572 266.007,274.800 265.439 C 276.670 265.110,279.604 264.593,281.320 264.291 C 284.915 263.657,285.172 263.817,283.890 265.885 C 282.037 268.875,280.794 273.428,279.546 281.800 C 279.317 283.340,279.035 289.730,278.920 296.000 C 278.721 306.855,278.832 309.543,280.054 323.400 C 280.887 332.835,280.913 335.275,280.224 339.318 C 279.859 341.460,279.675 343.398,279.815 343.624 C 280.477 344.695,279.910 349.421,278.408 355.348 C 276.004 364.836,276.267 366.686,280.292 368.592 C 283.062 369.903,285.603 369.898,289.444 368.572 C 292.957 367.359,299.486 367.352,311.000 368.549 C 314.520 368.914,319.200 369.387,321.400 369.600 C 323.600 369.812,327.470 370.275,330.000 370.629 C 338.089 371.759,340.833 371.803,342.734 370.833 C 345.852 369.243,346.245 367.183,343.688 365.835 C 343.090 365.519,342.015 364.633,341.300 363.865 C 339.039 361.437,333.123 358.518,328.600 357.600 C 323.294 356.523,309.026 350.279,306.546 347.950 C 304.170 345.717,303.267 329.629,304.945 319.400 C 305.306 317.200,305.801 314.140,306.046 312.600 C 306.444 310.091,306.726 308.698,307.990 303.000 C 308.185 302.120,308.633 300.050,308.986 298.400 C 309.339 296.750,309.791 294.680,309.990 293.800 C 310.190 292.920,310.650 290.760,311.014 289.000 C 311.378 287.240,311.936 284.630,312.254 283.200 C 312.572 281.770,313.010 279.790,313.227 278.800 C 313.720 276.548,315.210 269.135,315.598 267.000 C 315.758 266.120,316.258 263.870,316.709 262.000 C 321.572 241.852,317.457 230.330,303.600 225.291 C 298.012 223.259,275.388 221.828,253.083 222.096 C 245.209 222.191,238.675 222.121,238.564 221.941 C 238.452 221.761,238.910 220.428,239.581 218.979 C 240.251 217.530,240.800 216.256,240.800 216.147 C 240.800 216.039,241.227 215.017,241.750 213.875 C 243.386 210.300,245.513 204.373,246.799 199.800 C 249.826 189.044,250.420 185.294,249.555 182.408 C 249.138 181.017,249.196 180.812,250.478 179.133 C 254.775 173.503,256.560 161.012,253.944 154.878 C 252.220 150.835,242.942 136.293,241.809 135.859 C 240.442 135.334,241.340 137.463,244.538 142.325 C 253.812 156.428,255.328 160.987,253.077 168.013 C 252.762 168.996,252.194 170.838,251.813 172.107 C 248.741 182.350,239.553 185.994,230.910 180.396 C 229.639 179.574,228.748 180.437,229.738 181.532 C 232.653 184.753,240.633 185.769,245.165 183.496 C 249.063 181.540,249.201 182.805,246.444 195.200 C 244.537 203.773,236.933 222.309,234.929 223.270 C 234.040 223.697,233.505 224.619,232.186 228.000 L 230.548 232.200 227.774 232.962 C 216.669 236.012,200.056 231.244,190.391 222.232 C 188.957 220.894,186.122 218.558,184.091 217.040 C 179.809 213.838,179.939 214.126,182.109 212.649 C 183.039 212.016,184.610 210.409,185.600 209.078 C 186.590 207.747,188.164 205.626,189.098 204.365 C 191.016 201.773,192.975 197.155,193.387 194.253 L 193.663 192.306 195.132 192.566 C 207.112 194.690,233.973 193.727,243.000 190.849 C 243.660 190.638,244.695 190.358,245.300 190.225 C 246.049 190.062,246.400 189.732,246.400 189.192 C 246.400 188.318,245.900 188.221,244.160 188.757 C 243.076 189.090,242.004 189.313,236.400 190.367 C 225.805 192.361,217.701 192.146,207.200 189.591 C 201.882 188.297,199.675 187.966,196.811 188.035 C 192.899 188.130,192.966 188.187,193.588 185.258 C 195.203 177.647,194.606 169.380,191.810 160.644 C 191.254 158.909,190.800 157.403,190.800 157.298 C 190.800 157.002,192.324 157.413,195.570 158.583 C 216.776 166.230,242.900 154.596,236.964 140.149 C 236.614 139.297,235.463 136.890,234.407 134.800 C 229.034 124.167,227.408 121.561,223.484 117.295 C 215.943 109.098,213.167 107.397,207.335 107.405 C 203.557 107.410,203.123 107.126,205.436 106.159 C 209.753 104.356,217.414 107.043,222.586 112.175 C 227.764 117.314,233.977 125.622,237.747 132.448 C 240.233 136.950,241.888 136.312,239.753 131.674 C 233.138 117.311,232.760 112.205,237.441 100.455 C 240.884 91.813,241.770 90.877,245.975 91.434 C 249.374 91.885,255.307 89.458,257.157 86.860 C 257.873 85.855,258.000 85.100,258.000 81.858 C 258.000 79.758,258.198 77.115,258.441 75.984 C 258.824 74.195,258.773 73.631,258.041 71.624 C 256.936 68.594,256.960 68.390,258.600 66.800 C 260.154 65.294,260.337 64.266,259.316 62.789 C 258.337 61.372,258.076 61.143,255.319 59.276 C 251.893 56.956,250.055 54.170,249.974 51.172 C 249.857 46.904,245.618 40.190,240.835 36.697 C 239.606 35.800,238.035 34.495,237.344 33.798 C 235.310 31.746,228.400 30.403,223.200 31.050 M230.535 34.662 C 232.270 34.949,232.776 35.705,231.909 36.715 C 230.796 38.012,229.200 46.913,229.200 51.821 C 229.200 55.231,228.912 55.419,224.648 54.784 C 221.093 54.255,220.000 54.394,220.000 55.373 C 220.000 56.340,221.489 56.868,224.868 57.100 C 228.486 57.348,229.890 58.365,229.396 60.383 C 228.889 62.456,228.338 62.571,225.655 61.165 C 220.256 58.335,218.235 63.888,222.076 71.000 C 223.383 73.420,227.699 76.000,230.441 76.000 C 232.537 76.000,231.709 74.803,229.043 73.980 C 225.093 72.759,222.626 69.862,222.160 65.897 C 221.713 62.098,222.683 61.294,225.659 62.995 C 229.484 65.181,232.469 62.145,230.591 57.980 C 230.010 56.691,229.962 56.202,230.338 55.377 C 230.592 54.819,230.800 53.345,230.800 52.102 C 230.800 47.357,232.130 39.918,233.392 37.600 C 235.996 32.821,245.821 41.201,247.866 49.943 C 248.208 51.404,248.653 53.268,248.855 54.083 C 249.398 56.277,251.501 58.782,254.391 60.679 C 258.319 63.257,258.693 64.294,256.600 66.800 C 254.957 68.767,254.963 68.723,256.017 71.038 C 256.928 73.038,256.923 72.955,256.570 80.200 C 256.287 85.994,256.048 86.536,253.101 88.046 C 250.034 89.620,248.507 89.503,244.828 87.416 C 238.861 84.030,233.595 82.139,232.681 83.053 C 231.912 83.821,236.006 87.340,239.433 88.856 C 241.546 89.790,241.564 89.900,239.900 91.675 C 239.063 92.568,237.971 94.690,236.834 97.631 C 235.862 100.144,234.941 102.380,234.787 102.600 C 232.324 106.111,231.912 114.238,233.881 120.468 C 234.903 123.703,234.382 123.932,232.351 121.141 C 223.698 109.248,216.620 104.026,209.124 104.005 C 206.828 103.999,206.644 103.741,207.403 101.592 C 208.151 99.472,208.174 95.591,207.450 93.857 C 206.919 92.588,206.941 92.512,208.048 91.770 C 210.149 90.362,209.255 89.044,204.330 86.286 C 196.959 82.158,192.420 74.754,191.937 66.072 C 191.615 60.272,191.646 60.112,193.760 56.624 C 195.100 54.412,195.200 54.022,195.200 51.000 C 195.200 47.218,195.492 46.701,198.005 46.031 C 199.237 45.702,201.138 44.487,204.005 42.194 C 211.246 36.403,216.371 34.491,224.800 34.436 C 227.110 34.421,229.691 34.523,230.535 34.662 M203.846 40.106 C 199.728 43.770,197.200 45.205,197.200 43.878 C 197.200 43.035,199.603 40.985,202.400 39.443 C 206.065 37.422,206.591 37.663,203.846 40.106 M189.716 47.325 C 189.827 47.614,189.830 48.307,189.724 48.866 C 189.617 49.424,189.716 50.558,189.945 51.385 C 190.285 52.616,190.237 53.077,189.681 53.926 C 189.134 54.760,188.977 56.141,188.878 60.981 C 188.730 68.222,188.688 68.410,187.464 67.260 C 185.576 65.487,184.099 66.394,183.004 70.000 C 181.104 76.255,180.677 75.170,180.907 64.673 C 181.095 56.084,181.297 55.025,183.447 51.356 C 185.126 48.491,189.166 45.893,189.716 47.325 M192.890 54.005 C 192.620 54.436,192.400 55.062,192.400 55.395 C 192.400 55.728,192.220 56.000,192.000 56.000 C 191.482 56.000,191.489 54.745,192.015 53.361 C 192.335 52.518,192.538 52.378,192.905 52.745 C 193.272 53.112,193.268 53.399,192.890 54.005 M186.400 69.069 C 186.400 69.436,186.097 70.072,185.726 70.481 C 185.109 71.164,185.093 71.832,185.532 78.513 C 186.007 85.732,186.202 87.556,187.430 96.321 C 188.127 101.297,188.024 102.575,186.527 107.600 C 184.788 113.436,183.502 115.195,182.508 113.100 C 179.101 105.924,179.933 85.942,184.230 71.700 C 185.150 68.650,186.400 67.134,186.400 69.069 M188.011 76.700 C 188.382 77.456,188.583 79.865,188.656 84.400 C 188.765 91.183,188.491 91.347,187.650 85.000 C 186.561 76.783,186.683 73.991,188.011 76.700 M195.716 80.947 C 197.732 83.715,200.663 86.187,204.500 88.358 C 207.548 90.082,207.533 90.800,204.449 90.800 C 199.005 90.800,195.949 87.892,193.342 80.230 C 191.815 75.739,191.953 75.781,195.716 80.947 M194.159 86.300 C 196.150 90.191,199.664 92.400,203.863 92.400 L 206.109 92.400 205.910 96.100 C 205.660 100.745,204.752 102.787,201.319 106.427 C 199.934 107.896,198.800 109.292,198.800 109.529 C 198.800 109.767,198.025 110.495,197.077 111.147 C 196.129 111.799,195.117 112.618,194.828 112.966 C 194.301 113.602,192.400 113.863,192.400 113.300 C 192.400 113.135,192.798 112.010,193.284 110.800 C 194.443 107.915,194.521 97.953,193.430 92.000 C 192.403 86.389,192.223 84.400,192.742 84.400 C 192.987 84.400,193.624 85.255,194.159 86.300 M191.159 102.000 C 191.191 105.331,190.681 106.904,190.256 104.782 C 189.916 103.081,189.931 99.380,190.288 96.956 L 190.576 95.000 190.853 97.000 C 191.005 98.100,191.143 100.350,191.159 102.000 M189.744 110.866 C 190.031 113.617,189.669 114.343,187.578 115.209 C 185.519 116.062,185.117 115.524,186.170 113.322 C 186.969 111.654,187.656 109.795,188.285 107.600 C 188.626 106.411,189.477 108.317,189.744 110.866 M209.800 110.144 C 215.968 111.791,220.612 115.777,226.039 124.082 C 235.862 139.111,237.452 145.748,232.432 150.768 C 224.347 158.853,202.194 160.710,189.899 154.335 C 189.149 153.945,187.200 150.412,187.200 149.440 C 187.200 148.428,192.962 147.343,200.515 146.933 C 205.595 146.657,206.207 146.416,204.565 145.340 C 201.821 143.542,189.641 144.207,187.166 146.290 C 186.389 146.944,184.265 147.700,180.512 148.658 C 177.481 149.432,174.010 150.334,172.800 150.663 C 171.590 150.991,169.970 151.417,169.200 151.608 C 168.430 151.800,166.630 152.248,165.200 152.604 C 163.770 152.960,161.880 153.408,161.000 153.600 C 159.535 153.920,156.415 154.737,153.400 155.592 C 143.895 158.287,140.930 160.776,136.414 169.854 C 134.573 173.555,132.667 176.704,131.075 178.675 C 119.583 192.906,110.232 210.863,109.345 220.400 C 109.119 222.831,109.234 223.657,110.196 226.554 C 112.098 232.276,109.720 236.615,106.295 233.673 C 104.277 231.938,101.439 233.404,95.210 239.397 C 89.748 244.653,87.256 246.227,86.149 245.121 C 85.354 244.325,86.637 241.089,88.429 239.372 C 90.313 237.567,89.810 235.362,87.907 237.084 C 86.682 238.193,86.306 237.005,87.287 235.123 C 88.059 233.642,88.064 233.534,87.398 232.798 C 86.964 232.318,86.787 231.692,86.931 231.143 C 87.060 230.647,86.876 229.774,86.510 229.155 C 85.133 226.825,87.490 222.488,91.571 219.843 C 97.828 215.786,104.000 207.419,104.000 202.991 C 104.000 202.118,105.496 193.934,106.374 190.000 C 108.147 182.061,110.335 174.567,111.864 171.200 C 113.735 167.078,115.319 163.946,116.618 161.800 C 117.417 160.480,118.613 157.690,119.276 155.600 C 121.331 149.120,122.128 147.531,124.286 145.618 C 126.313 143.821,134.581 139.708,142.000 136.806 C 153.332 132.372,154.197 132.006,161.600 128.510 C 163.690 127.523,166.570 126.172,168.000 125.508 C 169.430 124.845,172.400 123.449,174.600 122.408 C 182.509 118.663,192.597 115.273,197.800 114.612 C 204.427 113.770,206.445 113.112,205.450 112.117 C 205.157 111.824,202.268 111.891,200.700 112.228 C 199.097 112.572,199.355 111.828,201.100 111.073 C 204.603 109.559,206.752 109.330,209.800 110.144 M181.016 113.924 L 182.130 116.447 181.267 117.311 C 180.068 118.510,179.156 117.564,178.895 114.852 C 178.459 110.310,179.264 109.958,181.016 113.924 M184.400 149.869 C 184.400 150.624,183.093 151.469,182.190 151.296 C 180.953 151.060,180.893 150.115,182.100 149.882 C 183.610 149.591,184.400 149.587,184.400 149.869 M179.249 152.139 C 179.415 152.766,179.673 155.106,179.822 157.339 C 180.141 162.129,180.016 162.335,176.200 163.324 C 170.745 164.737,165.999 166.891,161.330 170.074 C 158.125 172.258,157.511 172.926,153.682 178.400 C 152.220 180.490,149.759 183.743,148.212 185.628 C 144.841 189.737,141.443 193.817,140.213 195.231 C 134.384 201.935,130.004 209.010,126.765 216.957 C 124.041 223.639,113.779 231.282,112.342 227.700 C 112.099 227.095,111.698 226.166,111.450 225.637 C 109.446 221.347,113.083 209.875,120.466 197.200 C 124.976 189.458,127.654 185.579,133.447 178.400 C 134.246 177.410,136.155 174.012,137.688 170.849 C 140.635 164.773,142.513 162.271,145.393 160.583 C 147.794 159.176,154.695 156.860,162.000 155.010 C 164.310 154.425,167.190 153.680,168.400 153.354 C 169.610 153.028,171.230 152.604,172.000 152.411 C 172.770 152.218,174.300 151.784,175.400 151.447 C 178.103 150.619,178.882 150.759,179.249 152.139 M186.271 154.100 C 186.655 154.704,188.413 159.471,188.676 160.621 C 188.812 161.217,188.579 161.572,187.832 161.913 C 187.173 162.213,186.800 162.705,186.800 163.271 C 186.800 165.247,186.086 163.207,185.656 160.000 C 184.925 154.559,185.155 152.346,186.271 154.100 M184.746 165.800 C 185.904 173.448,186.113 176.071,185.656 177.200 C 185.316 178.039,185.247 177.804,185.225 175.733 C 185.194 172.633,184.949 172.000,183.783 172.000 C 183.024 172.000,182.827 172.241,182.725 173.300 C 182.629 174.303,182.433 174.572,181.870 174.476 C 181.469 174.407,180.857 174.587,180.510 174.874 C 179.955 175.336,179.908 175.256,180.119 174.199 C 180.251 173.539,180.628 171.650,180.958 170.000 C 181.288 168.350,181.567 166.031,181.579 164.847 C 181.601 162.629,182.959 159.598,183.630 160.271 C 183.811 160.452,184.313 162.940,184.746 165.800 M179.670 167.041 C 179.599 168.559,179.179 171.060,178.736 172.600 C 178.294 174.140,177.780 175.940,177.595 176.600 C 177.409 177.260,176.969 178.700,176.617 179.800 C 173.809 188.569,173.794 199.124,176.577 208.252 C 177.968 212.816,179.456 211.633,178.767 206.511 C 178.534 204.775,178.404 202.645,178.479 201.778 L 178.616 200.200 179.134 202.000 C 179.420 202.990,179.776 204.231,179.927 204.759 C 180.803 207.831,182.660 206.532,183.014 202.600 C 183.416 198.131,184.379 197.389,184.394 201.538 C 184.397 202.494,184.692 203.772,185.050 204.376 C 185.901 205.818,185.219 206.923,181.900 209.477 C 180.594 210.482,179.214 211.815,178.835 212.439 C 177.680 214.337,173.058 218.295,169.943 220.052 C 165.114 222.775,159.200 226.800,159.200 227.363 C 159.200 227.698,158.450 227.977,157.137 228.133 C 153.226 228.596,149.625 232.160,146.118 239.038 C 140.515 250.023,138.923 260.582,140.994 273.007 C 142.035 279.248,141.920 282.804,140.440 290.200 C 139.136 296.716,138.008 304.388,137.777 308.318 C 137.438 314.057,137.328 313.984,133.930 305.791 C 132.382 302.056,130.684 298.050,130.157 296.889 C 129.631 295.728,129.200 294.601,129.200 294.384 C 129.200 294.167,129.046 293.677,128.859 293.295 C 128.671 292.913,128.201 291.880,127.815 291.000 C 127.428 290.120,126.951 289.087,126.756 288.705 C 126.560 288.323,126.400 287.841,126.400 287.633 C 126.400 287.426,125.858 286.085,125.196 284.654 C 118.534 270.262,118.159 268.325,121.361 264.842 C 127.803 257.835,126.692 252.807,117.400 246.919 C 107.145 240.421,103.838 236.710,107.950 236.314 C 110.739 236.046,112.600 234.756,113.693 232.333 C 114.526 230.487,114.861 230.191,117.800 228.709 C 123.357 225.906,126.278 222.375,129.636 214.400 C 131.372 210.276,136.366 202.136,138.513 199.930 C 138.797 199.638,139.562 198.680,140.214 197.800 C 140.867 196.920,142.750 194.611,144.400 192.670 C 148.373 187.995,153.577 181.555,154.707 179.916 C 159.106 173.531,160.070 172.562,164.706 169.872 C 168.044 167.935,170.889 166.669,173.800 165.824 C 175.120 165.441,176.830 164.893,177.600 164.605 C 179.676 163.830,179.814 163.992,179.670 167.041 M191.144 170.967 C 191.675 173.724,191.744 180.754,191.247 181.538 C 190.698 182.404,190.468 180.792,190.172 174.000 C 189.891 167.555,190.262 166.396,191.144 170.967 M188.596 175.476 C 188.135 176.560,187.605 173.847,187.924 172.031 L 188.175 170.600 188.540 172.676 C 188.740 173.817,188.766 175.077,188.596 175.476 M181.980 193.910 C 181.448 201.415,181.150 202.393,180.453 198.924 C 179.515 194.252,180.286 181.229,181.704 177.800 C 182.445 176.007,182.602 185.145,181.980 193.910 M179.059 179.700 C 178.925 180.415,178.562 182.260,178.254 183.800 C 177.947 185.340,177.457 188.444,177.166 190.699 C 176.824 193.351,176.500 194.660,176.248 194.408 C 175.785 193.945,176.624 185.828,177.386 183.400 C 177.662 182.520,178.100 181.035,178.360 180.100 C 178.914 178.103,179.415 177.817,179.059 179.700 M188.563 185.000 C 188.924 185.550,189.502 186.000,189.848 186.000 C 191.250 186.000,190.454 196.189,188.800 199.413 C 187.138 202.654,186.154 203.319,186.523 200.953 C 186.657 200.099,186.891 195.935,187.044 191.700 C 187.329 183.786,187.442 183.289,188.563 185.000 M203.499 190.344 C 208.368 191.289,206.698 192.038,200.800 191.556 C 195.578 191.128,194.800 190.946,194.800 190.151 C 194.800 189.441,199.370 189.543,203.499 190.344 M95.600 213.200 C 95.600 213.420,95.330 213.600,95.000 213.600 C 94.670 213.600,94.400 213.420,94.400 213.200 C 94.400 212.980,94.670 212.800,95.000 212.800 C 95.330 212.800,95.600 212.980,95.600 213.200 M181.136 218.422 C 182.381 219.534,185.157 221.615,187.305 223.047 C 189.453 224.479,191.883 226.275,192.705 227.039 C 197.139 231.157,203.238 233.668,212.000 234.982 C 218.859 236.010,219.384 236.029,223.783 235.412 C 229.738 234.576,229.667 234.569,229.367 235.900 C 228.213 241.004,222.983 248.222,211.017 261.226 C 204.738 268.049,203.947 269.108,198.695 277.730 C 193.590 286.109,187.442 299.990,185.199 308.200 C 183.843 313.165,179.484 326.054,178.030 329.400 C 177.839 329.840,177.318 331.100,176.872 332.200 C 172.554 342.855,162.880 360.519,156.390 369.600 C 150.089 378.416,144.928 381.371,135.800 381.387 C 126.479 381.404,122.362 377.954,117.812 366.315 C 116.755 363.612,115.746 361.040,115.570 360.600 C 114.728 358.499,111.733 344.897,110.592 338.000 C 109.380 330.669,109.231 329.771,108.633 326.200 C 108.302 324.220,107.952 322.060,107.856 321.400 C 107.760 320.740,107.386 318.580,107.025 316.600 C 106.665 314.620,106.197 312.010,105.986 310.800 C 105.775 309.590,105.333 307.250,105.004 305.600 C 104.675 303.950,104.235 301.700,104.027 300.600 C 103.614 298.424,102.034 291.065,101.020 286.600 C 99.224 278.687,99.216 278.400,100.807 278.400 C 102.177 278.400,106.033 277.408,111.600 275.623 C 118.154 273.522,118.633 273.931,121.388 284.000 C 122.308 287.365,123.825 291.649,125.038 294.311 C 125.567 295.472,126.000 296.651,126.000 296.931 C 126.000 297.211,126.152 297.611,126.338 297.820 C 126.524 298.029,127.442 300.090,128.377 302.400 C 130.212 306.936,130.360 307.291,131.541 310.000 C 131.972 310.990,132.989 313.420,133.801 315.400 C 134.613 317.380,135.788 320.018,136.413 321.261 C 138.529 325.475,138.830 339.237,137.032 349.600 C 135.811 356.634,135.640 357.497,134.686 361.425 C 134.148 363.639,133.504 365.832,133.254 366.299 C 132.543 367.627,132.677 369.201,133.500 369.197 C 134.222 369.193,136.680 362.349,137.592 357.800 C 139.669 347.438,140.448 337.690,139.892 329.000 C 139.677 325.638,139.707 323.093,139.975 321.800 C 140.204 320.700,140.465 315.300,140.554 309.800 C 140.664 303.045,140.914 298.826,141.324 296.800 C 143.631 285.397,144.197 279.077,143.217 275.659 C 139.312 262.043,143.707 244.710,153.700 234.319 C 157.172 230.708,160.803 232.211,165.496 239.200 C 171.712 248.456,188.235 256.420,201.170 256.394 C 206.830 256.382,206.807 254.783,201.136 254.023 C 181.112 251.340,172.253 246.248,162.643 231.900 C 161.796 230.635,160.964 229.600,160.794 229.600 C 157.667 229.600,166.588 223.396,172.938 221.155 C 174.744 220.517,177.446 218.315,177.804 217.189 C 178.174 216.021,178.641 216.194,181.136 218.422 M277.200 223.984 C 299.744 225.194,304.285 226.107,309.220 230.425 C 309.759 230.896,310.660 231.672,311.221 232.149 C 316.237 236.406,318.473 245.060,316.781 253.669 C 315.954 257.878,315.130 261.825,314.791 263.200 C 313.941 266.650,313.040 271.000,311.188 280.600 C 311.018 281.480,310.586 283.460,310.227 285.000 C 309.868 286.540,309.417 288.610,309.225 289.600 C 308.904 291.256,308.450 293.305,306.968 299.800 C 304.346 311.289,303.372 317.489,302.790 326.411 C 302.244 334.772,302.173 335.200,301.325 335.200 C 300.962 335.200,299.024 336.020,297.019 337.021 C 292.981 339.039,291.009 339.310,285.300 338.630 L 282.400 338.285 282.400 334.232 C 282.400 332.003,282.209 328.659,281.976 326.801 C 278.863 301.969,280.153 276.774,285.031 267.139 C 286.202 264.828,287.284 263.962,290.485 262.779 C 298.410 259.848,304.845 253.635,304.446 249.300 C 304.347 248.229,303.544 248.910,301.819 251.529 C 297.179 258.573,293.701 260.462,281.800 262.406 C 280.260 262.657,278.370 263.014,277.600 263.198 C 276.830 263.382,275.390 263.648,274.400 263.790 C 273.410 263.931,271.700 264.209,270.600 264.408 C 269.500 264.606,266.980 265.056,265.000 265.407 C 259.955 266.300,257.346 266.814,254.800 267.416 C 253.590 267.702,251.520 268.152,250.200 268.416 C 248.880 268.680,246.810 269.131,245.600 269.418 C 243.597 269.893,240.411 270.569,235.000 271.664 C 233.900 271.887,232.370 272.226,231.600 272.417 C 223.025 274.543,204.400 274.532,204.400 272.400 C 204.400 271.267,210.677 264.067,217.999 256.800 C 227.284 247.586,231.297 240.474,235.380 226.000 L 236.000 223.800 252.700 223.683 C 261.885 223.619,272.910 223.754,277.200 223.984 M158.767 230.145 C 158.372 230.489,155.219 230.693,155.424 230.362 C 155.547 230.163,156.387 230.000,157.290 230.000 C 158.194 230.000,158.858 230.065,158.767 230.145 M104.206 235.971 C 103.706 238.249,107.421 242.468,113.200 246.185 C 120.574 250.929,121.697 251.769,122.625 253.239 C 125.255 257.406,120.845 266.066,115.708 266.822 C 114.659 266.976,112.360 267.470,110.600 267.918 C 108.840 268.367,106.050 268.844,104.400 268.978 C 102.750 269.113,100.366 269.325,99.102 269.451 L 96.805 269.678 95.964 267.739 C 93.234 261.443,92.000 256.460,92.000 251.729 C 92.000 249.060,91.809 246.791,91.543 246.294 C 91.152 245.563,91.224 245.354,92.043 244.844 C 92.569 244.517,94.530 242.677,96.400 240.757 C 101.652 235.363,104.758 233.458,104.206 235.971 M117.381 269.300 C 118.237 272.039,118.074 272.800,116.632 272.800 C 115.860 272.800,114.367 273.072,113.314 273.404 C 110.077 274.425,107.879 275.085,106.000 275.600 C 105.010 275.871,103.678 276.252,103.040 276.447 C 101.145 277.024,98.917 276.883,98.643 276.167 C 98.026 274.560,98.351 274.000,99.900 273.997 C 103.903 273.989,111.177 271.836,115.000 269.528 C 116.408 268.678,117.164 268.605,117.381 269.300 M106.800 270.751 C 106.800 271.693,100.557 272.728,98.799 272.078 C 97.426 271.570,98.361 271.165,101.733 270.811 C 105.919 270.370,106.800 270.360,106.800 270.751 M302.267 338.300 C 303.352 342.531,301.587 344.676,296.263 345.599 C 284.275 347.678,280.714 346.777,282.003 341.989 C 282.534 340.017,283.446 339.729,287.024 340.404 C 291.079 341.170,295.025 340.374,298.356 338.118 C 300.286 336.811,301.904 336.886,302.267 338.300 M303.754 346.700 C 305.145 349.433,305.937 350.018,312.478 353.147 C 319.988 356.739,323.509 358.156,327.000 358.990 C 331.744 360.124,333.705 360.786,335.579 361.883 C 337.485 363.000,337.192 363.625,335.157 362.782 C 334.375 362.458,333.819 362.421,333.565 362.675 C 332.989 363.251,333.525 364.286,334.527 364.530 C 336.544 365.023,342.512 367.195,343.030 367.625 C 344.993 369.254,339.375 370.573,334.531 369.620 C 331.443 369.013,326.133 368.331,321.600 367.960 C 319.290 367.771,315.330 367.448,312.800 367.243 C 310.270 367.038,307.030 366.683,305.600 366.453 C 304.170 366.224,302.460 365.956,301.800 365.857 C 301.140 365.757,299.610 365.381,298.400 365.019 C 293.508 363.558,291.763 363.168,290.609 363.281 C 289.038 363.435,289.071 364.047,290.691 364.800 C 292.277 365.537,292.322 365.894,290.900 366.448 C 285.363 368.605,281.322 368.356,279.323 365.734 C 278.069 364.091,278.221 362.244,280.207 355.000 C 280.569 353.680,281.039 351.610,281.253 350.400 C 281.713 347.798,282.037 347.377,283.131 347.963 C 285.452 349.205,300.563 347.132,302.025 345.370 C 302.680 344.580,302.671 344.574,303.754 346.700 " stroke="none" fill="#ba4b2f" fill-rule="evenodd"></path></g></svg>