<svg id="svg" version="1.1" xmlns="http://www.w3.org/2000/svg" xmlns:xlink="http://www.w3.org/1999/xlink" width="400" height="293.4579439252337" viewBox="0, 0, 400,293.4579439252337"><g id="svgg"><path id="path0" d="M0.000 146.735 L 0.000 293.470 200.000 293.470 L 400.000 293.470 400.000 146.735 L 400.000 0.000 200.000 0.000 L 0.000 0.000 0.000 146.735 M229.670 28.481 C 231.631 29.430,232.320 30.896,232.716 34.960 C 233.152 39.436,235.007 42.289,241.407 48.328 C 248.114 54.656,249.535 57.879,246.148 59.080 C 245.373 59.355,245.528 59.798,246.588 60.341 C 247.983 61.055,249.516 62.305,252.941 65.523 C 261.530 73.592,271.033 79.245,296.258 91.289 C 310.055 97.876,316.525 105.282,315.982 113.866 C 315.618 119.620,313.120 123.000,304.471 129.440 C 295.103 136.415,286.318 142.240,274.982 148.994 C 266.328 154.149,262.430 156.001,255.026 158.475 C 248.799 160.556,247.833 161.082,248.111 162.242 C 249.117 166.443,251.037 176.604,251.918 182.392 C 253.231 191.013,254.047 197.704,254.441 203.081 C 255.297 214.745,256.234 219.513,258.392 223.196 C 259.299 224.744,259.361 224.754,261.300 223.646 C 268.465 219.553,281.068 217.663,292.737 218.933 C 298.018 219.507,308.741 219.884,313.784 219.672 C 319.805 219.419,318.983 219.818,322.835 215.274 C 324.197 213.667,325.576 212.063,325.899 211.709 C 326.222 211.355,327.278 210.076,328.247 208.866 C 330.957 205.481,332.901 204.611,334.858 205.911 C 336.758 207.174,341.473 212.239,345.057 216.866 C 346.921 219.273,350.857 223.165,353.191 224.910 C 364.567 233.412,366.248 235.016,368.272 239.301 C 370.246 243.478,369.644 251.155,367.448 249.817 C 367.117 249.615,366.105 249.450,365.200 249.450 C 362.493 249.450,358.781 248.106,355.139 245.807 C 354.478 245.389,353.875 245.048,353.800 245.048 C 353.725 245.048,352.897 244.600,351.960 244.053 C 347.030 241.172,336.627 239.437,332.355 240.782 C 331.442 241.070,330.493 240.238,330.963 239.562 C 332.439 237.439,332.311 237.313,329.090 237.723 C 325.673 238.159,319.757 238.153,313.573 237.708 C 307.846 237.296,294.110 237.449,291.856 237.950 C 291.049 238.129,289.200 238.488,287.748 238.747 C 283.489 239.506,279.081 240.568,269.552 243.129 C 260.793 245.483,257.273 246.363,255.319 246.685 C 254.754 246.779,253.236 247.063,251.944 247.318 C 240.068 249.660,234.244 246.867,230.994 237.271 C 230.666 236.302,230.122 234.784,229.785 233.896 C 229.448 233.008,229.000 231.820,228.789 231.255 C 228.579 230.690,227.683 228.313,226.799 225.972 C 225.429 222.342,223.555 216.718,222.010 211.592 C 219.517 203.325,217.753 191.992,217.754 184.256 C 217.755 176.343,214.885 172.760,209.760 174.279 C 208.589 174.626,207.327 174.910,206.957 174.909 C 206.587 174.909,205.464 175.094,204.462 175.322 C 202.777 175.704,199.654 176.170,193.397 176.971 C 187.120 177.775,170.119 178.802,162.436 178.841 C 153.918 178.885,152.834 178.790,150.899 177.830 C 146.208 175.501,140.958 174.817,138.302 176.188 C 136.800 176.964,133.155 177.406,131.469 177.017 C 130.641 176.826,129.781 176.669,129.559 176.669 C 128.479 176.669,127.682 182.517,127.379 192.663 C 127.070 202.977,126.948 203.471,122.879 210.858 C 122.079 212.311,121.061 214.160,120.616 214.967 C 120.172 215.774,119.153 217.623,118.352 219.076 C 116.855 221.792,113.280 229.033,113.280 229.349 C 113.280 229.446,113.039 230.080,112.745 230.757 C 112.450 231.434,112.003 232.517,111.750 233.162 C 111.498 233.808,111.084 234.864,110.831 235.510 C 108.684 240.985,107.933 243.895,107.873 246.972 C 107.813 250.095,107.224 251.522,105.294 253.224 C 104.628 253.811,103.809 254.602,103.472 254.980 C 101.538 257.159,98.775 257.845,90.976 258.083 C 87.667 258.184,83.639 258.391,82.025 258.543 C 74.750 259.229,70.486 258.838,68.800 257.329 C 68.355 256.930,67.732 256.787,66.452 256.787 C 63.498 256.787,59.281 255.649,59.281 254.853 C 59.281 253.884,61.668 252.301,65.737 250.572 C 71.413 248.160,74.533 247.651,83.108 247.736 C 91.150 247.816,91.743 247.677,93.644 245.272 C 94.593 244.072,95.067 243.057,94.718 242.977 C 94.677 242.967,93.191 242.895,91.416 242.816 C 88.358 242.681,88.154 242.632,87.540 241.890 L 86.892 241.108 85.339 241.675 C 83.814 242.232,73.406 242.437,71.827 241.941 C 70.753 241.604,71.619 239.135,73.168 238.120 C 76.222 236.119,79.345 235.325,85.245 235.051 C 91.981 234.739,92.447 234.651,97.265 232.773 C 98.895 232.138,98.925 232.067,100.347 225.532 C 100.698 223.918,101.176 221.955,101.410 221.170 C 101.643 220.384,101.834 219.450,101.834 219.094 C 101.834 218.738,102.015 217.862,102.237 217.147 C 102.459 216.432,102.848 214.923,103.102 213.793 C 103.356 212.663,103.914 210.286,104.342 208.511 C 105.214 204.894,105.810 202.312,106.374 199.707 C 106.873 197.397,107.388 195.333,107.886 193.635 C 108.109 192.879,108.291 192.002,108.291 191.688 C 108.291 191.374,108.474 190.474,108.697 189.689 C 109.071 188.375,109.788 185.359,110.780 180.924 C 110.997 179.956,111.331 178.466,111.523 177.613 C 111.715 176.760,111.984 175.241,112.120 174.238 C 112.257 173.235,112.525 171.489,112.715 170.360 C 113.615 165.010,112.630 150.469,111.236 148.510 C 109.882 146.610,109.721 147.172,109.592 154.219 C 109.495 159.488,109.339 161.403,108.741 164.637 C 107.713 170.196,107.458 171.370,106.993 172.707 C 106.768 173.353,106.309 174.773,105.972 175.864 C 105.635 176.954,105.244 178.077,105.103 178.358 C 104.963 178.640,104.425 179.745,103.909 180.813 C 100.283 188.323,92.442 190.693,87.361 185.815 C 85.601 184.126,84.305 181.782,82.583 177.183 C 82.357 176.577,81.961 175.521,81.705 174.835 C 80.701 172.155,79.086 169.311,76.986 166.522 C 70.745 158.238,69.376 153.845,69.085 141.159 C 68.896 132.924,68.049 130.007,65.847 130.007 C 65.200 130.007,62.013 126.680,61.474 125.443 C 59.257 120.348,59.446 110.257,61.855 105.060 C 63.239 102.073,64.814 100.694,68.525 99.218 C 71.766 97.930,72.496 97.359,74.276 94.723 C 82.466 82.592,96.843 85.045,105.637 100.073 C 106.942 102.304,107.346 103.871,107.526 107.402 L 107.697 110.769 108.921 111.951 C 110.405 113.385,111.812 115.560,112.532 117.535 C 114.022 121.623,119.006 122.834,128.833 121.497 C 139.070 120.104,144.931 121.431,153.309 127.038 C 154.979 128.155,157.362 129.437,158.767 129.972 C 163.408 131.740,165.351 133.096,168.826 136.995 C 170.514 138.888,180.305 143.234,187.160 145.131 C 190.054 145.932,191.786 145.226,195.753 141.630 C 198.901 138.778,201.179 136.849,202.310 136.080 C 202.976 135.627,203.801 134.738,204.143 134.104 C 209.038 125.019,221.447 121.559,233.162 126.014 C 235.015 126.718,235.630 126.594,239.348 124.763 C 246.591 121.197,250.755 119.287,253.852 118.110 C 259.283 116.046,260.463 115.661,265.444 114.322 C 267.725 113.710,272.063 112.982,273.424 112.984 C 275.683 112.988,275.446 112.603,271.753 110.276 C 269.114 108.613,263.376 102.759,259.738 98.019 C 254.407 91.074,250.836 87.339,244.167 81.732 L 240.792 78.894 238.885 79.058 C 237.836 79.149,234.798 79.362,232.135 79.532 C 229.472 79.702,226.615 79.962,225.786 80.110 C 222.879 80.628,221.693 79.700,221.253 76.563 C 219.050 60.854,219.087 49.683,221.391 34.178 C 222.207 28.682,225.461 26.443,229.670 28.481 M227.083 30.922 C 225.524 32.106,225.262 33.671,225.256 41.820 C 225.250 49.526,225.303 50.135,226.709 58.694 C 226.934 60.066,227.324 62.443,227.575 63.977 C 227.826 65.510,228.166 67.491,228.329 68.379 C 228.493 69.266,228.825 71.306,229.067 72.912 C 229.641 76.713,229.878 76.983,232.416 76.736 C 235.697 76.416,235.875 76.173,234.892 73.368 C 232.421 66.313,236.386 58.486,242.793 57.769 C 247.267 57.268,246.757 56.079,238.788 48.421 C 233.515 43.355,231.523 40.070,230.915 35.439 C 230.329 30.968,229.033 29.441,227.083 30.922 M222.779 38.298 C 222.753 38.621,222.527 40.271,222.277 41.966 C 221.473 47.424,221.401 60.928,222.140 67.938 C 223.225 78.248,223.352 78.569,226.218 78.188 C 227.950 77.959,228.137 77.656,227.708 75.772 C 227.536 75.014,227.216 73.272,226.996 71.900 C 226.212 67.012,225.970 65.560,225.550 63.243 C 225.110 60.815,224.579 57.373,223.785 51.798 C 223.532 50.022,223.313 46.853,223.299 44.754 C 223.276 41.373,222.904 36.757,222.779 38.298 M241.320 61.926 C 239.308 62.736,237.711 65.570,237.711 68.328 C 237.711 72.642,240.276 76.396,246.662 81.433 C 251.865 85.537,254.784 88.614,260.445 95.965 C 266.289 103.553,269.683 106.892,274.426 109.720 C 275.815 110.548,277.142 111.225,277.375 111.225 C 277.608 111.225,277.925 111.351,278.079 111.505 C 279.349 112.775,287.660 112.762,291.812 111.484 C 295.071 110.480,295.750 111.817,292.758 113.343 C 289.861 114.821,285.685 115.351,282.114 114.693 C 279.930 114.290,272.197 114.770,268.672 115.526 C 265.516 116.203,260.293 117.647,258.254 118.407 C 254.941 119.640,254.115 119.971,251.573 121.078 C 247.487 122.857,238.390 127.273,238.210 127.565 C 237.407 128.863,238.997 135.631,241.049 139.650 C 247.371 152.033,247.931 153.558,247.555 157.375 L 247.359 159.366 248.918 158.750 C 252.358 157.390,255.240 156.330,256.493 155.963 C 259.893 154.970,265.516 152.386,269.829 149.836 C 271.075 149.099,272.153 148.496,272.224 148.496 C 272.294 148.496,272.911 148.135,273.594 147.695 C 274.276 147.254,275.069 146.759,275.355 146.594 C 280.575 143.590,293.444 135.231,298.430 131.607 C 311.976 121.761,313.746 119.687,313.962 113.405 C 314.225 105.735,308.904 99.562,296.985 93.711 C 295.940 93.198,290.751 90.653,285.454 88.056 C 280.158 85.460,274.149 82.395,272.102 81.245 C 270.054 80.096,267.784 78.821,267.058 78.413 C 266.332 78.004,265.111 77.230,264.346 76.693 C 263.581 76.155,262.879 75.715,262.786 75.715 C 262.214 75.715,254.198 69.272,250.983 66.229 C 246.192 61.693,244.153 60.785,241.320 61.926 M237.776 75.986 C 237.821 76.377,238.023 76.751,238.225 76.817 C 238.724 76.982,238.686 76.535,238.143 75.845 C 237.708 75.293,237.696 75.298,237.776 75.986 M83.011 89.503 C 79.892 90.529,78.485 91.731,75.949 95.534 C 74.104 98.303,72.982 99.381,71.044 100.250 C 67.125 102.008,66.327 102.436,65.310 103.330 C 62.954 105.398,61.922 109.285,61.922 116.087 C 61.922 123.147,62.912 125.635,66.818 128.390 C 70.609 131.065,70.626 131.120,71.020 141.626 C 71.515 154.796,72.272 156.987,79.995 167.572 C 81.697 169.905,82.948 172.310,83.916 175.108 C 84.241 176.047,84.717 177.410,84.974 178.136 C 88.140 187.080,94.696 189.208,100.205 183.080 C 103.599 179.305,106.980 168.097,107.583 158.621 C 108.207 148.812,107.825 146.396,105.542 145.732 C 104.105 145.314,102.883 144.577,97.579 140.928 C 95.172 139.273,93.159 138.528,90.261 138.220 C 82.307 137.376,77.368 133.726,73.495 125.828 C 72.804 124.417,71.789 122.701,71.241 122.013 C 64.243 113.230,64.944 105.439,73.200 100.235 C 79.575 96.217,95.301 97.025,102.458 101.739 C 105.053 103.448,105.297 102.971,103.443 99.814 C 98.738 91.802,89.773 87.278,83.011 89.503 M79.384 99.775 C 71.385 101.543,66.332 108.552,68.861 114.370 C 70.530 118.208,70.632 118.201,70.776 114.233 C 70.865 111.778,71.015 110.883,71.449 110.198 C 73.934 106.278,76.616 105.489,87.307 105.533 C 94.979 105.564,95.404 105.617,102.359 107.391 C 104.742 107.998,105.501 106.803,103.823 105.086 C 100.041 101.219,86.333 98.240,79.384 99.775 M81.842 107.426 C 73.709 108.011,71.452 110.690,72.917 118.023 C 73.692 121.900,73.999 122.497,77.679 127.282 C 83.459 134.799,84.680 135.705,89.061 135.721 C 100.093 135.760,105.231 123.708,99.623 110.942 C 98.387 108.130,97.768 107.851,91.796 107.423 C 87.207 107.094,86.450 107.094,81.842 107.426 M102.603 110.136 C 101.788 110.732,102.065 112.625,103.078 113.378 L 103.881 113.976 104.595 113.305 C 106.051 111.938,104.189 108.977,102.603 110.136 M106.500 114.109 C 106.239 114.568,105.414 115.224,104.640 115.588 C 103.558 116.097,103.294 116.353,103.450 116.742 C 104.718 119.901,103.598 126.809,101.116 131.143 C 100.421 132.356,97.630 135.005,96.185 135.822 C 94.487 136.783,94.462 137.036,95.991 137.769 C 96.647 138.083,98.263 139.107,99.582 140.044 C 103.855 143.077,111.143 146.407,111.664 145.564 C 111.742 145.437,111.841 140.200,111.883 133.928 C 111.966 121.530,111.928 121.157,110.329 118.636 C 109.830 117.849,109.531 117.052,109.625 116.757 C 109.904 115.878,108.183 113.277,107.325 113.281 C 107.130 113.282,106.759 113.655,106.500 114.109 M113.887 129.640 C 113.898 133.635,114.011 137.168,114.137 137.491 L 114.367 138.078 114.535 137.491 C 114.627 137.168,114.793 136.442,114.902 135.877 C 115.155 134.574,116.034 131.928,116.656 130.594 C 117.608 128.553,118.035 127.922,119.620 126.209 C 121.479 124.202,121.465 124.175,118.272 123.565 C 117.225 123.364,116.010 123.015,115.572 122.789 C 113.817 121.881,113.865 121.687,113.887 129.640 M132.238 122.915 C 132.155 123.050,132.686 123.743,133.418 124.456 C 136.235 127.198,137.291 130.034,138.065 136.933 C 138.264 138.710,137.484 146.769,136.885 149.125 C 136.135 152.075,136.151 152.076,140.033 149.303 C 147.336 144.087,150.734 139.198,152.600 131.226 C 153.149 128.876,152.372 128.107,146.482 125.168 C 142.609 123.236,132.981 121.713,132.238 122.915 M125.752 124.396 C 123.356 125.029,120.701 127.143,119.300 129.534 C 117.739 132.196,117.050 134.498,115.465 142.333 C 115.188 143.705,114.706 145.706,114.394 146.779 C 113.788 148.866,113.789 148.906,114.780 158.180 C 115.580 165.658,114.435 174.573,110.785 189.288 C 110.565 190.176,110.189 191.761,109.950 192.810 C 109.711 193.859,109.309 195.576,109.056 196.625 C 108.804 197.674,108.327 199.721,107.997 201.174 C 107.216 204.610,106.448 207.843,105.346 212.326 C 105.148 213.133,104.891 214.321,104.776 214.967 C 104.662 215.613,104.424 216.669,104.248 217.315 C 103.889 218.632,103.313 221.034,102.416 224.945 C 101.230 230.118,100.023 234.738,99.515 236.043 C 98.819 237.830,99.041 238.298,100.587 238.299 C 102.261 238.300,103.592 239.011,105.147 240.734 C 106.363 242.081,106.905 241.911,107.297 240.059 C 107.383 239.655,107.628 238.863,107.843 238.298 C 108.058 237.733,108.660 236.082,109.181 234.629 C 109.702 233.177,110.382 231.394,110.693 230.668 C 111.003 229.941,111.370 229.083,111.508 228.760 C 112.395 226.687,113.306 224.750,115.096 221.130 C 116.213 218.870,117.245 216.823,117.389 216.581 C 117.961 215.620,121.762 209.027,122.379 207.924 C 124.913 203.398,125.605 199.950,125.605 191.852 C 125.605 185.062,126.197 179.637,127.374 175.642 C 127.517 175.158,127.555 174.190,127.458 173.492 C 127.214 171.721,127.827 169.400,129.476 165.861 C 130.252 164.195,130.888 162.669,130.888 162.472 C 130.888 162.274,130.993 161.988,131.123 161.834 C 131.778 161.056,133.806 154.602,134.808 150.110 C 138.421 133.895,134.283 122.144,125.752 124.396 M218.635 126.169 C 212.390 127.073,204.842 133.249,204.842 137.455 C 204.842 137.667,204.591 138.067,204.284 138.345 C 202.743 139.740,203.652 147.383,206.031 153.045 C 206.167 153.368,206.537 154.292,206.854 155.099 C 207.792 157.488,209.558 161.803,209.856 162.436 C 210.009 162.759,210.254 163.419,210.401 163.903 C 210.548 164.387,210.959 165.510,211.315 166.398 C 211.670 167.285,212.115 168.861,212.303 169.899 C 212.491 170.937,212.797 171.837,212.982 171.899 C 213.246 171.987,221.444 168.881,224.358 167.589 C 224.681 167.446,226.200 166.844,227.733 166.251 C 229.266 165.658,231.445 164.797,232.575 164.337 C 233.705 163.878,235.884 163.024,237.417 162.439 C 244.486 159.745,245.334 159.152,245.566 156.736 C 245.800 154.307,244.907 151.713,241.320 144.387 C 239.463 140.594,237.837 137.227,237.707 136.904 C 237.021 135.203,236.477 132.923,236.326 131.121 C 236.127 128.753,235.988 128.668,228.957 126.648 C 227.120 126.121,220.949 125.834,218.635 126.169 M154.561 131.083 C 154.453 131.191,154.365 131.503,154.365 131.776 C 154.365 132.621,153.027 136.512,152.046 138.518 C 149.616 143.487,146.017 147.617,141.599 150.506 C 136.809 153.639,135.193 156.092,132.773 163.903 C 132.172 165.840,131.305 168.608,130.844 170.054 C 129.012 175.809,131.073 176.892,138.518 174.085 C 140.786 173.231,144.863 173.452,147.909 174.595 C 149.281 175.110,150.606 175.597,150.854 175.678 C 151.376 175.847,152.865 174.123,153.544 172.561 C 153.790 171.996,154.501 170.345,155.124 168.892 C 156.704 165.210,158.403 161.957,160.891 157.849 C 162.063 155.912,163.155 154.105,163.317 153.833 C 163.479 153.561,164.163 152.533,164.838 151.549 C 168.434 146.306,169.442 139.815,166.871 138.463 C 165.669 137.830,161.281 134.907,158.535 132.909 C 155.937 131.019,155.038 130.606,154.561 131.083 M198.210 142.055 C 191.203 148.413,189.908 148.560,178.870 144.245 C 177.095 143.551,174.532 142.441,173.176 141.778 C 170.048 140.249,170.213 140.196,170.213 142.727 C 170.213 145.908,169.201 148.506,166.422 152.458 C 165.255 154.118,163.237 157.282,160.527 161.702 C 159.955 162.635,157.338 168.089,156.725 169.626 C 156.371 170.514,155.914 171.636,155.709 172.120 C 154.547 174.868,154.209 176.245,154.632 176.506 C 155.843 177.254,170.085 177.035,181.805 176.088 C 183.903 175.919,186.544 175.710,187.674 175.624 C 192.669 175.244,202.232 173.968,205.343 173.265 C 206.344 173.039,207.548 172.854,208.018 172.854 C 211.391 172.854,210.831 168.709,206.019 158.034 C 205.873 157.711,205.471 156.720,205.124 155.833 C 204.778 154.945,204.360 153.888,204.196 153.485 C 202.909 150.315,201.892 145.913,201.702 142.690 C 201.479 138.897,201.655 138.929,198.210 142.055 M242.250 164.763 C 233.065 171.037,231.053 172.271,222.597 176.815 C 219.490 178.485,219.716 177.864,219.752 184.648 C 219.783 190.540,220.257 195.556,221.153 199.473 C 221.383 200.475,221.570 201.586,221.570 201.942 C 221.570 202.298,221.759 203.262,221.991 204.083 C 222.223 204.904,222.628 206.434,222.891 207.483 C 223.903 211.509,226.703 220.462,228.031 223.918 C 228.373 224.806,228.829 226.060,229.046 226.706 C 229.263 227.351,229.726 228.606,230.076 229.494 C 230.426 230.382,230.824 231.438,230.962 231.842 C 232.909 237.536,234.967 241.966,236.403 243.556 C 240.066 247.610,248.168 246.978,270.580 240.888 C 271.790 240.559,273.243 240.179,273.808 240.044 C 275.230 239.704,277.205 239.193,278.944 238.716 C 279.751 238.495,281.335 238.122,282.465 237.888 C 283.595 237.653,285.444 237.259,286.574 237.011 C 288.700 236.546,291.131 236.173,295.671 235.618 C 298.600 235.259,311.487 235.472,315.187 235.940 C 318.587 236.369,326.421 236.292,329.420 235.799 C 330.873 235.561,332.139 235.365,332.235 235.364 C 332.330 235.364,332.561 235.027,332.748 234.616 C 334.206 231.416,330.700 224.146,326.747 222.172 C 325.137 221.368,326.242 221.410,310.198 221.557 C 303.474 221.619,300.161 221.521,296.881 221.164 C 285.871 219.967,273.659 220.687,267.645 222.887 C 261.458 225.151,260.130 226.109,259.947 228.444 C 259.803 230.288,259.014 231.324,257.443 231.734 C 255.840 232.152,255.371 229.927,256.632 227.880 C 257.600 226.307,257.566 225.926,256.200 223.109 C 255.554 221.778,255.026 220.515,255.026 220.301 C 255.026 220.088,254.841 219.329,254.615 218.614 C 253.997 216.657,253.356 212.326,252.838 206.603 C 251.594 192.860,251.238 189.839,249.867 181.365 C 249.008 176.062,248.406 172.820,247.236 167.206 C 246.992 166.035,246.692 164.549,246.568 163.905 C 246.245 162.224,245.851 162.303,242.250 164.763 M235.510 165.134 C 233.734 165.855,231.357 166.825,230.227 167.290 C 229.098 167.755,226.919 168.618,225.385 169.208 C 223.852 169.798,222.201 170.445,221.717 170.647 C 221.233 170.848,220.308 171.215,219.663 171.460 C 215.482 173.052,215.526 172.999,217.021 174.653 C 217.586 175.279,218.048 175.913,218.048 176.063 C 218.048 176.742,219.242 176.642,220.586 175.851 C 221.796 175.139,223.083 174.428,227.293 172.145 C 227.616 171.970,228.078 171.681,228.320 171.504 C 228.562 171.326,229.349 170.864,230.070 170.476 C 231.612 169.647,234.328 167.918,237.488 165.753 C 241.057 163.307,240.465 163.122,235.510 165.134 M331.668 207.930 C 330.578 208.847,330.481 209.616,331.401 210.043 C 332.126 210.379,334.059 211.918,339.578 216.552 C 347.609 223.296,348.013 223.333,342.668 216.835 C 335.559 208.194,333.416 206.459,331.668 207.930 M328.685 212.016 C 327.636 212.587,324.551 216.454,324.159 217.689 C 323.989 218.225,324.186 218.431,325.516 219.104 C 333.151 222.969,336.287 228.561,334.817 235.690 C 334.209 238.637,334.041 238.438,337.182 238.492 C 343.868 238.608,348.118 239.826,354.365 243.420 C 360.132 246.738,361.775 247.387,364.417 247.392 C 366.111 247.396,366.179 247.292,365.573 245.635 C 363.630 240.315,359.067 234.893,350.956 228.264 C 348.919 226.600,345.959 224.182,344.376 222.891 C 342.794 221.599,341.357 220.409,341.183 220.246 C 341.008 220.082,339.941 219.225,338.811 218.340 C 337.682 217.456,335.377 215.576,333.689 214.162 C 330.561 211.541,329.999 211.300,328.685 212.016 M358.835 232.795 C 362.637 236.691,366.251 241.487,366.251 242.638 C 366.251 242.771,366.597 243.334,367.019 243.890 L 367.788 244.901 367.608 243.434 C 367.176 239.923,364.014 235.515,359.449 232.062 C 355.875 229.357,355.693 229.575,358.835 232.795 M96.402 235.020 C 95.452 235.893,91.532 236.617,86.427 236.862 C 80.105 237.166,78.749 237.443,75.055 239.185 C 73.735 239.808,74.099 239.993,77.085 240.217 C 82.785 240.644,85.508 240.108,88.479 237.975 C 90.336 236.641,91.467 237.708,90.217 239.616 C 89.507 240.699,89.914 240.939,92.451 240.939 C 95.368 240.939,96.405 240.122,97.224 237.177 C 97.501 236.180,97.760 235.265,97.800 235.143 C 97.908 234.815,96.737 234.712,96.402 235.020 M99.214 240.430 C 97.091 241.510,95.474 248.148,96.702 250.737 C 98.246 253.991,102.425 254.125,103.774 250.963 C 105.863 246.068,105.929 245.324,104.467 243.086 C 102.842 240.600,100.855 239.595,99.214 240.430 M92.296 248.815 C 90.835 249.585,90.792 249.589,82.172 249.774 C 72.171 249.989,70.806 250.236,65.253 252.836 C 62.763 254.002,62.630 254.457,64.661 254.855 C 66.443 255.205,70.029 254.461,72.519 253.226 C 75.335 251.829,75.999 253.533,73.221 255.027 C 69.471 257.043,72.196 257.509,82.759 256.659 C 85.583 256.431,90.225 256.152,93.074 256.038 C 98.581 255.817,99.268 255.677,98.625 254.901 C 98.413 254.647,98.069 254.439,97.859 254.439 C 96.631 254.439,94.735 251.776,94.360 249.525 C 94.093 247.918,94.035 247.898,92.296 248.815 " stroke="none" fill="#fdf3dd" fill-rule="evenodd"></path><path id="path1" d="M223.972 28.754 C 221.783 30.340,221.489 31.568,220.101 44.901 C 219.178 53.763,219.572 64.572,221.253 76.563 C 221.693 79.700,222.879 80.628,225.786 80.110 C 226.615 79.962,229.472 79.702,232.135 79.532 C 234.798 79.362,237.836 79.149,238.885 79.058 L 240.792 78.894 244.167 81.732 C 250.836 87.339,254.407 91.074,259.738 98.019 C 263.376 102.759,269.114 108.613,271.753 110.276 C 275.446 112.603,275.683 112.988,273.424 112.984 C 272.063 112.982,267.725 113.710,265.444 114.322 C 260.463 115.661,259.283 116.046,253.852 118.110 C 250.755 119.287,246.591 121.197,239.348 124.763 C 235.630 126.594,235.015 126.718,233.162 126.014 C 221.447 121.559,209.038 125.019,204.143 134.104 C 203.801 134.738,202.976 135.627,202.310 136.080 C 201.179 136.849,198.901 138.778,195.753 141.630 C 191.786 145.226,190.054 145.932,187.160 145.131 C 180.305 143.234,170.514 138.888,168.826 136.995 C 165.351 133.096,163.408 131.740,158.767 129.972 C 157.362 129.437,154.979 128.155,153.309 127.038 C 144.931 121.431,139.070 120.104,128.833 121.497 C 119.006 122.834,114.022 121.623,112.532 117.535 C 111.812 115.560,110.405 113.385,108.921 111.951 L 107.697 110.769 107.526 107.402 C 107.346 103.871,106.942 102.304,105.637 100.073 C 96.843 85.045,82.466 82.592,74.276 94.723 C 72.496 97.359,71.766 97.930,68.525 99.218 C 64.814 100.694,63.239 102.073,61.855 105.060 C 59.446 110.257,59.257 120.348,61.474 125.443 C 62.013 126.680,65.200 130.007,65.847 130.007 C 68.049 130.007,68.896 132.924,69.085 141.159 C 69.376 153.845,70.745 158.238,76.986 166.522 C 79.086 169.311,80.701 172.155,81.705 174.835 C 81.961 175.521,82.357 176.577,82.583 177.183 C 84.305 181.782,85.601 184.126,87.361 185.815 C 92.442 190.693,100.283 188.323,103.909 180.813 C 104.425 179.745,104.963 178.640,105.103 178.358 C 105.244 178.077,105.635 176.954,105.972 175.864 C 106.309 174.773,106.768 173.353,106.993 172.707 C 107.458 171.370,107.713 170.196,108.741 164.637 C 109.339 161.403,109.495 159.488,109.592 154.219 C 109.721 147.172,109.882 146.610,111.236 148.510 C 112.630 150.469,113.615 165.010,112.715 170.360 C 112.525 171.489,112.257 173.235,112.120 174.238 C 111.984 175.241,111.715 176.760,111.523 177.613 C 111.331 178.466,110.997 179.956,110.780 180.924 C 109.788 185.359,109.071 188.375,108.697 189.689 C 108.474 190.474,108.291 191.374,108.291 191.688 C 108.291 192.002,108.109 192.879,107.886 193.635 C 107.388 195.333,106.873 197.397,106.374 199.707 C 105.810 202.312,105.214 204.894,104.342 208.511 C 103.914 210.286,103.356 212.663,103.102 213.793 C 102.848 214.923,102.459 216.432,102.237 217.147 C 102.015 217.862,101.834 218.738,101.834 219.094 C 101.834 219.450,101.643 220.384,101.410 221.170 C 101.176 221.955,100.698 223.918,100.347 225.532 C 98.925 232.067,98.895 232.138,97.265 232.773 C 92.447 234.651,91.981 234.739,85.245 235.051 C 79.345 235.325,76.222 236.119,73.168 238.120 C 71.619 239.135,70.753 241.604,71.827 241.941 C 73.406 242.437,83.814 242.232,85.339 241.675 L 86.892 241.108 87.540 241.890 C 88.154 242.632,88.358 242.681,91.416 242.816 C 93.191 242.895,94.677 242.967,94.718 242.977 C 95.067 243.057,94.593 244.072,93.644 245.272 C 91.743 247.677,91.150 247.816,83.108 247.736 C 74.533 247.651,71.413 248.160,65.737 250.572 C 61.668 252.301,59.281 253.884,59.281 254.853 C 59.281 255.649,63.498 256.787,66.452 256.787 C 67.732 256.787,68.355 256.930,68.800 257.329 C 70.486 258.838,74.750 259.229,82.025 258.543 C 83.639 258.391,87.667 258.184,90.976 258.083 C 98.775 257.845,101.538 257.159,103.472 254.980 C 103.809 254.602,104.628 253.811,105.294 253.224 C 107.224 251.522,107.813 250.095,107.873 246.972 C 107.933 243.895,108.684 240.985,110.831 235.510 C 111.084 234.864,111.498 233.808,111.750 233.162 C 112.003 232.517,112.450 231.434,112.745 230.757 C 113.039 230.080,113.280 229.446,113.280 229.349 C 113.280 229.033,116.855 221.792,118.352 219.076 C 119.153 217.623,120.172 215.774,120.616 214.967 C 121.061 214.160,122.079 212.311,122.879 210.858 C 126.948 203.471,127.070 202.977,127.379 192.663 C 127.682 182.517,128.479 176.669,129.559 176.669 C 129.781 176.669,130.641 176.826,131.469 177.017 C 133.155 177.406,136.800 176.964,138.302 176.188 C 140.958 174.817,146.208 175.501,150.899 177.830 C 154.111 179.424,178.010 178.941,193.397 176.971 C 199.654 176.170,202.777 175.704,204.462 175.322 C 205.464 175.094,206.587 174.909,206.957 174.909 C 207.327 174.910,208.589 174.626,209.760 174.279 C 214.885 172.760,217.755 176.343,217.754 184.256 C 217.753 191.992,219.517 203.325,222.010 211.592 C 223.555 216.718,225.429 222.342,226.799 225.972 C 227.683 228.313,228.579 230.690,228.789 231.255 C 229.000 231.820,229.448 233.008,229.785 233.896 C 230.122 234.784,230.666 236.302,230.994 237.271 C 234.244 246.867,240.068 249.660,251.944 247.318 C 253.236 247.063,254.754 246.779,255.319 246.685 C 257.273 246.363,260.793 245.483,269.552 243.129 C 279.081 240.568,283.489 239.506,287.748 238.747 C 289.200 238.488,291.049 238.129,291.856 237.950 C 294.110 237.449,307.846 237.296,313.573 237.708 C 319.757 238.153,325.673 238.159,329.090 237.723 C 332.311 237.313,332.439 237.439,330.963 239.562 C 330.493 240.238,331.442 241.070,332.355 240.782 C 336.627 239.437,347.030 241.172,351.960 244.053 C 352.897 244.600,353.725 245.048,353.800 245.048 C 353.875 245.048,354.478 245.389,355.139 245.807 C 358.781 248.106,362.493 249.450,365.200 249.450 C 366.105 249.450,367.117 249.615,367.448 249.817 C 369.644 251.155,370.246 243.478,368.272 239.301 C 366.248 235.016,364.567 233.412,353.191 224.910 C 350.857 223.165,346.921 219.273,345.057 216.866 C 341.473 212.239,336.758 207.174,334.858 205.911 C 332.901 204.611,330.957 205.481,328.247 208.866 C 327.278 210.076,326.222 211.355,325.899 211.709 C 325.576 212.063,324.197 213.667,322.835 215.274 C 318.983 219.818,319.805 219.419,313.784 219.672 C 308.741 219.884,298.018 219.507,292.737 218.933 C 281.068 217.663,268.465 219.553,261.300 223.646 C 259.361 224.754,259.299 224.744,258.392 223.196 C 256.234 219.513,255.297 214.745,254.441 203.081 C 253.779 194.060,251.771 180.101,249.544 169.039 C 248.952 166.104,248.341 163.201,248.111 162.242 C 247.833 161.082,248.799 160.556,255.026 158.475 C 262.430 156.001,266.328 154.149,274.982 148.994 C 283.134 144.137,293.376 137.520,299.042 133.448 C 312.840 123.533,315.571 120.376,315.982 113.866 C 316.525 105.282,310.055 97.876,296.258 91.289 C 271.033 79.245,261.530 73.592,252.941 65.523 C 249.516 62.305,247.983 61.055,246.588 60.341 C 245.528 59.798,245.373 59.355,246.148 59.080 C 249.535 57.879,248.114 54.656,241.407 48.328 C 235.007 42.289,233.152 39.436,232.716 34.960 C 232.320 30.896,231.631 29.430,229.670 28.481 C 227.743 27.548,225.489 27.656,223.972 28.754 M229.574 30.936 C 230.206 31.568,230.566 32.777,230.915 35.439 C 231.523 40.070,233.515 43.355,238.788 48.421 C 246.757 56.079,247.267 57.268,242.793 57.769 C 236.386 58.486,232.421 66.313,234.892 73.368 C 235.875 76.173,235.697 76.416,232.416 76.736 C 229.878 76.983,229.641 76.713,229.067 72.912 C 228.825 71.306,228.493 69.266,228.329 68.379 C 228.166 67.491,227.826 65.510,227.575 63.977 C 227.324 62.443,226.934 60.066,226.709 58.694 C 225.303 50.135,225.250 49.526,225.256 41.820 C 225.261 34.540,225.292 34.123,225.921 32.747 C 226.891 30.623,228.475 29.838,229.574 30.936 M223.299 44.754 C 223.313 46.853,223.532 50.022,223.785 51.798 C 224.579 57.373,225.110 60.815,225.550 63.243 C 225.970 65.560,226.212 67.012,226.996 71.900 C 227.216 73.272,227.536 75.014,227.708 75.772 C 228.137 77.656,227.950 77.959,226.218 78.188 C 223.352 78.569,223.225 78.248,222.140 67.938 C 221.401 60.928,221.473 47.424,222.277 41.966 C 222.527 40.271,222.753 38.621,222.779 38.298 C 222.904 36.757,223.276 41.373,223.299 44.754 M246.126 62.113 C 246.688 62.380,248.873 64.232,250.983 66.229 C 254.198 69.272,262.214 75.715,262.786 75.715 C 262.879 75.715,263.581 76.155,264.346 76.693 C 265.111 77.230,266.332 78.004,267.058 78.413 C 267.784 78.821,270.054 80.096,272.102 81.245 C 274.149 82.395,280.158 85.460,285.454 88.056 C 290.751 90.653,295.940 93.198,296.985 93.711 C 308.904 99.562,314.225 105.735,313.962 113.405 C 313.746 119.687,311.976 121.761,298.430 131.607 C 293.444 135.231,280.575 143.590,275.355 146.594 C 275.069 146.759,274.276 147.254,273.594 147.695 C 272.911 148.135,272.294 148.496,272.224 148.496 C 272.153 148.496,271.075 149.099,269.829 149.836 C 265.516 152.386,259.893 154.970,256.493 155.963 C 255.240 156.330,252.358 157.390,248.918 158.750 L 247.359 159.366 247.555 157.375 C 247.931 153.558,247.371 152.033,241.049 139.650 C 238.997 135.631,237.407 128.863,238.210 127.565 C 238.390 127.273,247.487 122.857,251.573 121.078 C 254.115 119.971,254.941 119.640,258.254 118.407 C 265.620 115.664,277.417 113.827,282.114 114.693 C 285.685 115.351,289.861 114.821,292.758 113.343 C 295.750 111.817,295.071 110.480,291.812 111.484 C 287.660 112.762,279.349 112.775,278.079 111.505 C 277.925 111.351,277.608 111.225,277.375 111.225 C 274.534 111.225,266.894 104.338,260.445 95.965 C 254.784 88.614,251.865 85.537,246.662 81.433 C 240.276 76.396,237.711 72.642,237.711 68.328 C 237.711 63.347,242.020 60.165,246.126 62.113 M238.591 76.676 C 238.591 77.268,237.851 76.642,237.776 75.986 C 237.696 75.298,237.708 75.293,238.143 75.845 C 238.389 76.158,238.591 76.532,238.591 76.676 M90.613 89.480 C 95.696 90.916,100.480 94.770,103.443 99.814 C 105.297 102.971,105.053 103.448,102.458 101.739 C 95.301 97.025,79.575 96.217,73.200 100.235 C 64.944 105.439,64.243 113.230,71.241 122.013 C 71.789 122.701,72.804 124.417,73.495 125.828 C 77.368 133.726,82.307 137.376,90.261 138.220 C 93.159 138.528,95.172 139.273,97.579 140.928 C 102.883 144.577,104.105 145.314,105.542 145.732 C 107.825 146.396,108.207 148.812,107.583 158.621 C 106.980 168.097,103.599 179.305,100.205 183.080 C 94.696 189.208,88.140 187.080,84.974 178.136 C 84.717 177.410,84.241 176.047,83.916 175.108 C 82.948 172.310,81.697 169.905,79.995 167.572 C 72.272 156.987,71.515 154.796,71.020 141.626 C 70.626 131.120,70.609 131.065,66.818 128.390 C 62.912 125.635,61.922 123.147,61.922 116.087 C 61.922 109.285,62.954 105.398,65.310 103.330 C 66.327 102.436,67.125 102.008,71.044 100.250 C 72.982 99.381,74.104 98.303,75.949 95.534 C 79.878 89.641,84.471 87.745,90.613 89.480 M88.005 99.639 C 96.642 101.003,101.448 102.658,103.823 105.086 C 105.501 106.803,104.742 107.998,102.359 107.391 C 95.404 105.617,94.979 105.564,87.307 105.533 C 76.616 105.489,73.934 106.278,71.449 110.198 C 71.015 110.883,70.865 111.778,70.776 114.233 C 70.632 118.201,70.530 118.208,68.861 114.370 C 65.158 105.851,75.745 97.703,88.005 99.639 M91.796 107.423 C 97.768 107.851,98.387 108.130,99.623 110.942 C 105.231 123.708,100.093 135.760,89.061 135.721 C 84.680 135.705,83.459 134.799,77.679 127.282 C 73.999 122.497,73.692 121.900,72.917 118.023 C 71.452 110.690,73.709 108.011,81.842 107.426 C 86.450 107.094,87.207 107.094,91.796 107.423 M104.100 109.994 C 105.052 110.599,105.350 112.595,104.595 113.305 L 103.881 113.976 103.078 113.378 C 101.324 112.075,102.298 108.850,104.100 109.994 M108.304 113.940 C 109.219 114.910,109.811 116.171,109.625 116.757 C 109.531 117.052,109.830 117.849,110.329 118.636 C 111.928 121.157,111.966 121.530,111.883 133.928 C 111.841 140.200,111.742 145.437,111.664 145.564 C 111.143 146.407,103.855 143.077,99.582 140.044 C 98.263 139.107,96.647 138.083,95.991 137.769 C 94.462 137.036,94.487 136.783,96.185 135.822 C 97.630 135.005,100.421 132.356,101.116 131.143 C 103.598 126.809,104.718 119.901,103.450 116.742 C 103.294 116.353,103.558 116.097,104.640 115.588 C 105.414 115.224,106.239 114.568,106.500 114.109 C 107.069 113.109,107.483 113.070,108.304 113.940 M115.572 122.789 C 116.010 123.015,117.225 123.364,118.272 123.565 C 121.465 124.175,121.479 124.202,119.620 126.209 C 118.035 127.922,117.608 128.553,116.656 130.594 C 116.034 131.928,115.155 134.574,114.902 135.877 C 114.793 136.442,114.627 137.168,114.535 137.491 L 114.367 138.078 114.137 137.491 C 114.011 137.168,113.898 133.635,113.887 129.640 C 113.865 121.687,113.817 121.881,115.572 122.789 M140.774 123.231 C 144.492 124.140,145.585 124.595,149.877 127.022 C 152.820 128.687,153.095 129.110,152.600 131.226 C 150.734 139.198,147.336 144.087,140.033 149.303 C 136.151 152.076,136.135 152.075,136.885 149.125 C 137.484 146.769,138.264 138.710,138.065 136.933 C 137.291 130.034,136.235 127.198,133.418 124.456 C 132.686 123.743,132.155 123.050,132.238 122.915 C 132.536 122.434,138.400 122.651,140.774 123.231 M131.106 125.125 C 136.072 128.294,137.508 137.991,134.808 150.110 C 133.806 154.602,131.778 161.056,131.123 161.834 C 130.993 161.988,130.888 162.274,130.888 162.472 C 130.888 162.669,130.252 164.195,129.476 165.861 C 127.827 169.400,127.214 171.721,127.458 173.492 C 127.555 174.190,127.517 175.158,127.374 175.642 C 126.197 179.637,125.605 185.062,125.605 191.852 C 125.605 199.950,124.913 203.398,122.379 207.924 C 121.762 209.027,117.961 215.620,117.389 216.581 C 117.245 216.823,116.213 218.870,115.096 221.130 C 113.306 224.750,112.395 226.687,111.508 228.760 C 111.370 229.083,111.003 229.941,110.693 230.668 C 110.382 231.394,109.702 233.177,109.181 234.629 C 108.660 236.082,108.058 237.733,107.843 238.298 C 107.628 238.863,107.383 239.655,107.297 240.059 C 106.905 241.911,106.363 242.081,105.147 240.734 C 103.592 239.011,102.261 238.300,100.587 238.299 C 99.041 238.298,98.819 237.830,99.515 236.043 C 100.023 234.738,101.230 230.118,102.416 224.945 C 103.313 221.034,103.889 218.632,104.248 217.315 C 104.424 216.669,104.662 215.613,104.776 214.967 C 104.891 214.321,105.148 213.133,105.346 212.326 C 106.448 207.843,107.216 204.610,107.997 201.174 C 108.327 199.721,108.804 197.674,109.056 196.625 C 109.309 195.576,109.711 193.859,109.950 192.810 C 110.189 191.761,110.565 190.176,110.785 189.288 C 114.435 174.573,115.580 165.658,114.780 158.180 C 113.789 148.906,113.788 148.866,114.394 146.779 C 114.706 145.706,115.188 143.705,115.465 142.333 C 117.454 132.499,118.502 129.750,121.290 127.046 C 124.247 124.179,128.362 123.374,131.106 125.125 M228.957 126.648 C 235.988 128.668,236.127 128.753,236.326 131.121 C 236.477 132.923,237.021 135.203,237.707 136.904 C 237.837 137.227,239.463 140.594,241.320 144.387 C 244.907 151.713,245.800 154.307,245.566 156.736 C 245.334 159.152,244.486 159.745,237.417 162.439 C 235.884 163.024,233.705 163.878,232.575 164.337 C 231.445 164.797,229.266 165.658,227.733 166.251 C 226.200 166.844,224.681 167.446,224.358 167.589 C 221.444 168.881,213.246 171.987,212.982 171.899 C 212.797 171.837,212.491 170.937,212.303 169.899 C 212.115 168.861,211.670 167.285,211.315 166.398 C 210.959 165.510,210.548 164.387,210.401 163.903 C 210.254 163.419,210.009 162.759,209.856 162.436 C 209.558 161.803,207.792 157.488,206.854 155.099 C 206.537 154.292,206.167 153.368,206.031 153.045 C 203.652 147.383,202.743 139.740,204.284 138.345 C 204.591 138.067,204.842 137.667,204.842 137.455 C 204.842 134.208,210.509 128.625,215.554 126.903 C 218.677 125.837,225.671 125.704,228.957 126.648 M158.535 132.909 C 161.281 134.907,165.669 137.830,166.871 138.463 C 169.442 139.815,168.434 146.306,164.838 151.549 C 164.163 152.533,163.479 153.561,163.317 153.833 C 163.155 154.105,162.063 155.912,160.891 157.849 C 158.403 161.957,156.704 165.210,155.124 168.892 C 154.501 170.345,153.790 171.996,153.544 172.561 C 152.865 174.123,151.376 175.847,150.854 175.678 C 150.606 175.597,149.281 175.110,147.909 174.595 C 144.863 173.452,140.786 173.231,138.518 174.085 C 131.073 176.892,129.012 175.809,130.844 170.054 C 131.305 168.608,132.172 165.840,132.773 163.903 C 135.193 156.092,136.809 153.639,141.599 150.506 C 146.017 147.617,149.616 143.487,152.046 138.518 C 153.027 136.512,154.365 132.621,154.365 131.776 C 154.365 130.335,155.372 130.609,158.535 132.909 M201.702 142.690 C 201.892 145.913,202.909 150.315,204.196 153.485 C 204.360 153.888,204.778 154.945,205.124 155.833 C 205.471 156.720,205.873 157.711,206.019 158.034 C 210.831 168.709,211.391 172.854,208.018 172.854 C 207.548 172.854,206.344 173.039,205.343 173.265 C 202.232 173.968,192.669 175.244,187.674 175.624 C 186.544 175.710,183.903 175.919,181.805 176.088 C 170.085 177.035,155.843 177.254,154.632 176.506 C 154.209 176.245,154.547 174.868,155.709 172.120 C 155.914 171.636,156.371 170.514,156.725 169.626 C 157.338 168.089,159.955 162.635,160.527 161.702 C 163.237 157.282,165.255 154.118,166.422 152.458 C 169.201 148.506,170.213 145.908,170.213 142.727 C 170.213 140.196,170.048 140.249,173.176 141.778 C 174.532 142.441,177.095 143.551,178.870 144.245 C 189.908 148.560,191.203 148.413,198.210 142.055 C 201.655 138.929,201.479 138.897,201.702 142.690 M246.568 163.905 C 246.692 164.549,246.992 166.035,247.236 167.206 C 248.406 172.820,249.008 176.062,249.867 181.365 C 251.238 189.839,251.594 192.860,252.838 206.603 C 253.356 212.326,253.997 216.657,254.615 218.614 C 254.841 219.329,255.026 220.088,255.026 220.301 C 255.026 220.515,255.554 221.778,256.200 223.109 C 257.566 225.926,257.600 226.307,256.632 227.880 C 255.371 229.927,255.840 232.152,257.443 231.734 C 259.014 231.324,259.803 230.288,259.947 228.444 C 260.130 226.109,261.458 225.151,267.645 222.887 C 273.659 220.687,285.871 219.967,296.881 221.164 C 300.161 221.521,303.474 221.619,310.198 221.557 C 326.242 221.410,325.137 221.368,326.747 222.172 C 330.700 224.146,334.206 231.416,332.748 234.616 C 332.561 235.027,332.330 235.364,332.235 235.364 C 332.139 235.365,330.873 235.561,329.420 235.799 C 326.421 236.292,318.587 236.369,315.187 235.940 C 311.487 235.472,298.600 235.259,295.671 235.618 C 291.131 236.173,288.700 236.546,286.574 237.011 C 285.444 237.259,283.595 237.653,282.465 237.888 C 281.335 238.122,279.751 238.495,278.944 238.716 C 277.205 239.193,275.230 239.704,273.808 240.044 C 273.243 240.179,271.790 240.559,270.580 240.888 C 248.168 246.978,240.066 247.610,236.403 243.556 C 234.967 241.966,232.909 237.536,230.962 231.842 C 230.824 231.438,230.426 230.382,230.076 229.494 C 229.726 228.606,229.263 227.351,229.046 226.706 C 228.829 226.060,228.373 224.806,228.031 223.918 C 226.703 220.462,223.903 211.509,222.891 207.483 C 222.628 206.434,222.223 204.904,221.991 204.083 C 221.759 203.262,221.570 202.298,221.570 201.942 C 221.570 201.586,221.383 200.475,221.153 199.473 C 220.257 195.556,219.783 190.540,219.752 184.648 C 219.716 177.864,219.490 178.485,222.597 176.815 C 231.053 172.271,233.065 171.037,242.250 164.763 C 245.851 162.303,246.245 162.224,246.568 163.905 M239.762 163.977 C 239.758 164.337,232.752 169.034,230.070 170.476 C 229.349 170.864,228.562 171.326,228.320 171.504 C 228.078 171.681,227.616 171.970,227.293 172.145 C 223.083 174.428,221.796 175.139,220.586 175.851 C 219.242 176.642,218.048 176.742,218.048 176.063 C 218.048 175.913,217.586 175.279,217.021 174.653 C 215.526 172.999,215.482 173.052,219.663 171.460 C 220.308 171.215,221.233 170.848,221.717 170.647 C 222.201 170.445,223.852 169.798,225.385 169.208 C 226.919 168.618,229.098 167.755,230.227 167.290 C 238.751 163.783,239.769 163.429,239.762 163.977 M336.416 209.776 C 338.938 212.249,346.711 221.545,346.465 221.792 C 346.263 221.993,344.068 220.323,339.578 216.552 C 334.059 211.918,332.126 210.379,331.401 210.043 C 330.481 209.616,330.578 208.847,331.668 207.930 C 332.978 206.827,333.694 207.106,336.416 209.776 M333.689 214.162 C 335.377 215.576,337.682 217.456,338.811 218.340 C 339.941 219.225,341.008 220.082,341.183 220.246 C 341.357 220.409,342.794 221.599,344.376 222.891 C 345.959 224.182,348.919 226.600,350.956 228.264 C 359.067 234.893,363.630 240.315,365.573 245.635 C 366.179 247.292,366.111 247.396,364.417 247.392 C 361.775 247.387,360.132 246.738,354.365 243.420 C 348.118 239.826,343.868 238.608,337.182 238.492 C 334.041 238.438,334.209 238.637,334.817 235.690 C 336.287 228.561,333.151 222.969,325.516 219.104 C 323.512 218.090,323.583 217.816,326.924 213.684 C 329.156 210.924,329.886 210.976,333.689 214.162 M359.449 232.062 C 364.014 235.515,367.176 239.923,367.608 243.434 L 367.788 244.901 367.019 243.890 C 366.597 243.334,366.251 242.771,366.251 242.638 C 366.251 241.487,362.637 236.691,358.835 232.795 C 355.693 229.575,355.875 229.357,359.449 232.062 M97.800 235.143 C 97.760 235.265,97.501 236.180,97.224 237.177 C 96.405 240.122,95.368 240.939,92.451 240.939 C 89.914 240.939,89.507 240.699,90.217 239.616 C 91.467 237.708,90.336 236.641,88.479 237.975 C 85.508 240.108,82.785 240.644,77.085 240.217 C 74.099 239.993,73.735 239.808,75.055 239.185 C 78.749 237.443,80.105 237.166,86.427 236.862 C 91.532 236.617,95.452 235.893,96.402 235.020 C 96.737 234.712,97.908 234.815,97.800 235.143 M102.026 240.668 C 103.292 241.281,105.652 244.324,105.647 245.339 C 105.645 245.824,104.500 249.263,103.774 250.963 C 101.670 255.895,95.971 253.019,96.334 247.209 C 96.662 241.953,99.039 239.221,102.026 240.668 M94.360 249.525 C 94.735 251.776,96.631 254.439,97.859 254.439 C 98.069 254.439,98.413 254.647,98.625 254.901 C 99.268 255.677,98.581 255.817,93.074 256.038 C 90.225 256.152,85.583 256.431,82.759 256.659 C 72.196 257.509,69.471 257.043,73.221 255.027 C 75.999 253.533,75.335 251.829,72.519 253.226 C 70.029 254.461,66.443 255.205,64.661 254.855 C 62.630 254.457,62.763 254.002,65.253 252.836 C 70.806 250.236,72.171 249.989,82.172 249.774 C 90.792 249.589,90.835 249.585,92.296 248.815 C 94.035 247.898,94.093 247.918,94.360 249.525 " stroke="none" fill="#ba4b2f" fill-rule="evenodd"></path></g></svg>