<svg id="svg" version="1.1" xmlns="http://www.w3.org/2000/svg" xmlns:xlink="http://www.w3.org/1999/xlink" width="400" height="400" viewBox="0, 0, 400,400"><g id="svgg"><path id="path0" d="M139.567 147.513 C 137.304 149.535,138.633 155.266,141.790 157.102 C 145.369 159.183,157.321 171.503,158.764 174.600 C 159.482 176.140,160.347 177.975,160.686 178.679 C 163.023 183.523,168.433 183.441,173.853 178.478 C 177.344 175.282,182.572 174.128,185.800 175.842 C 187.490 176.739,198.408 177.731,203.200 177.422 C 205.290 177.288,209.918 177.012,213.484 176.811 C 217.869 176.563,220.617 176.214,221.974 175.732 C 224.591 174.802,225.474 175.409,223.745 176.948 C 221.333 179.094,220.062 180.000,219.462 180.000 C 219.120 180.000,218.696 180.251,218.520 180.557 C 218.344 180.863,217.570 181.405,216.800 181.760 C 216.030 182.116,213.960 183.200,212.200 184.169 C 210.440 185.139,208.437 186.199,207.749 186.525 C 207.061 186.851,206.384 187.303,206.244 187.528 C 206.105 187.754,205.441 188.059,204.768 188.207 C 204.096 188.355,203.449 188.728,203.330 189.038 C 203.212 189.347,202.877 189.600,202.588 189.600 C 202.298 189.600,201.527 190.050,200.873 190.600 C 200.219 191.150,199.561 191.600,199.410 191.600 C 199.258 191.600,198.370 192.226,197.436 192.992 C 195.851 194.291,195.550 194.383,192.968 194.365 C 191.446 194.354,187.679 194.464,184.597 194.609 C 179.981 194.826,178.430 194.747,175.797 194.159 C 172.890 193.510,169.710 193.439,140.800 193.382 C 110.194 193.321,108.820 193.286,104.200 192.460 C 101.560 191.988,98.085 191.602,96.477 191.601 C 94.869 191.601,91.809 191.255,89.677 190.832 C 87.545 190.410,83.728 189.969,81.195 189.852 C 78.663 189.735,75.520 189.361,74.211 189.020 C 72.903 188.679,70.700 188.400,69.318 188.400 C 67.907 188.400,65.793 188.063,64.502 187.633 C 63.236 187.212,61.360 186.753,60.333 186.614 C 59.306 186.475,58.249 186.100,57.984 185.780 C 57.719 185.461,57.299 185.199,57.051 185.198 C 56.461 185.197,52.339 183.140,51.585 182.472 C 49.766 180.858,41.902 176.858,39.928 176.542 C 39.078 176.406,38.286 176.139,38.168 175.947 C 37.708 175.203,35.897 175.641,34.769 176.769 C 33.442 178.096,33.207 180.262,34.200 182.000 C 34.514 182.550,34.778 183.350,34.786 183.778 C 34.826 185.979,41.147 192.142,44.900 193.639 C 45.505 193.881,46.000 194.245,46.000 194.448 C 46.000 194.651,46.435 195.015,46.966 195.257 C 47.497 195.499,48.036 195.991,48.163 196.349 C 48.291 196.707,48.934 197.720,49.592 198.600 C 50.251 199.480,51.447 201.492,52.252 203.072 C 54.154 206.809,56.809 209.851,58.491 210.220 C 59.196 210.375,60.055 210.678,60.400 210.893 C 60.832 211.163,61.500 211.085,62.562 210.642 C 63.406 210.289,64.533 210.000,65.065 210.000 C 65.597 210.000,66.738 209.640,67.600 209.200 C 68.462 208.760,69.587 208.400,70.099 208.400 C 70.612 208.400,71.737 208.040,72.600 207.600 C 75.615 206.063,80.777 206.668,86.711 209.254 C 87.652 209.664,88.644 210.000,88.917 210.000 C 89.189 210.000,90.039 210.334,90.806 210.743 C 91.573 211.152,93.085 211.617,94.167 211.777 C 95.248 211.938,96.508 212.305,96.967 212.593 C 97.425 212.882,99.228 213.245,100.972 213.400 C 102.717 213.555,104.967 213.931,105.972 214.235 C 107.188 214.603,111.014 214.867,117.400 215.025 C 122.680 215.155,128.440 215.512,130.200 215.817 C 131.960 216.123,134.660 216.485,136.200 216.622 C 137.740 216.760,140.036 217.216,141.302 217.636 C 142.567 218.056,144.060 218.400,144.618 218.400 C 145.175 218.400,146.338 218.760,147.200 219.200 C 148.062 219.640,149.273 220.000,149.890 220.000 C 150.507 220.000,151.639 220.333,152.406 220.740 C 153.173 221.148,154.786 221.609,155.990 221.766 C 157.195 221.923,158.421 222.251,158.715 222.495 C 159.009 222.740,161.144 223.075,163.458 223.240 C 165.772 223.405,168.236 223.803,168.933 224.124 C 169.630 224.445,171.100 224.835,172.200 224.990 C 173.300 225.144,174.470 225.505,174.800 225.791 C 175.130 226.077,176.030 226.443,176.800 226.604 C 179.872 227.247,183.200 229.949,183.200 231.800 C 183.200 232.291,183.560 233.150,184.000 233.709 C 184.440 234.269,184.800 234.881,184.800 235.069 C 184.800 236.097,190.818 241.490,192.400 241.880 C 192.950 242.016,193.760 242.346,194.200 242.615 C 195.548 243.438,205.697 244.538,209.343 244.255 C 211.135 244.116,216.110 243.713,220.400 243.359 C 224.690 243.004,229.100 242.729,230.200 242.746 C 262.802 243.267,275.644 243.237,276.849 242.635 C 278.573 241.776,279.662 241.835,281.688 242.900 C 283.319 243.757,283.847 243.801,292.800 243.820 C 302.452 243.841,304.803 244.176,306.800 245.813 C 307.130 246.084,307.850 246.441,308.400 246.608 C 308.950 246.774,309.829 247.245,310.354 247.655 C 310.879 248.065,311.554 248.400,311.855 248.400 C 312.157 248.400,313.075 248.760,313.896 249.200 C 314.716 249.640,315.716 250.000,316.116 250.000 C 316.516 250.000,317.599 250.340,318.522 250.756 C 319.445 251.172,321.172 251.642,322.361 251.802 C 323.550 251.961,325.170 252.366,325.961 252.701 C 328.585 253.810,346.135 253.647,348.194 252.493 C 349.071 252.002,349.978 251.600,350.209 251.600 C 352.020 251.600,356.391 245.074,355.981 242.985 C 355.789 242.010,356.134 241.641,357.974 240.849 C 359.060 240.382,360.185 239.996,360.474 239.992 C 360.763 239.987,361.540 239.346,362.200 238.568 C 362.860 237.789,363.715 236.853,364.100 236.487 C 364.485 236.121,364.800 235.588,364.800 235.301 C 364.800 235.015,365.160 233.756,365.600 232.504 C 366.542 229.823,366.633 226.308,365.834 223.435 C 364.602 219.007,363.622 210.189,363.451 202.000 C 363.326 196.000,363.118 193.371,362.675 192.200 C 362.343 191.320,361.974 190.037,361.855 189.350 C 361.127 185.121,355.769 180.517,350.491 179.583 C 348.111 179.162,347.375 178.844,346.440 177.834 C 343.099 174.224,340.414 171.600,340.058 171.600 C 339.838 171.600,339.419 171.369,339.129 171.086 C 335.009 167.085,325.808 166.130,321.600 169.268 C 321.050 169.678,320.240 170.282,319.800 170.610 C 319.360 170.938,318.434 171.655,317.742 172.204 C 317.050 172.752,316.220 173.200,315.896 173.200 C 315.573 173.200,314.879 173.527,314.354 173.927 C 313.829 174.327,312.815 174.889,312.100 175.176 C 311.385 175.462,310.800 175.855,310.800 176.049 C 310.800 176.556,307.698 176.482,307.380 175.967 C 307.232 175.729,306.342 175.204,305.400 174.800 C 304.458 174.396,303.568 173.871,303.420 173.633 C 303.273 173.395,302.816 173.200,302.405 173.200 C 301.994 173.200,301.419 172.968,301.129 172.685 C 300.838 172.402,297.900 170.861,294.600 169.262 C 291.300 167.662,287.934 166.004,287.121 165.576 C 286.307 165.149,285.362 164.800,285.019 164.800 C 284.677 164.800,283.725 164.440,282.904 164.000 C 282.084 163.560,281.024 163.200,280.550 163.200 C 280.075 163.200,278.903 162.844,277.944 162.409 C 276.985 161.974,275.519 161.614,274.687 161.609 C 273.855 161.604,272.505 161.309,271.687 160.953 C 268.692 159.650,260.304 159.680,258.398 161.001 L 256.800 162.109 256.800 164.844 C 256.800 166.762,257.053 168.149,257.648 169.489 C 259.797 174.335,260.144 175.092,260.849 176.479 C 261.262 177.293,261.600 178.195,261.600 178.485 C 261.600 178.775,261.934 179.639,262.341 180.406 C 262.749 181.173,263.215 182.520,263.377 183.400 C 263.539 184.280,263.847 185.213,264.062 185.473 C 264.277 185.733,264.610 187.057,264.802 188.414 C 264.994 189.772,265.432 191.193,265.775 191.573 C 266.609 192.494,266.614 194.800,265.782 194.800 C 265.442 194.800,264.318 195.250,263.285 195.800 C 262.252 196.350,261.112 196.800,260.752 196.800 C 260.392 196.800,259.878 197.065,259.609 197.389 C 259.340 197.714,258.463 198.100,257.660 198.248 C 256.857 198.396,255.573 198.851,254.806 199.259 C 254.039 199.666,253.027 200.000,252.557 200.000 C 252.086 200.000,250.852 200.376,249.813 200.836 C 247.460 201.876,237.368 202.217,237.004 201.267 C 236.606 200.229,236.810 199.315,237.600 198.600 C 238.040 198.202,238.400 197.662,238.400 197.400 C 238.400 197.138,238.760 196.598,239.200 196.200 C 239.640 195.802,240.000 195.271,240.000 195.019 C 240.000 194.768,240.270 194.211,240.600 193.781 C 241.451 192.673,242.917 190.375,243.523 189.200 C 243.807 188.650,244.477 187.480,245.014 186.600 C 245.550 185.720,246.349 184.280,246.789 183.400 C 247.230 182.520,247.772 181.530,247.995 181.200 C 248.218 180.870,248.580 180.150,248.799 179.600 C 249.019 179.050,249.358 178.330,249.554 178.000 C 250.473 176.453,252.000 172.922,252.000 172.343 C 252.000 171.988,252.256 171.486,252.569 171.226 C 252.882 170.966,253.263 169.999,253.416 169.077 C 253.569 168.155,253.985 166.860,254.339 166.200 C 254.828 165.290,254.986 163.838,254.992 160.186 L 255.000 155.372 253.693 153.720 C 252.276 151.928,249.347 150.000,248.043 150.000 C 247.595 150.000,246.380 149.712,245.344 149.361 C 243.146 148.614,234.846 148.498,233.030 149.188 C 232.412 149.424,229.902 149.781,227.453 149.983 C 225.004 150.184,222.370 150.607,221.600 150.922 C 220.830 151.237,218.881 151.611,217.269 151.753 C 215.657 151.895,213.857 152.254,213.269 152.551 C 212.681 152.848,210.962 153.212,209.448 153.362 C 207.935 153.511,206.217 153.881,205.631 154.184 C 205.044 154.487,203.223 154.861,201.582 155.014 C 199.942 155.168,198.060 155.527,197.400 155.813 C 196.740 156.098,194.670 156.447,192.800 156.589 C 190.930 156.730,187.769 157.117,185.775 157.449 C 180.185 158.380,165.133 157.352,162.400 155.852 C 161.850 155.550,160.680 155.175,159.800 155.018 C 158.920 154.861,157.639 154.388,156.953 153.966 C 156.267 153.545,155.425 153.200,155.081 153.200 C 154.738 153.200,154.218 152.961,153.925 152.668 C 153.633 152.376,152.921 151.881,152.344 151.568 C 151.766 151.256,150.058 150.172,148.547 149.160 C 143.610 145.853,141.797 145.520,139.567 147.513 M145.079 149.402 C 146.952 150.378,147.310 150.615,149.800 152.529 C 151.258 153.650,157.414 156.666,158.800 156.938 C 159.350 157.046,160.520 157.412,161.400 157.750 C 162.280 158.088,163.817 158.373,164.816 158.382 C 165.815 158.392,167.669 158.670,168.935 159.000 C 170.619 159.438,173.436 159.600,179.396 159.600 C 188.845 159.600,188.115 159.200,188.044 164.340 C 188.014 166.463,188.156 169.190,188.359 170.400 C 188.856 173.363,188.824 173.379,182.694 173.249 C 177.831 173.145,177.302 173.204,176.332 173.968 C 175.750 174.425,175.152 174.800,175.003 174.800 C 174.855 174.800,173.373 175.925,171.711 177.300 C 166.936 181.249,162.957 180.737,161.616 176.000 C 160.354 171.541,157.296 167.796,149.200 160.794 C 144.682 156.887,140.548 152.707,140.241 151.734 C 139.294 148.736,141.636 147.607,145.079 149.402 M245.020 151.412 C 248.719 151.803,249.282 152.054,251.396 154.260 L 253.200 156.143 253.198 159.572 C 253.196 161.721,252.987 163.399,252.637 164.069 C 252.331 164.657,251.880 166.069,251.636 167.207 C 251.392 168.345,250.924 169.659,250.596 170.127 C 250.268 170.595,250.000 171.364,250.000 171.835 C 250.000 172.306,249.663 173.121,249.252 173.646 C 248.841 174.171,248.377 175.183,248.221 175.895 C 248.066 176.608,247.796 177.279,247.621 177.387 C 247.446 177.495,246.632 178.892,245.811 180.492 C 244.991 182.091,243.889 184.120,243.363 185.000 C 242.836 185.880,242.115 187.230,241.760 188.000 C 241.405 188.770,240.863 189.544,240.557 189.720 C 240.251 189.896,240.000 190.240,240.000 190.486 C 240.000 190.731,238.830 192.672,237.400 194.800 C 235.970 196.928,234.800 198.869,234.800 199.114 C 234.800 199.360,234.575 199.704,234.300 199.880 C 231.829 201.461,230.803 206.625,232.364 209.621 C 233.937 212.638,234.147 221.910,232.676 223.381 C 232.368 223.689,232.000 224.796,231.856 225.841 C 231.713 226.886,231.303 228.065,230.945 228.460 C 230.523 228.927,230.223 230.200,230.091 232.090 C 229.980 233.690,229.694 235.125,229.457 235.277 C 229.220 235.430,228.931 236.510,228.813 237.677 L 228.600 239.800 226.400 240.545 C 221.464 242.216,198.253 242.383,195.088 240.770 C 194.256 240.347,193.306 240.000,192.977 240.000 C 192.172 240.000,187.758 235.789,186.499 233.820 C 183.913 229.776,182.652 220.774,184.162 217.149 C 184.471 216.407,184.851 214.951,185.005 213.913 C 185.160 212.875,185.526 211.828,185.818 211.585 C 186.110 211.343,186.474 210.572,186.626 209.872 C 186.779 209.173,187.241 208.171,187.652 207.646 C 188.063 207.121,188.400 206.520,188.400 206.309 C 188.400 206.099,188.769 205.448,189.220 204.863 C 194.301 198.273,194.736 197.791,197.800 195.357 C 200.430 193.267,205.350 190.000,205.867 190.000 C 206.092 190.000,206.602 189.640,207.000 189.200 C 207.398 188.760,208.028 188.400,208.400 188.400 C 208.772 188.400,209.402 188.040,209.800 187.600 C 210.198 187.160,210.832 186.800,211.208 186.800 C 211.584 186.800,212.321 186.473,212.846 186.073 C 213.371 185.673,214.385 185.111,215.100 184.824 C 215.815 184.538,216.400 184.181,216.400 184.032 C 216.400 183.883,217.030 183.533,217.800 183.254 C 218.570 182.976,219.200 182.597,219.200 182.413 C 219.200 182.229,219.740 181.890,220.400 181.660 C 221.060 181.430,221.600 181.064,221.600 180.848 C 221.600 180.631,221.926 180.351,222.323 180.224 C 223.371 179.892,228.753 174.588,230.770 171.900 C 231.719 170.635,232.615 169.600,232.760 169.600 C 232.906 169.600,233.247 169.105,233.520 168.500 C 233.792 167.895,234.458 166.680,235.000 165.800 C 236.653 163.113,236.915 162.477,236.652 161.792 C 236.338 160.974,235.531 161.203,234.997 162.263 C 234.776 162.702,234.281 163.376,233.897 163.760 C 233.514 164.143,233.200 164.678,233.200 164.947 C 233.200 165.217,232.931 165.789,232.601 166.219 C 232.272 166.648,231.462 167.700,230.801 168.555 C 230.141 169.410,229.600 170.241,229.600 170.401 C 229.600 171.493,226.323 172.848,222.759 173.229 C 220.691 173.450,218.460 173.819,217.800 174.050 C 216.357 174.554,199.967 175.358,198.138 175.015 C 193.910 174.222,192.871 158.000,197.048 158.000 C 197.594 158.000,198.526 157.755,199.120 157.456 C 199.714 157.156,201.519 156.794,203.131 156.650 C 204.743 156.506,206.543 156.140,207.131 155.836 C 207.719 155.533,209.460 155.153,211.000 154.992 C 212.540 154.831,214.279 154.456,214.864 154.158 C 215.449 153.860,217.470 153.442,219.355 153.227 C 221.239 153.013,223.162 152.635,223.626 152.386 C 224.091 152.137,226.660 151.765,229.335 151.558 C 232.011 151.351,235.640 151.043,237.400 150.873 C 239.160 150.703,240.969 150.689,241.420 150.842 C 241.870 150.994,243.490 151.251,245.020 151.412 M192.116 163.538 C 191.934 166.978,192.021 168.242,192.535 169.638 C 194.192 174.139,193.044 176.593,191.065 172.780 C 189.191 169.167,189.573 159.200,191.586 159.200 C 192.298 159.200,192.330 159.466,192.116 163.538 M268.800 162.522 C 269.570 162.839,271.359 163.224,272.775 163.378 C 274.191 163.531,275.811 163.893,276.375 164.181 C 276.939 164.469,278.209 164.840,279.198 165.004 C 280.187 165.169,281.624 165.640,282.392 166.052 C 283.160 166.463,284.025 166.800,284.315 166.800 C 284.605 166.800,285.507 167.145,286.321 167.568 C 290.047 169.501,295.447 172.000,295.900 172.000 C 296.175 172.000,296.400 172.158,296.400 172.351 C 296.400 172.545,296.895 172.888,297.500 173.114 C 299.305 173.789,299.726 173.993,301.400 175.011 C 303.170 176.087,304.245 176.623,305.300 176.955 C 306.466 177.321,306.183 179.085,304.848 179.775 C 304.215 180.102,303.599 180.624,303.480 180.935 C 302.957 182.300,300.939 182.413,299.119 181.180 C 298.174 180.539,297.130 180.011,296.800 180.006 C 296.470 180.001,295.656 179.665,294.992 179.260 C 294.327 178.855,293.086 178.393,292.233 178.233 C 291.381 178.073,290.304 177.704,289.842 177.414 C 289.379 177.124,288.138 176.765,287.085 176.617 C 286.031 176.468,284.532 176.080,283.753 175.755 C 282.974 175.429,280.506 175.056,278.268 174.925 C 275.494 174.763,273.728 174.451,272.716 173.944 C 271.900 173.535,270.990 173.200,270.694 173.200 C 270.398 173.200,269.543 172.748,268.795 172.197 C 267.563 171.287,267.377 171.252,266.818 171.819 C 266.103 172.542,268.098 174.570,270.000 175.053 C 270.550 175.193,271.290 175.559,271.645 175.866 C 272.000 176.173,273.260 176.534,274.445 176.668 C 277.344 176.994,277.901 177.346,278.389 179.160 C 278.618 180.011,279.074 180.930,279.403 181.202 C 279.731 181.475,280.000 181.938,280.000 182.231 C 280.000 182.815,281.360 184.935,282.858 186.686 C 283.941 187.951,286.584 189.797,287.847 190.170 C 288.313 190.308,289.016 190.776,289.409 191.210 C 289.802 191.645,290.285 192.000,290.481 192.000 C 290.928 192.000,292.537 193.786,293.634 195.500 C 294.446 196.770,294.449 196.846,293.767 198.700 C 292.801 201.324,292.702 201.381,291.037 200.251 C 285.348 196.390,278.602 194.947,276.308 197.100 C 274.973 198.353,274.457 198.243,272.400 196.267 C 269.307 193.297,267.512 190.152,266.817 186.488 C 266.599 185.342,266.164 183.999,265.850 183.502 C 265.536 183.006,265.159 182.027,265.014 181.328 C 264.868 180.628,264.502 179.850,264.200 179.600 C 263.898 179.350,263.526 178.572,263.372 177.872 C 263.219 177.173,262.757 175.973,262.347 175.206 C 261.936 174.439,261.600 173.516,261.600 173.155 C 261.600 172.794,261.342 172.283,261.026 172.021 C 260.710 171.759,260.329 170.972,260.180 170.272 C 260.031 169.573,259.570 168.245,259.155 167.322 C 256.933 162.381,262.152 159.784,268.800 162.522 M331.541 169.984 C 332.939 170.186,334.379 170.611,334.741 170.928 C 335.104 171.246,335.850 171.639,336.400 171.803 C 337.615 172.165,337.847 172.354,341.502 175.959 C 344.085 178.506,345.020 179.793,346.332 182.600 C 348.541 187.327,348.162 197.284,345.671 199.986 C 345.302 200.386,344.460 201.471,343.800 202.396 C 343.140 203.321,341.937 204.418,341.127 204.833 C 340.317 205.249,339.541 205.771,339.404 205.994 C 338.703 207.128,335.623 206.428,334.152 204.800 C 333.168 203.711,332.371 203.198,331.653 203.195 C 329.165 203.182,327.548 201.221,329.189 200.207 C 329.403 200.074,329.770 199.254,330.005 198.383 C 330.239 197.512,330.583 196.800,330.768 196.800 C 331.241 196.800,333.140 192.816,333.453 191.167 C 333.596 190.415,333.884 189.582,334.093 189.315 C 336.679 186.017,331.642 173.225,327.749 173.203 C 327.501 173.201,327.075 172.931,326.802 172.603 C 326.530 172.274,325.608 171.818,324.753 171.587 C 322.260 170.916,322.782 170.296,326.200 169.870 C 328.368 169.599,328.972 169.612,331.541 169.984 M324.211 174.146 C 324.645 174.446,325.450 174.831,326.000 175.001 C 328.652 175.819,331.120 178.900,331.849 182.299 C 332.563 185.631,331.999 191.143,330.767 192.884 C 330.345 193.480,330.000 194.205,330.000 194.495 C 330.000 194.785,329.703 195.446,329.340 195.964 C 327.600 198.449,326.790 200.573,326.534 203.319 C 326.049 208.538,323.900 211.200,320.171 211.200 C 319.155 211.200,319.111 211.280,319.337 212.700 C 319.558 214.091,319.428 214.352,317.552 216.297 C 315.201 218.733,313.598 220.983,313.204 222.400 C 312.874 223.583,309.680 223.758,308.467 222.660 C 308.099 222.328,307.313 221.871,306.719 221.645 C 305.922 221.342,305.523 220.798,305.189 219.559 C 304.663 217.605,303.591 216.002,301.500 214.040 C 300.675 213.266,300.000 212.423,300.000 212.165 C 300.000 211.908,299.755 211.495,299.456 211.246 C 298.779 210.684,299.055 209.056,299.967 208.230 C 300.713 207.555,301.752 207.765,305.044 209.256 C 305.948 209.665,307.157 210.000,307.731 210.000 C 308.306 210.000,309.456 210.342,310.288 210.760 C 312.318 211.779,318.800 212.316,318.800 211.464 C 318.800 210.795,317.991 210.557,314.400 210.166 C 312.970 210.010,311.173 209.549,310.406 209.141 C 309.639 208.734,308.538 208.400,307.960 208.400 C 307.381 208.400,306.479 208.067,305.954 207.661 C 305.429 207.255,304.474 206.793,303.832 206.636 C 303.189 206.479,302.220 206.002,301.678 205.575 C 301.136 205.149,300.481 204.800,300.224 204.800 C 297.809 204.800,295.501 201.090,296.363 198.595 C 297.085 196.507,297.785 195.921,298.177 197.078 C 298.593 198.308,300.376 200.063,301.072 199.928 C 302.129 199.723,302.095 199.051,300.944 197.370 C 299.684 195.530,299.478 190.868,300.568 188.881 C 300.894 188.286,301.395 187.352,301.680 186.805 C 302.708 184.839,306.810 180.739,309.400 179.090 C 310.500 178.390,311.638 177.588,311.929 177.308 C 312.219 177.029,312.690 176.800,312.975 176.800 C 313.259 176.800,313.950 176.440,314.509 176.000 C 315.069 175.560,315.771 175.200,316.069 175.200 C 316.368 175.200,317.240 174.850,318.006 174.423 C 319.658 173.502,323.061 173.350,324.211 174.146 M282.600 177.788 C 283.480 178.105,284.780 178.373,285.489 178.382 C 286.198 178.392,287.548 178.751,288.489 179.180 C 289.430 179.609,290.857 180.063,291.660 180.190 C 292.463 180.317,293.340 180.686,293.609 181.011 C 293.878 181.335,294.439 181.600,294.855 181.600 C 298.026 181.600,300.820 184.932,299.208 186.790 C 298.773 187.292,298.299 188.355,298.154 189.151 C 298.009 189.948,297.454 191.472,296.919 192.538 L 295.948 194.477 293.274 192.003 C 289.560 188.566,289.534 188.547,288.280 188.245 C 286.964 187.927,282.220 183.328,281.788 181.950 C 281.624 181.428,281.179 180.601,280.798 180.113 C 280.382 179.581,280.183 178.822,280.300 178.213 C 280.525 177.034,280.511 177.036,282.600 177.788 M41.600 179.009 C 41.930 179.290,42.830 179.810,43.600 180.163 C 44.370 180.517,45.720 181.246,46.600 181.784 C 47.480 182.321,48.650 182.991,49.200 183.272 C 49.750 183.552,51.020 184.348,52.023 185.039 C 53.025 185.731,54.285 186.435,54.823 186.604 C 55.360 186.774,56.427 187.247,57.194 187.656 C 57.961 188.065,59.183 188.400,59.910 188.400 C 60.637 188.400,61.900 188.736,62.716 189.146 C 63.666 189.624,65.437 189.966,67.636 190.098 C 69.526 190.211,71.504 190.535,72.032 190.817 C 72.560 191.100,74.794 191.414,76.996 191.515 C 82.217 191.754,82.888 192.621,80.901 196.562 C 80.530 197.297,80.309 198.957,80.300 201.079 C 80.281 205.118,80.190 205.200,75.715 205.200 C 73.604 205.200,72.304 205.392,71.740 205.787 C 71.279 206.110,70.114 206.491,69.151 206.634 C 68.188 206.777,66.991 207.150,66.491 207.463 C 63.733 209.185,59.608 208.900,57.719 206.855 C 55.965 204.956,55.686 204.571,55.031 203.141 C 54.352 201.661,54.195 201.397,51.656 197.494 C 50.043 195.014,46.606 191.600,45.722 191.600 C 45.301 191.600,43.295 190.185,41.066 188.316 C 37.367 185.214,35.148 180.404,36.651 178.744 C 37.436 177.877,40.461 178.038,41.600 179.009 M352.831 182.644 C 353.179 182.950,353.657 183.200,353.894 183.200 C 354.585 183.200,357.763 185.988,358.200 186.978 C 358.420 187.476,358.831 188.161,359.114 188.500 C 360.275 189.891,361.493 200.513,361.560 209.813 C 361.586 213.508,361.809 216.173,362.210 217.613 C 362.546 218.816,362.915 220.520,363.031 221.400 C 363.146 222.280,363.431 224.120,363.663 225.488 C 364.426 229.976,363.542 234.215,361.369 236.481 C 357.029 241.010,352.418 238.325,351.613 230.800 C 351.437 229.150,351.003 227.260,350.649 226.600 C 350.295 225.940,350.004 225.182,350.002 224.916 C 350.001 224.649,349.672 224.109,349.271 223.716 C 347.434 221.911,346.403 215.405,347.542 212.800 C 347.991 211.774,348.188 209.605,348.281 204.673 C 348.384 199.203,348.537 197.708,349.104 196.673 C 349.910 195.200,350.093 186.499,349.339 185.539 C 346.983 182.539,349.936 180.092,352.831 182.644 M86.485 194.281 C 86.465 194.897,86.167 196.188,85.824 197.150 C 85.440 198.229,85.200 200.245,85.200 202.401 C 85.200 206.693,84.422 207.955,83.382 205.349 C 83.042 204.497,82.570 203.411,82.333 202.935 C 81.858 201.981,83.248 193.917,83.927 193.691 C 84.125 193.625,84.627 193.320,85.043 193.013 C 85.986 192.316,86.535 192.799,86.485 194.281 M100.600 194.199 C 101.920 194.498,105.610 194.850,108.800 194.981 C 111.990 195.113,118.642 195.520,123.583 195.885 C 131.482 196.469,133.363 196.484,139.183 196.010 C 150.381 195.098,166.243 195.009,170.563 195.836 C 173.251 196.350,176.575 196.550,183.306 196.605 C 193.770 196.690,193.443 196.588,191.233 199.092 C 188.398 202.305,186.420 205.076,186.407 205.851 C 186.403 206.099,186.142 206.517,185.826 206.779 C 185.510 207.041,185.132 207.828,184.986 208.528 C 184.841 209.227,184.437 210.247,184.090 210.794 C 183.742 211.341,183.324 212.421,183.160 213.194 C 182.997 213.967,182.586 215.320,182.249 216.200 C 181.861 217.211,181.626 219.200,181.611 221.600 C 181.585 225.888,181.253 226.910,180.223 225.881 C 179.866 225.524,178.905 225.107,178.087 224.955 C 177.269 224.804,176.218 224.431,175.751 224.127 C 175.283 223.823,173.933 223.462,172.751 223.324 C 171.568 223.187,170.224 222.831,169.764 222.533 C 169.304 222.235,167.234 221.827,165.164 221.627 C 163.094 221.426,160.731 220.978,159.913 220.631 C 159.095 220.284,157.925 219.996,157.313 219.991 C 156.701 219.986,155.415 219.626,154.456 219.191 C 153.497 218.756,152.327 218.392,151.856 218.382 C 151.385 218.373,150.280 218.089,149.400 217.752 C 148.520 217.415,146.810 216.914,145.600 216.639 C 144.390 216.364,143.021 215.935,142.558 215.686 C 142.095 215.438,140.475 215.110,138.958 214.958 C 137.441 214.805,135.480 214.421,134.600 214.103 C 133.462 213.692,129.823 213.424,122.000 213.176 C 115.269 212.962,109.836 212.595,108.000 212.229 C 106.350 211.901,103.972 211.625,102.715 211.616 C 101.409 211.607,99.560 211.257,98.400 210.800 C 97.284 210.360,95.842 210.000,95.196 210.000 C 94.550 210.000,93.252 209.658,92.311 209.240 C 91.370 208.822,90.117 208.292,89.528 208.061 C 87.310 207.195,87.266 196.298,89.471 194.093 C 90.538 193.025,95.629 193.074,100.600 194.199 M271.258 198.722 C 273.005 200.408,273.615 201.302,273.811 202.465 C 274.505 206.570,280.019 211.988,283.514 211.998 C 283.797 211.999,284.427 212.250,284.914 212.557 C 285.401 212.863,286.651 213.233,287.691 213.380 C 292.223 214.019,299.403 220.400,295.589 220.400 C 295.085 220.400,294.860 220.574,295.023 220.838 C 295.172 221.078,295.768 221.180,296.347 221.063 C 297.601 220.811,301.550 221.742,303.826 222.826 C 304.721 223.252,305.734 223.600,306.077 223.600 C 306.421 223.600,306.911 223.852,307.167 224.161 C 307.423 224.469,308.119 224.844,308.713 224.993 C 309.307 225.142,310.065 225.524,310.397 225.843 C 311.003 226.426,311.347 226.670,316.299 230.035 C 320.173 232.668,322.838 233.453,326.281 232.976 C 329.699 232.503,333.005 233.243,335.712 235.087 C 336.752 235.795,337.845 236.281,338.142 236.167 C 339.032 235.825,338.420 233.989,337.247 233.483 C 336.671 233.235,335.771 232.710,335.246 232.316 C 334.721 231.922,333.801 231.600,333.201 231.600 C 332.170 231.600,330.000 229.938,330.000 229.149 C 330.000 228.342,326.958 224.920,325.447 224.026 C 324.541 223.491,323.565 222.726,323.277 222.326 C 322.990 221.927,322.482 221.600,322.148 221.600 C 321.217 221.600,321.676 220.219,322.653 220.079 C 323.541 219.952,326.400 222.302,326.400 223.160 C 326.400 223.416,326.670 223.729,327.000 223.855 C 327.330 223.982,327.600 224.336,327.600 224.643 C 327.600 227.037,331.366 224.004,331.667 221.367 C 331.757 220.583,332.141 220.043,332.849 219.706 C 333.843 219.231,333.880 219.109,333.553 217.358 C 332.944 214.103,333.914 212.315,334.812 215.036 C 335.147 216.052,335.628 216.591,336.455 216.879 C 337.098 217.103,337.893 217.807,338.222 218.443 C 338.551 219.080,338.990 219.600,339.196 219.600 C 340.657 219.600,340.689 214.347,339.235 213.156 C 338.716 212.730,338.583 212.377,338.845 212.115 C 339.478 211.482,341.149 212.010,341.443 212.936 C 341.591 213.403,342.092 214.298,342.556 214.926 C 343.878 216.713,343.786 225.158,342.420 227.367 C 340.555 230.386,341.358 233.378,344.589 235.441 C 347.188 237.100,348.654 237.972,349.800 238.539 C 354.321 240.774,354.900 244.689,351.209 248.065 C 350.045 249.129,348.802 250.001,348.447 250.002 C 348.091 250.004,347.260 250.318,346.600 250.700 C 345.042 251.602,329.220 251.754,327.692 250.882 C 327.192 250.596,325.328 250.197,323.548 249.994 C 321.768 249.791,320.055 249.411,319.740 249.150 C 319.425 248.889,318.273 248.534,317.179 248.361 C 316.085 248.188,314.909 247.766,314.566 247.423 C 314.223 247.080,313.530 246.800,313.025 246.800 C 312.521 246.800,311.679 246.465,311.154 246.055 C 310.629 245.645,309.750 245.171,309.200 245.000 C 308.650 244.829,307.771 244.355,307.246 243.945 C 306.721 243.535,306.013 243.200,305.672 243.200 C 305.331 243.200,304.252 242.812,303.273 242.338 C 301.582 241.520,301.111 241.488,293.847 241.707 C 283.032 242.032,282.213 241.823,279.415 238.022 C 278.226 236.408,277.931 231.260,278.943 229.789 C 279.242 229.355,279.706 228.325,279.974 227.500 C 280.242 226.675,280.606 226.000,280.782 226.000 C 280.959 226.000,281.324 225.466,281.594 224.813 C 281.865 224.161,282.427 223.518,282.843 223.386 C 283.260 223.254,283.782 222.807,284.004 222.392 C 284.300 221.840,285.050 221.566,286.813 221.367 C 290.196 220.984,290.195 220.400,286.811 220.400 C 284.659 220.400,283.919 220.545,283.745 221.000 C 283.618 221.330,283.275 221.600,282.982 221.600 C 282.504 221.600,281.904 222.155,279.468 224.853 C 279.065 225.299,278.541 226.235,278.303 226.932 C 278.064 227.629,277.693 228.317,277.477 228.459 C 276.446 229.141,276.093 236.454,276.954 239.315 C 277.259 240.329,277.409 241.257,277.288 241.379 C 276.786 241.881,248.906 241.611,248.507 241.100 C 247.512 239.828,247.114 228.054,247.800 220.198 C 248.165 216.019,248.404 210.643,248.332 208.251 C 248.224 204.689,248.309 203.848,248.800 203.609 C 251.329 202.378,252.380 201.969,253.600 201.739 C 254.370 201.594,255.627 201.143,256.394 200.738 C 257.161 200.332,258.122 200.000,258.531 200.000 C 258.940 200.000,259.731 199.640,260.291 199.200 C 260.850 198.760,261.618 198.400,261.998 198.400 C 262.377 198.400,263.748 197.864,265.044 197.208 C 267.905 195.760,268.288 195.854,271.258 198.722 M284.800 199.581 C 285.790 200.067,286.870 200.622,287.200 200.816 C 287.530 201.009,288.610 201.644,289.600 202.225 C 290.590 202.806,292.100 203.381,292.956 203.501 C 296.256 203.966,298.906 206.752,297.440 208.217 C 295.838 209.820,297.010 212.996,300.431 216.318 C 301.520 217.375,301.676 217.706,301.217 217.990 C 300.517 218.422,297.625 216.838,295.610 214.920 C 294.846 214.192,293.856 213.483,293.410 213.343 C 292.965 213.204,292.171 212.755,291.646 212.345 C 291.121 211.935,290.255 211.600,289.720 211.600 C 289.186 211.600,287.905 211.254,286.874 210.831 C 285.843 210.408,284.325 209.950,283.500 209.813 C 282.675 209.676,282.000 209.414,282.000 209.230 C 282.000 209.047,281.475 208.680,280.833 208.414 C 277.227 206.920,275.557 203.469,276.825 200.134 C 277.604 198.084,281.232 197.833,284.800 199.581 M238.366 203.383 C 240.141 204.300,240.822 215.196,239.343 219.000 C 239.001 219.880,238.558 221.917,238.360 223.527 C 238.161 225.137,237.805 226.818,237.567 227.262 C 237.329 227.706,236.949 230.528,236.722 233.534 C 236.223 240.134,235.049 241.292,230.582 239.593 C 229.375 239.134,229.428 235.906,230.656 235.008 C 230.997 234.759,231.336 233.589,231.472 232.191 C 231.601 230.876,231.989 229.475,232.335 229.077 C 232.718 228.638,233.029 227.343,233.129 225.777 C 233.242 224.009,233.457 223.200,233.815 223.200 C 234.102 223.200,234.428 222.705,234.541 222.100 C 235.621 216.288,235.675 215.558,235.220 212.945 C 234.963 211.472,234.404 209.823,233.977 209.280 C 231.263 205.830,234.553 201.411,238.366 203.383 M244.832 203.839 C 245.407 204.531,245.436 206.220,245.249 227.777 C 245.192 234.364,244.981 240.063,244.779 240.440 C 244.372 241.199,239.902 241.091,238.900 240.298 C 238.188 239.734,238.258 233.913,239.013 231.017 C 239.349 229.723,239.773 227.208,239.953 225.427 C 240.134 223.647,240.587 221.599,240.960 220.877 C 241.532 219.771,241.637 218.330,241.628 211.730 C 241.623 207.420,241.715 203.738,241.833 203.547 C 242.195 202.961,244.271 203.162,244.832 203.839 M346.630 207.434 C 346.225 211.569,344.566 214.205,343.556 212.318 C 343.091 211.449,342.116 210.491,340.652 209.465 C 339.944 208.968,339.972 208.889,341.183 207.970 C 341.886 207.437,343.213 206.249,344.131 205.330 C 346.310 203.150,346.993 203.725,346.630 207.434 M331.919 206.278 L 332.705 207.357 331.544 208.518 C 329.577 210.485,325.578 210.414,327.361 208.443 C 327.712 208.055,328.000 207.382,328.000 206.949 C 328.000 204.974,330.640 204.523,331.919 206.278 M336.800 209.426 C 336.800 210.765,335.915 211.887,335.565 210.991 C 335.006 209.559,335.157 208.800,336.000 208.800 C 336.459 208.800,336.800 209.067,336.800 209.426 M328.377 213.680 C 328.663 214.626,329.159 215.940,329.480 216.600 C 330.147 217.971,330.044 221.258,329.327 221.493 C 329.066 221.579,328.081 220.828,327.137 219.824 C 326.192 218.821,325.264 218.000,325.073 218.000 C 324.882 218.000,324.269 217.640,323.709 217.200 C 323.150 216.760,322.086 216.400,321.346 216.400 C 318.569 216.400,320.556 214.202,324.451 212.966 C 325.633 212.591,326.764 212.138,326.964 211.958 C 327.523 211.457,327.814 211.810,328.377 213.680 M319.338 220.224 C 319.963 221.212,320.924 222.330,321.471 222.710 C 323.065 223.815,328.000 228.687,328.000 229.157 C 328.000 231.049,320.797 230.159,317.400 227.847 C 314.132 225.623,313.775 224.824,315.053 222.600 C 315.558 221.720,316.251 220.415,316.591 219.700 C 317.415 217.971,317.977 218.078,319.338 220.224 M347.342 224.981 C 347.924 225.520,348.400 226.308,348.400 226.732 C 348.400 227.156,348.667 228.142,348.994 228.924 C 351.170 234.133,349.512 236.189,345.735 232.962 C 343.360 230.933,343.259 230.599,344.387 228.479 C 344.820 227.666,345.278 226.325,345.405 225.500 C 345.677 223.736,345.926 223.669,347.342 224.981 " stroke="none" fill="#ba4b2f" fill-rule="evenodd"></path><path id="path1" d="M0.000 200.000 L 0.000 400.000 200.000 400.000 L 400.000 400.000 400.000 200.000 L 400.000 0.000 200.000 0.000 L 0.000 0.000 0.000 200.000 M144.926 146.860 C 145.407 147.113,147.036 148.148,148.547 149.160 C 150.058 150.172,151.766 151.256,152.344 151.568 C 152.921 151.881,153.633 152.376,153.925 152.668 C 154.218 152.961,154.738 153.200,155.081 153.200 C 155.425 153.200,156.267 153.545,156.953 153.966 C 157.639 154.388,158.920 154.861,159.800 155.018 C 160.680 155.175,161.850 155.550,162.400 155.852 C 165.133 157.352,180.185 158.380,185.775 157.449 C 187.769 157.117,190.930 156.730,192.800 156.589 C 194.670 156.447,196.740 156.098,197.400 155.813 C 198.060 155.527,199.942 155.168,201.582 155.014 C 203.223 154.861,205.044 154.487,205.631 154.184 C 206.217 153.881,207.935 153.511,209.448 153.362 C 210.962 153.212,212.681 152.848,213.269 152.551 C 213.857 152.254,215.657 151.895,217.269 151.753 C 218.881 151.611,220.830 151.237,221.600 150.922 C 222.370 150.607,225.004 150.184,227.453 149.983 C 229.902 149.781,232.412 149.424,233.030 149.188 C 234.846 148.498,243.146 148.614,245.344 149.361 C 246.380 149.712,247.595 150.000,248.043 150.000 C 249.347 150.000,252.276 151.928,253.693 153.720 L 255.000 155.372 254.992 160.186 C 254.986 163.838,254.828 165.290,254.339 166.200 C 253.985 166.860,253.569 168.155,253.416 169.077 C 253.263 169.999,252.882 170.966,252.569 171.226 C 252.256 171.486,252.000 171.988,252.000 172.343 C 252.000 172.922,250.473 176.453,249.554 178.000 C 249.358 178.330,249.019 179.050,248.799 179.600 C 248.580 180.150,248.218 180.870,247.995 181.200 C 247.772 181.530,247.230 182.520,246.789 183.400 C 246.349 184.280,245.550 185.720,245.014 186.600 C 244.477 187.480,243.807 188.650,243.523 189.200 C 242.917 190.375,241.451 192.673,240.600 193.781 C 240.270 194.211,240.000 194.768,240.000 195.019 C 240.000 195.271,239.640 195.802,239.200 196.200 C 238.760 196.598,238.400 197.138,238.400 197.400 C 238.400 197.662,238.040 198.202,237.600 198.600 C 236.810 199.315,236.606 200.229,237.004 201.267 C 237.368 202.217,247.460 201.876,249.813 200.836 C 250.852 200.376,252.086 200.000,252.557 200.000 C 253.027 200.000,254.039 199.666,254.806 199.259 C 255.573 198.851,256.857 198.396,257.660 198.248 C 258.463 198.100,259.340 197.714,259.609 197.389 C 259.878 197.065,260.392 196.800,260.752 196.800 C 261.112 196.800,262.252 196.350,263.285 195.800 C 264.318 195.250,265.442 194.800,265.782 194.800 C 266.614 194.800,266.609 192.494,265.775 191.573 C 265.432 191.193,264.994 189.772,264.802 188.414 C 264.610 187.057,264.277 185.733,264.062 185.473 C 263.847 185.213,263.539 184.280,263.377 183.400 C 263.215 182.520,262.749 181.173,262.341 180.406 C 261.934 179.639,261.600 178.775,261.600 178.485 C 261.600 178.195,261.262 177.293,260.849 176.479 C 260.144 175.092,259.797 174.335,257.648 169.489 C 257.053 168.149,256.800 166.762,256.800 164.844 L 256.800 162.109 258.398 161.001 C 260.304 159.680,268.692 159.650,271.687 160.953 C 272.505 161.309,273.855 161.604,274.687 161.609 C 275.519 161.614,276.985 161.974,277.944 162.409 C 278.903 162.844,280.075 163.200,280.550 163.200 C 281.024 163.200,282.084 163.560,282.904 164.000 C 283.725 164.440,284.677 164.800,285.019 164.800 C 285.362 164.800,286.307 165.149,287.121 165.576 C 287.934 166.004,291.300 167.662,294.600 169.262 C 297.900 170.861,300.838 172.402,301.129 172.685 C 301.419 172.968,301.994 173.200,302.405 173.200 C 302.816 173.200,303.273 173.395,303.420 173.633 C 303.568 173.871,304.458 174.396,305.400 174.800 C 306.342 175.204,307.232 175.729,307.380 175.967 C 307.698 176.482,310.800 176.556,310.800 176.049 C 310.800 175.855,311.385 175.462,312.100 175.176 C 312.815 174.889,313.829 174.327,314.354 173.927 C 314.879 173.527,315.573 173.200,315.896 173.200 C 316.220 173.200,317.050 172.752,317.742 172.204 C 318.434 171.655,319.360 170.938,319.800 170.610 C 320.240 170.282,321.050 169.678,321.600 169.268 C 325.808 166.130,335.009 167.085,339.129 171.086 C 339.419 171.369,339.838 171.600,340.058 171.600 C 340.414 171.600,343.099 174.224,346.440 177.834 C 347.375 178.844,348.111 179.162,350.491 179.583 C 355.769 180.517,361.127 185.121,361.855 189.350 C 361.974 190.037,362.343 191.320,362.675 192.200 C 363.118 193.371,363.326 196.000,363.451 202.000 C 363.622 210.189,364.602 219.007,365.834 223.435 C 366.633 226.308,366.542 229.823,365.600 232.504 C 365.160 233.756,364.800 235.015,364.800 235.301 C 364.800 235.588,364.485 236.121,364.100 236.487 C 363.715 236.853,362.860 237.789,362.200 238.568 C 361.540 239.346,360.763 239.987,360.474 239.992 C 360.185 239.996,359.060 240.382,357.974 240.849 C 356.134 241.641,355.789 242.010,355.981 242.985 C 356.391 245.074,352.020 251.600,350.209 251.600 C 349.978 251.600,349.071 252.002,348.194 252.493 C 346.135 253.647,328.585 253.810,325.961 252.701 C 325.170 252.366,323.550 251.961,322.361 251.802 C 321.172 251.642,319.445 251.172,318.522 250.756 C 317.599 250.340,316.516 250.000,316.116 250.000 C 315.716 250.000,314.716 249.640,313.896 249.200 C 313.075 248.760,312.157 248.400,311.855 248.400 C 311.554 248.400,310.879 248.065,310.354 247.655 C 309.829 247.245,308.950 246.774,308.400 246.608 C 307.850 246.441,307.130 246.084,306.800 245.813 C 304.803 244.176,302.452 243.841,292.800 243.820 C 283.847 243.801,283.319 243.757,281.688 242.900 C 279.662 241.835,278.573 241.776,276.849 242.635 C 275.644 243.237,262.802 243.267,230.200 242.746 C 229.100 242.729,224.690 243.004,220.400 243.359 C 216.110 243.713,211.135 244.116,209.343 244.255 C 205.697 244.538,195.548 243.438,194.200 242.615 C 193.760 242.346,192.950 242.016,192.400 241.880 C 190.818 241.490,184.800 236.097,184.800 235.069 C 184.800 234.881,184.440 234.269,184.000 233.709 C 183.560 233.150,183.200 232.291,183.200 231.800 C 183.200 229.949,179.872 227.247,176.800 226.604 C 176.030 226.443,175.130 226.077,174.800 225.791 C 174.470 225.505,173.300 225.144,172.200 224.990 C 171.100 224.835,169.630 224.445,168.933 224.124 C 168.236 223.803,165.772 223.405,163.458 223.240 C 161.144 223.075,159.009 222.740,158.715 222.495 C 158.421 222.251,157.195 221.923,155.990 221.766 C 154.786 221.609,153.173 221.148,152.406 220.740 C 151.639 220.333,150.507 220.000,149.890 220.000 C 149.273 220.000,148.062 219.640,147.200 219.200 C 146.338 218.760,145.175 218.400,144.618 218.400 C 144.060 218.400,142.567 218.056,141.302 217.636 C 140.036 217.216,137.740 216.760,136.200 216.622 C 134.660 216.485,131.960 216.123,130.200 215.817 C 128.440 215.512,122.680 215.155,117.400 215.025 C 111.014 214.867,107.188 214.603,105.972 214.235 C 104.967 213.931,102.717 213.555,100.972 213.400 C 99.228 213.245,97.425 212.882,96.967 212.593 C 96.508 212.305,95.248 211.938,94.167 211.777 C 93.085 211.617,91.573 211.152,90.806 210.743 C 90.039 210.334,89.189 210.000,88.917 210.000 C 88.644 210.000,87.652 209.664,86.711 209.254 C 80.777 206.668,75.615 206.063,72.600 207.600 C 71.737 208.040,70.612 208.400,70.099 208.400 C 69.587 208.400,68.462 208.760,67.600 209.200 C 66.738 209.640,65.597 210.000,65.065 210.000 C 64.533 210.000,63.406 210.289,62.562 210.642 C 61.500 211.085,60.832 211.163,60.400 210.893 C 60.055 210.678,59.196 210.375,58.491 210.220 C 56.809 209.851,54.154 206.809,52.252 203.072 C 51.447 201.492,50.251 199.480,49.592 198.600 C 48.934 197.720,48.291 196.707,48.163 196.349 C 48.036 195.991,47.497 195.499,46.966 195.257 C 46.435 195.015,46.000 194.651,46.000 194.448 C 46.000 194.245,45.505 193.881,44.900 193.639 C 41.147 192.142,34.826 185.979,34.786 183.778 C 34.778 183.350,34.514 182.550,34.200 182.000 C 33.207 180.262,33.442 178.096,34.769 176.769 C 35.897 175.641,37.708 175.203,38.168 175.947 C 38.286 176.139,39.078 176.406,39.928 176.542 C 41.902 176.858,49.766 180.858,51.585 182.472 C 52.339 183.140,56.461 185.197,57.051 185.198 C 57.299 185.199,57.719 185.461,57.984 185.780 C 58.249 186.100,59.306 186.475,60.333 186.614 C 61.360 186.753,63.236 187.212,64.502 187.633 C 65.793 188.063,67.907 188.400,69.318 188.400 C 70.700 188.400,72.903 188.679,74.211 189.020 C 75.520 189.361,78.663 189.735,81.195 189.852 C 83.728 189.969,87.545 190.410,89.677 190.832 C 91.809 191.255,94.869 191.601,96.477 191.601 C 98.085 191.602,101.560 191.988,104.200 192.460 C 108.820 193.286,110.194 193.321,140.800 193.382 C 169.710 193.439,172.890 193.510,175.797 194.159 C 178.430 194.747,179.981 194.826,184.597 194.609 C 187.679 194.464,191.446 194.354,192.968 194.365 C 195.550 194.383,195.851 194.291,197.436 192.992 C 198.370 192.226,199.258 191.600,199.410 191.600 C 199.561 191.600,200.219 191.150,200.873 190.600 C 201.527 190.050,202.298 189.600,202.588 189.600 C 202.877 189.600,203.212 189.347,203.330 189.038 C 203.449 188.728,204.096 188.355,204.768 188.207 C 205.441 188.059,206.105 187.754,206.244 187.528 C 206.384 187.303,207.061 186.851,207.749 186.525 C 208.437 186.199,210.440 185.139,212.200 184.169 C 213.960 183.200,216.030 182.116,216.800 181.760 C 217.570 181.405,218.344 180.863,218.520 180.557 C 218.696 180.251,219.120 180.000,219.462 180.000 C 220.062 180.000,221.333 179.094,223.745 176.948 C 225.474 175.409,224.591 174.802,221.974 175.732 C 220.617 176.214,217.869 176.563,213.484 176.811 C 209.918 177.012,205.290 177.288,203.200 177.422 C 198.408 177.731,187.490 176.739,185.800 175.842 C 182.572 174.128,177.344 175.282,173.853 178.478 C 168.433 183.441,163.023 183.523,160.686 178.679 C 160.347 177.975,159.482 176.140,158.764 174.600 C 157.321 171.503,145.369 159.183,141.790 157.102 C 140.230 156.194,138.353 152.705,138.338 150.680 C 138.311 147.239,141.801 145.215,144.926 146.860 M141.138 148.668 C 140.344 148.879,139.861 150.531,140.241 151.734 C 140.548 152.707,144.682 156.887,149.200 160.794 C 157.296 167.796,160.354 171.541,161.616 176.000 C 162.957 180.737,166.936 181.249,171.711 177.300 C 173.373 175.925,174.855 174.800,175.003 174.800 C 175.152 174.800,175.750 174.425,176.332 173.968 C 177.302 173.204,177.831 173.145,182.694 173.249 C 188.824 173.379,188.856 173.363,188.359 170.400 C 188.156 169.190,188.014 166.463,188.044 164.340 C 188.115 159.200,188.845 159.600,179.396 159.600 C 173.436 159.600,170.619 159.438,168.935 159.000 C 167.669 158.670,165.815 158.392,164.816 158.382 C 163.817 158.373,162.280 158.088,161.400 157.750 C 160.520 157.412,159.350 157.046,158.800 156.938 C 157.414 156.666,151.258 153.650,149.800 152.529 C 147.310 150.615,146.952 150.378,145.079 149.402 C 143.215 148.430,142.523 148.301,141.138 148.668 M237.400 150.873 C 235.640 151.043,232.011 151.351,229.335 151.558 C 226.660 151.765,224.091 152.137,223.626 152.386 C 223.162 152.635,221.239 153.013,219.355 153.227 C 217.470 153.442,215.449 153.860,214.864 154.158 C 214.279 154.456,212.540 154.831,211.000 154.992 C 209.460 155.153,207.719 155.533,207.131 155.836 C 206.543 156.140,204.743 156.506,203.131 156.650 C 201.519 156.794,199.714 157.156,199.120 157.456 C 198.526 157.755,197.594 158.000,197.048 158.000 C 192.871 158.000,193.910 174.222,198.138 175.015 C 199.967 175.358,216.357 174.554,217.800 174.050 C 218.460 173.819,220.691 173.450,222.759 173.229 C 226.323 172.848,229.600 171.493,229.600 170.401 C 229.600 170.241,230.141 169.410,230.801 168.555 C 231.462 167.700,232.272 166.648,232.601 166.219 C 232.931 165.789,233.200 165.217,233.200 164.947 C 233.200 164.678,233.514 164.143,233.897 163.760 C 234.281 163.376,234.776 162.702,234.997 162.263 C 235.531 161.203,236.338 160.974,236.652 161.792 C 236.915 162.477,236.653 163.113,235.000 165.800 C 234.458 166.680,233.792 167.895,233.520 168.500 C 233.247 169.105,232.906 169.600,232.760 169.600 C 232.615 169.600,231.719 170.635,230.770 171.900 C 228.753 174.588,223.371 179.892,222.323 180.224 C 221.926 180.351,221.600 180.631,221.600 180.848 C 221.600 181.064,221.060 181.430,220.400 181.660 C 219.740 181.890,219.200 182.229,219.200 182.413 C 219.200 182.597,218.570 182.976,217.800 183.254 C 217.030 183.533,216.400 183.883,216.400 184.032 C 216.400 184.181,215.815 184.538,215.100 184.824 C 214.385 185.111,213.371 185.673,212.846 186.073 C 212.321 186.473,211.584 186.800,211.208 186.800 C 210.832 186.800,210.198 187.160,209.800 187.600 C 209.402 188.040,208.772 188.400,208.400 188.400 C 208.028 188.400,207.398 188.760,207.000 189.200 C 206.602 189.640,206.092 190.000,205.867 190.000 C 205.350 190.000,200.430 193.267,197.800 195.357 C 194.736 197.791,194.301 198.273,189.220 204.863 C 188.769 205.448,188.400 206.099,188.400 206.309 C 188.400 206.520,188.063 207.121,187.652 207.646 C 187.241 208.171,186.779 209.173,186.626 209.872 C 186.474 210.572,186.110 211.343,185.818 211.585 C 185.526 211.828,185.160 212.875,185.005 213.913 C 184.851 214.951,184.471 216.407,184.162 217.149 C 182.652 220.774,183.913 229.776,186.499 233.820 C 187.758 235.789,192.172 240.000,192.977 240.000 C 193.306 240.000,194.256 240.347,195.088 240.770 C 198.253 242.383,221.464 242.216,226.400 240.545 L 228.600 239.800 228.813 237.677 C 228.931 236.510,229.220 235.430,229.457 235.277 C 229.694 235.125,229.980 233.690,230.091 232.090 C 230.223 230.200,230.523 228.927,230.945 228.460 C 231.303 228.065,231.713 226.886,231.856 225.841 C 232.000 224.796,232.368 223.689,232.676 223.381 C 234.147 221.910,233.937 212.638,232.364 209.621 C 230.803 206.625,231.829 201.461,234.300 199.880 C 234.575 199.704,234.800 199.360,234.800 199.114 C 234.800 198.869,235.970 196.928,237.400 194.800 C 238.830 192.672,240.000 190.731,240.000 190.486 C 240.000 190.240,240.251 189.896,240.557 189.720 C 240.863 189.544,241.405 188.770,241.760 188.000 C 242.115 187.230,242.836 185.880,243.363 185.000 C 243.889 184.120,244.991 182.091,245.811 180.492 C 246.632 178.892,247.446 177.495,247.621 177.387 C 247.796 177.279,248.066 176.608,248.221 175.895 C 248.377 175.183,248.841 174.171,249.252 173.646 C 249.663 173.121,250.000 172.306,250.000 171.835 C 250.000 171.364,250.268 170.595,250.596 170.127 C 250.924 169.659,251.392 168.345,251.636 167.207 C 251.880 166.069,252.331 164.657,252.637 164.069 C 252.987 163.399,253.196 161.721,253.198 159.572 L 253.200 156.143 251.396 154.260 C 249.282 152.054,248.719 151.803,245.020 151.412 C 243.490 151.251,241.870 150.994,241.420 150.842 C 240.969 150.689,239.160 150.703,237.400 150.873 M190.414 159.974 C 189.462 161.753,189.909 170.551,191.065 172.780 C 193.044 176.593,194.192 174.139,192.535 169.638 C 192.021 168.242,191.934 166.978,192.116 163.538 C 192.353 159.041,191.674 157.619,190.414 159.974 M259.473 162.564 C 258.205 163.831,258.125 165.032,259.155 167.322 C 259.570 168.245,260.031 169.573,260.180 170.272 C 260.329 170.972,260.710 171.759,261.026 172.021 C 261.342 172.283,261.600 172.794,261.600 173.155 C 261.600 173.516,261.936 174.439,262.347 175.206 C 262.757 175.973,263.219 177.173,263.372 177.872 C 263.526 178.572,263.898 179.350,264.200 179.600 C 264.502 179.850,264.868 180.628,265.014 181.328 C 265.159 182.027,265.536 183.006,265.850 183.502 C 266.164 183.999,266.599 185.342,266.817 186.488 C 267.512 190.152,269.307 193.297,272.400 196.267 C 274.457 198.243,274.973 198.353,276.308 197.100 C 278.602 194.947,285.348 196.390,291.037 200.251 C 292.702 201.381,292.801 201.324,293.767 198.700 C 294.449 196.846,294.446 196.770,293.634 195.500 C 292.537 193.786,290.928 192.000,290.481 192.000 C 290.285 192.000,289.802 191.645,289.409 191.210 C 289.016 190.776,288.313 190.308,287.847 190.170 C 286.584 189.797,283.941 187.951,282.858 186.686 C 281.360 184.935,280.000 182.815,280.000 182.231 C 280.000 181.938,279.731 181.475,279.403 181.202 C 279.074 180.930,278.618 180.011,278.389 179.160 C 277.901 177.346,277.344 176.994,274.445 176.668 C 273.260 176.534,272.000 176.173,271.645 175.866 C 271.290 175.559,270.550 175.193,270.000 175.053 C 268.098 174.570,266.103 172.542,266.818 171.819 C 267.377 171.252,267.563 171.287,268.795 172.197 C 269.543 172.748,270.398 173.200,270.694 173.200 C 270.990 173.200,271.900 173.535,272.716 173.944 C 273.728 174.451,275.494 174.763,278.268 174.925 C 280.506 175.056,282.974 175.429,283.753 175.755 C 284.532 176.080,286.031 176.468,287.085 176.617 C 288.138 176.765,289.379 177.124,289.842 177.414 C 290.304 177.704,291.381 178.073,292.233 178.233 C 293.086 178.393,294.327 178.855,294.992 179.260 C 295.656 179.665,296.470 180.001,296.800 180.006 C 297.130 180.011,298.174 180.539,299.119 181.180 C 300.939 182.413,302.957 182.300,303.480 180.935 C 303.599 180.624,304.215 180.102,304.848 179.775 C 306.183 179.085,306.466 177.321,305.300 176.955 C 304.245 176.623,303.170 176.087,301.400 175.011 C 299.726 173.993,299.305 173.789,297.500 173.114 C 296.895 172.888,296.400 172.545,296.400 172.351 C 296.400 172.158,296.175 172.000,295.900 172.000 C 295.447 172.000,290.047 169.501,286.321 167.568 C 285.507 167.145,284.605 166.800,284.315 166.800 C 284.025 166.800,283.160 166.463,282.392 166.052 C 281.624 165.640,280.187 165.169,279.198 165.004 C 278.209 164.840,276.939 164.469,276.375 164.181 C 275.811 163.893,274.191 163.531,272.775 163.378 C 271.359 163.224,269.570 162.839,268.800 162.522 C 265.880 161.319,260.694 161.342,259.473 162.564 M326.200 169.870 C 322.782 170.296,322.260 170.916,324.753 171.587 C 325.608 171.818,326.530 172.274,326.802 172.603 C 327.075 172.931,327.501 173.201,327.749 173.203 C 331.642 173.225,336.679 186.017,334.093 189.315 C 333.884 189.582,333.596 190.415,333.453 191.167 C 333.140 192.816,331.241 196.800,330.768 196.800 C 330.583 196.800,330.239 197.512,330.005 198.383 C 329.770 199.254,329.403 200.074,329.189 200.207 C 327.548 201.221,329.165 203.182,331.653 203.195 C 332.371 203.198,333.168 203.711,334.152 204.800 C 335.623 206.428,338.703 207.128,339.404 205.994 C 339.541 205.771,340.317 205.249,341.127 204.833 C 341.937 204.418,343.140 203.321,343.800 202.396 C 344.460 201.471,345.302 200.386,345.671 199.986 C 348.162 197.284,348.541 187.327,346.332 182.600 C 345.020 179.793,344.085 178.506,341.502 175.959 C 337.847 172.354,337.615 172.165,336.400 171.803 C 335.850 171.639,335.104 171.246,334.741 170.928 C 334.379 170.611,332.939 170.186,331.541 169.984 C 328.972 169.612,328.368 169.599,326.200 169.870 M318.006 174.423 C 317.240 174.850,316.368 175.200,316.069 175.200 C 315.771 175.200,315.069 175.560,314.509 176.000 C 313.950 176.440,313.259 176.800,312.975 176.800 C 312.690 176.800,312.219 177.029,311.929 177.308 C 311.638 177.588,310.500 178.390,309.400 179.090 C 306.810 180.739,302.708 184.839,301.680 186.805 C 301.395 187.352,300.894 188.286,300.568 188.881 C 299.478 190.868,299.684 195.530,300.944 197.370 C 302.095 199.051,302.129 199.723,301.072 199.928 C 300.376 200.063,298.593 198.308,298.177 197.078 C 297.785 195.921,297.085 196.507,296.363 198.595 C 295.501 201.090,297.809 204.800,300.224 204.800 C 300.481 204.800,301.136 205.149,301.678 205.575 C 302.220 206.002,303.189 206.479,303.832 206.636 C 304.474 206.793,305.429 207.255,305.954 207.661 C 306.479 208.067,307.381 208.400,307.960 208.400 C 308.538 208.400,309.639 208.734,310.406 209.141 C 311.173 209.549,312.970 210.010,314.400 210.166 C 317.991 210.557,318.800 210.795,318.800 211.464 C 318.800 212.316,312.318 211.779,310.288 210.760 C 309.456 210.342,308.306 210.000,307.731 210.000 C 307.157 210.000,305.948 209.665,305.044 209.256 C 301.752 207.765,300.713 207.555,299.967 208.230 C 299.055 209.056,298.779 210.684,299.456 211.246 C 299.755 211.495,300.000 211.908,300.000 212.165 C 300.000 212.423,300.675 213.266,301.500 214.040 C 303.591 216.002,304.663 217.605,305.189 219.559 C 305.523 220.798,305.922 221.342,306.719 221.645 C 307.313 221.871,308.099 222.328,308.467 222.660 C 309.680 223.758,312.874 223.583,313.204 222.400 C 313.598 220.983,315.201 218.733,317.552 216.297 C 319.428 214.352,319.558 214.091,319.337 212.700 C 319.111 211.280,319.155 211.200,320.171 211.200 C 323.900 211.200,326.049 208.538,326.534 203.319 C 326.790 200.573,327.600 198.449,329.340 195.964 C 329.703 195.446,330.000 194.785,330.000 194.495 C 330.000 194.205,330.345 193.480,330.767 192.884 C 331.999 191.143,332.563 185.631,331.849 182.299 C 331.120 178.900,328.652 175.819,326.000 175.001 C 325.450 174.831,324.645 174.446,324.211 174.146 C 323.061 173.350,319.658 173.502,318.006 174.423 M280.300 178.213 C 280.183 178.822,280.382 179.581,280.798 180.113 C 281.179 180.601,281.624 181.428,281.788 181.950 C 282.220 183.328,286.964 187.927,288.280 188.245 C 289.534 188.547,289.560 188.566,293.274 192.003 L 295.948 194.477 296.919 192.538 C 297.454 191.472,298.009 189.948,298.154 189.151 C 298.299 188.355,298.773 187.292,299.208 186.790 C 300.820 184.932,298.026 181.600,294.855 181.600 C 294.439 181.600,293.878 181.335,293.609 181.011 C 293.340 180.686,292.463 180.317,291.660 180.190 C 290.857 180.063,289.430 179.609,288.489 179.180 C 287.548 178.751,286.198 178.392,285.489 178.382 C 284.780 178.373,283.480 178.105,282.600 177.788 C 280.511 177.036,280.525 177.034,280.300 178.213 M36.651 178.744 C 35.148 180.404,37.367 185.214,41.066 188.316 C 43.295 190.185,45.301 191.600,45.722 191.600 C 46.606 191.600,50.043 195.014,51.656 197.494 C 54.195 201.397,54.352 201.661,55.031 203.141 C 57.368 208.242,62.279 210.094,66.491 207.463 C 66.991 207.150,68.188 206.777,69.151 206.634 C 70.114 206.491,71.279 206.110,71.740 205.787 C 72.304 205.392,73.604 205.200,75.715 205.200 C 80.190 205.200,80.281 205.118,80.300 201.079 C 80.309 198.957,80.530 197.297,80.901 196.562 C 82.888 192.621,82.217 191.754,76.996 191.515 C 74.794 191.414,72.560 191.100,72.032 190.817 C 71.504 190.535,69.526 190.211,67.636 190.098 C 65.437 189.966,63.666 189.624,62.716 189.146 C 61.900 188.736,60.637 188.400,59.910 188.400 C 59.183 188.400,57.961 188.065,57.194 187.656 C 56.427 187.247,55.360 186.774,54.823 186.604 C 54.285 186.435,53.025 185.731,52.023 185.039 C 51.020 184.348,49.750 183.552,49.200 183.272 C 48.650 182.991,47.480 182.321,46.600 181.784 C 45.720 181.246,44.370 180.517,43.600 180.163 C 42.830 179.810,41.930 179.290,41.600 179.009 C 40.461 178.038,37.436 177.877,36.651 178.744 M348.535 182.025 C 348.045 182.515,348.490 184.457,349.339 185.539 C 350.093 186.499,349.910 195.200,349.104 196.673 C 348.537 197.708,348.384 199.203,348.281 204.673 C 348.188 209.605,347.991 211.774,347.542 212.800 C 346.403 215.405,347.434 221.911,349.271 223.716 C 349.672 224.109,350.001 224.649,350.002 224.916 C 350.004 225.182,350.295 225.940,350.649 226.600 C 351.003 227.260,351.437 229.150,351.613 230.800 C 352.418 238.325,357.029 241.010,361.369 236.481 C 363.542 234.215,364.426 229.976,363.663 225.488 C 363.431 224.120,363.146 222.280,363.031 221.400 C 362.915 220.520,362.546 218.816,362.210 217.613 C 361.809 216.173,361.586 213.508,361.560 209.813 C 361.493 200.513,360.275 189.891,359.114 188.500 C 358.831 188.161,358.420 187.476,358.200 186.978 C 357.763 185.988,354.585 183.200,353.894 183.200 C 353.657 183.200,353.179 182.950,352.831 182.644 C 351.940 181.858,349.109 181.451,348.535 182.025 M85.043 193.013 C 84.627 193.320,84.125 193.625,83.927 193.691 C 83.248 193.917,81.858 201.981,82.333 202.935 C 82.570 203.411,83.042 204.497,83.382 205.349 C 84.422 207.955,85.200 206.693,85.200 202.401 C 85.200 200.245,85.440 198.229,85.824 197.150 C 86.963 193.955,86.572 191.884,85.043 193.013 M89.471 194.093 C 87.266 196.298,87.310 207.195,89.528 208.061 C 90.117 208.292,91.370 208.822,92.311 209.240 C 93.252 209.658,94.550 210.000,95.196 210.000 C 95.842 210.000,97.284 210.360,98.400 210.800 C 99.560 211.257,101.409 211.607,102.715 211.616 C 103.972 211.625,106.350 211.901,108.000 212.229 C 109.836 212.595,115.269 212.962,122.000 213.176 C 129.823 213.424,133.462 213.692,134.600 214.103 C 135.480 214.421,137.441 214.805,138.958 214.958 C 140.475 215.110,142.095 215.438,142.558 215.686 C 143.021 215.935,144.390 216.364,145.600 216.639 C 146.810 216.914,148.520 217.415,149.400 217.752 C 150.280 218.089,151.385 218.373,151.856 218.382 C 152.327 218.392,153.497 218.756,154.456 219.191 C 155.415 219.626,156.701 219.986,157.313 219.991 C 157.925 219.996,159.095 220.284,159.913 220.631 C 160.731 220.978,163.094 221.426,165.164 221.627 C 167.234 221.827,169.304 222.235,169.764 222.533 C 170.224 222.831,171.568 223.187,172.751 223.324 C 173.933 223.462,175.283 223.823,175.751 224.127 C 176.218 224.431,177.269 224.804,178.087 224.955 C 178.905 225.107,179.866 225.524,180.223 225.881 C 181.253 226.910,181.585 225.888,181.611 221.600 C 181.626 219.200,181.861 217.211,182.249 216.200 C 182.586 215.320,182.997 213.967,183.160 213.194 C 183.324 212.421,183.742 211.341,184.090 210.794 C 184.437 210.247,184.841 209.227,184.986 208.528 C 185.132 207.828,185.510 207.041,185.826 206.779 C 186.142 206.517,186.403 206.099,186.407 205.851 C 186.420 205.076,188.398 202.305,191.233 199.092 C 193.443 196.588,193.770 196.690,183.306 196.605 C 176.575 196.550,173.251 196.350,170.563 195.836 C 166.243 195.009,150.381 195.098,139.183 196.010 C 133.363 196.484,131.482 196.469,123.583 195.885 C 118.642 195.520,111.990 195.113,108.800 194.981 C 105.610 194.850,101.920 194.498,100.600 194.199 C 95.629 193.074,90.538 193.025,89.471 194.093 M265.044 197.208 C 263.748 197.864,262.377 198.400,261.998 198.400 C 261.618 198.400,260.850 198.760,260.291 199.200 C 259.731 199.640,258.940 200.000,258.531 200.000 C 258.122 200.000,257.161 200.332,256.394 200.738 C 255.627 201.143,254.370 201.594,253.600 201.739 C 252.380 201.969,251.329 202.378,248.800 203.609 C 248.309 203.848,248.224 204.689,248.332 208.251 C 248.404 210.643,248.165 216.019,247.800 220.198 C 247.114 228.054,247.512 239.828,248.507 241.100 C 248.906 241.611,276.786 241.881,277.288 241.379 C 277.409 241.257,277.259 240.329,276.954 239.315 C 276.093 236.454,276.446 229.141,277.477 228.459 C 277.693 228.317,278.064 227.629,278.303 226.932 C 278.541 226.235,279.065 225.299,279.468 224.853 C 281.904 222.155,282.504 221.600,282.982 221.600 C 283.275 221.600,283.618 221.330,283.745 221.000 C 283.919 220.545,284.659 220.400,286.811 220.400 C 290.195 220.400,290.196 220.984,286.813 221.367 C 285.050 221.566,284.300 221.840,284.004 222.392 C 283.782 222.807,283.260 223.254,282.843 223.386 C 282.427 223.518,281.865 224.161,281.594 224.813 C 281.324 225.466,280.959 226.000,280.782 226.000 C 280.606 226.000,280.242 226.675,279.974 227.500 C 279.706 228.325,279.242 229.355,278.943 229.789 C 277.931 231.260,278.226 236.408,279.415 238.022 C 282.213 241.823,283.032 242.032,293.847 241.707 C 301.111 241.488,301.582 241.520,303.273 242.338 C 304.252 242.812,305.331 243.200,305.672 243.200 C 306.013 243.200,306.721 243.535,307.246 243.945 C 307.771 244.355,308.650 244.829,309.200 245.000 C 309.750 245.171,310.629 245.645,311.154 246.055 C 311.679 246.465,312.521 246.800,313.025 246.800 C 313.530 246.800,314.223 247.080,314.566 247.423 C 314.909 247.766,316.085 248.188,317.179 248.361 C 318.273 248.534,319.425 248.889,319.740 249.150 C 320.055 249.411,321.768 249.791,323.548 249.994 C 325.328 250.197,327.192 250.596,327.692 250.882 C 329.220 251.754,345.042 251.602,346.600 250.700 C 347.260 250.318,348.091 250.004,348.447 250.002 C 348.802 250.001,350.045 249.129,351.209 248.065 C 354.900 244.689,354.321 240.774,349.800 238.539 C 348.654 237.972,347.188 237.100,344.589 235.441 C 341.358 233.378,340.555 230.386,342.420 227.367 C 343.786 225.158,343.878 216.713,342.556 214.926 C 342.092 214.298,341.591 213.403,341.443 212.936 C 341.149 212.010,339.478 211.482,338.845 212.115 C 338.583 212.377,338.716 212.730,339.235 213.156 C 340.689 214.347,340.657 219.600,339.196 219.600 C 338.990 219.600,338.551 219.080,338.222 218.443 C 337.893 217.807,337.098 217.103,336.455 216.879 C 335.628 216.591,335.147 216.052,334.812 215.036 C 333.914 212.315,332.944 214.103,333.553 217.358 C 333.880 219.109,333.843 219.231,332.849 219.706 C 332.141 220.043,331.757 220.583,331.667 221.367 C 331.366 224.004,327.600 227.037,327.600 224.643 C 327.600 224.336,327.330 223.982,327.000 223.855 C 326.670 223.729,326.400 223.416,326.400 223.160 C 326.400 222.302,323.541 219.952,322.653 220.079 C 321.676 220.219,321.217 221.600,322.148 221.600 C 322.482 221.600,322.990 221.927,323.277 222.326 C 323.565 222.726,324.541 223.491,325.447 224.026 C 326.958 224.920,330.000 228.342,330.000 229.149 C 330.000 229.938,332.170 231.600,333.201 231.600 C 333.801 231.600,334.721 231.922,335.246 232.316 C 335.771 232.710,336.671 233.235,337.247 233.483 C 338.420 233.989,339.032 235.825,338.142 236.167 C 337.845 236.281,336.752 235.795,335.712 235.087 C 333.005 233.243,329.699 232.503,326.281 232.976 C 322.838 233.453,320.173 232.668,316.299 230.035 C 311.347 226.670,311.003 226.426,310.397 225.843 C 310.065 225.524,309.307 225.142,308.713 224.993 C 308.119 224.844,307.423 224.469,307.167 224.161 C 306.911 223.852,306.421 223.600,306.077 223.600 C 305.734 223.600,304.721 223.252,303.826 222.826 C 301.550 221.742,297.601 220.811,296.347 221.063 C 295.768 221.180,295.172 221.078,295.023 220.838 C 294.860 220.574,295.085 220.400,295.589 220.400 C 299.403 220.400,292.223 214.019,287.691 213.380 C 286.651 213.233,285.401 212.863,284.914 212.557 C 284.427 212.250,283.797 211.999,283.514 211.998 C 280.019 211.988,274.505 206.570,273.811 202.465 C 273.615 201.302,273.005 200.408,271.258 198.722 C 268.288 195.854,267.905 195.760,265.044 197.208 M277.725 198.687 C 274.779 200.728,276.686 206.696,280.833 208.414 C 281.475 208.680,282.000 209.047,282.000 209.230 C 282.000 209.414,282.675 209.676,283.500 209.813 C 284.325 209.950,285.843 210.408,286.874 210.831 C 287.905 211.254,289.186 211.600,289.720 211.600 C 290.255 211.600,291.121 211.935,291.646 212.345 C 292.171 212.755,292.965 213.204,293.410 213.343 C 293.856 213.483,294.846 214.192,295.610 214.920 C 297.625 216.838,300.517 218.422,301.217 217.990 C 301.676 217.706,301.520 217.375,300.431 216.318 C 297.010 212.996,295.838 209.820,297.440 208.217 C 298.906 206.752,296.256 203.966,292.956 203.501 C 292.100 203.381,290.590 202.806,289.600 202.225 C 288.610 201.644,287.530 201.009,287.200 200.816 C 283.918 198.890,279.020 197.790,277.725 198.687 M234.500 203.434 C 232.878 204.143,232.578 207.501,233.977 209.280 C 234.404 209.823,234.963 211.472,235.220 212.945 C 235.675 215.558,235.621 216.288,234.541 222.100 C 234.428 222.705,234.102 223.200,233.815 223.200 C 233.457 223.200,233.242 224.009,233.129 225.777 C 233.029 227.343,232.718 228.638,232.335 229.077 C 231.989 229.475,231.601 230.876,231.472 232.191 C 231.336 233.589,230.997 234.759,230.656 235.008 C 229.428 235.906,229.375 239.134,230.582 239.593 C 235.049 241.292,236.223 240.134,236.722 233.534 C 236.949 230.528,237.329 227.706,237.567 227.262 C 237.805 226.818,238.161 225.137,238.360 223.527 C 238.558 221.917,239.001 219.880,239.343 219.000 C 239.992 217.329,240.270 207.852,239.747 205.233 C 239.319 203.094,237.053 202.317,234.500 203.434 M241.833 203.547 C 241.715 203.738,241.623 207.420,241.628 211.730 C 241.637 218.330,241.532 219.771,240.960 220.877 C 240.587 221.599,240.134 223.647,239.953 225.427 C 239.773 227.208,239.349 229.723,239.013 231.017 C 238.258 233.913,238.188 239.734,238.900 240.298 C 239.902 241.091,244.372 241.199,244.779 240.440 C 244.981 240.063,245.192 234.364,245.249 227.777 C 245.436 206.220,245.407 204.531,244.832 203.839 C 244.271 203.162,242.195 202.961,241.833 203.547 M344.131 205.330 C 343.213 206.249,341.886 207.437,341.183 207.970 C 339.972 208.889,339.944 208.968,340.652 209.465 C 342.116 210.491,343.091 211.449,343.556 212.318 C 344.566 214.205,346.225 211.569,346.630 207.434 C 346.993 203.725,346.310 203.150,344.131 205.330 M328.480 205.680 C 328.216 205.944,328.000 206.515,328.000 206.949 C 328.000 207.382,327.712 208.055,327.361 208.443 C 325.578 210.414,329.577 210.485,331.544 208.518 L 332.705 207.357 331.919 206.278 C 331.074 205.118,329.343 204.817,328.480 205.680 M335.228 209.500 C 335.296 211.181,335.830 211.864,336.337 210.917 C 337.034 209.616,336.904 208.800,336.000 208.800 C 335.494 208.800,335.210 209.057,335.228 209.500 M326.964 211.958 C 326.764 212.138,325.633 212.591,324.451 212.966 C 320.556 214.202,318.569 216.400,321.346 216.400 C 322.086 216.400,323.150 216.760,323.709 217.200 C 324.269 217.640,324.882 218.000,325.073 218.000 C 325.264 218.000,326.192 218.821,327.137 219.824 C 328.081 220.828,329.066 221.579,329.327 221.493 C 330.044 221.258,330.147 217.971,329.480 216.600 C 329.159 215.940,328.663 214.626,328.377 213.680 C 327.814 211.810,327.523 211.457,326.964 211.958 M316.591 219.700 C 316.251 220.415,315.558 221.720,315.053 222.600 C 313.775 224.824,314.132 225.623,317.400 227.847 C 320.797 230.159,328.000 231.049,328.000 229.157 C 328.000 228.687,323.065 223.815,321.471 222.710 C 320.924 222.330,319.963 221.212,319.338 220.224 C 317.977 218.078,317.415 217.971,316.591 219.700 M345.405 225.500 C 345.278 226.325,344.820 227.666,344.387 228.479 C 343.259 230.599,343.360 230.933,345.735 232.962 C 349.512 236.189,351.170 234.133,348.994 228.924 C 348.667 228.142,348.400 227.156,348.400 226.732 C 348.400 225.990,346.623 224.000,345.960 224.000 C 345.782 224.000,345.532 224.675,345.405 225.500 " stroke="none" fill="#fdf3dd" fill-rule="evenodd"></path></g></svg>