<svg id="svg" version="1.1" xmlns="http://www.w3.org/2000/svg" xmlns:xlink="http://www.w3.org/1999/xlink" width="400" height="400" viewBox="0, 0, 400,400"><g id="svgg"><path id="path0" d="M0.000 200.000 L 0.000 400.000 200.000 400.000 L 400.000 400.000 400.000 200.000 L 400.000 0.000 200.000 0.000 L 0.000 0.000 0.000 200.000 M138.226 11.714 C 141.797 13.814,150.106 20.865,152.704 24.000 C 159.420 32.105,161.622 34.592,169.168 42.600 C 185.518 59.950,189.641 65.273,199.000 81.108 C 203.191 88.199,202.639 87.831,204.400 84.711 C 212.473 70.408,231.947 68.796,241.810 81.613 C 244.760 85.447,246.121 88.779,246.325 92.668 C 246.528 96.518,247.453 97.962,251.391 100.577 C 254.911 102.913,255.309 104.680,252.696 106.368 L 251.192 107.339 251.996 108.196 C 252.973 109.236,253.009 109.906,252.138 110.869 C 251.522 111.549,251.522 111.651,252.138 112.331 C 253.012 113.297,252.978 113.626,251.831 115.316 C 250.908 116.677,250.884 116.869,251.317 119.400 C 252.323 125.271,248.051 126.539,239.295 122.969 L 237.990 122.437 236.395 125.610 C 232.741 132.878,235.604 138.654,246.600 146.193 C 267.603 160.594,270.292 164.586,270.103 181.086 C 270.031 187.361,270.159 190.306,270.597 192.385 C 273.547 206.407,270.451 223.295,261.543 241.771 C 260.914 243.075,260.400 244.267,260.400 244.420 C 260.400 244.573,263.685 244.817,267.700 244.962 C 324.626 247.024,345.238 251.549,349.010 262.813 C 351.687 270.803,345.824 298.676,334.237 333.049 C 329.660 346.628,327.525 359.394,329.126 363.606 C 330.922 368.329,348.057 377.828,357.983 379.603 C 363.348 380.563,365.722 383.135,363.788 385.895 C 362.811 387.291,360.965 387.557,354.920 387.175 C 336.779 386.028,333.072 385.907,326.000 386.234 C 311.300 386.912,308.750 386.695,305.470 384.482 C 301.480 381.790,301.178 377.141,304.523 369.898 C 307.503 363.444,308.955 358.403,310.366 349.611 C 310.855 346.563,311.443 344.252,311.888 343.623 C 312.563 342.670,312.621 341.072,312.734 320.200 C 312.884 292.307,313.427 288.655,318.478 281.500 L 319.254 280.400 317.270 280.400 C 313.745 280.400,307.184 281.192,299.200 282.582 C 271.231 287.449,243.306 288.169,227.200 284.437 C 224.407 283.790,224.381 283.800,219.760 287.339 C 191.414 309.051,159.544 323.418,128.192 328.620 C 121.454 329.738,116.994 330.895,106.800 334.169 C 100.669 336.138,92.327 338.572,73.600 343.857 C 63.149 346.806,58.440 348.457,56.704 349.781 C 55.767 350.495,54.431 351.373,53.735 351.732 C 49.590 353.870,50.030 357.499,55.335 364.928 C 59.761 371.126,62.449 372.635,70.023 373.172 C 76.628 373.640,78.718 374.797,77.780 377.465 C 76.698 380.540,71.611 382.015,61.130 382.293 C 45.722 382.700,43.808 381.903,34.859 371.344 C 33.527 369.773,31.132 367.343,29.535 365.944 C 18.650 356.406,17.715 350.420,26.440 346.128 C 29.018 344.860,38.375 339.850,52.800 332.012 C 58.007 329.182,68.295 323.370,74.400 319.808 C 86.744 312.606,95.667 309.286,106.680 307.794 C 133.047 304.223,171.343 279.578,182.688 258.880 C 185.153 254.384,186.766 254.916,184.466 259.466 C 174.249 279.679,135.115 305.247,108.047 309.393 C 93.605 311.605,88.737 313.589,67.189 326.042 C 63.994 327.889,59.542 330.390,57.297 331.600 C 52.850 333.997,52.854 333.991,53.956 335.538 C 55.485 337.687,58.080 343.226,58.289 344.790 C 58.408 345.675,58.596 346.400,58.707 346.400 C 58.819 346.400,61.180 345.697,63.955 344.839 C 66.730 343.980,71.250 342.641,74.000 341.863 C 93.604 336.320,102.348 333.753,108.800 331.648 C 117.280 328.882,120.658 328.046,129.153 326.608 C 140.404 324.704,147.636 322.919,155.626 320.073 C 178.519 311.921,198.464 301.065,219.695 285.200 C 222.202 283.327,222.129 283.176,218.090 281.878 C 199.173 275.795,186.295 260.262,188.411 246.079 C 189.997 235.450,196.138 228.821,209.000 223.855 C 219.947 219.628,222.473 214.404,219.875 201.359 C 217.037 187.107,218.901 181.838,229.304 174.709 C 244.576 164.242,244.101 155.181,227.104 132.745 C 218.750 121.717,214.992 115.581,207.916 101.416 C 202.533 90.640,202.983 91.233,201.608 93.104 C 198.894 96.797,198.561 96.893,190.800 96.200 C 188.975 96.037,187.369 96.098,186.701 96.356 L 185.601 96.780 186.657 99.090 C 188.641 103.429,191.572 112.646,192.425 117.226 C 193.307 121.962,195.325 130.255,197.870 139.600 C 200.624 149.718,199.860 157.916,195.501 165.000 C 193.063 168.963,192.715 168.775,192.159 163.200 C 191.028 151.851,188.217 143.874,182.042 134.489 C 172.797 120.437,172.680 105.235,181.758 97.287 L 183.258 95.973 181.353 92.487 C 180.305 90.569,178.997 88.173,178.447 87.163 C 177.680 85.754,176.929 85.056,175.224 84.169 C 169.508 81.194,166.830 77.365,156.528 57.432 C 148.467 41.836,147.848 41.202,140.674 41.198 C 135.924 41.195,134.155 40.683,132.350 38.791 C 130.148 36.483,128.976 32.314,129.994 30.412 C 130.322 29.799,129.804 29.056,126.877 25.938 C 121.412 20.117,120.570 18.553,122.183 17.214 C 122.568 16.895,122.687 16.334,122.533 15.566 C 122.217 13.986,122.971 13.200,124.800 13.200 C 125.647 13.200,126.519 12.938,126.800 12.600 C 127.701 11.515,129.048 11.966,132.770 14.600 C 136.672 17.362,137.444 17.753,136.120 16.300 C 133.127 13.014,134.681 9.630,138.226 11.714 M136.400 13.504 C 136.400 13.672,137.750 15.372,139.400 17.282 C 142.383 20.737,142.918 21.826,141.831 22.243 C 141.039 22.547,140.139 22.022,134.124 17.749 C 126.512 12.340,125.696 12.839,132.723 18.606 C 134.771 20.286,136.376 21.872,136.290 22.131 C 135.921 23.238,134.675 22.653,131.150 19.716 C 124.828 14.451,124.400 14.175,124.400 15.368 C 124.400 15.681,126.380 17.781,128.800 20.036 C 131.220 22.290,133.200 24.290,133.200 24.480 C 133.200 25.716,131.616 24.929,127.817 21.804 C 122.344 17.304,122.255 18.249,127.609 24.010 C 131.428 28.119,131.670 28.305,132.709 27.923 C 135.259 26.986,137.758 30.070,137.786 34.189 C 137.806 37.010,137.022 36.972,134.185 34.019 C 131.541 31.266,131.025 31.058,131.403 32.900 C 132.403 37.775,134.259 39.196,139.627 39.199 C 148.606 39.202,149.881 40.422,158.516 57.262 C 166.939 73.689,169.713 78.088,173.417 80.894 C 175.920 82.790,176.469 82.834,175.972 81.103 C 174.239 75.061,179.008 70.213,183.641 73.308 C 188.168 76.332,186.754 84.622,181.569 85.451 C 179.591 85.768,179.553 85.530,182.428 90.722 L 184.855 95.105 186.691 94.553 C 189.002 93.857,190.763 93.863,193.789 94.574 C 196.969 95.322,198.243 94.796,200.166 91.940 C 201.953 89.287,202.123 90.132,198.552 83.911 C 189.827 68.712,184.065 61.081,170.230 46.400 C 160.728 36.317,156.498 31.605,152.997 27.200 C 148.395 21.411,136.400 11.513,136.400 13.504 M133.212 29.871 C 133.227 30.312,135.614 32.920,135.817 32.717 C 136.170 32.363,134.552 29.793,133.900 29.672 C 133.515 29.600,133.205 29.690,133.212 29.871 M179.114 74.621 C 176.002 76.310,177.467 84.611,180.735 83.808 C 183.380 83.158,184.400 81.694,184.400 78.548 C 184.400 74.986,181.885 73.118,179.114 74.621 M218.542 75.454 C 213.364 76.682,208.371 80.961,205.246 86.849 L 203.892 89.400 208.904 99.414 C 216.583 114.753,219.657 119.786,228.771 131.929 C 246.255 155.224,246.517 165.381,229.920 176.532 C 220.905 182.590,218.911 188.060,221.438 199.800 C 224.596 214.467,221.540 221.304,209.989 225.417 C 178.681 236.567,186.319 272.426,221.875 281.225 L 223.951 281.739 226.275 279.835 C 238.359 269.942,256.800 249.995,256.800 246.818 C 256.800 246.547,254.797 246.400,251.100 246.399 C 232.491 246.395,216.547 239.720,211.058 229.635 C 209.446 226.673,210.585 225.883,212.483 228.647 C 219.840 239.358,233.569 244.800,253.237 244.800 L 257.990 244.800 259.446 241.910 C 268.006 224.911,271.545 207.130,269.022 193.800 C 268.594 191.544,268.413 187.927,268.408 181.542 C 268.394 166.049,265.776 161.762,249.336 150.310 C 233.184 139.059,230.221 133.907,234.738 124.924 L 236.366 121.685 234.719 120.544 C 233.167 119.468,230.801 115.562,230.800 114.073 C 230.800 113.698,230.540 113.639,229.900 113.866 C 223.797 116.035,216.073 105.058,221.667 102.165 C 222.592 101.687,223.717 101.622,227.332 101.838 L 231.842 102.108 234.577 96.632 C 237.643 90.491,238.816 89.235,241.803 88.899 C 243.987 88.652,244.006 88.416,242.100 85.265 C 236.953 76.756,228.280 73.144,218.542 75.454 M241.000 90.968 C 238.982 91.859,233.405 101.200,234.890 101.200 C 237.204 101.200,244.788 94.598,244.798 92.576 C 244.805 91.074,242.740 90.199,241.000 90.968 M243.776 97.626 C 242.538 98.994,237.735 102.014,235.292 102.960 C 232.470 104.053,232.157 104.921,234.268 105.803 C 238.715 107.661,239.827 110.882,239.098 119.792 C 239.001 120.970,239.043 120.997,242.800 122.085 C 248.412 123.710,250.401 123.357,249.837 120.837 C 249.066 117.392,249.091 116.065,249.948 114.976 C 251.092 113.521,251.050 113.402,249.200 112.847 C 247.195 112.247,246.971 111.002,248.795 110.601 C 250.387 110.251,250.578 109.825,249.763 108.445 C 248.896 106.977,249.212 106.172,250.988 105.325 C 252.894 104.416,252.776 103.903,250.225 102.018 C 247.874 100.282,245.200 97.685,245.200 97.139 C 245.200 96.549,244.550 96.771,243.776 97.626 M182.179 99.500 C 174.590 107.302,175.113 120.960,183.480 133.400 C 189.236 141.959,192.537 150.806,193.814 161.100 C 194.168 163.950,194.523 163.758,196.035 159.900 C 197.162 157.024,197.352 155.994,197.514 151.888 C 197.751 145.860,197.715 145.672,193.335 130.000 C 192.812 128.130,191.925 124.080,191.363 121.000 C 189.813 112.499,185.122 98.008,183.919 98.001 C 183.765 98.001,182.982 98.675,182.179 99.500 M222.800 103.716 C 219.803 105.286,224.111 112.400,228.059 112.400 C 229.598 112.400,229.495 111.860,227.700 110.523 C 224.616 108.224,224.972 106.341,228.667 105.402 C 231.437 104.699,231.243 104.139,228.117 103.818 C 226.623 103.665,225.040 103.461,224.600 103.366 C 224.160 103.271,223.350 103.428,222.800 103.716 M228.500 107.214 C 227.328 107.683,227.363 108.153,228.635 108.986 C 229.847 109.780,229.899 109.754,230.070 108.239 C 230.216 106.943,229.820 106.685,228.500 107.214 M232.081 110.300 C 232.429 116.184,236.631 122.411,237.343 118.100 C 238.127 113.357,237.118 109.470,234.723 108.010 C 232.210 106.477,231.872 106.770,232.081 110.300 M258.082 248.384 C 254.003 255.420,241.624 269.073,231.199 278.034 C 228.140 280.664,226.576 282.259,226.897 282.424 C 227.591 282.783,234.999 283.922,239.600 284.378 C 255.317 285.936,277.405 284.702,296.400 281.206 C 303.659 279.870,310.918 278.936,316.800 278.580 C 320.583 278.352,321.167 278.210,322.681 277.152 C 327.063 274.091,333.553 274.122,335.207 277.213 C 336.240 279.143,333.694 279.935,326.329 279.976 L 322.058 280.000 320.849 281.467 C 315.508 287.947,314.144 295.256,314.589 315.000 C 314.756 322.359,314.694 329.578,314.430 333.667 C 313.890 342.035,313.570 341.395,318.304 341.422 C 322.244 341.444,325.985 342.241,327.935 343.473 C 329.085 344.200,328.827 344.646,330.394 339.217 C 331.122 336.696,332.236 333.210,332.871 331.471 C 336.320 322.019,343.877 294.613,346.347 282.596 C 348.173 273.712,348.437 265.982,347.028 262.690 C 342.844 252.920,316.642 247.841,264.467 246.687 L 259.135 246.569 258.082 248.384 M327.050 276.988 C 325.176 277.656,324.046 278.647,325.600 278.260 C 326.150 278.123,327.995 278.008,329.700 278.005 C 332.966 278.000,333.641 277.572,331.540 276.839 C 329.920 276.274,328.962 276.306,327.050 276.988 M45.800 337.866 C 44.040 338.864,38.320 341.934,33.089 344.688 C 23.031 349.983,22.659 350.282,22.701 353.049 C 22.753 356.473,24.857 359.616,29.665 363.452 C 31.144 364.632,33.922 367.443,35.840 369.699 C 45.072 380.561,47.605 381.558,63.250 380.491 C 77.410 379.526,81.218 375.654,68.804 374.844 C 61.273 374.353,58.884 372.915,53.780 365.800 C 47.741 357.380,47.534 353.482,52.947 350.063 C 56.080 348.085,55.980 348.469,54.028 345.883 C 52.087 343.312,50.502 339.956,50.165 337.703 C 49.851 335.615,49.764 335.618,45.800 337.866 M51.849 337.100 C 52.689 340.606,55.349 345.600,56.375 345.600 C 56.982 345.600,56.191 343.458,54.158 339.603 C 52.262 336.008,51.349 335.018,51.849 337.100 M316.800 343.149 L 315.800 343.442 316.807 344.106 C 319.341 345.777,328.000 347.294,328.000 346.067 C 328.000 344.618,319.418 342.382,316.800 343.149 M313.005 345.300 C 312.890 345.795,312.339 348.720,311.780 351.800 C 310.130 360.894,309.001 364.657,305.899 371.400 C 300.716 382.665,304.758 385.657,323.553 384.469 C 330.201 384.049,341.736 384.348,351.200 385.186 C 353.730 385.410,357.077 385.595,358.638 385.597 C 364.085 385.603,363.993 382.661,358.514 381.625 C 345.980 379.255,328.706 369.247,327.271 363.523 C 326.640 361.008,326.699 356.116,327.406 352.200 C 327.724 350.440,327.988 348.817,327.992 348.593 C 327.997 348.365,326.991 348.183,325.700 348.178 C 322.251 348.165,318.621 347.241,316.129 345.741 C 313.495 344.154,313.280 344.124,313.005 345.300 " stroke="none" fill="#fdf3dd" fill-rule="evenodd"></path><path id="path1" d="M134.880 11.680 C 133.948 12.612,134.445 14.461,136.120 16.300 C 137.444 17.753,136.672 17.362,132.770 14.600 C 129.048 11.966,127.701 11.515,126.800 12.600 C 126.519 12.938,125.647 13.200,124.800 13.200 C 122.971 13.200,122.217 13.986,122.533 15.566 C 122.687 16.334,122.568 16.895,122.183 17.214 C 120.570 18.553,121.412 20.117,126.877 25.938 C 129.804 29.056,130.322 29.799,129.994 30.412 C 128.976 32.314,130.148 36.483,132.350 38.791 C 134.155 40.683,135.924 41.195,140.674 41.198 C 147.848 41.202,148.467 41.836,156.528 57.432 C 166.830 77.365,169.508 81.194,175.224 84.169 C 176.929 85.056,177.680 85.754,178.447 87.163 C 178.997 88.173,180.305 90.569,181.353 92.487 L 183.258 95.973 181.758 97.287 C 172.680 105.235,172.797 120.437,182.042 134.489 C 188.217 143.874,191.028 151.851,192.159 163.200 C 192.715 168.775,193.063 168.963,195.501 165.000 C 199.860 157.916,200.624 149.718,197.870 139.600 C 195.325 130.255,193.307 121.962,192.425 117.226 C 191.572 112.646,188.641 103.429,186.657 99.090 L 185.601 96.780 186.701 96.356 C 187.369 96.098,188.975 96.037,190.800 96.200 C 198.561 96.893,198.894 96.797,201.608 93.104 C 202.983 91.233,202.533 90.640,207.916 101.416 C 214.992 115.581,218.750 121.717,227.104 132.745 C 244.101 155.181,244.576 164.242,229.304 174.709 C 218.901 181.838,217.037 187.107,219.875 201.359 C 222.473 214.404,219.947 219.628,209.000 223.855 C 196.138 228.821,189.997 235.450,188.411 246.079 C 186.295 260.262,199.173 275.795,218.090 281.878 C 222.129 283.176,222.202 283.327,219.695 285.200 C 198.464 301.065,178.519 311.921,155.626 320.073 C 147.636 322.919,140.404 324.704,129.153 326.608 C 120.658 328.046,117.280 328.882,108.800 331.648 C 102.348 333.753,93.604 336.320,74.000 341.863 C 71.250 342.641,66.730 343.980,63.955 344.839 C 61.180 345.697,58.819 346.400,58.707 346.400 C 58.596 346.400,58.408 345.675,58.289 344.790 C 58.080 343.226,55.485 337.687,53.956 335.538 C 52.854 333.991,52.850 333.997,57.297 331.600 C 59.542 330.390,63.994 327.889,67.189 326.042 C 88.737 313.589,93.605 311.605,108.047 309.393 C 135.115 305.247,174.249 279.679,184.466 259.466 C 186.766 254.916,185.153 254.384,182.688 258.880 C 171.343 279.578,133.047 304.223,106.680 307.794 C 95.667 309.286,86.744 312.606,74.400 319.808 C 68.295 323.370,58.007 329.182,52.800 332.012 C 38.375 339.850,29.018 344.860,26.440 346.128 C 17.715 350.420,18.650 356.406,29.535 365.944 C 31.132 367.343,33.527 369.773,34.859 371.344 C 43.808 381.903,45.722 382.700,61.130 382.293 C 71.611 382.015,76.698 380.540,77.780 377.465 C 78.718 374.797,76.628 373.640,70.023 373.172 C 62.449 372.635,59.761 371.126,55.335 364.928 C 50.030 357.499,49.590 353.870,53.735 351.732 C 54.431 351.373,55.767 350.495,56.704 349.781 C 58.440 348.457,63.149 346.806,73.600 343.857 C 92.327 338.572,100.669 336.138,106.800 334.169 C 116.994 330.895,121.454 329.738,128.192 328.620 C 159.544 323.418,191.414 309.051,219.760 287.339 C 224.381 283.800,224.407 283.790,227.200 284.437 C 243.306 288.169,271.231 287.449,299.200 282.582 C 307.184 281.192,313.745 280.400,317.270 280.400 L 319.254 280.400 318.478 281.500 C 313.427 288.655,312.884 292.307,312.734 320.200 C 312.621 341.072,312.563 342.670,311.888 343.623 C 311.443 344.252,310.855 346.563,310.366 349.611 C 308.955 358.403,307.503 363.444,304.523 369.898 C 301.178 377.141,301.480 381.790,305.470 384.482 C 308.750 386.695,311.300 386.912,326.000 386.234 C 333.072 385.907,336.779 386.028,354.920 387.175 C 360.965 387.557,362.811 387.291,363.788 385.895 C 365.722 383.135,363.348 380.563,357.983 379.603 C 348.057 377.828,330.922 368.329,329.126 363.606 C 327.525 359.394,329.660 346.628,334.237 333.049 C 345.824 298.676,351.687 270.803,349.010 262.813 C 345.238 251.549,324.626 247.024,267.700 244.962 C 263.685 244.817,260.400 244.573,260.400 244.420 C 260.400 244.267,260.914 243.075,261.543 241.771 C 270.451 223.295,273.547 206.407,270.597 192.385 C 270.159 190.306,270.031 187.361,270.103 181.086 C 270.292 164.586,267.603 160.594,246.600 146.193 C 235.604 138.654,232.741 132.878,236.395 125.610 L 237.990 122.437 239.295 122.969 C 248.051 126.539,252.323 125.271,251.317 119.400 C 250.884 116.869,250.908 116.677,251.831 115.316 C 252.978 113.626,253.012 113.297,252.138 112.331 C 251.522 111.651,251.522 111.549,252.138 110.869 C 253.009 109.906,252.973 109.236,251.996 108.196 L 251.192 107.339 252.696 106.368 C 255.309 104.680,254.911 102.913,251.391 100.577 C 247.453 97.962,246.528 96.518,246.325 92.668 C 246.121 88.779,244.760 85.447,241.810 81.613 C 231.947 68.796,212.473 70.408,204.400 84.711 C 202.639 87.831,203.191 88.199,199.000 81.108 C 189.641 65.273,185.518 59.950,169.168 42.600 C 161.622 34.592,159.420 32.105,152.704 24.000 C 150.106 20.865,141.797 13.814,138.226 11.714 C 137.158 11.086,135.491 11.069,134.880 11.680 M141.802 16.610 C 147.341 20.912,149.989 23.416,152.997 27.200 C 156.498 31.605,160.728 36.317,170.230 46.400 C 184.065 61.081,189.827 68.712,198.552 83.911 C 202.123 90.132,201.953 89.287,200.166 91.940 C 198.243 94.796,196.969 95.322,193.789 94.574 C 190.763 93.863,189.002 93.857,186.691 94.553 L 184.855 95.105 182.428 90.722 C 179.553 85.530,179.591 85.768,181.569 85.451 C 186.754 84.622,188.168 76.332,183.641 73.308 C 179.008 70.213,174.239 75.061,175.972 81.103 C 176.469 82.834,175.920 82.790,173.417 80.894 C 169.713 78.088,166.939 73.689,158.516 57.262 C 149.881 40.422,148.606 39.202,139.627 39.199 C 134.259 39.196,132.403 37.775,131.403 32.900 C 131.025 31.058,131.541 31.266,134.185 34.019 C 137.022 36.972,137.806 37.010,137.786 34.189 C 137.758 30.070,135.259 26.986,132.709 27.923 C 131.670 28.305,131.428 28.119,127.609 24.010 C 122.255 18.249,122.344 17.304,127.817 21.804 C 131.616 24.929,133.200 25.716,133.200 24.480 C 133.200 24.290,131.220 22.290,128.800 20.036 C 126.380 17.781,124.400 15.681,124.400 15.368 C 124.400 14.175,124.828 14.451,131.150 19.716 C 134.675 22.653,135.921 23.238,136.290 22.131 C 136.376 21.872,134.771 20.286,132.723 18.606 C 125.696 12.839,126.512 12.340,134.124 17.749 C 140.139 22.022,141.039 22.547,141.831 22.243 C 142.918 21.826,142.383 20.737,139.400 17.282 C 134.754 11.903,135.478 11.700,141.802 16.610 M135.288 31.180 C 135.667 31.937,135.904 32.629,135.817 32.717 C 135.614 32.920,133.227 30.312,133.212 29.871 C 133.181 29.013,134.677 29.957,135.288 31.180 M182.408 74.604 C 185.037 75.964,185.236 81.323,182.718 82.952 C 179.997 84.712,178.389 83.905,177.638 80.402 C 176.658 75.834,179.084 72.885,182.408 74.604 M229.573 75.418 C 234.439 76.565,239.012 80.160,242.100 85.265 C 244.006 88.416,243.987 88.652,241.803 88.899 C 238.816 89.235,237.643 90.491,234.577 96.632 L 231.842 102.108 227.332 101.838 C 223.717 101.622,222.592 101.687,221.667 102.165 C 216.073 105.058,223.797 116.035,229.900 113.866 C 230.540 113.639,230.800 113.698,230.800 114.073 C 230.801 115.562,233.167 119.468,234.719 120.544 L 236.366 121.685 234.738 124.924 C 230.221 133.907,233.184 139.059,249.336 150.310 C 265.776 161.762,268.394 166.049,268.408 181.542 C 268.413 187.927,268.594 191.544,269.022 193.800 C 271.545 207.130,268.006 224.911,259.446 241.910 L 257.990 244.800 253.237 244.800 C 233.569 244.800,219.840 239.358,212.483 228.647 C 210.585 225.883,209.446 226.673,211.058 229.635 C 216.547 239.720,232.491 246.395,251.100 246.399 C 254.797 246.400,256.800 246.547,256.800 246.818 C 256.800 249.995,238.359 269.942,226.275 279.835 L 223.951 281.739 221.875 281.225 C 186.319 272.426,178.681 236.567,209.989 225.417 C 221.540 221.304,224.596 214.467,221.438 199.800 C 218.911 188.060,220.905 182.590,229.920 176.532 C 246.517 165.381,246.255 155.224,228.771 131.929 C 219.657 119.786,216.583 114.753,208.904 99.414 L 203.892 89.400 205.246 86.849 C 210.333 77.264,219.376 73.015,229.573 75.418 M244.300 91.517 C 245.681 93.273,242.604 96.990,237.165 100.138 C 234.378 101.751,234.304 101.513,236.279 97.300 C 239.194 91.082,242.235 88.889,244.300 91.517 M245.200 97.139 C 245.200 97.685,247.874 100.282,250.225 102.018 C 252.776 103.903,252.894 104.416,250.988 105.325 C 249.212 106.172,248.896 106.977,249.763 108.445 C 250.578 109.825,250.387 110.251,248.795 110.601 C 246.971 111.002,247.195 112.247,249.200 112.847 C 251.050 113.402,251.092 113.521,249.948 114.976 C 249.091 116.065,249.066 117.392,249.837 120.837 C 250.401 123.357,248.412 123.710,242.800 122.085 C 239.043 120.997,239.001 120.970,239.098 119.792 C 239.827 110.882,238.715 107.661,234.268 105.803 C 232.157 104.921,232.470 104.053,235.292 102.960 C 237.735 102.014,242.538 98.994,243.776 97.626 C 244.550 96.771,245.200 96.549,245.200 97.139 M185.922 102.084 C 188.196 107.475,190.109 114.125,191.363 121.000 C 191.925 124.080,192.812 128.130,193.335 130.000 C 197.715 145.672,197.751 145.860,197.514 151.888 C 197.352 155.994,197.162 157.024,196.035 159.900 C 194.523 163.758,194.168 163.950,193.814 161.100 C 192.537 150.806,189.236 141.959,183.480 133.400 C 175.113 120.960,174.590 107.302,182.179 99.500 C 184.106 97.520,183.951 97.413,185.922 102.084 M228.117 103.818 C 231.243 104.139,231.437 104.699,228.667 105.402 C 224.972 106.341,224.616 108.224,227.700 110.523 C 230.276 112.443,228.318 113.353,225.596 111.500 C 221.127 108.457,220.392 102.453,224.600 103.366 C 225.040 103.461,226.623 103.665,228.117 103.818 M230.070 108.239 C 229.899 109.754,229.847 109.780,228.635 108.986 C 227.363 108.153,227.328 107.683,228.500 107.214 C 229.820 106.685,230.216 106.943,230.070 108.239 M234.723 108.010 C 237.118 109.470,238.127 113.357,237.343 118.100 C 236.631 122.411,232.429 116.184,232.081 110.300 C 231.872 106.770,232.210 106.477,234.723 108.010 M279.400 247.221 C 329.929 249.416,347.026 254.461,347.889 267.434 C 348.482 276.342,340.375 310.908,332.871 331.471 C 332.236 333.210,331.122 336.696,330.394 339.217 C 328.827 344.646,329.085 344.200,327.935 343.473 C 325.985 342.241,322.244 341.444,318.304 341.422 C 313.570 341.395,313.890 342.035,314.430 333.667 C 314.694 329.578,314.756 322.359,314.589 315.000 C 314.144 295.256,315.508 287.947,320.849 281.467 L 322.058 280.000 326.329 279.976 C 333.694 279.935,336.240 279.143,335.207 277.213 C 333.553 274.122,327.063 274.091,322.681 277.152 C 321.167 278.210,320.583 278.352,316.800 278.580 C 310.918 278.936,303.659 279.870,296.400 281.206 C 277.405 284.702,255.317 285.936,239.600 284.378 C 234.999 283.922,227.591 282.783,226.897 282.424 C 226.576 282.259,228.140 280.664,231.199 278.034 C 241.624 269.073,254.003 255.420,258.082 248.384 L 259.135 246.569 264.467 246.687 C 267.400 246.751,274.120 246.992,279.400 247.221 M331.540 276.839 C 333.641 277.572,332.966 278.000,329.700 278.005 C 327.995 278.008,326.150 278.123,325.600 278.260 C 324.046 278.647,325.176 277.656,327.050 276.988 C 328.962 276.306,329.920 276.274,331.540 276.839 M50.165 337.703 C 50.502 339.956,52.087 343.312,54.028 345.883 C 55.980 348.469,56.080 348.085,52.947 350.063 C 47.534 353.482,47.741 357.380,53.780 365.800 C 58.884 372.915,61.273 374.353,68.804 374.844 C 81.218 375.654,77.410 379.526,63.250 380.491 C 47.605 381.558,45.072 380.561,35.840 369.699 C 33.922 367.443,31.144 364.632,29.665 363.452 C 24.857 359.616,22.753 356.473,22.701 353.049 C 22.659 350.282,23.031 349.983,33.089 344.688 C 38.320 341.934,44.040 338.864,45.800 337.866 C 49.764 335.618,49.851 335.615,50.165 337.703 M54.158 339.603 C 56.191 343.458,56.982 345.600,56.375 345.600 C 55.749 345.600,53.667 342.427,52.869 340.258 C 50.905 334.916,51.521 334.602,54.158 339.603 M323.800 343.881 C 329.015 345.516,329.423 346.608,324.700 346.291 C 321.358 346.067,318.639 345.314,316.807 344.106 L 315.800 343.442 316.800 343.149 C 318.113 342.765,321.301 343.098,323.800 343.881 M316.129 345.741 C 318.621 347.241,322.251 348.165,325.700 348.178 C 326.991 348.183,327.997 348.365,327.992 348.593 C 327.988 348.817,327.724 350.440,327.406 352.200 C 326.699 356.116,326.640 361.008,327.271 363.523 C 328.706 369.247,345.980 379.255,358.514 381.625 C 363.993 382.661,364.085 385.603,358.638 385.597 C 357.077 385.595,353.730 385.410,351.200 385.186 C 341.736 384.348,330.201 384.049,323.553 384.469 C 304.758 385.657,300.716 382.665,305.899 371.400 C 309.001 364.657,310.130 360.894,311.780 351.800 C 313.357 343.107,312.874 343.780,316.129 345.741 " stroke="none" fill="#ba4b2f" fill-rule="evenodd"></path></g></svg>